<svg xmlns="http://www.w3.org/2000/svg" viewBox="0 0 612 792"><defs><style>.cls-1{fill:#99c8dc;}.cls-2{fill:#fff;}.cls-3{fill:none;stroke:#000;stroke-linecap:round;stroke-linejoin:round;stroke-width:2px;}.cls-4{font-size:48.43px;fill:#e08193;font-family:AdvocateC63, Advocate C63;letter-spacing:0em;}</style></defs><title>ludwigMiddel 1</title><g id="Laag_2" data-name="Laag 2"><g id="Laag_1-2" data-name="Laag 1"><rect class="cls-1" width="612" height="792"/><g id="EM83uW"><path d="M331.14,460.26c45.95,0,91.9-.3,137.84.25,9.52.11,19.3,2.44,28.43,5.37,20.62,6.64,29.7,18.45,30.43,37.41.85,22.12-7,38.85-27.05,44.94-26.66,8.1-54.28,14.57-81.93,17.57-60.45,6.55-121.26,10-181.2-4.67-24.17-5.92-48.36-12.66-71.48-21.73C143.9,530.66,137.39,516.34,140,493c1.73-15.57,13.53-26.32,35.14-31.18a107.45,107.45,0,0,1,22.68-2.94c44.44-.27,88.87-.13,133.3-.13C331.13,459.24,331.13,459.75,331.14,460.26Z"/><path d="M213.62,442.54c-42.83-.25-69-24.88-68.82-64.81.18-41.26,31.46-71.26,73.91-70.9,36.12.31,61.65,27.62,61.48,65.78C280,421.22,259.42,442.81,213.62,442.54Z"/><path d="M467.29,442.31c-47-.6-75.59-24.94-75.09-64,.55-42.74,30.31-72.05,72.76-71.67,38.27.34,70.3,35.49,69.81,76.62C534.35,418.54,506.61,442.82,467.29,442.31Z"/><path d="M419,728.54c-45.69,27.45-149.68,12.66-196.72-28C285.08,730,351,737,419,728.54Z"/><path d="M391.05,218.86c.78,7.42-1.23,18.22,2.87,21.59,10.36,8.53,22.77,16.07,35.59,19.81,39.53,11.51,79.63,21,119.5,31.38,4.3,1.11,8.53,2.5,12.79,3.76-.12,1.25-.25,2.5-.37,3.75-11.94-1.43-24.43-1.07-35.72-4.59-43.07-13.42-86.17-27-128.38-42.83-16.95-6.36-18.3-17.85-8.87-31.82C388.9,219.25,390.23,219.18,391.05,218.86Z"/><path d="M567.3,421.42c-9.18,50-1,96.32,28.3,139.05C561.45,552.43,543.54,465.77,567.3,421.42Z"/><path d="M99,569.64c21.4-50.48,22-102.05,8.46-156.21C137.08,447.64,128.28,536.49,99,569.64Z"/><path d="M117.41,301.09c18.47-4.5,36.89-9.26,55.44-13.44,27.85-6.27,56-11.38,83.59-18.53,11.6-3,25.34-6.37,25.33-25,6.72,14.54,4.19,21.72-10.82,25.77-32.48,8.76-65.32,16.2-98.1,23.84-18.08,4.21-36.33,7.74-54.51,11.57Z"/><path class="cls-2" d="M227.21,469.47c81.71,0,163.43-.2,245.14.28,9.33.05,18.87,3.22,27.9,6.18,12.89,4.24,20.07,13.68,20.4,27.51.34,14.6-2.73,28.21-17.91,34.08-15.6,6-31.48,12.63-47.83,15.23C371.59,566,288.29,567.92,205.8,546.56c-12.22-3.17-24.12-8.28-35.49-13.87-12.4-6.1-21.33-15.9-22.57-30.58-1.69-19.87,13.29-33.2,39.61-34.65,13.25-.73,26.58-.13,39.87-.13Z"/><path class="cls-2" d="M273.86,376.17c-.27,41.24-18.64,60.15-58.17,59.86s-65.54-24.31-64.85-59.79c.74-38.41,28.23-61.71,72.33-61.31C251.62,315.19,274.08,342.33,273.86,376.17Z"/><path class="cls-2" d="M468.36,435.61c-44.16-.35-70.16-20.91-69.95-55.29.26-40.16,26.83-67.87,65-67.76,35.19.1,65.49,33,65.45,71.17C528.8,415,504.48,435.89,468.36,435.61Z"/><path d="M355.67,481.82c29,2.86,72.07,6.6,114.91,11.89,6.33.78,11.75,8.92,17.6,13.65-4.88,5.22-9,13.74-14.75,15.09-25.67,6-51.73,10.52-77.8,14.62-62.62,9.84-123.75-3.14-185.06-12.91-2-.32-4.55-.38-5.83-1.61-7.27-7-14.24-14.42-21.3-21.68,7.86-4.31,15.52-11.84,23.64-12.38C251.77,485.52,296.58,484.26,355.67,481.82Z"/><path d="M168.14,367.84c-.06-29,16.67-46.08,45.12-46.1,27.93,0,41.21,14.5,41.2,45.05,0,26.89-15.18,43.15-40.45,43.37C183.25,410.42,168.19,396.53,168.14,367.84Z"/><path d="M465,406c-30.06-.49-47.92-17-47.36-43.72.51-24.39,15.66-39.68,38.92-39.31,26.33.43,50.26,18.63,49.65,37.78C505.48,383.53,484.71,406.34,465,406Z"/><path class="cls-2" d="M220.6,364.87c14.08,2.43,17.93,9.68,17.78,18.41-.19,10.77-7.09,16.37-18,16.42-10.23.05-20.7-3.59-18.11-14.7C204.08,377.28,214.2,371.51,220.6,364.87Z"/><path class="cls-2" d="M229.57,329.42c4.4,7.38,9.89,13.05,8.72,15.39-2.39,4.78-8,9.89-13,10.73-3,.5-10.93-8.1-10.15-10.51C216.78,340,222.71,336.36,229.57,329.42Z"/><path class="cls-2" d="M203.64,365.88c-7,6-10.32,11-14.33,11.72-9.42,1.61-13.1-5.51-12-13.31.59-4.32,5.44-8.05,8.36-12.05Z"/><path class="cls-2" d="M482.44,359.59c2.05,3.65,7.68,9.48,8.36,15.84,1.17,10.93-11.75,22.43-22.62,22.38-11.25,0-17-6.17-17-17.05S464.83,359.09,482.44,359.59Z"/><path class="cls-2" d="M454.24,362.2c-7,5.87-12.41,12.25-14,11.41-6-3.14-10.78-8.65-16-13.28,3.81-3.82,8.18-11.18,11.31-10.68C441,350.52,445.82,356.17,454.24,362.2Z"/><path class="cls-2" d="M471.2,357.84l-14.38-14.12c4.48-3.88,8.57-9.94,13.59-10.86,3.34-.61,10.42,5.61,11.34,9.77C482.49,345.93,476.42,350.74,471.2,357.84Z"/><path class="cls-3" d="M400.27,562.91c35.65-2.88,71.52-4.49,104.35-21.42,15.92-8.21,20.23-21.68,20.08-38.41-.13-15.72-8.91-25.07-21.78-30.36-10.08-4.15-21.3-7.45-32.09-7.67-78.74-1.62-157.49-2.84-236.24-3.07-21-.06-42,3.15-62.86,6-14.63,2-26.32,8.78-27.66,25.87-1.48,18.92,4.83,32.77,22.92,41.62,33.09,16.18,68.4,24.46,104.46,26.87,42.28,2.82,84.84,1.56,127.29,2.07"/><path class="cls-3" d="M223.85,702.51c62.69,33.55,128.55,43,197.9,26.08"/><path class="cls-3" d="M389.53,219.28c-5.06,22.28-4.24,25,18.47,35.16,44.09,19.74,90.34,32.41,138,40,5.15.82,10.23,2,15.34,3"/><path class="cls-3" d="M283.68,251.5c.82,10-6,13.28-13.81,15.3q-42.15,10.88-84.37,21.5C163,294,140.5,299.56,118,305.19"/><path class="cls-3" d="M108.8,412.57c20.82,54.56,15,107.58-9.2,159.54"/><path class="cls-3" d="M180.9,345.07c-10.83,14.95-10.83,25.08,0,39.89"/><path class="cls-3" d="M199.31,400.3a31.23,31.23,0,0,0,36.19-.84c6.39-4.74,6.76-17.57,9.83-26.77"/><path class="cls-3" d="M243.8,354.28c2.06-21.91-7.87-29.36-30.68-23"/><path class="cls-3" d="M444,337.4c-27.63,10-30.31,19.1-13,44.49"/><path class="cls-3" d="M432.48,383.42c7.67,5.63,14.58,14,23.16,16.37,26.12,7.32,43.37-9.94,41.27-39.38"/><path class="cls-3" d="M496.91,358.88c-1.53-3.07-3.67-6-4.5-9.23-5.81-22.67-27.61-30-47.65-12.25"/><path class="cls-3" d="M566,418.71c-2.05,15.85-5.22,31.65-5.91,47.56-1.59,36.42,11.72,68.11,33.52,96.64"/><path class="cls-3" d="M490.78,352.74,457,358.88"/><path class="cls-3" d="M444.76,338.94c12.36,13.29,13.91,26.59,0,39.88"/><path class="cls-3" d="M208.51,362l-12.27,19.94"/><path class="cls-3" d="M450.89,309.79c-28.39,7.2-46.66,23-52.62,53.6-5.52,28.39.57,48.79,23.4,64.63,23.22,16.1,78.44,16.59,98.54-10.64,12.27-16.62,14-34.62,8.48-52.23-13.38-42.76-32.18-55.36-76.26-55.36"/><path class="cls-3" d="M205.45,311.32c-34.76,5.9-52.81,27.72-58.28,61.37-5,30.75,25.18,65.92,56.74,65.9,19.47,0,40.43,3.91,55-13.91,6.31-7.71,12.05-16.67,15.24-26,11.31-33.07-3.92-71.88-33.64-83.8-10-4-22.31-2.52-33.56-3.55"/></g><text class="cls-4" transform="translate(290.48 124.46) rotate(23.15)">AANDACHT!</text></g></g></svg>