<svg xmlns="http://www.w3.org/2000/svg" xmlns:xlink="http://www.w3.org/1999/xlink" viewBox="0 0 690.31 339.21"><defs><style>.cls-1{fill:none;}.cls-2{clip-path:url(#clip-path);}.cls-3{fill:#fff;}</style><clipPath id="clip-path" transform="translate(-25.53 -180.7)"><rect class="cls-1" width="974.37" height="689.34"/></clipPath></defs><title>sMiddel 1</title><g id="Laag_2" data-name="Laag 2"><g id="Laag_1-2" data-name="Laag 1"><g class="cls-2"><path d="M693.26,222.91l7.54.56a16.12,16.12,0,0,1,.28,4.16c-.49,2.66.4,4.69,1.93,6.74,2.19,2.9,4.11,6,6.29,8.9,1.19,1.59,3.22,2,4.29,4.25,3.22,6.73,1.74,13.64,1.84,20.51,0,1.58.23,3.16.41,5.59-1.5,1.71-3.45,3.41-7.29,2.2-2.36-.74-5.3.54-8,.61-1.86.05-3.75-.7-5.6-.61q-19,1-38,2.14-22.1,1.35-44.16,2.82-23.65,1.56-47.3,3.21c-3.63.25-7.26.69-10.89.79-2.48.07-3.77,1-4.33,3.49-.4,1.77-1.46,3.39-2.41,5.49-4-3.05-8.28-2.19-12.25-2.15-11.26.11-22.52.71-33.78,1.23-5.72.26-11.43.89-17.15,1.08-3.75.12-7.52-.25-12-.42.13,1.12.22,2.72.52,4.28,1.49,7.69.34,14.84-4.25,21.31a8,8,0,0,1-6.3,3.84c-14.52,1.34-29,3.08-43.49,4.57a39.75,39.75,0,0,1-9.86.18c-6.56-1-12.08,1.29-17.6,4.27-4.36,2.35-7.76,5-10,9.95-2.18,4.74-6.31,8.61-9.71,12.76-7.1,8.67-13.92,17.61-21.57,25.76-4.88,5.21-11.62,8.09-18.73,9.62-.85.18-1.72.23-2.57.4-5.12,1-8.36,3-9.23,9.26a21.12,21.12,0,0,1-9.51,14.83c-4.92,3.19-10.25,5.8-13.87,10.73-.75,1-2.28,1.5-3.83,2.45,4.38,5.65,6.44,12.14,7.34,19,1,7.68-.89,14.81-4.47,21.54a55.47,55.47,0,0,1-4.14,6.54c-.66.92-2.06,2.27-2.69,2.07-3.46-1.1-5.82,1.12-8.61,2.2-3.62,1.4-6.77-.23-8.64-3.71a18.61,18.61,0,0,0-3.37-4.29c-1.36-1.33-3.25-2.14-4.49-3.55-4.58-5.22-10.88-6.63-17.17-7-6.87-.39-13.33,2.08-19.11,5.88a48.58,48.58,0,0,0-13.72,14.08c-3.28,4.92-6.83,9.62-12.24,12.5-3.75,2-7.65,3.38-12,3-6.57-.51-13.13-1.12-19.64-1.68-6.73,7.56-13.41,15.05-21.79,20.67a22.91,22.91,0,0,1-9,3.74,67.38,67.38,0,0,1-16.57.93c-10-1-20.06-1.31-29.9-3.91-15.71-4.14-30-10.72-41.71-22.22a92.21,92.21,0,0,0-7.51-6.43,18.26,18.26,0,0,0-11-4.07c-4.07-.12-5.76-1.77-6.82-5.7,2.73-1.83,5.79-2,8.95-1.76,9.58.77,18.55,3.86,24,11.83,9.28,13.55,23.73,16.82,37.86,20.6a73.5,73.5,0,0,0,32,1.45c6.57-1.18,12.16-4,16.15-9.55,3.2-4.49,7.07-8.08,12.73-9.26a6.91,6.91,0,0,0,2.69-1.47c5.23-4.19,11.29-5.08,17.69-4.41,3.11.32,6.18,1,9.29,1.33,6,.69,10.9-1,14.48-6.17,3-4.27,6.06-8.5,9.4-12.49,6.72-8,15.27-13.55,24.92-17.45,1.11-.45,2.24-.86,3.31-1.27-1.2-4.95-3.92-7.5-9.31-6.81-.24,1.21-.4,2.55-.78,3.82-1,3.54-4,4.62-6.74,2.15a27.07,27.07,0,0,1-5.52-6.82c-4.15-7.51-5.36-15.68-4.29-24.59l-9.33-6c-1.54,2.94-3,5.24-4,7.71-2.69,6.53-6.34,12.81-5.62,20.31a12.23,12.23,0,0,1-.18,3.62c-.34,1.68-1.71,2.45-3.13,1.71-5.19-2.7-10.84-1.65-16.25-2-22.85-1.64-45.73-2.9-68.61-4.29-4.84-.29-9.68-.6-14.53-.85-3.72-.19-5.59-2.35-6.41-5.75-1.09-4.55-2.21-9.09-3.32-13.63,0-.17,0-.35-.07-.52-1-3.29,1.61-6,1.7-8.81s-.64-5.63.69-8.87c1.8-4.37,2.17-9.4,2.76-14.19,1.25-10.27,3.52-20.21,8.87-29.17a78.59,78.59,0,0,1,28.54-28.35c8.21-4.68,17.54-7.46,26.51-10.71,5.2-1.89,10.66-3.07,16-4.51,10.46-2.8,21-2.34,31.46-.18,7.19,1.48,9.36,5.38,9,12.56C205.7,342,215,356.58,233.3,361a11.53,11.53,0,0,0,9.4-1.28c-3.51-6.52-7.12-12.84-12-18.24-4.09-4.53-5.41-8.77-2.63-14.1,2.66-5.11,6.11-9.7,11.14-12.82.56-.35,1.07-.75,1.75-1.23-.67-1.59-1.17-3.05-1.88-4.41-4.52-8.59-9.41-17-13.54-25.78-2.83-6-7.26-8.18-13.49-8.61-21.3-1.49-42.58-3.29-63.89-4.81-13.66-1-27.35-1.73-41-2.47-6.46-.35-11,2.52-13.53,8.52-7.81,18.73-15.15,37.62-21.28,57a27.91,27.91,0,0,1-4.5,8.07c-3.34,4.41-6.93,8.66-10.65,12.77a49.07,49.07,0,0,1-15.83,11.67c-3,1.39-6.21,2.08-9.39-.21a6.14,6.14,0,0,1-2.81-6.24c.35-2.36,2.64-2.34,4.38-3,2.73-1,5.72-1.85,8-3.55,9-6.77,16.09-15,20.09-25.92,7-19.05,14.49-37.92,21.7-56.89,1.94-5.11,5.69-8.13,10.56-10.11,5.54-2.26,11.2-3.68,17.24-3.24,9.51.69,19,1.24,28.53,2q38.41,3.07,76.82,6.33c4.28.36,8.51,1.28,12.85,2A76.21,76.21,0,0,0,251,241.87a48.74,48.74,0,0,0,3.85-7.93,21.89,21.89,0,0,0-7.81-25.33c-2.61-2-5.33-3.82-8.07-5.61a4.08,4.08,0,0,0-5.26.34,17.94,17.94,0,0,1-3.59,2.07c-1.82.9-3.76,1.32-5.17-.58-1.29-1.74-1.92-3.75-.54-5.81s3.5-4.09,4.31-6.46a15.93,15.93,0,0,1,10.67-10.4,30.57,30.57,0,0,1,20.43.65c1.5.54,2.69,2.11,3.82,3.39a56.35,56.35,0,0,1,3.32,4.57c3.24-1.38,6.38-2.71,9.51-4.07a41.48,41.48,0,0,1,4.28-1.88c8.31-2.55,12.5-.73,16.67,6.86,2.1,3.82,4,7.66,4.69,12a30.39,30.39,0,0,0,1.92,5.93c2.49,6.51,8.46,8.74,15.17,6.72,5.9-1.78,9.86-4.6,11.62-10.85,1-3.56,3.48-6.74,5.5-10s3.53-3.69,7.39-2.37c.82.27,1.86,1.05,2.4.78,3.81-1.88,5.2,1.21,6.79,3.34,6.1,8.22,12,16.56,17.68,24.35,3.21.27,5.87.67,8.54.7,10.07.13,20.16.4,30.23.14,15.79-.39,31.58-1.15,47.37-1.81,3.15-.13,6.14-.16,8.92,1.88,1.14.83,2.94.79,4.44,1.09,1.1.22,2.21.34,3.22.49a32.09,32.09,0,0,1-4.49,18.29c3.3.46,5.62,1,7.95,1.09a643,643,0,0,0,88-1.12c27.18-2.21,54.41-3.66,81.63-5.38,12.64-.8,25.3-1.45,38-2.17,3.22-.18,5.37-2,6.61-5.55C691.74,227.09,692.55,224.88,693.26,222.91ZM199.69,397.73c-.79-1.22-2.72-2.39-1.12-3.93a6,6,0,0,1,4.12-1.39c2,.11,4,.92,6.42,1.56a39,39,0,0,0,4.32-4.75c3.21-4.85.66-10.34-5-11.19-6-.89-9.26-5.77-7.32-11.81,1.07-3.36,3.17-6.4,4.71-9.38,6.05,1.33,6.87,2.16,7.48,7.18-2.5,1.6-5.27,3.26-4.68,7.3a7.62,7.62,0,0,0,2.32,1c6.42.3,12,3.26,17.8,5.48,9.06,3.46,18.28,6.51,27.32,10,4.18,1.62,8.47,3.37,12.06,6a93.62,93.62,0,0,0,17.55,10c4.87,2.13,9.89,1,14.83,1.36,1,.07,2.15-1,3-1.82,1.26-1.18,2.28-2.62,3.48-3.87,3.5-3.64,3.81-7.81,2.77-12.56-1.53-7-5.38-11.06-12.65-11.66a18,18,0,0,1-3-.69c-11.22-2.83-21.16-7.71-28.08-17.46a2.17,2.17,0,0,0-.88-.59c-5.39,3.27-10.4,6.69-15.75,9.46a24.13,24.13,0,0,1-17.23,2,46.8,46.8,0,0,1-26.67-18c-4.67-6.29-8.58-13-7.15-21.53.37-2.24-.57-4.69-.92-7.18-6-.93-11.6-2.19-17.39-1-5.42,1.13-10.87,2.15-16.32,3.14-6.6,1.2-12.61,3.57-17.68,8.15a124.81,124.81,0,0,1-10.83,8.95c-8.55,6.13-15.33,14-22.2,21.83a35,35,0,0,0-3.93,5.5c-5.08,8.61-7.7,18.18-10.12,27.74-1,3.91-.74,8.14-1.08,12.61,6.07.65,11.39,1.7,16.72,1.7,14.66,0,29,2.92,43.51,4.17,11,.95,22.13.91,32.42,4.44l8.22-11.28c-2.4-1.32-4.78-2.64-7.17-3.92-14.41-7.77-17-21.85-6.84-33.8.45-.53,1-1,1.4-1.55a5.45,5.45,0,0,1,6.87-2.2c2.79,1.14,6.67,1.67,6,6.29a4.69,4.69,0,0,1-.66.8,5.23,5.23,0,0,1-1.32.8c-4.87,1.83-7.2,5.85-8.66,10.42a9.29,9.29,0,0,0,5.15,11.28c2.05.89,4.23,1.49,6.35,2.22.35.93.42,2.24,1.09,2.72,5,3.58,10.18,7,15.61,10.69,4.09-6.21,8.47-4.14,12.91-1.5,1.33.8,2.77,1.43,4.09,2.26,1.12.71,2.12,1.61,3.17,2.42-.24-2.55-2.55-3.95-1.83-7.15a47.41,47.41,0,0,1,5.32,2.34,32,32,0,0,0,14.31,4.3,31.35,31.35,0,0,1,8.57,1.95c5,1.88,9.88,4.2,14.86,6.23,1.82.74,3.77,1.16,6,1.83-.41-2.92-.88-5.1-1-7.3-.17-3.44,3.57-2.55,5.61-4.7a40.58,40.58,0,0,0-4.88-3.62c-6.4-3.44-12.89-6.72-19.33-10.06-2.77-1.44-5.44-3.1-8.3-4.31-12.18-5.14-25-8.36-37.7-11.77a6.21,6.21,0,0,0-1.77.12c.23,1.44.51,2.74.65,4.05.52,4.84-1.87,8.41-5.4,11.19-3.25,2.56-6.85,3.86-10.63.68C200.87,397.69,200.2,397.8,199.69,397.73Zm144.37-86.12c3.58,0,6.88.2,10.15,0,8.83-.63,17.63-1.73,26.47-2.13q28.89-1.29,57.8-2c5.27-.13,10.64-1.84,15.88.38a1.57,1.57,0,0,0,1-.13c2.92-1,5.85-1.93,8.76-2.93,3.57-1.23,5-4.11,4.14-7.72-.71-2.9-2.89-3.49-4.84-4.68.44-.73.72-1.15.95-1.6,1.82-3.56,1-5.16-2.82-5.53-1.37-.13-2.78,0-4.16-.07-2.15-.13-4.3-.35-7.05-.58,3.26-6,9-2.71,12.46-4.78-.46-8.6-1.6-16.93-1.14-25.17s2.51-16.25,4-25.09c-5.39-.14-10.54-.36-15.7-.39-3.81,0-7.62.19-11.44.3-8.83.26-17.67.7-26.5.75-12.49.09-25,.17-37.47-.3-6.19-.23-11.76-2.42-15.17-8.47-2.71-4.83-6-9.33-9.1-13.93a37,37,0,0,0-3.19-3.55c-1.36,3.74-2.35,6.63-3.45,9.49-1.25,3.22-2.43,6.49-3.92,9.6s-3.82,4.87-7.55,4c-1.5-.36-3.25-.93-4.6-.51-5.28,1.68-10.25.22-15.36-.78-7.95-1.55-13.66-5.74-16.56-13.34-1.73-4.53-3.09-9.2-4.63-13.8-1.71-5.07-4.94-6-9.53-3.42a66.84,66.84,0,0,1-12.2,5.59c-4.1,1.33-6.47.05-8.76-3.55-1-1.61-1.63-3.53-2.86-4.94-.89-1-2.55-2.12-3.75-2-3.37.35-6.78,1.1-9.55,4.31a39.16,39.16,0,0,0,4.46,2.92c7.56,3.51,13.58,8.26,17.4,16.15a28.41,28.41,0,0,1,3,13.77c-.35,10.82-5.9,19.47-12.62,27.27-4.62,5.35-10.19,9.87-15.38,14.73-2,1.88-4.13,3.65-6.36,5.61,1.35,3.44,2.42,6.74,3.9,9.83,2.55,5.31,5.35,10.5,8.07,15.72,3.84,7.35,7.84,14.62,11.52,22.05,2.4,4.87,4.36,10,6.65,15.26,1.82-1.4,3.12-2.53,4.54-3.49,4.3-2.93,8.58-5.89,13-8.65,3-1.85,6.24-2.55,10.84-1.57-4.23,4.49-8.92,6.58-13.41,8.86s-9.34,4.26-14.07,6.39c.68,3.52,1.43,7.35,2.12,10.86,11.88,11,26.59,16.5,41.94,21,.23-1,.51-2.2.77-3.3,6.15.86,12,1.55,17.71,2.53,3.74.63,6.89-.08,9.46-2.9,1.41-1.54,2.81-3.09,4.08-4.74,7.5-9.76,15-19.56,22.75-29.74-1.28-1.2-2.48-2.36-3.71-3.48-1-.92-2.61-1.61-3-2.74-1.61-4.38-5.1-5.4-9.09-5.56a12.54,12.54,0,0,1-9.11-4.53Zm304-64.37c-.09-.05-.35-.35-.61-.34-10.58.19-21.17.35-31.75.65-12.66.36-25.32.95-38,1.26-15.62.38-31.25.49-46.87.88-16.82.42-33.64,1.07-50.47,1.56-4.11.12-8.23,0-12.7,0-2.78,7.09-1.27,14.08.64,21.18a19.57,19.57,0,0,0,2.23.31c11.46.24,22.93.38,34.38.72,9.55.28,19.11.54,28.63,1.32,4.36.36,9.63-.14,11.46,5.7,4.56-.56,8.8-1.35,13.07-1.57,21.68-1.07,43.37-2,65.06-3,23.94-1.11,47.89-2.15,71.82-3.47,5.1-.29,10.14-1.68,14.92-2.51,1.84-8.34,1.71-15.77-1.58-22.24-1.53-.48-3-.51-3.74-1.24-2.57-2.42-4.91-5.09-7.57-7.91-2.74,3.48-5.57,5.7-10,3.87-1-.44-2.64.42-4,.7-3.87.84-7.73,1.75-11.62,2.5a46.81,46.81,0,0,1-5.18.49c-1.68.13-3.45-.35-5.07.5a7.8,7.8,0,0,0,2.45,1.2c5.29,2.16,6.8,5.25,5.29,10.73-.68,2.46-2.33,3-4.16,1.22a7.4,7.4,0,0,1-1.76-2.53c-1.12-2.86-3.54-4.27-6.08-5.38-3.93-1.73-7.57-.29-9.74,3.34A44.07,44.07,0,0,1,643,261.1c-2.8,3.31-4.66,3.85-8.61,2.13a14,14,0,0,1-5.4-3.84,8.48,8.48,0,0,0-7.19-3.41c-1.73,0-3.47.15-5.21.1-4.73-.15-9.54.2-15-2.13a22.73,22.73,0,0,1,3-1.19c3.74-.74,7.55-1.22,11.25-2.14,7.45-1.87,13.93-1.16,19.33,5.17,3,3.45,5.89,2.7,8.36-1.27C645,252.09,646.51,249.69,648.06,247.24ZM242.78,443.07c3.08,1.67,5.56,2.83,7.84,4.3,3.18,2,6.85,3.78,9.18,6.58,4.06,4.9,9.25,8.29,14,12.23a6,6,0,0,0,6.77.84c6.51-2.82,10.64-9.47,10.8-17.42.09-4.24-1.36-7.36-5.34-9.19a26.09,26.09,0,0,1-4.46-2.65c-8.13-5.94-17.49-8.92-27.08-11.32a15.49,15.49,0,0,0-3.49,0C252.31,433.85,248.47,438.35,242.78,443.07Zm-54.3-17.22c-8.69-1.11-16.53-2.4-24.43-3.07-14.14-1.21-28.32-2.07-42.49-3-6.74-.46-13.47-.93-20.22-1.21-1.4,0-3.38.29-4.15,1.23-2.7,3.3-1,7.18,3.31,7.87,1.53.24,3.1.38,4.65.47,12.64.67,25.15,2.19,37.7,3.95,13.84,1.95,28,2,42,2.83a9.52,9.52,0,0,0,2.17-.43C187.43,431.87,187.87,429.36,188.48,425.85Zm71.64-77.62c-1.63-3.06-2.94-5.47-4.21-7.9-2.23-4.29-4.39-8.63-6.69-12.88a5.35,5.35,0,0,0-7.81-2.09c-4.35,2.86-6.11,7.2-4.16,12.12,2.41,6.09,5.35,12,8.11,17.92a3.07,3.07,0,0,0,4.26,1.8C254.27,355.45,258.3,353,260.12,348.23Zm-17,90.26c3.93-2.35,5.83-5.35,3.92-7.69a37.43,37.43,0,0,0-8.36-7.41c-2.37-1.56-5.39-2.09-8.08-3.19-3.77-1.54-6-.82-7.93,2.68-2.36,4.27-.11,9,4.52,10.37C232.46,434.75,237.62,436.66,243.11,438.49ZM373.88,338c-3.92,2.31-5.73,6.1-7.85,9.59-5.66,9.37-11.48,18.59-20.53,25.2a16.31,16.31,0,0,0-3.07,2.79,12.47,12.47,0,0,1-7.57,4.25c-5.05,1-10.13,2-15.45,3-.11,3,2.06,2.76,4.13,2.34,7.51-1.52,14.84-3.64,21.62-7.32a10.54,10.54,0,0,0,2.79-2.28c6.42-7.25,13.74-13.72,18.79-22.17,2.13-3.55,5-6.69,7.57-9.95C375.69,341.73,376.17,340.15,373.88,338Zm1.63-5.27c4.46-3.19,6.84-7,6.14-12.4l-13.29,1.75C369.46,326.93,373.52,329.12,375.51,332.75Z" transform="translate(-25.53 -180.7)"/><path class="cls-3" d="M344.06,311.61l-4.23,5.22a12.54,12.54,0,0,0,9.11,4.53c4,.16,7.48,1.18,9.09,5.56.42,1.13,2,1.82,3,2.74,1.23,1.12,2.43,2.28,3.71,3.48-7.78,10.18-15.25,20-22.75,29.74-1.27,1.65-2.67,3.2-4.08,4.74-2.57,2.82-5.72,3.53-9.46,2.9-5.75-1-11.56-1.67-17.71-2.53-.26,1.1-.54,2.33-.77,3.3-15.35-4.47-30.06-10-41.94-21-.69-3.51-1.44-7.34-2.12-10.86,4.73-2.13,9.5-4.08,14.07-6.39s9.18-4.37,13.41-8.86c-4.6-1-7.88-.28-10.84,1.57-4.42,2.76-8.7,5.72-13,8.65-1.42,1-2.72,2.09-4.54,3.49-2.29-5.3-4.25-10.39-6.65-15.26-3.68-7.43-7.68-14.7-11.52-22.05-2.72-5.22-5.52-10.41-8.07-15.72-1.48-3.09-2.55-6.39-3.9-9.83,2.23-2,4.35-3.73,6.36-5.61,5.19-4.86,10.76-9.38,15.38-14.73,6.72-7.8,12.27-16.45,12.62-27.27a28.41,28.41,0,0,0-3-13.77c-3.82-7.89-9.84-12.64-17.4-16.15a39.16,39.16,0,0,1-4.46-2.92c2.77-3.21,6.18-4,9.55-4.31,1.2-.12,2.86,1,3.75,2,1.23,1.41,1.84,3.33,2.86,4.94,2.29,3.6,4.66,4.88,8.76,3.55a66.84,66.84,0,0,0,12.2-5.59c4.59-2.61,7.82-1.65,9.53,3.42,1.54,4.6,2.9,9.27,4.63,13.8,2.9,7.6,8.61,11.79,16.56,13.34,5.11,1,10.08,2.46,15.36.78,1.35-.42,3.1.15,4.6.51,3.73.89,6.08-.91,7.55-4s2.67-6.38,3.92-9.6c1.1-2.86,2.09-5.75,3.45-9.49a37,37,0,0,1,3.19,3.55c3.1,4.6,6.39,9.1,9.1,13.93,3.41,6,9,8.24,15.17,8.47,12.47.47,25,.39,37.47.3,8.83,0,17.67-.49,26.5-.75,3.82-.11,7.63-.32,11.44-.3,5.16,0,10.31.25,15.7.39-1.48,8.84-3.54,16.92-4,25.09s.68,16.57,1.14,25.17c-3.42,2.07-9.2-1.19-12.46,4.78,2.75.23,4.9.45,7.05.58,1.38.08,2.79-.06,4.16.07,3.85.37,4.64,2,2.82,5.53-.23.45-.51.87-.95,1.6,1.95,1.19,4.13,1.78,4.84,4.68.89,3.61-.57,6.49-4.14,7.72-2.91,1-5.84,2-8.76,2.93a1.57,1.57,0,0,1-1,.13c-5.24-2.22-10.61-.51-15.88-.38q-28.91.69-57.8,2c-8.84.4-17.64,1.5-26.47,2.13C350.94,311.81,347.64,311.61,344.06,311.61ZM289.78,337.2l-.9-1.12,6.38-5.59c-1.69-.44-2.65-1-3.49-.85-6.15,1-12.11,8.7-11.38,14.86.86,7.37,4,13.57,10.25,17.88,1.23.86,2.81,1.95,4.14,1.83,4.53-.42,9-1.29,13.51-2.07a3.4,3.4,0,0,0,1.74-1.05c3.17-3.43,6.53-6.71,9.33-10.42,3.35-4.42,2.67-10.22-1.37-14.12-1.85-1.77-4.49-2.81-6.07-4.75-2.37-2.89-5.08-2.6-7.94-1.74a40,40,0,0,0-6.65,2.82C294.75,334.2,292.29,335.75,289.78,337.2Zm14-94.24c-6.57,5.81-4.66,19.71.72,23.06,8,5,13.23,4.7,16.5-4.64a25.75,25.75,0,0,0,.85-14.54c-5.07-2.11-10.28-2-15.45-.63C305.42,245,304.6,244,303.76,243Zm19.32,34.86c-3.58-2.92-7.55-3.41-11.75-2.48-3,.67-5.94,2-9,2.29-2.61.21-3.36,1.52-3.52,3.52a15.12,15.12,0,0,0,5.5,13.35,5.64,5.64,0,0,0,4.23,1.13,14.51,14.51,0,0,0,10.84-8.71C320.6,284.09,321.71,281.22,323.08,277.82Zm-16.95,49L331.34,313c-2.07-5.27-4.25-6.56-9-5.45a28.94,28.94,0,0,0-15.54,9.74c-1.47,1.71-2.16,4.09-3.19,6.12Z" transform="translate(-25.53 -180.7)"/><path class="cls-3" d="M199.82,397.6c-2.12-.73-4.3-1.33-6.35-2.22a9.29,9.29,0,0,1-5.15-11.28c1.46-4.57,3.79-8.59,8.66-10.42a5.23,5.23,0,0,0,1.32-.8,4.4,4.4,0,0,0,.66-.81c.65-4.61-3.23-5.14-6-6.28a5.45,5.45,0,0,0-6.87,2.2c-.4.56-.95,1-1.4,1.55-10.2,11.95-7.57,26,6.84,33.8,2.39,1.28,4.77,2.6,7.17,3.92l-8.22,11.28C180.17,415,169,415.05,158,414.1c-14.51-1.25-28.85-4.18-43.51-4.17-5.33,0-10.65-1.05-16.72-1.7.34-4.47.09-8.7,1.08-12.61,2.42-9.56,5-19.13,10.12-27.74a35,35,0,0,1,3.93-5.5c6.87-7.81,13.65-15.7,22.2-21.83A124.81,124.81,0,0,0,146,331.6c5.07-4.58,11.08-7,17.68-8.15,5.45-1,10.9-2,16.32-3.14,5.79-1.22,11.37,0,17.39,1,.35,2.49,1.29,4.94.92,7.18-1.43,8.53,2.48,15.24,7.15,21.53a46.8,46.8,0,0,0,26.67,18,24.13,24.13,0,0,0,17.23-2c5.35-2.77,10.36-6.19,15.75-9.46a2.17,2.17,0,0,1,.88.59c6.92,9.75,16.86,14.63,28.08,17.46a18,18,0,0,0,3,.69c7.27.6,11.12,4.67,12.65,11.66,1,4.75.73,8.92-2.77,12.56-1.2,1.25-2.22,2.69-3.48,3.87-.86.8-2,1.89-3,1.82-4.94-.36-10,.77-14.83-1.36a93.62,93.62,0,0,1-17.55-10c-3.59-2.6-7.88-4.35-12.06-6-9-3.5-18.26-6.55-27.32-10-5.82-2.22-11.38-5.18-17.8-5.48a7.62,7.62,0,0,1-2.32-1c-.59-4,2.18-5.7,4.68-7.3-.61-5-1.43-5.85-7.48-7.18-1.54,3-3.64,6-4.71,9.38-1.94,6,1.33,10.92,7.32,11.81,5.69.85,8.24,6.34,5,11.19a39,39,0,0,1-4.32,4.75c-2.44-.64-4.41-1.45-6.42-1.56a6,6,0,0,0-4.12,1.39c-1.6,1.54.33,2.71,1.12,3.93Z" transform="translate(-25.53 -180.7)"/><path class="cls-3" d="M648.06,247.24c-1.55,2.45-3.09,4.85-4.6,7.28-2.47,4-5.4,4.72-8.36,1.27-5.4-6.33-11.88-7-19.33-5.17-3.7.92-7.51,1.4-11.25,2.14a22.73,22.73,0,0,0-3,1.19c5.46,2.33,10.27,2,15,2.13,1.74.05,3.48-.12,5.21-.1a8.48,8.48,0,0,1,7.19,3.41,14,14,0,0,0,5.4,3.84c3.95,1.72,5.81,1.18,8.61-2.13a44.07,44.07,0,0,0,4.19-5.87c2.17-3.63,5.81-5.07,9.74-3.34,2.54,1.11,5,2.52,6.08,5.38a7.4,7.4,0,0,0,1.76,2.53c1.83,1.77,3.48,1.24,4.16-1.22,1.51-5.48,0-8.57-5.29-10.73a7.8,7.8,0,0,1-2.45-1.2c1.62-.85,3.39-.37,5.07-.5a46.81,46.81,0,0,0,5.18-.49c3.89-.75,7.75-1.66,11.62-2.5,1.34-.28,2.93-1.14,4-.7,4.43,1.83,7.26-.39,10-3.87,2.66,2.82,5,5.49,7.57,7.91.78.73,2.21.76,3.74,1.24,3.29,6.47,3.42,13.9,1.58,22.24-4.78.83-9.82,2.22-14.92,2.51-23.93,1.32-47.88,2.36-71.82,3.47-21.69,1-43.38,1.9-65.06,3-4.27.22-8.51,1-13.07,1.57-1.83-5.84-7.1-5.34-11.46-5.7-9.52-.78-19.08-1-28.63-1.32-11.45-.34-22.92-.48-34.38-.72a19.57,19.57,0,0,1-2.23-.31c-1.91-7.1-3.42-14.09-.64-21.18,4.47,0,8.59.1,12.7,0,16.83-.49,33.65-1.14,50.47-1.56,15.62-.39,31.25-.5,46.87-.88,12.67-.31,25.33-.9,38-1.26,10.58-.3,21.17-.46,31.75-.65C647.71,246.89,648,247.19,648.06,247.24Zm-44.44,18.49c.06-.46.11-.91.17-1.36-1.48-.44-3-.86-4.44-1.32-3.29-1-6.79-1.67-8-5.74-.22-.72-1.58-1.26-2.51-1.56a20.85,20.85,0,0,0-12.81.43,4,4,0,0,0-2.12,2.54c-.78,3.18-3.33,3.52-5.66,3.35-3.72-.28-8,2.2-11-2a7.08,7.08,0,0,1-.48-2.14,28.87,28.87,0,0,0-2.44,2.1,18.91,18.91,0,0,1-13.08,6.72c-2.59.21-5.15.72-7.74,1a24.57,24.57,0,0,1-15.09-2.87c-3.78-2.09-7.64-3.88-10.58-7.36-2.69-3.17-6.74-2.64-10.25-1.67a7.41,7.41,0,0,0-5.36,6.45c-.34,2.17.28,4,2.28,4.67s2.83-.75,3.48-2.7c1.19-3.57,5.53-4.36,8.34-1.82,1.78,1.62,3.4,3.6,5.48,4.7,6.63,3.52,13.56,6.35,21.34,5.35,8.5-1.1,16.63-3.2,22.89-9.66.92.76,1.75,2,2.79,2.19,5.81,1.17,11.69,1.78,17.44-.34a10.63,10.63,0,0,0,3.83-2.53c3.83-3.92,7-4.22,10.25.06C594.18,267.39,599,265.55,603.62,265.73Zm83-7.59c-4.55,3.62-7.93-2.35-12.76-3a28.21,28.21,0,0,0,.7,3.9c2.12,6.3,7,8.07,13,4.94a11.5,11.5,0,0,1,4.32-.89,30.06,30.06,0,0,1,4.12.19c0-.18,0-.37,0-.55Z" transform="translate(-25.53 -180.7)"/><path class="cls-3" d="M199.69,397.73c.51.07,1.18,0,1.51.24,3.78,3.18,7.38,1.88,10.63-.68,3.53-2.78,5.92-6.35,5.4-11.19-.14-1.31-.42-2.61-.65-4.05a6.21,6.21,0,0,1,1.77-.12c12.72,3.41,25.52,6.63,37.7,11.77,2.86,1.21,5.53,2.87,8.3,4.31,6.44,3.34,12.93,6.62,19.33,10.06a40.58,40.58,0,0,1,4.88,3.62c-2,2.15-5.78,1.26-5.61,4.7.1,2.2.57,4.38,1,7.3-2.24-.67-4.19-1.09-6-1.83-5-2-9.84-4.35-14.86-6.23a31.35,31.35,0,0,0-8.57-1.95,32,32,0,0,1-14.31-4.3,47.41,47.41,0,0,0-5.32-2.34c-.72,3.2,1.59,4.6,1.83,7.15-1.05-.81-2.05-1.71-3.17-2.42-1.32-.83-2.76-1.46-4.09-2.26-4.44-2.64-8.82-4.71-12.91,1.5-5.43-3.69-10.58-7.11-15.61-10.69-.67-.48-.74-1.79-1.09-2.72Z" transform="translate(-25.53 -180.7)"/><path class="cls-3" d="M242.78,443.07c5.69-4.72,9.53-9.22,8.25-16.66a15.49,15.49,0,0,1,3.49,0c9.59,2.4,19,5.38,27.08,11.32a26.09,26.09,0,0,0,4.46,2.65c4,1.83,5.43,4.95,5.34,9.19-.16,7.95-4.29,14.6-10.8,17.42a6,6,0,0,1-6.77-.84c-4.78-3.94-10-7.33-14-12.23-2.33-2.8-6-4.55-9.18-6.58C248.34,445.9,245.86,444.74,242.78,443.07Z" transform="translate(-25.53 -180.7)"/><path class="cls-3" d="M188.48,425.85c-.61,3.51-1,6-1.5,8.6a9.52,9.52,0,0,1-2.17.43c-14-.84-28.12-.88-42-2.83-12.55-1.76-25.06-3.28-37.7-3.95-1.55-.09-3.12-.23-4.65-.47-4.27-.69-6-4.57-3.31-7.87.77-.94,2.75-1.28,4.15-1.23,6.75.28,13.48.75,20.22,1.21,14.17,1,28.35,1.83,42.49,3C172,423.45,179.79,424.74,188.48,425.85Z" transform="translate(-25.53 -180.7)"/><path class="cls-3" d="M260.12,348.23c-1.82,4.75-5.85,7.22-10.5,9a3.07,3.07,0,0,1-4.26-1.8c-2.76-5.95-5.7-11.83-8.11-17.92-1.95-4.92-.19-9.26,4.16-12.12a5.35,5.35,0,0,1,7.81,2.09c2.3,4.25,4.46,8.59,6.69,12.88C257.18,342.76,258.49,345.17,260.12,348.23Z" transform="translate(-25.53 -180.7)"/><path class="cls-3" d="M243.11,438.49c-5.49-1.83-10.65-3.74-15.93-5.24-4.63-1.33-6.88-6.1-4.52-10.37,1.93-3.5,4.16-4.22,7.93-2.68,2.69,1.1,5.71,1.63,8.08,3.19A37.43,37.43,0,0,1,247,430.8C248.94,433.14,247,436.14,243.11,438.49Z" transform="translate(-25.53 -180.7)"/><path class="cls-3" d="M373.88,338c2.29,2.13,1.81,3.71.43,5.43-2.6,3.26-5.44,6.4-7.57,9.95-5.05,8.45-12.37,14.92-18.79,22.17a10.54,10.54,0,0,1-2.79,2.28c-6.78,3.68-14.11,5.8-21.62,7.32-2.07.42-4.24.63-4.13-2.34,5.32-1,10.4-1.93,15.45-3a12.47,12.47,0,0,0,7.57-4.25,16.31,16.31,0,0,1,3.07-2.79c9.05-6.61,14.87-15.83,20.53-25.2C368.15,344.12,370,340.33,373.88,338Z" transform="translate(-25.53 -180.7)"/><path class="cls-3" d="M375.51,332.75c-2-3.63-6.05-5.82-7.15-10.65l13.29-1.75C382.35,325.76,380,329.56,375.51,332.75Z" transform="translate(-25.53 -180.7)"/><path d="M289.78,337.2c2.51-1.45,5-3,7.55-4.32a40,40,0,0,1,6.65-2.82c2.86-.86,5.57-1.15,7.94,1.74,1.58,1.94,4.22,3,6.07,4.75,4,3.9,4.72,9.7,1.37,14.12-2.8,3.71-6.16,7-9.33,10.42a3.4,3.4,0,0,1-1.74,1.05c-4.49.78-9,1.65-13.51,2.07-1.33.12-2.91-1-4.14-1.83-6.24-4.31-9.39-10.51-10.25-17.88-.73-6.16,5.23-13.83,11.38-14.86.84-.14,1.8.41,3.49.85l-6.38,5.59Zm-2.15,3c-.08,5.52,2.94,12.06,8.31,16.87,1.07-2.82,3.21-3.57,6.05-3.39a14.18,14.18,0,0,0,5.07-1c3.31-1.11,7.78-7.28,6.85-10.05a25.87,25.87,0,0,0-4.42-8.06c-1.53-1.86-3.81-2.25-6.51-.87C298.11,336.12,292.93,338,287.63,340.19Z" transform="translate(-25.53 -180.7)"/><path d="M303.76,243c.84,1,1.66,2.07,2.62,3.25,5.17-1.35,10.38-1.48,15.45.63a25.75,25.75,0,0,1-.85,14.54c-3.27,9.34-8.5,9.61-16.5,4.64C299.1,262.67,297.19,248.77,303.76,243Zm2,11.4a10.56,10.56,0,0,0,6.94,9.31c2.31-3.38,5.88-6.05,4.53-11.19Z" transform="translate(-25.53 -180.7)"/><path d="M323.08,277.82c-1.37,3.4-2.48,6.27-3.68,9.1a14.51,14.51,0,0,1-10.84,8.71,5.64,5.64,0,0,1-4.23-1.13,15.12,15.12,0,0,1-5.5-13.35c.16-2,.91-3.31,3.52-3.52,3-.25,6-1.62,9-2.29C315.53,274.41,319.5,274.9,323.08,277.82Zm-6.55,3.79c-3.53.56-6.25.71-8.78,1.46-3.46,1-3.88,3.78-1.21,6.16a4.45,4.45,0,0,0,6.91-1.16C314.4,286.28,315.2,284.41,316.53,281.61Z" transform="translate(-25.53 -180.7)"/><path d="M306.13,326.79l-2.51-3.42c1-2,1.72-4.41,3.19-6.12a28.94,28.94,0,0,1,15.54-9.74c4.74-1.11,6.92.18,9,5.45Z" transform="translate(-25.53 -180.7)"/><path d="M603.62,265.73c-4.62-.18-9.44,1.66-13.29-3.51-3.2-4.28-6.42-4-10.25-.06a10.63,10.63,0,0,1-3.83,2.53c-5.75,2.12-11.63,1.51-17.44.34-1-.2-1.87-1.43-2.79-2.19-6.26,6.46-14.39,8.56-22.89,9.66-7.78,1-14.71-1.83-21.34-5.35-2.08-1.1-3.7-3.08-5.48-4.7-2.81-2.54-7.15-1.75-8.34,1.82-.65,2-1.37,3.43-3.48,2.7s-2.62-2.5-2.28-4.67a7.41,7.41,0,0,1,5.36-6.45c3.51-1,7.56-1.5,10.25,1.67,2.94,3.48,6.8,5.27,10.58,7.36a24.57,24.57,0,0,0,15.09,2.87c2.59-.31,5.15-.82,7.74-1A18.91,18.91,0,0,0,554.31,260a28.87,28.87,0,0,1,2.44-2.1,7.08,7.08,0,0,0,.48,2.14c3,4.23,7.29,1.75,11,2,2.33.17,4.88-.17,5.66-3.35a4,4,0,0,1,2.12-2.54,20.85,20.85,0,0,1,12.81-.43c.93.3,2.29.84,2.51,1.56,1.22,4.07,4.72,4.71,8,5.74,1.48.46,3,.88,4.44,1.32C603.73,264.82,603.68,265.27,603.62,265.73Z" transform="translate(-25.53 -180.7)"/><path d="M686.57,258.14l9.39,4.61c0,.18,0,.37,0,.55a30.06,30.06,0,0,0-4.12-.19,11.5,11.5,0,0,0-4.32.89c-6,3.13-10.9,1.36-13-4.94a28.21,28.21,0,0,1-.7-3.9C678.64,255.79,682,261.76,686.57,258.14Z" transform="translate(-25.53 -180.7)"/><path class="cls-3" d="M287.63,340.19c5.3-2.21,10.48-4.07,15.35-6.54,2.7-1.38,5-1,6.51.87a25.87,25.87,0,0,1,4.42,8.06c.93,2.77-3.54,8.94-6.85,10.05a14.18,14.18,0,0,1-5.07,1c-2.84-.18-5,.57-6.05,3.39C290.57,352.25,287.55,345.71,287.63,340.19Z" transform="translate(-25.53 -180.7)"/><path class="cls-3" d="M305.79,254.36l11.47-1.88c1.35,5.14-2.22,7.81-4.53,11.19A10.56,10.56,0,0,1,305.79,254.36Z" transform="translate(-25.53 -180.7)"/><path class="cls-3" d="M316.53,281.61c-1.33,2.8-2.13,4.67-3.08,6.46a4.45,4.45,0,0,1-6.91,1.16c-2.67-2.38-2.25-5.12,1.21-6.16C310.28,282.32,313,282.17,316.53,281.61Z" transform="translate(-25.53 -180.7)"/></g></g></g></svg>