<svg id="michel" xmlns="http://www.w3.org/2000/svg" viewBox="0 0 2500.28 2866.51"><defs><style>.cls-1{fill:none;stroke:#000;stroke-linecap:round;stroke-linejoin:round;stroke-width:8px;}.cls-2{font-size:144px;font-family:FuturaPT-Book, Futura PT;}.cls-3{letter-spacing:-0.11em;}.cls-4{letter-spacing:-0.06em;}.cls-5{letter-spacing:-0.02em;}</style></defs><title>applescal</title><path class="cls-1" d="M1193.41,205c7.47-1,12.82-5.9,17.89-10.69,6.64-6.18,12.63-13.19,19.45-19.27,22.59-20.1,47.67-35.22,78.27-39.28,14.39-1.93,28.86-1.75,43.33-.83a333.79,333.79,0,0,1,34.58,4.25c9.31,1.56,16.77,6.45,24.43,11.34,13.46,8.57,27.29,16.59,40.47,25.44a182.44,182.44,0,0,1,55.5,58.36,311.71,311.71,0,0,1,31.53,71.54,383.65,383.65,0,0,1,10.23,46.56c1.94,11.7,1.66,23.6.37,35.49-.74,6.45-.83,12.91,2.4,18.9,1.84,3.5,4.52,5,8.39,5.07s4.7-2.77,6-5.53c7.74-16.5,10.6-34,9.59-52.09a292.87,292.87,0,0,0-6.09-42.87c-6.45-30.15-18-58.45-32.17-85.65a223.36,223.36,0,0,0-28.3-41.67c-14.66-17.24-31.72-31.8-51.45-42.5-17.7-9.59-34.48-20.93-52.92-29.22-12.63-5.72-25.44-11.16-39.64-10-20,1.57-39.83,5-58,13.92-20.83,10.23-41.67,20.28-62.23,30.88-9.86,5.07-18.44,12.17-27.29,18.81-6.17,4.61-12.81,8.48-18,14.29-2.49,2.77-5.17,1-7.84.46"/><path class="cls-1" d="M1669.59,1058.71a7.31,7.31,0,0,0-3.23-3.23c-10.33-4.42-17.42-13-24.8-20.83-6.27-6.64-11.25-14.29-13.74-23.42-1.38-5-1-8,6.27-9.86a25.21,25.21,0,0,1,13.83.18c8.76,2.67,18,3,26.74,5.72,2.86.92,5.9.37,8.76-.65,4-1.47,4.51-4,1.93-7.37-2.86-3.69-7.19-5.07-10.69-7.66-2.58-1.93-5-3.68-6.36-6.54-1.75-3.78.73-7.65,5.07-7.84,4.05-.18,7.65,1.66,11.52,2.58,5.26,1.29,10.42,2.68,15.67,4.15,6.73,1.85,12.91,0,19.09-2.76a29.73,29.73,0,0,0-7.1-9.87,128.63,128.63,0,0,1-19.36-23c-6.18-9.86-7.65-20.92-6.36-32.26,1.29-10.79,1.56-21.48,2.21-32.27.37-5.44,0-10.88,1.57-16.13.55-1.94.92-3.6,3.41-4.24s1.93-3.42,1.84-5.44c-.09-1.76-.18-3.14-2.67-3.88-4.06-1.1-5.26-5.62-8.3-8.2a34.78,34.78,0,0,1-10.69-15.12,5.5,5.5,0,0,0-3.69-3.69c-11.52-3-20.28-10.88-30-17-4.89-3-9.13-7.19-15.58-7.65-2.68-.19-4.43-3.51-5.17-6.64a126,126,0,0,0-6.36-21.67c-5.62-13.83-13.83-26-22.68-37.8-16.41-21.94-26.09-46.55-28.48-73.75-2.22-25.81,1.47-51.17,8.48-76.06,6.64-23.32,15.49-45.91,20.83-69.6,3.41-15.12,6.27-30.43,9.22-45.64,2.4-12.08,4.7-24.15,6.09-36.41,1.75-15.49,2.67-30.89,1.56-46.56a397.16,397.16,0,0,0-10.41-65.92c-6.18-25.81-12.36-51.72-22.13-76.52-6.27-15.86-15.3-30.33-24.34-44.8-7.28-11.62-14.84-23.05-23.6-33.56-7.93-9.41-17.33-17.43-27.1-25a503,503,0,0,0-50.25-34.11c-16.41-9.68-33.1-18.62-51.63-23.51A115.94,115.94,0,0,0,1356.13,82c-11.15,1.29-22.49,1.75-33.65,3.41-23.69,3.5-46.55,9.86-67.76,21.11a141.7,141.7,0,0,0-43,34.94c-7.65,9.22-14.75,18.62-18.9,30a12.81,12.81,0,0,1-2.3,3.23"/><path class="cls-1" d="M1376.42,719.44c-2.49.37-1.94-1.56-1.85-2.76.65-7.84,0-15.68,1.11-23.51.92-6.36,2.3-12.82,2.86-19,.64-6.46.83-13.28,1.84-19.73a424.24,424.24,0,0,1,14.94-63.15c7.19-22.87,15.3-45.45,22.4-68.32,6.82-21.94,13.37-44,18.53-66.38,4.7-20.37,8.11-40.84,8.94-61.77.46-12,.92-24,.65-35.95-.37-15.86-2.31-31.62-7.84-46.56-7.84-21.11-22.31-36.78-41.86-48-10.23-5.9-21.2-10-32.26-13.74A90,90,0,0,1,1333,232.12c-15.49-13.74-33.28-22-54.39-22.32-6.64-.09-13.18-.18-19.82.93-12.36,2.21-21.57,9.22-29.5,18.44s-13.92,19.91-20.75,30c-7.19,10.51-7.83,21.11-1.84,32.26a34.76,34.76,0,0,1,4.24,18,15.13,15.13,0,0,1-4.15,10.14c-4.52,5-8.76,10.24-13.46,15.12-13.64,14.29-30.14,23.6-48.68,30.8-30.51,11.7-48.58,34.94-54.94,67a40.9,40.9,0,0,0,0,13.83c1.1,8.66,1.1,17.24-2.86,25.35-1.38,2.86-3.78,5.35-5.9,7.84-9.86,11.71-21.3,22-32.18,32.82-18.8,18.53-36.78,37.8-47.94,62.23a206,206,0,0,0-14.29,44.71c-3.31,16-4,32.18-3,48.4.92,17.06,6.18,33.19,12.73,48.86,4.88,11.71,11.61,22.5,15.85,34.48,1.39,3.88,3.32,7.93,8.67,7.84"/><path class="cls-1" d="M1162.53,318.41a7.24,7.24,0,0,1-3.23,3.22c-19.73,8.21-36.69,20.84-53.47,33.75-9.77,7.46-19.54,14.84-29.5,22.12-11.52,8.48-20.28,19.55-27.75,31.72-8.94,14.56-17.15,29.59-26.64,43.88-3.41,5.07-5,11.16-7.1,17-3.87,10.33-5.16,21.3-7.28,31.9-1.3,6.73-1.76,13.83-3.23,20.65-4,17.61-12.82,32.73-23.42,47-7.28,9.87-16,18.35-24.52,27.11-13.74,14.47-22.68,31.71-28.86,50.33-6.45,19.36-10.51,39.46-14.66,59.47-2.3,11.24-1.29,22.77,1.2,34.11,3,13.83,8.3,26.83,14.2,39.64,5.35,11.52,11.25,22.86,13.37,35.49a88.57,88.57,0,0,1-4.52,45.64,473.4,473.4,0,0,0-16.41,54.39c-3.41,14.29-.28,28.58,4.33,42.32,1.48,4.33,3.05,8.66,4.61,12.91.37.92.65,2.3,2.31,1.84"/><path class="cls-1" d="M1581.08,233.59c3.05,7.47,7.93,13.74,12.45,20.28,14.38,20.84,30.7,40.38,44.25,61.77,14.38,22.59,22.59,46.83,21.11,73.76-.83,14.1-4.61,27.56-10.14,40.56-3.69,8.67-7.74,17.15-11.43,25.81-5.81,13.46-4.33,23.42,10.14,33.19,7.75,5.26,16.5,8.85,24.89,12.91,10.61,5.16,20.93,10.88,29.87,18.53,7.75,6.55,13.09,14.94,17.24,24.34,3.88,8.85,8,17.61,10.88,26.83a74.86,74.86,0,0,1,3.32,20.74,12.48,12.48,0,0,1-.92,5.53c-1.66,3.87.28,7.38,1,11.06,0,.1.83,0,1.29,0"/><path class="cls-1" d="M945,717.23c1.75,23.79,12.35,44.34,24,64.54,6,10.51,13.09,20.37,17.51,31.8a129.77,129.77,0,0,1,8.85,36c.56,6,.74,12,.83,18,.19,25.63-5.34,50.06-15.12,73.85a209.06,209.06,0,0,1-52.18,75.14c-6.17,5.71-14.38,7.56-21.2,12.07-6.27,4.15-13.09,5.81-20.38,6.55-5.9.55-11.7-1.2-17.51-1.75l-3.23-.28"/><path class="cls-1" d="M1607.82,953.61c.37-6.27,2.58-12.08,5.53-17.52,1.75-3.13,3-5.8.74-9.86-1.66-2.77-1.11-6.91-1.11-10.42-.09-12.72.37-25.53.74-38.26.74-22-3-43.33-13.28-63.15-3.5-6.82-5.53-14.38-10-20.83-4.71-6.83-8.85-14.11-14-20.66-7.93-10.23-16.22-20.28-24.34-30.42a140.92,140.92,0,0,1-25.35-49.78c-5.62-19.18-6.82-38.63-5.16-58.54,1.57-19.64,4.52-39.19,4.33-59a212.69,212.69,0,0,0-2.67-28.58c-1.2-8.57-1.48-17.24-2.4-25.81a57.61,57.61,0,0,0-5.07-17.06c-1.38-3.13-3.41-4.61-6.91-3.22"/><path class="cls-1" d="M1092.74,483.06c-1.57,7.84-3.69,15.49-4,23.51-.19,5.07-.83,10.14-.83,15.21-.1,10.79-.19,21.48-1,32.27-1,14.57-2.12,29.23-3.22,43.79a7.07,7.07,0,0,1,0,1.38c-2.86,10.15-1.57,20.66-3,30.89s-1,20.56-.46,30.88a257.27,257.27,0,0,0,18.35,84.36c8.48,20.74,18.9,40.75,26.64,61.77a176.61,176.61,0,0,1,11.16,59.46c.09,12.26-.46,24.43-2.95,36.42-2.58,12.44-6.36,24.43-16.51,33.19-4.24,3.68-5.9,8.85-7.92,13.83-2.12,5.25-2.49,11.52-7.75,15.3-.83.55-.74,1.84-.64,3.13.64,5.63.64,10.88-1.48,16.69a100,100,0,0,0-6.08,34.48,108.43,108.43,0,0,0,8.39,41.58c5.25,12.63,12.81,23.69,21,34.39,2.39,3.13,6,5.44,9.12,7.93,4.15,3.22,7.75,6.82,8.85,12.07-3.22,2.22-6,1.39-9.31,0-11.52-4.7-23.23-8.85-33.65-16.13-15.67-11-25.07-25.72-29.87-43.88-.83-3.14-.64-6.46-1-9.68-.37-3.51-1.57-6.55-5.53-7.38"/><path class="cls-1" d="M1679.27,841.14a21.38,21.38,0,0,0-6,12.9c-1.84,20.1-5.25,39.83-12,59a174.9,174.9,0,0,1-38.72,64.16,187,187,0,0,1-48.49,37.25c-19.55,10.32-40.48,16.69-62.23,20.83a278.85,278.85,0,0,1-41,4.34c-4.52.18-9.22,1.47-13.83-.56-2.21-.92-5-.37-5.9,2.68-2.21,6.82-7.47,11-13,14.66-9.59,6.36-19,12.81-27.47,20.46-11.52,10.42-20.28,22.77-23,38.63-.55,3.23-1.47,6.36-1.1,9.68"/><path class="cls-1" d="M1574.63,835.61c1.38-.1,1.66.46,1.94,1.84,2.39,12.17,3.68,24.43,2.67,36.88-1.57,19.63-6.27,38.62-13,57.16a133.52,133.52,0,0,1-23,40.19c-11.89,14.38-27.28,24.06-42.87,33.65a108.77,108.77,0,0,1-36,14.48c-11.52,2.3-22.86,1.19-34.11-1.39a35,35,0,0,0-13.83-.09,8.16,8.16,0,0,0-5.07,2.58"/><path class="cls-1" d="M1796.35,845.75c-5.35,1.2-10-1.2-14.66-2.86-20.74-7.47-39.55-18.16-54.39-34.94-8.21-9.31-13.09-20.56-18.16-31.72-6-13.18-15-24-28.4-30.51-4.42-2.21-9.12-2.68-13.83-3.69-1.93-.37-3.13,1-4.61,1.66.74,5.07,3.32,9.31,6,13.64,12.53,20.56,23.41,41.77,27.47,65.92a93.56,93.56,0,0,1,.65,25.35,41.57,41.57,0,0,1-1.39,5.54"/><path class="cls-1" d="M1080.94,605.68c-3-.09-3.78,2.39-5.07,4.15-5,6.73-7,14.66-8.76,22.58-2.4,10.88-5.16,21.58-6.08,32.73-1.2,14.48.09,28.67,2.58,42.87,1.75,10,3.41,20,7.19,29.5,2.12,5.44,5.44,10.33,7.65,15.77,3.5,8.48,4,17.51,4.33,26.73.46,11.44,3.42,22.5,5.81,33.65a61.16,61.16,0,0,1,1,21.67c-2,13.46-5.54,26.64-7.47,40.1-1.48,10.33-3.41,20.56-5,30.89a18.88,18.88,0,0,0,0,6.45c.74,3.78-.18,6.08-3.13,8.94-5.81,5.72-9.87,13-13.93,20.1a255.19,255.19,0,0,0-20.92,46.93c-7.75,23.51-7.1,46.18,4.7,68.22"/><path class="cls-1" d="M1163,971.13c6,0,9.31,3.87,12.45,8.3,7,10,13.92,19.91,23,28.11,12.16,10.88,25.81,19.46,41.94,23.24a41.66,41.66,0,0,0,14.75,1.19c12.26-1.47,24.62.65,36.88.37,16.69-.46,32.54-4.15,46.1-14.75a220,220,0,0,0,18.43-16.13c13.1-12.72,26.28-25.35,38.45-39,10.23-11.61,17-24.89,21.94-39.27,4.61-13.46,8.39-27.11,13-40.57,5.81-16.78,13.55-32.45,25.72-45.63"/><path class="cls-1" d="M1353.37,593.14c-4.06,1.29-8.39,2-11.53,5.53-1.84,2-2.3,4.33-1.29,6.45,5.07,10.33,2,19-5.71,26.19-6.82,6.36-7.75,13.83-6.36,22.22,3.68,22,1.93,43.79-3,65.45-4,17.61-10.61,34.3-16.78,51.17-3.88,10.51-6.18,21.11-1.94,32.27,2.49,6.73,7.1,11.7,12.08,16.59,4.79,4.7,5,8.21.46,13.37a43.6,43.6,0,0,1-8.67,7.1c-7,4.7-13.46,9.95-22.22,11.15-1.84.28-2.76,1.39-2.85,3.41a40,40,0,0,1-7.75,22.59"/><path class="cls-1" d="M1085.09,560a6.87,6.87,0,0,0-4.61,1.38c-29.23,20.19-49.51,46.75-58.73,81.5-4.88,18.44-6.08,37-5.25,55.78.55,11.52,2.3,23,3,34.57.55,8.48,1.11,17,1.84,25.35.46,5.63,2.59,11.34,3.78,17.06,4.06,19,9.68,37.7,12.08,57.16a259.76,259.76,0,0,1,2.31,26.73c.36,12.91.36,25.91-1.11,38.72a268,268,0,0,1-15.58,64.54c-5.26,13.92-12.72,26.73-20.84,39.18a14.54,14.54,0,0,0-2,4.61"/><path class="cls-1" d="M1197.1,330a23.36,23.36,0,0,0-13.83-5.44c-4.61-.18-8.75-1.75-12.9-3.41-7.29-2.76-13.28-7.74-20.19-11.15a91.53,91.53,0,0,0-48.5-9.41c-12.07.93-23,6.46-33.19,12.82-8.75,5.35-17.42,10.88-26.82,15.12-2.49,1.1-3.78,3.22-5,5.16-7.84,13-16,25.91-22.77,39.55-9.59,19.18-16.23,39.18-18.72,60.48-2.4,21.11-.92,42,6.36,62.23.92,2.58,1.48,5.62,5.07,6"/><path class="cls-1" d="M1207.24,901.06c-.37,15.86,9.31,29,24.9,33.19a91.87,91.87,0,0,1,18.34,7.65c8.48,4.43,17.33,5.72,26.37,6.64a221.23,221.23,0,0,0,22.12,1c18,.1,33.29-5.71,45.64-18.89,6.08-6.55,12-13.19,16.32-21.12,1-1.84,4-3,6.73-3.59a57,57,0,0,0,7.47-1.94c1.29-.46,1.29-1,1.29-1.93"/><path class="cls-1" d="M1264.86,1181.33c-19.73-.46-38.81-4.61-57.62-10.33-6-1.84-11.71-4.06-18.44-3.32-3.68.37-7.65-2.58-11.52-3.78-27.2-8.85-53.93-19-79.28-32.27-16.6-8.75-32.27-18.8-45.18-32.72a62.77,62.77,0,0,1-11.15-16.14c-2-4.15-4.52-8.2-10.05-8.29"/><path class="cls-1" d="M1689,671.5c-.56,1.66.92,1.94,1.84,2.31,6.82,2.21,10,7.19,11.8,13.83a404.21,404.21,0,0,0,13.55,41c9.59,24.89,21.67,48.59,38.36,69.52a184.49,184.49,0,0,0,28.85,29.22c4.7,3.78,8.39,8.85,12.54,13.28.55.64.28,1.29.46,1.84,1.48,5.72,2.68,6.36,8.76,4.61"/><path class="cls-1" d="M1230.75,318.41c5.35,3.5,6.73,9.49,9.22,14.75,5.81,12.63,16.41,17.42,29.5,18a81.54,81.54,0,0,0,13.37-.83c15.67-2.12,29.23,2.3,41.58,12.26,8.57,6.91,14.93,14.75,17.7,25.44a24.89,24.89,0,0,0,11.43,15.4c9.87,5.81,16.14,14.2,21.58,23.78a15.56,15.56,0,0,0,2.3,3.23c6.82,6.09,6.08,13.74,3.78,21.2-5.72,18.54-8.76,37.62-11.71,56.7-2.3,14.85-5.35,29.5-7.74,44.26-2.12,13.09-3.6,26.27-7,39.18-.83,3.22.74,6,1.2,8.76,1.66,8.75.18,17.33-.83,25.81-2.21,18-3.78,35.86-3.41,53.93.46,22.31,3.32,44.16,10.42,65.46,3.13,9.31,6.27,18.44,11.61,26.64a57.17,57.17,0,0,0,22.31,20.28c8.3,4.24,16.69,7.38,25.63,8.58,8.12,1.1,16,4.24,24.43,3.59,7.84-.64,15.77.56,23.51-1.1,6.73-1.39,13.46-3.05,19.36-6.83,2.68-1.65,8.67-1.38,12.91,2.22,12.08,10.51,20.1,23.69,24.8,38.72,2.49,7.93,4.52,16.13,9.4,22.95,2.58,3.51,4.61,7.38,7.29,10.7,4,5.07,4.7,5.07,10.6,2.58"/><path class="cls-1" d="M1203.74,264.94c-7.47-3.42-13.46-8.85-16.59-16.23-1.48-3.5-.83-8.21.27-12.35.83-3.42,2.21-6.73,3.14-10.15a56.79,56.79,0,0,0,1-25.81c-1.2-6.36-3.59-12.72-.37-19.45,1-2.12.37-5.72-3.41-7.38-4.15-1.84-8.3-3.68-12.45-5.44-8.11-3.32-15.48-1.93-22.58,2.77-9.13,6.08-17,13.74-25.36,20.74-9.77,8.21-19.36,16.51-29,24.89-18.8,16.23-35.49,34-45.63,57.16a55,55,0,0,0-2.31,7.84"/><path class="cls-1" d="M1379.18,981.27c3.69,4.24,3.6,9.22,3,14.29a91,91,0,0,1-6.17,22.59c-5.26,13.18-7.84,27.1-10.24,41-1.75,10.23-3.41,20.47-2.67,30.89.55,7.56,1.47,15,5.81,21.75,4.05,6.18,9.58,8.85,16.68,9.13"/><path class="cls-1" d="M1651.15,584.84c.28,0,.83-.09.92,0,2.58,5.81,7.93,6.92,13.37,8.39,11.8,3,22,9.41,32.27,15.67,9.49,5.72,18.9,11.34,27.28,18.72,13.65,12.08,22.41,26.83,27.48,44,1.93,6.45,3.69,13.18,3.5,19.82-.18,5.25,1.11,9.68,3,14.29.55,1.29.09,3,.09,4.61"/><path class="cls-1" d="M1236.74,638c5.91,4.88,6.92,7.92,4.61,15.21-6,19-15.76,36-26.73,52.55-6,8.94-11.8,18-18.07,26.73a75.09,75.09,0,0,1-17.43,17.15c-7.28,5.35-14.47,2.21-16.68-6.08"/><path class="cls-1" d="M1186,248.34c-6.82,1.48-13.28-.55-19.82-1.84-10.24-2-20.38-4-30.89-3.69-19,.55-35.4,7.1-49.78,19.36-7.74,6.55-15.77,12.81-24,18.9-13.55,10.05-18.62,24.52-21.76,40.1a15.22,15.22,0,0,0,.56,7.38"/><path class="cls-1" d="M1624.41,803a13.49,13.49,0,0,0-.55,9.68,177,177,0,0,1,6.64,42.87c.64,18.53-1.48,36.78-4.8,54.85-1.1,6-2.85,12-7.28,16.6-.74.83-1.29,2-2.77,1.84"/><path class="cls-1" d="M1231.67,645.32c-6.54,9.31-15.76,15.58-25.44,21.11-14.66,8.48-30.61,11.07-47.48,8.48-8.76-1.38-17.24-2.85-25.44-6.82-6.55-3.22-9-8.48-10-14.93-.46-2.86-.46-5.81-.74-8.76"/><path class="cls-1" d="M1121,605.68c1.66,16.13,10.61,27.38,24.53,34.39,7.93,4,17,4.79,25.72,5.16,14.75.64,29.32-1.29,43.79-4.06,3.5-.64,7.1-1,10.6-1.38,2.86-.28,5.72-.19,6,3.69.1,1.29.74,1.56,1.85,1.38"/><path class="cls-1" d="M1258.41,608.81c-.92,3.41-3.6,3.23-6,2.22-1.85-.83-4-2-5-3.69-4.7-7.1-11.43-11.43-19-14.11-22.68-8-45.27-16-69-20.19-9-1.57-17.61-1.84-26.28,1.29-1.38.46-2.86.92-3.69,2.31"/><path class="cls-1" d="M1531.3,1117.34c-11.62-5.16-23.51-9.86-34.11-17-3.78-2.58-7.38-5.62-11.16-8.48-6.64,8.66-13.18,17.15-19.73,25.63-15.21,19.73-31.25,38.53-53,51.72-11.52,6.91-23.14,13.36-36.87,14.19"/><path class="cls-1" d="M1381.49,433.65c4.7-3.32,6.08-7.75,5.62-13.37-.74-8.39,1-16.87,0-25.35-1.94-15.95-6-31-19-41.86a29.52,29.52,0,0,0-12.45-6c-6.82-1.57-12.07-5.07-16.68-10.51-11.53-13.74-24.9-25.35-42.32-30.89-10.79-3.41-22-3.13-33.19-2.58-7.56.37-14.84,1.66-21.66,5.26a32,32,0,0,0-10,7.47c-1.57,1.84-3.69,2.85-5.54,4.24-5.16,3.87-10,3.22-14.84-.19-.83-.55-1.47-1.29-2.58-1.38"/><path class="cls-1" d="M1205.86,1144.45c-6.27,3.59-13.18,3.41-19.82,2.21a513.55,513.55,0,0,1-55.32-13.27c-13.55-4.06-26.09-10-36.32-19.92a4.77,4.77,0,0,0-3.78-1.29"/><path class="cls-1" d="M1508.25,499.1c-4.33,11.16-9.31,22.13-12.91,33.65-4.88,15.49-9,31.26-12.9,47-1.2,5-2.4,9.87-4,14.75a48.92,48.92,0,0,0-2,17.06"/><path class="cls-1" d="M1452,568.25c-3.32.55-2.85,3.59-3.13,5.53a80.62,80.62,0,0,1-3.78,14.75c-.83,2.4-3.14,3.6-4.33,5.9-4.43,8.3-5.63,17.42-7.66,26.37-1,4.42-1.93,8.76-6.08,11.52-1.66,1.11-3.41,1.66-5.07-.37-2-2.58-3.6-5.44-3.6-8.76,0-3.87-.37-7.65.37-11.52a7,7,0,0,0-2.21-6.55A9.22,9.22,0,0,0,1411,608c-11,10.33-17.06,23-19.45,37.8-1.57,9.87-3.6,19.73-5.54,29.6-1.47,7.46-1.56,15.48-1.19,23.41.73,15.67,7.56,28.86,15.12,42a157.5,157.5,0,0,1,9.58,19.36c2.49,6.27,6.27,11.8,9.68,17.52a62.92,62.92,0,0,1,8.3,22.12c.09.46-.28.92-.46,1.39"/><path class="cls-1" d="M1029.77,1066.64c1.57,2.58,1.39,5.71,1.2,8.3-.55,10.23,1.57,19.91,4.33,29.5,6.83,23.69,18.81,44.9,32.73,65a12,12,0,0,0,6,4.15"/><path class="cls-1" d="M1162.53,990.49c-.46,3.87,1.94,7,2.86,10.6,2.3,8.85,3.22,18.16,6.64,26.74,6.36,16,16.31,29.68,28.85,41.48,3.6,3.32,7.65,6.27,11.53,9.22a17.71,17.71,0,0,1,6.45,9.22"/><path class="cls-1" d="M1188.8,897.19c5.81,1,11.71,2,17.52,2.77,5.26.73,10.79,0,16-.83,4.24-.74,7.65-1.11,11.16,2.3,3.78,3.6,9.31,3.14,14.2,3.69a508.61,508.61,0,0,0,71,3.69,152.55,152.55,0,0,0,25.82-2.4c5.25-1,10.69-.83,15.67,2"/><path class="cls-1" d="M1362.59,752.26c-4.7,1.76-6,6.55-8.12,10.24-2.85,5.07-5.53,10.23-9.86,14.1-1.66,1.57-1.84,3.14-1.84,5.17.09,5.25.18,10.41,0,15.67a24.3,24.3,0,0,0,2.39,12,11.19,11.19,0,0,1,1.29,5.07c.1,4.71-2.12,6.46-6.91,5.53-2.77-.46-5.35-1.75-8.3-1.47-3.41.37-5.9,2.12-8.3,4.24"/><path class="cls-1" d="M1660.37,1054.1c-3,3.14-7.29,3.32-11.07,4.06-20.74,3.87-41.57,4.7-62.22-1.2a38.43,38.43,0,0,0-9.69-1.38c-3.41-.1-4.79,1.66-4.14,5s3,6,5,8.85c2.31,3.23,6.55,5.91,4.71,11"/><path class="cls-1" d="M1437.72,805.74a8.82,8.82,0,0,0,1,9.58c5.53,7.1,10.42,15.12,17.24,20.75,8,6.54,16.32,13,25.53,18.16,14.11,7.83,29,13.27,44.35,17.79,5.16,1.48,11,3.69,15.67-1.75"/><path class="cls-1" d="M1731.36,600.15c-4.71-1.48-7.66-5.26-11-8.39-5.08-4.7-9.68-10-14.48-15-11.34-12.08-24-13.18-38.54-5.44-5.9,3.13-11.34,7.47-14.84,13.64"/><path class="cls-1" d="M1157,601.44c1.29,3.5-1,6.73-1,10.14.1,12.91,8.85,26.46,23.61,22.86,12.35-3,18.9-9.59,21.2-22.4a16,16,0,0,1,1.38-3.23"/><path class="cls-1" d="M1090.62,839.29c2.67.19,3.78,2,4.61,4.15,4.33,11.06,8.57,22.13,12.91,33.19a148.9,148.9,0,0,0,13.92,26.64c1.84,2.77,4.33,5.63,8.2,6.09"/><path class="cls-1" d="M1374.85,720a100.71,100.71,0,0,0,10.05,44.62,82.44,82.44,0,0,0,10.14,16c3.13,3.87,3.78,7.37,2.12,11.62"/><path class="cls-1" d="M1489.35,796c.09-2.3-1.93-3.13-3.32-4.05-16.13-11.9-24.15-29-30.79-47.11a13.38,13.38,0,0,1-.92-4.61c0-4.24-2.21-6.64-6.09-7.84"/><path class="cls-1" d="M1445.1,590c4.89,3,3.87,7.56,3.41,12-1.75,16.78-.65,33.1,5.72,48.86,1.19,2.86,4,4.8,4,8.3,0,1.75.46,3.41-.27,5.07"/><path class="cls-1" d="M929.28,1038.43c-.92,5.71-5.53,9.13-9.77,10.78-11.89,4.61-24.61,4.34-37.24,3-8.58-.92-17.15-2.39-25.82-2.67"/><path class="cls-1" d="M1585.69,1080.84c-12.26,2.49-22.68-2.95-33.19-7.93a163.84,163.84,0,0,1-20.83-11.43c-6.82-4.52-11.71-1.48-12,6.82-.27,7.47,3.32,13.92,5.53,20.74,3,9,8.12,17.06,10.88,26.18,1.2,4.15,4.8,7.75,5.26,12.54"/><path class="cls-1" d="M1053.74,1055c-5.07-1.56-9.12,1.66-12.81,3.87-9.22,5.63-19.36,9.5-28.77,14.94-9.21,5.35-18.53,10.69-28.11,15.12-7.84,3.59-16.23,6-24.34,8.94"/><path class="cls-1" d="M1241.82,796c.09,2.95-2.68,3.87-4.25,5.44-5,5.26-6.45,10.88-3.13,17.61.92,1.84,1.94,3.69,2.77,5.53,1.19,2.68,3.31,4,6,3.14,10-3,17.15,1.93,23,8.94A85.24,85.24,0,0,0,1277.86,848c2.12,1.84,5.63,1.11,7.75,3.32"/><path class="cls-1" d="M1754.86,697c-5.34-1.57-9.49-5.26-14.65-7.28-11.53-4.43-23.7-5.17-35.59-7.38-.65-.09-1.57.55-2.3.83"/><path class="cls-1" d="M1461.23,1041.19c-2.3,15,2.77,27.85,12.08,39.09,3.5,4.24,6.91,8.76,11.89,11.62"/><path class="cls-1" d="M1129.8,920.42c5.26,3,7.75,8.3,11.06,12.91,6.27,8.76,12.64,17.52,18.9,26.27a12.41,12.41,0,0,1,.93,13.83c-1.57,3.14-1.29,6.73-1.85,10.14-1,5.44-1.75,5.9-7.37,5.07-2.77-.36-5.53-1-8.3,0"/><path class="cls-1" d="M1550,814.4c.46,10.14-3.32,19.64-4.88,29.5-.65,3.87-.19,7.65-.37,11.53-.19,3.68-.92,7-3.69,9.68"/><path class="cls-1" d="M1447.68,731.43c-1.66,4.42-5.25,7.56-7.74,11.43-5.54,8.3-9.78,16.87-10.88,26.83-.56,4.7-3.78,7.28-7.38,9.68"/><path class="cls-1" d="M1077.25,920.05c4,4.71,4.43,11,7.19,16.23,2.68,5.07,4.06,10.69,6.18,16s6.36,8.94,10.14,12.91"/><path class="cls-1" d="M1247.81,608.44c-2.77,2.4-6.18,3.41-9.68,4.15-9.68,2.22-18.9-.46-28.12-2.86-11.8-3-23-8.48-35.49-9.12-5.72-.37-11.34-1.94-17.06-.09-1.48.46-3.41-.47-5.07-.37-10.6.64-21,2.85-31.44,4.51-8.76,1.39-16.59,4.43-24.8,7"/><path class="cls-1" d="M1174.05,1070.33c-.73,16.87,6.55,29.22,21.76,36.23,5.53,2.58,10,6.27,14.57,10,3.41,2.76,6.73,5.16,11.15,5.9,1.11.18.93,1,.93,1.84"/><path class="cls-1" d="M1277.77,849.07c-6.82,9.21-8.2,19.45-5.25,30.23-4.43,2.77-9.22,2.68-13.74,3.88-7.93,2.12-15.86,4-22.68,9.12a24.66,24.66,0,0,0-5.9,6.09"/><path class="cls-1" d="M1225.68,1094.67c-1.2-5.81-4.15-8.67-7.19-6.27-4.42,3.41-8.39,1.19-12.63.73-7.74-.83-14.29-4-20.37-8.66-2.77-2.12-6.18-3.69-10-2.4"/><path class="cls-1" d="M1399,1013.81c5.63.19,9.41,4.34,12.17,7.84,5.44,6.73,12.82,9.22,20.1,12.08,4.7,1.84,9.77,2.67,14.75,3.78a14,14,0,0,1,6,2.3"/><path class="cls-1" d="M1156.35,1095.22c4.06,6.73,8.3,13.18,14.2,18.81,3.69,3.59,6.92,8.11,11,11.61,4.43,3.78,9.68,6.09,14.75,8.67,4.06,2,7.29,4.61,9.22,8.85.74,1.75,2.4,2.21,4.15,2.3l6,.28"/><path class="cls-1" d="M1102.14,980c3.78,1.75,6.73,4.61,9.68,7.37,7,6.83,13.83,13.83,20.75,20.75,4.7,4.7,10,8.66,15.3,12.81a2,2,0,0,1,.83,1.94"/><path class="cls-1" d="M1207.7,1115.87c-2.67,3.23-6.08,3.32-9.68,2.3-6-1.66-12-3.5-18-5-2.77-.74-5.72-1.29-8.3.92"/><path class="cls-1" d="M1304.51,880.78c.18.55.18,1.47.46,1.57,13.18,3.22,24.52,9.77,34.57,18.71.18.19.55,0,.92,0"/><path class="cls-1" d="M1471.1,621.35c-2.31,8.3-3.51,16.87-6.73,24.89-1.48,3.6-2.77,7.19-6.46,9.22"/><path class="cls-1" d="M972.61,1035.29a7.11,7.11,0,0,1,.56,6.92,38.94,38.94,0,0,1-15.4,18.71c-1.93,1.29-3.32,3.23-5.44,4.34-2.58,1.38-2.4,3.59-1.38,6"/><path class="cls-1" d="M1272.7,880.41c1.66,1.84,3.5,3.6,5.07,5.53,5,6,11.8,6.46,18.35.83a20.72,20.72,0,0,1,8.39-4.52"/><path class="cls-1" d="M1576.93,832.47c-3.87-5.16-7.74-10.42-13.36-13.74-3.88-2.3-8.12-4.05-12.91-2.85"/><path class="cls-1" d="M948.18,1047.28c-3.87-.28-7.28,1.2-10.6,2.76-3.5,1.66-7.1,3-11.06,2.77-2.31-.09-4.43-.37-5.53-2.77"/><path class="cls-1" d="M1344.61,343.3c-3.5,4.42-8.94,4.7-13.83,5.9s-9.68,2.67-12.45,7.47"/><path class="cls-1" d="M977.68,1063.87c2.68,7.84-2.12,14-4.6,20.75-.93,2.58-2.22,5.07-.47,7.83"/><path class="cls-1" d="M976.76,1065.16c-6.54,2.31-12.9,5.35-19.82,6.37s-13.83,1.56-20.74,2.39"/><path class="cls-1" d="M903.93,1032c4.7,3.51,10.33,3.32,15.67,4.15a71.32,71.32,0,0,0,22.59.46"/><path class="cls-1" d="M1597.22,810.71c-4,1.66-5.63,5.54-7.75,8.85A97.82,97.82,0,0,1,1576,835.61"/><path class="cls-1" d="M1139.94,985.69c5,2.22,2.68,7,3,10.42.46,4.8-.64,9.77-1.2,14.75a6.42,6.42,0,0,1-1.29,2.31"/><path class="cls-1" d="M1044.06,1057.79c.74,1.66,1.48,3.41,2.31,5.07,1.84,3.32,2.49,7.37,7.74,8.2,2,.28,3.87,4.06,5.07,6.64a46.2,46.2,0,0,0,9.31,12.91c1.29,1.29,2.68,2.4,4.61,2.3"/><path class="cls-1" d="M1228.91,614.34c.64,4.43,3.78,7.66,5.53,11.53.37.83.92,1.47,1.38,2.3,2.68,5.35,1.94,7.29-4.61,12"/><path class="cls-1" d="M1117.36,569.17c1.93,3.78,6.27,4.52,9.22,6.91,8,6.46,16.22,12.63,19.36,23"/><path class="cls-1" d="M980.91,1029.21c-2.67-.37-4.79,1.2-6.36,2.86-3.5,3.5-8.2,5.34-12.17,8.11-1.94,1.38-4.7,1.84-7.28,1.94"/><path class="cls-1" d="M1061.4,1023.31c.64,7,.09,13.83-3,20.28a32.67,32.67,0,0,0-3.32,19.82c.37,2.4-.19,4.89-.37,7.38"/><path class="cls-1" d="M1087.39,473.29c3.51,1.2,4.8,4,5,7.38.09,1.38.46,2,1.94,1.84"/><path class="cls-1" d="M1188.8,1168.42c.19,1.57-.82,2.76-1.1,4.15-.65,3-1.29,6.17,2.49,7.83"/><path class="cls-1" d="M630.58,1876.09c7.1,3.87,15,2.76,22.59,3.13,10.32.46,20.65.28,30.88-2.49,8.12-2.12,16.78-2.21,24.8-4.88,10.79-3.51,21.67-6.73,32.73-9.22,8.3-1.85,16.6-2.22,24.89-3.05,11.25-1.19,22.5-2.39,32.73-7.83,11.34-6.09,15.95-16.41,17.52-28.58.09-1,0-2.12,0-3.23,0-6.54-1.94-8.48-8.3-9.22-16.59-1.93-33.19,0-49.78-1-12.45-.74-25.08-.83-37.34-3.6a179.82,179.82,0,0,1-23.6-7.65c-4.61-1.75-9.78-1.94-14.66-2.58-10-1.29-19.55.18-29,2.86-1.85.55-4,.37-6,.55"/><path class="cls-1" d="M808.51,1613.06c-.46-.74-.74-1.66-1.38-2-10.42-5.62-18.44-14.56-28.12-21.2-16.5-11.16-32.73-22.77-48.31-35.22-8.57-6.82-16.59-14.38-25-21.57a36.77,36.77,0,0,0-14.75-8.3c-2.58-.64-5.07-1.2-7.38.92-10.6,9.78-23.05,17.06-35.12,24.8-15.86,10.14-32.18,19.46-48.31,29.14-3.14,1.84-5.72,4.15-7,7.83a13,13,0,0,1-3.59,5.07c-5.44,4.52-6.83,10.61-6.83,17.15.1,7.65-.64,15.4.46,23,.37,2.3-.92,3.41-2.39,4.61-6.27,5.35-14.48,7.84-20.56,13.09-9.77,8.3-21.76,14.38-27.84,26.55a20.11,20.11,0,0,0-1.85,9.22c0,8.3.28,16.6-.09,24.89-.28,6.09,2.21,10.24,7,13.37,1.84,1.2,3.68,2.49,5.53,3.69,7.28,4.79,10.69,13.73,7.19,21.57-3.69,8.3-5.26,17.24-8.94,25.45-4.89,10.69-1.29,20.46,5.53,28.94,5.25,6.46,10.05,13.19,13.09,20.93a198.94,198.94,0,0,0,11.62,23.51,24.16,24.16,0,0,1,1.93,6.92c1.38,7.46,4.7,13.82,11.16,17.88,6.73,4.33,9,10.42,9.22,18.07.37,15.12,6.17,27.47,17.79,37.52,4,3.41,6.45,8.48,11.71,10.42,3.59,1.29,7.37,2.21,11.06,3.23a63.49,63.49,0,0,0,34.48-.19c6-1.66,12-3.5,18.07-5.25a103.15,103.15,0,0,0,17.06-6.55c7.09-3.5,14.47-6.08,22.58-6"/><path class="cls-1" d="M1866.88,1767.67c-2.86-1.57-4.24,1.1-5.44,2.4-8.11,8.38-17.15,15.48-26.37,22.49-7.1,5.35-10,12.35-10.78,21.2-.74,9.68,2.85,15.59,11.7,19,2.59,1,4.61,2.85,7.38,3.68,5.35,1.66,10.23-.27,14.75-2.12,7.93-3.22,16-5.8,24.06-8.57,5.44-1.84,11.16-3.23,16.6-5.16,6.27-2.22,12.54-4.15,18.8-6.18a114.21,114.21,0,0,0,22.59-10.51,192.1,192.1,0,0,1,23.51-12.45c10-4.42,19.36-10.32,29.59-14.56,8-3.32,15.49-8.39,24.9-7.47,2.49.28,4.79.18,6.45,2.4,1.29,1.66,3.32,1.93,5.07,2.76,3.13,1.57,6.18,3.32,9.22,5s4,4.33,4.24,7.84c1,14.93-7.56,24.24-18.07,32.82a43.67,43.67,0,0,1-12.08,7.19c-9.22,3.59-15.76,11.15-24.8,14.93a424.19,424.19,0,0,1-42.87,15.58c-16.68,4.89-32.36,11.71-46.55,21.76a52.3,52.3,0,0,1-22.22,9.31,72.83,72.83,0,0,1-25.26-.64c-3.6-.74-7.1-1.75-10.6-2.77-13.37-3.78-15.49-7.74-10.7-21.66,2.68-7.75,7.65-13.83,13.46-19.27a24.71,24.71,0,0,0,5.07-6.92"/><path class="cls-1" d="M602.92,1721.57a31.66,31.66,0,0,0,10.14-2.76c1.3-.56,2.4-1,3.78.37,2.12,2.39,5.07,2.85,8.21,2.85,6.18-.09,12.35.46,18.44-.18,8.2-.74,16.32-2.21,24.43-3.6,7.65-1.29,15.3-2.76,23.05-3.78,5.53-.73,11.71-.09,16.22-4.88.46-.56,1.85-.65,2.68-.46,9,1.84,18.16,3.68,27.19,4.24,16,1,30.7,6.45,46.1,9.4,8.76,1.66,17.52,3,26.27,4.61,3.78.74,5.9,3.87,9.13,5.35,4.06,1.84,7.47,4.88,11.62,6.73,4.24,2,6.45,6.08,9.22,9.68,1.1,1.47,2.12,3.13,3.22,4.61,3.23,4,3.32,6.45-.55,9.59-4.61,3.78-9.68,6.91-14.2,10.69-7.47,6.18-16.59,6.36-25.44,7.74-13.92,2.12-27.94.65-41.95.93-19.82.36-39.55,3.5-59.46,2.3-6.18-.37-12.27-.92-18.44-.83a43.63,43.63,0,0,0-15.68,3.23c-8.48,3.22-17.42,3.69-26.27,5.07-8,1.2-16,2-24.06,3.32a88.65,88.65,0,0,1-15.67,1.38"/><path class="cls-1" d="M1984.42,1593.06c-2.3-2.58-2.21-5.35-.92-8.3,2.49-5.62,5.9-10.6,9.22-15.67,3.41-5.26,3.23-6.92-.46-11.53a10.82,10.82,0,0,1-1.84-2.76c-3-9.41-10-16-15.31-24-3.22-4.8-5.16-5.72-10.6-4.15-17,5.07-33,11.89-45.08,25.35-7.65,8.57-14.38,17.89-21.76,26.64-9.59,11.16-18,23.42-29,33.19a258,258,0,0,0-26.27,26.83c-1.76,2-3,3.78-3,6.92.1,2.85-2.58,5.53-4,8.2a112.36,112.36,0,0,0-10.88,31c-.28,1.38-1.2.74-1.85.92"/><path class="cls-1" d="M811.74,1727.66c.09-3.05,2.76-4.61,4.24-6.83a16.52,16.52,0,0,0,3.13-10.23c-.18-9.59.19-19.17-1.93-28.58a18.94,18.94,0,0,0-6.92-11.06c-10.23-8-20.83-15.49-32.63-21.39-6.55-3.23-12.82-6.45-19.73-8.94-17.79-6.36-34.48-15.4-50.89-24.89-8.21-4.8-16.87-8.67-24.8-13.93a5.47,5.47,0,0,0-5.07-.55c-17,6.27-34.3,11.62-51.54,17.24-9.77,3.14-20,4.89-29,10-2.39,1.38-5.16,2.21-7.28,3.78-1.66,1.29-3.32,1.29-5.16,1.29"/><path class="cls-1" d="M804.82,1906.88c.1,2.3-1.19,4.06-2.76,5.53-14.75,13.74-30.61,25.72-49.79,32.73-7.46,2.67-15.3,4.61-22.12,8.76-10.42,6.36-21.11,12-32.73,15.58-4.15,1.29-6.73,4.42-9.59,7-9.22,8.39-19.54,15.22-29.59,22.5-4.06,3-7.1,6.73-10.6,10.23"/><path class="cls-1" d="M2023.61,1770.43c4.24-6.63,8.29-13.55,14.75-18.43,2.67-2,4.33-5,6-7.84a137,137,0,0,1,16.69-22.59c3-3.32,2.85-7.37,2.12-11.06-2.31-11.71-5.26-23.23-15.12-31.35l-.46-.46c-5.35-5.44-9.32-12.54-18.9-11.71-6.92.56-13.56.93-19.92,4.25-3,1.56-6.54,3.68-10,.55"/><path class="cls-1" d="M1824.47,1686.17c7.93,5,16.5,8.48,25,12.35,5,2.31,12.63-1.19,16-7.28a52.74,52.74,0,0,1,12-14.29c7.19-6.27,13.64-13.37,20.74-19.82a138.54,138.54,0,0,1,27.75-20.19c5.53-3,10.88-6.27,16.14-9.68,9.12-6,19.91-8.85,28.3-16.41,5.44-4.89,10.51-10,14.1-16.32,1.2-2.21,3.32-2.86,5.17-3.5,6.73-2.49,13.92-2.12,20.65-1.2,5.9.83,9.4,6,11.06,11.71,4,13.37,7.74,26.73,11.52,40.1,1.57,5.53.83,7.38-4.14,10.6-6.09,3.78-12,8.12-18.53,10.88-5.54,2.31-9.59,6.09-13.65,10-7.74,7.37-16.13,13.92-23.23,21.94-5.81,6.45-13.37,11-20.56,15.77-13,8.66-25.45,18.62-39.37,25.44s-27,15.12-40.84,22.13c-8.11,4.15-17,5.62-25.44,8.66-4,1.39-7.47,3.88-12,3.78-5.07-.09-6.45-.92-6.82-6-.46-6.08.37-11.62,3.87-17.15,7.19-11.34,15-22.22,22.22-33.56,2.21-3.5,4.06-7.28,6-11.06a6.08,6.08,0,0,0,.46-5.07"/><path class="cls-1" d="M707.56,1709.22c-1.66-3.87-5.35-5.26-8.76-5.9-11.89-2-23.41-5.72-35-8.94-5.25-1.48-9.77,0-13.83,3.22-7.83,6.36-16.22,11.53-25.81,14.75a21.83,21.83,0,0,0-7.84,5.07"/><path class="cls-1" d="M811.28,1611.86c-2.4-.27-2.77,1.85-3.69,3.23-3.41,5.16-7.38,9.77-12.91,12.91-6.73,3.87-13,8.48-20.28,11.52a31.23,31.23,0,0,0-4.61,3.14"/><path class="cls-1" d="M1863.65,1762.14c.46,1.66.92,3.41,1.38,5.07"/><path class="cls-1" d="M1877.2,1613.43a43.15,43.15,0,0,0,4.71-23c-1.48-24.15,2.3-48,4.79-71.91,1.84-18.44,1-37,3.32-55.31,3.69-29.41,8.3-58.91,8.94-88.51.92-40.93,8.76-81.4,5.72-122.61-1.57-21.39-9.13-40.57-13.55-60.76-.47-2.21-1.39-4.24-1.85-6.45-2.76-13.83-2.67-13.74-16.59-13.83-28.12-.18-56,3.32-83.9,5.26-19,1.29-38.07.64-57.16.18-19.27-.55-38.16,2.77-57.16,5a1283.21,1283.21,0,0,1-195.44,8.76c-37.16-1.29-74.31-2.86-111.56-3.78-56.88-1.29-113.67-2.31-170.55-4-32-.92-64,.28-95.88-1.47-25.17-1.39-50.52-3-75.51-5.81-32.26-3.6-64.53-2.86-96.8-3.23-25-.18-49.78-3.22-74.68-5-13.82-1-27.74-.92-41.48-1.19-26.74-.47-53.38-3-80.21-2.31-6.91.18-12.44,2.21-16.69,8.3-8.94,12.72-15.76,26.46-22,40.65-4.15,9.32-2.12,19.18-1.57,28.58,1,15.4,3.6,30.7,5.53,46.1,5.26,41.49,5.26,83.16,2.49,124.46-2.3,35.31-.18,71-6.45,106.11-.74,4.15-.09,8.58-.09,12.91"/><path class="cls-1" d="M681.66,2357.33c3.68,11.52,13.82,17.33,22,25,24.15,22.87,52.55,37.71,83.89,47.94q50.63,16.61,102.43,28.31c22.4,5.07,45.27,7.1,68.22,7.46,38.26.65,76.25-1.93,114.32-6,29-3,55.68-12.81,83-21.57,42.6-13.65,86-23.69,130.82-26.92,19.27-1.38,37.53-7.84,56.33-11.52,14.48-2.77,29.23-1.3,44.26,1.84,36.23,7.47,69.79,24.15,106.85,28.3,48.77,5.44,97.26,7.19,145.66-3.59,30.7-6.83,62-11.62,91.09-23.7,11.61-4.79,22.77-7.83,35.21-7,20.38,1.29,40.57-2.86,60.85-1.76,7.1.37,11.52-4.42,15.49-8.57,6.27-6.54,14.66-9.77,21.66-15.21,2.77-2.12,7.47-3.14,11.71-3.14,6.55-.09,13.09-.82,18.53-5.43-5.53-31.44-10.14-63-12.26-94.87-3.41-51.35-1-102.61-1.47-154-.19-24.62,1.66-49.14,2.58-73.75.46-13.28-4.15-26.28-1.85-39.65.65-3.78-2.85-4.15-4.7-5.44-26.36-18.34-45.73-44.06-69-65.64-3.87-3.59-5.16-8.48-4.7-13.73"/><path class="cls-1" d="M735.13,1877.93c.37,4.33,0,8.57.73,12.91,2.31,12.54,8.49,18.62,21.39,18.34,44.53-1,89.15-.64,133.68-3.22,30.89-1.85,62.14,1.2,93-.74,33.47-2.12,66.94-3.41,100.49-3.41,10.7,0,21,2.49,31.26,4.33,8.66,1.57,17.33,1.11,26,2.77,19.64,3.78,39.83,2.21,59.84,2.21,17.79,0,35.68.64,53.47-.09,46.1-2,92.19-4.15,138.29-3,32.54.74,65.08,3.23,97.72,4.34,53.56,1.84,106.58,13.37,160.42,10.69,15.11-.74,30.14-2.67,45.17-4.7a80.78,80.78,0,0,1,9.22-.65c38.44-1.1,76.79-5.43,115.24-4.51,20,.55,39.92.55,59.92.74"/><path class="cls-1" d="M314.73,1797.72c-20.28,29.23-40.93,58.08-60.66,87.68-12.26,18.44-19.92,39.55-30.89,58.72-13.46,23.51-18.8,49.05-23.41,74.86-5,28-5.26,56.79-2.12,84.64,2.49,21.85,5.9,43.42,5.71,65.55-.09,6.26-2.3,12.07-2.12,18.43a40,40,0,0,0,25.91,36.05c17.61,6.82,35.77,9.4,54.48,9.13,9.5-.19,19.09-.74,28.58.09,17.06,1.66,33.38-3,49.69-6.08,6.83-1.29,13.65-2.68,20.29-2.22,20.56,1.57,38.72-4.33,55.31-16,33.74-23.69,68.5-45.72,104.09-66.47,11.71-6.82,19.63-17.51,27.19-29.13,13.83-21.39,30-41.3,44.81-62,17.33-24.16,39.37-43.24,63.61-59.93"/><path class="cls-1" d="M2038.54,1840.13c2.67,2.68,6.09,1.85,9.22,1.85,21.2.09,42.41-.28,63.61.18a47.8,47.8,0,0,0,30.43-9.4c12.35-9,26.82-13.46,40.56-19.36,4.24-1.85,6.18-.56,8.48,3.59,22.13,40.75,43,82.14,61.22,124.74,13.73,32.08,27.66,64.35,36.41,98.46,4.24,16.32,4.8,33.19,6.18,49.78,1.38,17.06,5.16,33.65,6.73,50.71,2.49,27.93,8.11,55.59,4.7,83.89-.74,6.36-3.78,11.34-6.73,16.51-2.67,4.7-7.19,7.56-12.72,4.51-3.41-1.84-6.73-1.84-10.23-1.66-61.31,3.78-115.24-18.71-168.9-44.8-41.76-20.38-71.82-53-102.06-86.2-14.56-15.95-27.19-33.38-42.22-49-18.25-19.08-40.75-32.45-61.12-48.58-6.55-5.17-11.9-12.08-20.19-14.85"/><path class="cls-1" d="M1668,1054.75c11.43,9.86,23.32,18.34,39.64,16.59,17.89-1.94,34.94,2,50.62,10.23,17.6,9.22,36.5,14.29,55.4,19.09,27,6.82,51.54,20,77.35,29.68,10.24,3.88,21.3,5.35,31.26,9.32,21.29,8.57,39.64,20.83,53.93,40.1,21.39,28.85,37.61,60.2,46,94.4,7.19,28.95,15.86,57.16,24.62,85.56,6.08,19.82,16.41,38.07,22.12,58.08,8.3,29.22,16.69,58.54,25.73,87.58,13.55,43.89,29.13,87.22,43,131,15.49,48.86,34.57,96.25,53.65,143.72,3,7.29,7.66,14.39,6.64,23"/><path class="cls-1" d="M929.65,1062.12c-14.66-.83-28.58,1.2-41.58,9.13-14.29,8.76-31.34,9.86-46.92,14.93-17.61,5.72-35.68,10-53.66,14-16,3.5-32.82,6.27-49.6,6.17-20,0-39.92.1-59.92-.09A135.46,135.46,0,0,0,645.7,1110c-9.68,2.3-19.64.74-29.5,1.47-9.5.74-17.15,3.32-23,10.51-17.7,22.13-40.28,40.57-54.94,64.72-24.8,40.94-57.9,75.6-83.53,115.8-12.35,19.26-19.36,41-30.15,61-18.8,34.75-32,71.91-46.28,108.69-7.1,18.26-17.24,35.13-22.31,54.4-3.5,13.18-5.25,26.45-8,39.73-9.4,46-35.68,83.07-62.69,119.85-5.16,7.1-11.43,13.09-17.52,19.36-7.37,7.56-8.57,15.4-3.68,24.89,6.17,12.08,15.39,22,24.15,32.09,8.21,9.31,16.87,18.53,24.16,28.3s15.85,17,25.53,23.42c29.69,19.63,55.13,44.34,81.87,67.48,4.24,3.69,10.33,5.62,12.08,11.89"/><path class="cls-1" d="M1699.37,323.75c7.28,15.12,11.7,31.07,12,47.94,0,1.85-.18,3.69,0,5.54,3.41,29.22-6.64,55.4-18.53,81.12-5.72,12.36-2.4,14.94,9.31,21.21,9.22,4.89,18.35,10,27.66,14.75C1750.72,505,1764.27,522,1776.44,542c14.38,23.79,20.37,49.79,25.9,76a240.1,240.1,0,0,0,19.92,57c4.61,9.22,12.26,17.06,19.17,25a151.15,151.15,0,0,1,12.91,16.69c6.18,9.68,15.77,16.13,23.79,24.15,14.65,14.75,28.21,30.7,43.51,44.9,5.62,5.16,11.34,9.86,19.08,12.54,6.09,2.12,10.61,8.75,15.86,13.36"/><path class="cls-1" d="M1701.21,302.55a130.45,130.45,0,0,0,9.22,23.05c9.59,19.64,20.1,38.9,28.3,59.09,9.22,22.59,6.45,46.1.19,69-3.32,12.08-4.06,12.36,6.63,15.49a40.9,40.9,0,0,1,15.49,8.58c21.67,19.08,38.17,42.31,52.74,67.11,10.6,18.16,21.75,36,30.6,55.22,10.42,22.5,19.27,45.64,29.23,68.32a786.76,786.76,0,0,0,63.7,118c2,3.14,4.52,6,3.69,10.15"/><path class="cls-1" d="M595.92,1122.05c6.73,7.28,7.83,16.87,8.94,25.81a354.43,354.43,0,0,1,1.75,74.58c-1.57,17.61-6,34.94-8.11,52.55-2.21,18.44-3.69,36.88-4.33,55.32-1.3,38.07-1.11,76.15-1,114.32,0,15,4.24,29.41,5.72,44.25,1.75,17.79,5.44,35.22,9.49,52.64,2.58,11.06.46,23.23.46,34.94"/><path class="cls-1" d="M1181.25,1813.4c-1.3-51.91-.1-103.9-1.48-155.81-.37-12.35,1.38-25.72-4.43-38.26h-18.25c-2.95,12.54.55,24.52,1.38,36.42,1.85,24.89,4.15,49.78,3.23,74.67-1.11,28.4,5.16,56.42,3.78,84.82"/><path class="cls-1" d="M1361,1823.54c-.09-18.16-3-36.23-1.84-54.4a483.57,483.57,0,0,0-.1-66.37c-1.47-20.93-4.14-41.68-4.61-62.7-.18-7.65-5.9-8.11-11.89-7.37-5.71.64-11.34.74-11.15,9.22.46,23.69,2.58,47.39,3.41,71,1,31.25,7,61.95,7.74,93.11v3.69c.19,14.75-3.69,14.93,14.75,14.75,17.52-.19,17.33,0,17.61,17.52a266.2,266.2,0,0,1-2.4,34.84c-15.21,1.2-29.77-3.78-45.35-2.3-5.17-19-1.85-38.44-5.9-58.54,7.55.46,13.09-.46,18.62,1.1"/><path class="cls-1" d="M1625.61,1563.65c1.48-11.34.83-22.77.92-34.11.1-20.29.74-40.57-.18-60.85a283.47,283.47,0,0,0-7.1-53.47c-.46-1.75,0-3.69-.09-5.53-.28-14.48-9.13-23-24-23h-14.75v12c0,30.7.18,61.5-.09,92.2-.19,19.91,4.42,38.44,13,56.23,3.05,6.36,9.13,8.58,15.68,9.13,5.16.46,10.41.09,15.67.09"/><path class="cls-1" d="M1086.29,1811.55c-2.58-38.72-.65-77.44-2.31-116.16-.92-20.28-.83-40.56-1.29-60.85-.09-6-1.93-9-8.39-8.39-3,.37-6.17.1-10.42.1,1.48,11.7-1.84,22.49,2.12,33.18a6.8,6.8,0,0,1,0,2.77c-1.19,20,3.14,39.92,1.85,59.93-.83,12.81,1.1,25.35,3.78,37.79,3,14,.46,28.4,2.67,42.41.46,2.77.65,5.53.92,8.3"/><path class="cls-1" d="M689,1974.73c0,22.41,1.57,45-.37,67.3-2.39,27.38-2,54.67-1.57,82,.65,39.37,1.3,78.74-.18,118-1.11,30.15-2.95,60.2-3.87,90.35-.19,7.37.37,15.67-2.68,23"/><path class="cls-1" d="M1555.55,1695.48c1.93,1.94.83,4.34.83,6.46q.13,80.61.09,161.33c0,10-.09,10.14-10.14,10.14-5.81,0-11.71.1-17.52-.09-.65,0-1.2-1.11-.92-1.29,0-13.09-1.57-26.83.27-40,3.78-27,6.64-53.93,8.3-81.13.74-11.62,1.29-23.42,3.14-35.13.92-6-.37-12.26-.74-18.43"/><path class="cls-1" d="M898.31,1685.34v181.34c-14.75-3.22-14.75-3.22-14.75-17.24,0-20.92-1.48-41.94.37-62.69,2.67-30.42,0-60.94,2.39-91.27.19-2.76.46-5.62-.92-8.3"/><path class="cls-1" d="M1456.9,1807.86c-4.52,4.89-10.51,3.05-15.67,2.49-9.31-1-17.34,2.4-25.82,4.8-4.15,1.2-4.51,3.69-4.7,7.47-.83,12.35,3.87,23.87,4.7,36,0,.55.65,1.11.83,1.84,1.11,4.61-2.39,10.42,3,13.65,4.43,2.67,9.87,1.38,14.66.92,10-.92,19.64,3.23,30,1.66,1.57-21.11-.55-41.67-.55-62.32,0-1.2-.18-3-.92-3.6-10.88-9.68-7.56-22.86-9.4-35-6.27-42.32-2.12-84.82-3.51-127.23-.37-13.09-7.28-18.16-20.28-15.76-5.72,1-4.79,4.89-4.52,8.39,1.85,22.49,4.61,45,8.21,67.3,2.39,14.93,1.38,30.15,2.67,45.17,1.57,18.35.92,36.88,1,55.32"/><path class="cls-1" d="M1803.54,234.33c-1.84-7.47-7.19-12.08-12.9-16.6a98.09,98.09,0,0,0-34.12-17.7c-23.23-6.82-43.42-20.65-65.45-30.42a181.58,181.58,0,0,0-42.5-12.72c-8.67-1.57-16.23,2.39-24.34,4.79,1.2,5.26,4.52,8.3,7.84,10.69,21.38,15.4,38.16,35,53.56,56.24,16.69,23,38.81,39.74,63.43,53.66,9.31,5.34,18.34,11.25,28.67,15,1.94-3.69.55-6.27-1.84-8.67-9.32-9.31-15.68-20.74-23-31.35-7.56-10.88-4.79-17.42,8.2-20.19,9.68-2,19.64-.55,29.51-1,4.33-.18,8.66.92,12.9-.92"/><path class="cls-1" d="M1117.63,121.85c-30.79-6.54-59.18,5.07-88.59,10.51-25.08,4.71-48.13,14.39-71.73,22.87-5.53,1.93-12.45.73-17,6.73,2.39,3.78,6.36,4.7,10.41,6.08,13.56,4.7,26.92,9.87,36,22,4,5.34,9.59,2.67,11.71-.19,11.25-15.12,29.5-19.54,43.7-30s29.59-19.82,45-28.86c6.08-3.5,13.64-4.24,18.53-10"/><path class="cls-1" d="M1812.76,300.71c.92,0,2.12-.37,2.77.09,15.3,11.8,33.83,15.76,51.72,19.82,21.39,4.89,33.09,19.18,43.24,36.32,3.59,6.18,7.56,12.17,11,18.44,4.7,8.39,9.86,16.14,18.43,21.3,8,4.88,12.82,12.72,17.06,21-7.56,4.79-13.37,0-17.79-3.78-24.8-21.39-53.66-37-79.56-56.79-4.25-3.23-9.87-5-14.57-7.75-17.43-10.23-25.35-28-34.11-45-.46-.83.55-2.39.83-3.78-2.77-1.19-5.53-2.3-8.3-3.5"/><path class="cls-1" d="M1848.62,1399.55c3.78-8.86,4.15-18.35,4.43-27.66,1.2-37.25-3.23-74.31-2.58-111.56.09-6.36-1.94-9.77-9.22-9.31-29,1.94-57.9,3.51-86.75,8.85-26.46,5-53.48,8.49-80.21-1.29-9.31-3.41-12.26-1.2-12.72,9.13-.83,17.24,1.19,34.48,2.85,51.63,1.11,11.71.1,23.41,2.22,35.12,2.21,12.73,5.71,25.45,3.68,39.55H1689c33.83,0,67.58-.46,101.41.19,18.81.37,37.8.27,56.24,5.25,1.29.37,1.84,1.29,2.76,1.94"/><path class="cls-1" d="M796.9,547.78c10.41-8.76,12.81-22.59,20.28-33.19a194.1,194.1,0,0,1,62.6-57.34c17.42-10,33.09-21.48,40-42.23,4.52-13.64,14.93-24.33,22-36.87,15.95-28.31,28.58-58.27,42.23-87.68,3.41-7.28,4.42-14.56,1.19-22.86-15,8.67-24,22.49-31.06,36.05-10.51,20-22.5,39-34.85,57.62a186.81,186.81,0,0,1-63.25,59.37c-28,16.13-45.45,41.21-55.4,71.72A159.28,159.28,0,0,0,793,537.55c-.18,5,4.15,8.85,2.12,13.83"/><path class="cls-1" d="M998.7,1757.16c-2-15-1.56-30.15-.64-45.18,1.57-26.45,1.47-52.82,1.57-79.28,0-14.66-.37-14.94-16.14-12.82-2.21,46.56,1.94,92.84,6,139.12"/><path class="cls-1" d="M989.49,458.35c-13.83,16.32-24.62,35.22-43.33,47a249.22,249.22,0,0,0-52.28,44.44c-19.82,22-43,40.93-59.19,66.19a290,290,0,0,0-35.49,80.3c-2,7.38-4.79,16.14-.74,24.89,2,4.43-2.49,9.5-1.56,14.66"/><path class="cls-1" d="M1861.53,841.87c-2.12-6.08-7.1-10.78-11.34-14.38-14.47-12.17-20.83-29.22-30.15-44.62-10-16.41-20.83-32.08-37-43.24A44.63,44.63,0,0,0,1772,734.1c-8.85-2.86-13,1.38-11.06,11,2.12,10.33,7.19,19.46,12,28.58,17.43,33,44,55.87,78.28,70.16,3.78,1.57,7.19,3.32,10.14-1"/><path class="cls-1" d="M902.92,804.08C914.44,822.51,916,843,914.9,864c-.83,15.67,2,31.53-1.93,47-3.88,15.21-10.33,29.5-15.49,44.25-4.15,11.89-11.53,22.22-15.77,34.11-7.37,20.93-6.64,42.78-6.27,64.54a97.59,97.59,0,0,0,.65,10.14"/><path class="cls-1" d="M2009,1884.38c17.33,10.61,31.25,25.26,46.83,38,27.75,22.77,59.47,39,89.71,57.71,19,11.8,38.44,22.86,55.31,37.89a351.13,351.13,0,0,0,35.86,27.75,64,64,0,0,1,22.13,24.89"/><path class="cls-1" d="M914.9,625.22c1.2,4.43-2,6.64-4.61,9.22-28.3,27.48-50.15,59.83-71.17,93-15.76,24.8-26,51.82-34.76,79.47-5.16,16.41-10.23,32.92-20.56,46.84C774,867,770.25,884.19,756.42,894.52c-.55.46-.09,2.39-.09,3.59"/><path class="cls-1" d="M1755.6,864.92c-2.67,6.18-.27,12.36,2.12,17.43,10.14,21.94,18.53,44.89,33,64.53,19.17,26,43.79,45.82,71.72,62,23.14,13.28,45.92,27.29,62.6,48.87,7.1,9.12,12.63,19.08,13.09,31.25.28,5.35,4.52,10,3.6,15.67"/><path class="cls-1" d="M916.75,643.66c.64,4.06-1.39,7.19-3.69,10.14a145.51,145.51,0,0,0-28.58,59.93c-3,13.83-7.47,27.1-15.77,38.72-8.85,12.35-12.44,27-18.25,40.65-7.19,17-15.21,33-28.67,46.1s-24.8,28.21-41.4,37.89C777,879,774,880.6,770.16,880.6"/><path class="cls-1" d="M2043.15,533c5.81,12,11,24.43,17.7,35.86,10.7,18.17,20.65,37.16,39.37,49.05,4.7,3,10.51,5.53,14.56,3.13,4.34-2.58,2.68-9.49,1.85-14.29-1.39-8-5.72-15.12-10-22.12-10-16.69-17.15-34.76-24.89-52.55-3.23-7.56-9-13-14.84-18.35-4.15-3.87-9.68-3.32-14.66-2.67-4.15.55-5.9,3.41-5.72,8.11.19,4.89,1.75,10.14-1.66,14.75"/><path class="cls-1" d="M1886.42,897.1c10.42,15.49,20.29,31.25,34.94,43.42A115.55,115.55,0,0,1,1950,976.38c6.91,13.56,19.08,23.6,25,37.8a267.77,267.77,0,0,1,16.87,58.08c2.58,15.49.74,30.79,1.57,46.1a10.27,10.27,0,0,1-1.57,6.54,26.58,26.58,0,0,0-3.87,16.41"/><path class="cls-1" d="M1880,901.71c-5.26,16.5,1.2,30.7,9.31,44.16,9.68,16.22,24.25,28.76,35.13,44.16,19,26.73,35,54.94,45.72,85.92,5.54,16,9.5,32.45,13.83,48.86.56,2.12,1.85,3.14,3,4.61"/><path class="cls-1" d="M942.56,607.71c5.44-13.65,9.4-27.48,6.73-42.5-6.73-3.32-11.43,1.66-14.84,4.88-26.09,24.25-55,45.64-77.72,73.39-6.55,8-15.31,14-22.31,21.94-12.63,14.2-22.68,29.5-29.32,47.2-1.11,3-2.21,6.45-5.44,8.3"/><path class="cls-1" d="M762.78,645.51c-1,6.63-6.08,11.15-8.94,16.77-10.14,20-20.65,39.83-27.19,61.59-4,13.18-3.6,26.37-3.42,39.64a27.2,27.2,0,0,1-3.78,14.75c-15.85,28-31.71,56.24-49.78,83-2,3-3.13,6.37-1.84,10.15"/><path class="cls-1" d="M894.62,805.92c.09,11.71-7.93,19.08-14.84,26.64-10.61,11.53-21.48,22.77-33.19,33.19C827,883.18,817.55,906,812,930.47A282.39,282.39,0,0,1,799,972c-7.66,19.63-5.72,32.08,10.78,46"/><path class="cls-1" d="M583,946c-6.82,3-11.8,8-16.78,13.74-15.3,17.7-35.12,29.13-56.05,38.9-9.22,4.24-16,11.06-22.31,19.18-23.14,29.87-40.38,63.24-56.89,97-3.13,6.46-6.63,13.37-3.77,21.12"/><path class="cls-1" d="M1268.83,1811.55c0-24.89-1.29-49.87.46-74.67,1.29-18.17-.28-36.42,1.75-54.4,1.38-12.63.92-25.44,4.89-37.89,3.68-11.52.27-14.66-11.71-14.66H1246.7c0,44,.55,86.94-.27,130-.37,15.95-1.3,32-2.49,47.94"/><path class="cls-1" d="M760,657.49c2.4,8.48.18,17.24,1.75,25.81,3,16.78,5.35,33.84,7.1,50.71,3.32,33,1.11,65.73-18,94.87-2.76,4.24-5.81,8.48-8.2,12.9-6.55,12.17-18,19.55-27.75,28.58"/><path class="cls-1" d="M759.1,477.72c-3.6,7.28-6.83,14.56-11.71,21.38-18.44,25.82-36,52.37-50.25,80.86-5.71,11.24-7,23.14-9,35.12-3.41,20.19-3.14,40.75-7.1,60.85-.92,4.61-1.75,10.14,1.66,14.75"/><path class="cls-1" d="M753.57,494.31c1,20.28,1.75,40.47-.65,60.85-1.66,13.92-3.69,27.65-6.08,41.39-2.68,15.21-10.24,29-20.29,40.38-13.73,15.77-25.72,32.64-38.63,49-5.34,6.82-11.52,12.72-10.87,22.21"/><path class="cls-1" d="M1243,1808.79h-14.56c.46,19.17-5.35,36.87-4,55.31.74,10,2.12,11.89,12.08,12,12.26.09,24.62-.1,36.88.09,5.9.09,8.48-1.66,8.48-8.3.09-17.33-3.32-33.74-9.22-49.87-1.38-3.69-2.58-5-6.55-5.72-7.09-1.29-13.82-4.15-21.2-3.41"/><path class="cls-1" d="M795.05,1529.54c-7.1,7.65-15.3,14.29-21.2,23-8,11.9-6.73,33,6.45,42.41,7.28,5.17,29.78,1.57,36.79-6.54,9.4-11,17.24-22.87,14.93-38.63-2-14-11.25-28-28.67-26.83-4.06.28-6.64,1.48-7.38,5.62"/><path class="cls-1" d="M1104.73,1814.32c-14.48.92-28.86-4-43.61-1.29-2.67,8.76-1.38,17.51-1.57,26.18-.18,12,.19,24-.18,36-.1,4.43,1.93,6.64,5.53,5.35,11.8-4.15,24-2.3,36-2.49,5.71-.09,7.65-1.84,7.46-7.56-.46-17.51.65-35-1-52.55"/><path class="cls-1" d="M809.8,1019.71c1-5.62,5-9.86,7.65-14.66,6.92-12.53,7.75-26.73,12.08-39.91A173.17,173.17,0,0,1,861.25,908c5.25-6.37,9.77-11.8,19.17-10.88,6,18.53,4.06,36.23-7,52.45-17.71,26-26.74,55-32.55,85.74-2.76,14.57-3.23,28.86-3.32,43.43"/><path class="cls-1" d="M1182.17,1814.32c3.41.27,6.91-.56,11.06.92v62.69c0,4-1.66,6.27-5.53,5.44a145.33,145.33,0,0,0-36.51-2.58c-2.4-15.67-.92-30.52-1.11-45.27,0-.92.65-2.39.74-3.69.74-11.52,1.94-13.92,13-15.3,5.44-.74,11-2.3,16.6-2.12"/><path class="cls-1" d="M1744.54,859.39c2.4,9.31-2.21,17.43-4.79,25.72-5,16.6-9.59,33.28-8,50.71,2,23.69,10.24,45.36,25.91,63.52,8.48,9.86,17.61,19.27,25.81,29.5,2.22,2.67,2.59,5.53,4.25,9.13a36.66,36.66,0,0,1-25.63.18c-11.44-4.05-22.78-8.11-35-9.22-2.39-.18-4.42-1.84-6.54,1-2.31,3.22,0,4.88,1.93,6.45,4.43,3.69,7.66,8.11,8.21,13.92s-1.66,10-8.21,10c-5.16,0-9.77,2.4-14.75,2.86"/><path class="cls-1" d="M771.08,378.15c5.26,6.17,1.2,11.61-.83,17.51-5.44,15.95-16.78,28.21-24.89,42.41-11.8,20.38-28.76,36.23-44.34,53.47-13.19,14.57-20.75,32.64-31.17,49-2.39,3.69-3.31,8.2-8.48,9.13"/><path class="cls-1" d="M1782.34,387.37c-3.32,2.76-1,5.44-.09,8.29,4,12.54,5.62,25.63,6.45,38.72.64,9.87,5.35,16.42,13.83,21.3,21.11,12.17,42.13,24.52,60,41.4,9,8.48,18.71,16.31,25.9,26.64,1.85,2.67,4.15,5.72,8.21,5.62"/><path class="cls-1" d="M778.46,188.23c-7,11-10.7,23.51-16.6,35-3.5,6.83-8.76,11.07-16.59,12.08-15,1.85-28.95,7.29-42.41,13.83-19,9.31-38,18.62-56.33,29.41a59.55,59.55,0,0,1-19.36,7.47,1.59,1.59,0,0,1-.92,0c-.19-.19,0-.56,0,.55-1.94-5.16,1.29-7.37,2.86-9.77,17.24-26,43.42-39.64,70.89-51.72,17.24-7.56,34.39-15.49,51.63-23,7.28-3.22,14.29-7.28,22.13-9.31"/><path class="cls-1" d="M985.8,1524.93c-18.53,5-29.14,19-29.6,37.8-.36,15.94,11.44,24.06,24.07,25.72,13.09,1.66,21.29-5.72,24.61-20.29a120.74,120.74,0,0,0,2.21-15.58c1.48-17.79-4.05-22.68-20.37-27.65"/><path class="cls-1" d="M806.12,1445.64c-17.52-6.18-31.81-1.66-35.68,13-3.78,14.2-4.43,24.52,7.19,33,10.69,7.83,22.77,5.34,33.92.92a25.68,25.68,0,0,0,16.69-25.63c-.46-9.5-10.88-19.55-21.2-20.28"/><path class="cls-1" d="M1270.67,1447.49c-14.29-4.89-26.09,2.39-29.41,18.43-1.29,6.36-1.84,13,0,19.36,3.23,11,15.4,16.69,28.49,13.83,19.18-4.24,30-26.83,21.2-44.25-3.41-6.64-8.85-8.76-19.36-7.37"/><path class="cls-1" d="M896.46,1536.91c-19.73-5.62-31.53,3.23-31.25,24,.09,7.65-1.66,15.49,1.66,23,6.08,14,16.87,17,28.67,7.28,10.79-8.76,19.27-18.71,17.61-34.11-1.11-10.32-6.91-18-15.76-19.36"/><path class="cls-1" d="M2009,931.21c5.81,11.25,14.2,19.27,26.73,23.14,22.32,6.91,35.59,24.06,47.21,43.14,8.39,13.74,10.23,29.23,13.64,44.35,3.23,14.2,4.15,28.86,10.05,42.41.46,1,.09,2.39.09,3.69"/><path class="cls-1" d="M1346.27,1542.44c-11.34,6.18-17.33,14.66-18,28.58-.64,13.74,9.87,23.7,26.28,25.72,4,.47,8-.46,12,.19,8.39,1.29,12.26-4.24,14.57-10.33,4.42-11.43-1.57-30.88-12-37.52-6.17-3.87-13.27-6.82-21-6.64"/><path class="cls-1" d="M986.72,1347.92c-16.32,5.53-23.14,17.15-23.05,38.72a22,22,0,0,0,24,22.12c10.79-.92,13.74-10,17.24-17.6,4.52-9.68,4.61-20.56,3.87-31.26-.64-8.76-8.48-12.81-21.11-11.06"/><path class="cls-1" d="M1169.26,1439.19c-2,1.29-4.24.92-6.45.92-15.31.28-21,5.07-23,20.28a62.76,62.76,0,0,0,0,16.6c1.48,9.58,10.14,11.43,17.43,12.72,17.24,3,38.25-7,36-30.15-.92-9.31-7.28-13.37-14-17.42-2.77-1.66-5.72-3.6-9.22-3.78"/><path class="cls-1" d="M1781.42,380c3.32,7.38,8.57,13.74,13.18,20,8.2,11.15,17.89,21.2,28.12,30.88,20.74,19.55,40.66,40,58,62.69,7.93,10.42,16.5,20.93,17.42,35.68.28,5.07,6.64,10,10.6,14.75a233.51,233.51,0,0,1,23,33.19"/><path class="cls-1" d="M1094.58,1536c-6.36-8.94-14.93-8.11-24-5.53-15.76,4.52-25.35,23.14-19.26,37.8,5.9,14.38,12.26,16.59,28.48,15.67,6.46-.37,13.56-9.31,15.68-19.36,1.93-9.22,3-18.44,0-27.66"/><path class="cls-1" d="M533.23,1086.09c-.19-2.12,4.24-4.33-1.66-7.28-3.6-1.48-4.71,11-11.34,4.42,4.7-12.17,11.34-24.34,3.32-37.61-23.7-1-33.38,16.78-44.63,32.27-13.36,18.43-27.38,36.23-43.33,52.55a63.2,63.2,0,0,1-9.31,7.28"/><path class="cls-1" d="M1943.58,674.08a132.61,132.61,0,0,1,32.27,26.74c15.86,18.25,25.63,38.81,27,63.61.74,14,4.52,27.85,8.11,41.49,1,3.78,2.31,7.37-.09,11.06"/><path class="cls-1" d="M649.39,657.49c-15.31,15.12-35.13,23.14-53.66,32.82-18.16,9.4-27.93,23.14-31.25,42.78a420.36,420.36,0,0,1-10.14,45.17c-1.11,3.69-1.48,7,1,10.14"/><path class="cls-1" d="M1157.28,1533.22c-13.93,6.37-15.86,19.36-17.43,32.27-1.11,8.67,1.75,16.13,8.21,22.13,3.13,2.86,6.73,3.87,11.06,3.78,20.1-.19,39.09-26.74,32.27-45.27-3.14-8.48-15.68-15.58-24.9-13.74a49.56,49.56,0,0,1-8.29.83"/><path class="cls-1" d="M1946.35,678.69c-2.58,7.84,2,14.75,3,22.13,2.12,16.69,3.41,33.47,8,49.78,7.47,26,24.8,44.9,45.45,60.57,13.46,10.24,19.36,24.16,24.71,39"/><path class="cls-1" d="M2135.34,871.38c2.77-6.73-.92-12.54-2.86-18.44-3.22-9.77-3.13-20.56-9-29.6-5.07-7.83-12.45-10.6-21.3-11.06-4-.18-6.82,2-5.34,5.44,3.5,7.74,2.76,16.13,4.61,24,2,8.3,6.73,15.3,15.48,18.53,6.64,2.49,11.8,6.82,16.69,11.89,1.84,1.94,1.48,3.69,1.75,5.63"/><path class="cls-1" d="M1266.06,1581.16c13.83-4.24,24.16-26.55,18.44-39.64-4-9-14.66-14.2-25.81-11.89s-17.15,10.51-17.43,20.19-1.84,19.91,8.21,26.83c4.88,3.32,10.42,3.32,15.67,4.51"/><path class="cls-1" d="M2010.88,947.8c-1.84,24.71,1.39,47.57,22.13,64.54,14.84,12.17,29,25.17,44.44,36.6,8.75,6.54,12.9,17.33,22.86,22.31"/><path class="cls-1" d="M762.78,379.07c-11,13.64-27.56,17.79-42.4,24.89-17.24,8.3-35.87,13.09-53.48,20.28a98.51,98.51,0,0,0-33.18,22.13c-1.57,1.66-2.12,3.41-.93,5.53"/><path class="cls-1" d="M1555.55,1694.56a8.48,8.48,0,0,1,5.53-1.94c11.8-.55,12.81-1.38,12.9-12.81.19-16.87,0-33.84,0-50.89-17.51-2.12-34.57.18-51.62,1.2-2.86.18-4.89,1.38-4.8,5.44.56,18.16-.64,36.32,2,54.39,1.2,7.84,4,10.33,11,8.11a107.84,107.84,0,0,1,24-4.42"/><path class="cls-1" d="M930.57,247.23c-5.43-1.38-8,3.78-11.8,5.81a272.47,272.47,0,0,1-33.28,14.57A53.23,53.23,0,0,0,864,282.08c-14.56,15.95-24.06,35-35.58,52.83-2.49,3.87-4.34,8.67-3.78,13.74,3,.18,5.62.46,8.39-1.76,16.77-13.27,34.94-24.33,53.28-35.31,15-8.94,24.71-23,32.36-38.53,4.8-9.68,14.66-16.87,13.09-29.5-.18-1.75,3.78-2.86,4.43-5.53"/><path class="cls-1" d="M560.88,1836.44c-29.22,15.68-58.45,31.16-87.49,47.11-12.17,6.73-25.17,10-38.81,10.7-4.42.28-8.11,2.49-10.79,4.24-16.68,11.06-36.14,13.18-54.67,17.88-23.5,5.9-47.57,7.47-71.81,6.64"/><path class="cls-1" d="M582.09,948.73c0,8.57-4.15,16-6.64,23.87-5.62,18.16-8.11,37-12.72,55.41-4.89,19.82-15.4,36.6-27.66,52.55"/><path class="cls-1" d="M1825.58,1625.42c10.78,2,21.48.27,33.28,1.19-.65-13.46-4-25-8.48-36.13-1.76-4.43-7.1-3.88-9.87-2.59-7.83,3.51-16,3.32-24.06,3.41-2.21,9.69,3.23,18.35,3.69,27.66"/><path class="cls-1" d="M1937.13,1088.86c-13.09-9-26.64-17.06-41.49-23-22.58-9.13-44.8-18.9-66.47-30.24-7.93-4.15-12.17-.65-11,8.11,1.29,9.22,5.62,17.06,11.89,24.07,9.59,10.6,18.44,21.57,22.31,35.86,1,3.69.83,6.08-2,8.39"/><path class="cls-1" d="M468.69,594.8c15.58,1.47,27.11-7.56,38.63-15.86a54.93,54.93,0,0,0,14.84-16.41c2.12-3.78,1.66-6.17-3.59-6.54-4.7-.37-8.3,1.75-12,3.87-15.21,8.66-29.78,18.16-38.72,34"/><path class="cls-1" d="M1743.62,1524.93c-9.13,2.67-18.44,1.66-28.31,1.93-3.31,9.5.93,18.44,2.49,27.57.65,3.41,3.78,3.59,6.36,3.69,7.66.18,15.4.09,23.88.09a112,112,0,0,0-3.59-32.27"/><path class="cls-1" d="M1735.32,1878.85a91.21,91.21,0,0,1-7.28-21.2c-1.11-5-3.23-6.92-8.39-6.55-6.73.46-13.55.09-21.39.09.64,10,1.2,19.18,4.89,27.57,4.42,10.23,19.17,11.43,30.33,2.77.64-.56,1.19-1.2,1.84-1.85"/><path class="cls-1" d="M1772.2,1882.54c8.39,3.23,16.68,1.84,25.35-1V1848h-29c-.28,10.32,2.86,19.54,4.61,29"/><path class="cls-1" d="M1700.29,1763.61c6.45,1.85,12.9.46,20.19,1.2.37-13.37-2.49-25.17-4-37.06-.83-6.91-17-8.94-22.77-3.78-1.75,1.66-.64,3.23-.74,4.7-.55,8.94,1,17.79,1.76,26.74"/><path class="cls-1" d="M908.45,1683.5c2-13.46.46-27,.92-40.57.28-8.29,0-16.59,0-24.89,0-3.23.09-7.56-4.61-6.27-11.62,3-23.51.65-35.49,2.12-2.86,24.34,4,47.76,3.41,72.28,12.17.55,23.32-4.15,34.85-2.67"/><path class="cls-1" d="M1667.1,1558.12h20.56c-2.49-11.9-4.7-22.59-7.1-34.21-7.93,5.35-16.41,5.07-24.53,6.55-.46,10.23,1.85,20,5.54,29.5"/><path class="cls-1" d="M1770.35,1625.42c6.92,2.67,13.65.18,20.29-1,4.7-.92,6.54-3.69,4.79-9.13a76.48,76.48,0,0,1-3.69-19.26c-.27-5.72-2.86-7.1-7.56-6.36-5.25.73-10.69-3.42-15.58.83.92,8.94,1.75,17.88,2.68,26.82"/><path class="cls-1" d="M406,800.39c-9.59,10.51-21.11,18.9-31.62,28.3-14,12.54-21.94,27.2-23.6,45.45-1.11,11.62-3.69,23.23-1,35"/><path class="cls-1" d="M697.33,444.53c-16.87,21.11-30.61,43.33-35.59,70.89-2.86,16,.37,31.53-2.21,47.11"/><path class="cls-1" d="M1665.25,1624.49c5.54-2.76,11.07.28,16.6.1,4.61-.19,8.85-1.66,7.1-6.46-2.77-7.37,0-15.12-3.23-22.31-1.2-2.58-1.66-5.44-4.79-4.42-7.29,2.49-14.85,1.38-22.13,1.75-2.86,8.66,1.2,16.22.92,23.88"/><path class="cls-1" d="M988.56,1759.92c-6.73,3.42-13.55-3.41-21,.37a164.7,164.7,0,0,0,1.57,32.82c1.66,11,.65,22.13,1.2,34.11,13-.27,25.35.83,38.07-1.56v-66.84c-6.45-2-12.16.09-18,1.1"/><path class="cls-1" d="M1714.12,1502.8h30c2.3-1.57,2.67-2.21,2.3-2.77-3.5-5.34.93-14.84-5.71-17-9.22-3-19.46-2.58-30.15-2.21.92,7.92,1.84,15,2.67,22"/><path class="cls-1" d="M650.31,986.52c3.87-9.22,11.62-14.75,19.36-20.28a276.8,276.8,0,0,1,49.51-28.12c1.93,2.86.55,4.61-.46,7a196.59,196.59,0,0,1-21.3,36c-12.63,17.24-30.15,18.54-48.86,15.49-3.6-.55-6.82-.92-10.14.19"/><path class="cls-1" d="M2046.84,1810.63c-4.43,19.91-13.09,37.71-24.8,54.49-17.33,24.89-40,44.8-61,66.28-7.56,7.75-17.7,11.89-27.75,14.38-11.25,2.86-17.61,8.49-19.27,19.73"/><path class="cls-1" d="M399.55,809.61c2.39,4.79-2,7.93-2.95,11.89-2.77,11.34-6.46,22.49-8.21,34.11-3,20.1-12.72,36.88-27.56,50.71"/><path class="cls-1" d="M725,859.39c-1.66-4.61,1.19-7.65,3.59-11.06A42.91,42.91,0,0,0,736.14,830c-3.5-3.5-7.19-2.12-10.23,0-16.69,12.08-33.93,23.42-50.06,36.51-9.77,7.93-17.7,16.23-21.94,27.93-.19.56-1.76.65-2.68.93"/><path class="cls-1" d="M1761.13,1822.62c13.65.73,15.77-1,15.68-13.83,0-4.34-.93-8.58-.83-12.91.09-6.09-2.77-7.56-8.39-7.47-12,.19-12-.09-12,12.08v23"/><path class="cls-1" d="M1744.54,1762.69h14.84a192.72,192.72,0,0,0-3.78-29.5c-1.38-6.92-6.73-3.32-10.14-3.5-10-.47-12,1.47-10,10.87,1.57,7.38.65,14.94,2.59,22.13"/><path class="cls-1" d="M637.4,669.48c.74,7.83-4.33,14.28-5.07,22-.73,7.28-3.78,14.84-3.87,22.22-.28,18.34-11.52,31.16-20.65,45.08-1.66,2.58-4.24,4.89-6.36,0"/><path class="cls-1" d="M1827.42,1569.18c9.5,2.76,17.7-3,26.74-3.87,2-.19,3.68-2.77,2.76-5.35-2.86-8-3.69-16.5-4.52-24.89-.46-4.43-2.67-5.53-6.54-5.53-8.58.09-17.24,0-27.11,0,2.4,10.87,4.61,20.65,6.83,30.42"/><path class="cls-1" d="M1925.14,1146.94c3.78,11.34.65,22.12-1.66,33.19-3.31,16.32-8,32.08-12.81,48a13.66,13.66,0,0,1-5.81,8.2"/><path class="cls-1" d="M1702.13,1821.69h26.09c-1.2-11.43-1.84-21.94-3.87-32.26-.65-3.51-2.31-4.8-5.62-4.61h-1.85c-18.44-.65-18.44-.65-18.44,17.51v12"/><path class="cls-1" d="M1740.85,1710.23c3.78-1.84,8.11-.37,12.91-1.29,0-8.85.18-17.15-.09-25.44s-6.83-4.89-11.07-5.44c-4.61-.65-7.74.46-7.46,6.36.36,7.65.09,15.4.09,23"/><path class="cls-1" d="M1792.48,1701c.09-8.94-3.32-17.14-4.06-26.27H1775c-2.86,5.53,1.75,10.14,1,15.21s3,9.59,1.29,16.13c6.27-1.1,11-1.75,15.3-4.14"/><path class="cls-1" d="M1829.26,1504.64H1859c-.65-8.39-1.84-15.58-5.26-22.21-9.86,2.39-19.54-.28-29.77,1.84,1.84,6.18-.46,12.45,1.66,18.53"/><path class="cls-1" d="M1772.2,1506.49c6.45,0,12.9-.09,19.36,0,5.25.09,7.28-2.68,6.36-7.38a84.12,84.12,0,0,1-1.66-21.66h-27c1.1,9-1.29,18.62,1.1,28.12"/><path class="cls-1" d="M1694.76,1702.86c6.45,2.12,12.9.27,19.82,1.2,1.66-11.16-2.58-20.29-3.41-29.69-24-4.79-24-4.79-23.79,18.25,0,2.49-.37,5.07.92,7.38"/><path class="cls-1" d="M997.78,1828.15c0,15,.09,30.14-.09,45.17,0,3.41,1.84,8.48-3.6,9-6,.55-7.55-3.42-7.46-9,.27-14.75.09-29.5.09-44.25"/><path class="cls-1" d="M694.56,444.53c-21.11,4-42.77,3.5-63.61,9.22a2.65,2.65,0,0,0-.92.46l.46.46"/><path class="cls-1" d="M1711.35,1627.26c9.5-1.11,19.08-1,28.58-.92,5.72.09,8.3-2.21,7.47-8.3a160.49,160.49,0,0,0-5.63-27.1c-10,2.39-19.26,1-29.41.09-.36,13,5.35,23.88,5.54,35.4"/><path class="cls-1" d="M1772.2,1560a201.45,201.45,0,0,1-1.85-29.32c7.84-2.3,16-.92,24-1,4.61-.09,4.52,3.78,4.61,7.28.28,8.94-.92,17.89,1.2,28.58H1774"/><path class="cls-1" d="M1836.64,1727.75h-14.2c-1.84,12.91.83,24.89.37,36.88"/><path class="cls-1" d="M1783.26,1757.16c-.09-11.06.65-22.22-2.21-33.1a31.65,31.65,0,0,1,16.59,0c1.39,10.88-.46,22,1.2,33.1,1.29,8.48-6.91,3.87-10,6.45"/><path class="cls-1" d="M1833,1810.63v-23.05c0-9.31-3-12-12-11.06a39.16,39.16,0,0,0-4.61.92"/><path class="cls-1" d="M605.14,750.6c-2.86,5.07-6.09,8.49-12.82,9.5-13.83,2.21-24.43,10.79-31.07,23-2.12,3.87-6.45,4.33-7.74,8.11"/><path class="cls-1" d="M1818.29,1784.82c-2.49,0-5-.19-7.37,0-6.09.55-10.05,3-9.31,10.14.83,7.65-1,15.39,1,23"/><path class="cls-1" d="M932.42,973.62c1.47,15.3,8.48,28.76,14.75,42.41"/><path class="cls-1" d="M1821.89,1678.89c-3.69-.28-6.45,1.75-9.22,3.69.74,9.86,7.1,18,8.76,28.48,6.82,1,13.09-2.76,19.82-4.51"/><path class="cls-1" d="M1883.66,1885.31c0,10.78.27,21.57-.92,32.26"/><path class="cls-1" d="M1827.42,1821.69h-20.28"/><path class="cls-1" d="M2202.64,1806c-3.41,4.06-9.86,2.77-12.9,7.38"/><path class="cls-1" d="M796.9,1529.54c3.68.27,7.46-.74,11.06.92"/><path class="cls-1" d="M984.88,1450.25c-15.68,4.43-22,13.46-24,34.11-1.39,14.75,7.37,24.62,23,25.82,20.84,1.66,27.2-4.15,30-18.53,4.61-23.61-.56-33.29-21.76-40.39-1.94-.64-4.15-1.75-6.45-1"/><path class="cls-1" d="M1440.31,1448.41c-11.71,6.82-20.56,14.66-20.75,30.42-.18,13,10.88,23.69,22.59,25.81a80,80,0,0,0,15.67.83c11.89-.09,21.85-7.09,24.89-17.51,4-13.28-.09-25.26-10.14-32.36-9.59-6.73-20.19-7.93-31.34-7.29"/><path class="cls-1" d="M1360.1,1447.49c-6,2.3-14.11,1.93-17.24,8.38-3.51,7.2-8.21,14.11-7.75,23,.46,7.84,10,20.84,17.61,22,21.39,3.42,32.82-3.22,37.62-25.81,4.05-19-8.67-29.13-29.32-27.66"/><path class="cls-1" d="M886.32,1451.17c-17.42,8.12-24.24,32.18-15,48.13,6,10.32,14.48,12.9,24.16,10.6,8.94-2.12,17.42-6,20.56-17.15,6.36-22.31-5.53-40.19-28.77-41.58"/><path class="cls-1" d="M1071.54,1442.88c-15.58,4.14-21.39,19.08-20.19,31.34.64,6.73,5.44,10.51,11,13.92,9.4,5.72,20.1,8.48,29.31,3.23,10.88-6.36,15.31-18,14-30.89-1-9.58-9.5-13-16.69-15.12-4.89-1.47-10.79-2.76-16.41-2.39"/><path class="cls-1" d="M1673.55,1475.14a15.68,15.68,0,0,1-2.76.92c-15.12.37-17.71,2.49-14.2,17.61,1.57,6.83,3.5,10,10.51,9.13h.92c17.61,0,21.2-4.61,17.52-22.13-1.39-6.73-7.1-4.33-11.07-5.53"/><path class="cls-1" d="M1360.1,1361.75c-9.31,2.3-19,3.5-25,12.81-4.88,7.65-6.45,25.91-1.75,32.36,5.07,6.73,20.38,10.42,31.26,7.28,10.14-2.85,18.16-19.91,16.59-34-.92-8.2-9.86-15.94-20.28-17.51"/><path class="cls-1" d="M1158.2,1359.9c-5.63,3-9.5,6.73-11.34,13.74-3.51,13.37-2.49,15.4,10.32,20.56,13.28,5.25,31.35-2,32.64-16.69.64-7.37-.83-11.15-7.75-12.91-7.55-1.93-15.21-3.87-23-4.61"/><path class="cls-1" d="M784.91,1359c-16.13,6.45-23.6,18.07-25.26,33.19-1.66,15.4,15,25.08,28.86,21.94,17.24-3.87,30.88-29.41,24.8-45.91-2.31-6.36-8-8.94-14.66-9.22-4.34-.18-8.58,0-12.91,0"/><path class="cls-1" d="M1256.84,1357.14c-10.14,7.56-16.87,16.78-15.76,30.42.83,10,5.81,15.58,15.76,15.67,7,0,14.2,1.11,20.29-3.68,6.73-5.26,11.89-21.12,9.21-28.58-3.31-9.41-11.06-13.83-24-13.83h-4.61"/><path class="cls-1" d="M1440.31,1356.21c-11.34,3.23-21.49,19.27-18.26,30.34,2.4,8.29,10.14,11.7,17.43,14.75,11.8,4.88,24.33,5,36.87,4.7,9.77-.19,18.07-10.88,19.27-21.21,1.66-13.73.46-17.14-12.08-21.75-8.2-3-16.68-7.29-26.73-3.51-4.34,1.66-9.59-4.88-15.49-3.22"/><path class="cls-1" d="M1078.91,1355.29c-13.18,5-20.46,13.56-20.56,28.58,0,9.22,1.75,14.48,14.11,18.35a37.43,37.43,0,0,0,22,0c11.16-3.41,16.32-14.11,14.75-28.49-.83-7.84-10.41-16.41-20.28-17.33-3-.28-6.08-1.11-9.22-1.11"/><path class="cls-1" d="M877.1,1351.61c-18.34,12.44-19.91,42.77-10.23,58.08,6.18,9.68,22.22,12.26,30.52,4.61,12.16-11.25,14.1-25.91,11.52-40.57-2.12-11.61-13.65-16-23.6-20.28-2.31-1-4.89-1.29-7.38-1.94"/><path class="cls-1" d="M1796.17,1276c-5.07,1.84-10.14,3.78-15.68,3.69-26.73-.56-53.47,1-80.2-.83-10.79-.74-17,5.16-15.58,15.58,3.32,23.87,4,47.84,3.5,71.91-.18,6.17,1.66,8.29,8.39,8.48,21,.64,41.67-3.78,62.69-4.52,22.22-.74,44.25-.46,66.38-.18,12.26.18,12.35.92,11.06-11.25-2.3-21.21-1.84-42.41-1.66-63.61,0-4.25-1.1-8-2-12-1.38-5.81-4.61-8.11-11.06-7.56-8.2.74-16.59.19-24.89.19"/><path class="cls-1" d="M1187.7,1242.82c-7.56,2-15.31,2.49-23,2.67-23.32.65-46.74.92-70.07,1-32,.18-64-.74-95.88.27-25.53.83-51.16,1.48-76.42,4.06-34.76,3.59-69.7,1.84-104.27,6.73a16.89,16.89,0,0,1-6.46-.09c-3.78-.92-7.28-3.78-11.15.09-4.43,4.42-8.39,8.94-8.3,15.67.09,4.89,0,9.87,0,14.75,0,10.14,6.27,17.33,16.6,17.43,30.14.09,60.38,2.85,90.34-2.77,7.75-1.47,15.4-.55,23.15-1.47a426.34,426.34,0,0,1,84.72-1.57c31.35,2.67,62.69,3,94,3.13,36.87.28,73.75.28,110.63,1,25.26.46,50.33-4.34,75.59-2.86,4.71.28,6.55-2.31,8.49-6.36,6.36-13.83,8.11-28.49,9.12-43.42.28-4.06-2.3-4.89-5.53-5.54a123.87,123.87,0,0,0-24-2.76h-86.66"/><path class="cls-1" d="M1440.31,1536c-21.21,8.39-25.73,25.81-24.9,46.1.28,6.26,4,11.24,12.91,12.81,14.29,2.49,27.75,1.11,40.66-7.1,16.68-10.69,19.54-35,4.51-47.11-4.79-3.87-10.78-4.24-16.59-4.61-5.16-.27-10.42-.09-15.67-.09"/><path class="cls-1" d="M1642.21,1843.82c-5,1.84-3.32,6.64-2.49,9.13,1.93,6.08,2.39,12.35,3.32,18.53,1,7.19,4.79,11,12.07,11.06,3.05,0,6.27.55,9.22-.09,4.15-1,9.13-1.94,8.3-8.21-1.2-8.94-2.3-17.88-3.69-26.73-.55-3.51-3.32-3.88-6.36-3.78-6.45.18-12.91.09-19.36.09"/><text class="cls-2" transform="translate(428.64 2672.62)"><tspan class="cls-3">1</tspan><tspan x="65.66" y="0">9.</tspan><tspan class="cls-4" x="180.29" y="0">1</tspan><tspan x="253.01" y="0">0 G</tspan><tspan class="cls-5" x="477.5" y="0">r</tspan><tspan x="516.67" y="0">oningen - Applescal</tspan></text></svg>