<svg id="michel" xmlns="http://www.w3.org/2000/svg" viewBox="0 0 2500.28 2866.51"><defs><style>.cls-1{fill:none;stroke:#000;stroke-linecap:round;stroke-linejoin:round;stroke-width:10px;}.cls-2{font-size:144px;font-family:FuturaPT-Book, Futura PT;}.cls-3{letter-spacing:-0.1em;}.cls-4{letter-spacing:0em;}.cls-5{letter-spacing:-0.15em;}.cls-6{letter-spacing:-0.01em;}</style></defs><title>michel</title><g id="Laag_2" data-name="Laag 2"><g id="Laag_1-2" data-name="Laag 1-2"><path class="cls-1" d="M1078,1192.46c-4,4-2.53,9.22-2.11,13.72,1.45,15.61,6.32,30.54,9.77,45.72a285.24,285.24,0,0,1,6.4,40.68c1.22,15.84-4.58,29.65-14.08,42.07-12.65,16.46-30.42,24.5-49.87,29.13-14.2,3.38-28.46,6.75-43,8.8a63.74,63.74,0,0,1-9.14.91c-3.36,0-4.44,1.31-4.66,4.63-.63,9.81,2.67,18.54,7,27,6.58,12.87,13.46,25.61,20.05,38.41,2.67,5.21,4.89,10.66,7.31,16a40.75,40.75,0,0,0,8.72,12.8c15.72,14.77,29.66,31.33,46.13,45.32,22.15,18.81,46.07,34.75,72.66,46.74,19.09,8.62,39.17,13.91,59,20.12,11.3,3.53,22.25,8.23,33.41,12.22,20.7,7.42,42.22,10.83,64,12.8,3.55.33,7.31.06,10.06,3.15.91,1,2.4.47,3.65.47h33.84c.92,0,2.21.4,2.69-.06,5.05-4.8,11.55-3.33,17.44-4,23-2.49,46.12-4,69-7.13a221,221,0,0,0,60-17.55c29.27-13.06,54.73-31.52,77.67-53.62,15.06-14.5,30.08-29.06,44.81-43.9,11.31-11.44,22.39-23.16,32-36.09a197.08,197.08,0,0,0,27-51.21c2-5.49,4.48-10.91,6.34-16.47,8.35-25.1-5.09-52.33-25.16-61.14-15.55-6.84-31.64-12.65-47.55-18.86-8.36-3.26-16.76-6.4-25.15-9.6-3.78-1.43-5.49-.38-7.32,3.66-4.35,9.62-5.6,19.77-6,30.18-.7,20.51,1.67,40.53,8.7,59.91a73.4,73.4,0,0,0,6.94,14.63,4.49,4.49,0,0,1,.86,2.74"/><path class="cls-1" d="M1327.63,156.74c.31-2.66-1.21-4.57-2.74-6.4-11.31-14-26.52-20.26-43.9-21.9-9.88-.92-19.8-.48-29.72-.13-15.55.53-31.17,1.65-46.64-.65a63,63,0,0,0-11.48-.64c-8,.24-12.46,3.8-14.31,10.6-1.35,5-4.41,6.78-8.1,8.58-29.21,14.22-60.45,23.23-90.54,35.29-26.8,10.74-51.16,25.75-73.64,43.84-33.66,27.07-60.88,59.92-85.51,95.11-14.52,20.74-28.18,42-40.69,64q-18,31.86-32.92,65.35-11,24.58-20,49.91a643.63,643.63,0,0,0-21.2,74.07,369,369,0,0,0-7.24,42.54c-1.72,16.58-2.9,33.09-1.56,49.86A323.23,323.23,0,0,0,805.36,716c3.87,16.24,12.58,30.29,19.37,45.2,1.18,2.61,2.56,5.12,3.65,7.8,3.32,8.42,6.19,9.56,13.72,9.15"/><path class="cls-1" d="M1082.09,341.05c8.46,7,8.16,17.38,3,25.94-11,18-18,37.68-26.46,56.76-8.1,18.17-16.65,36.39-29.78,51.56-6.72,7.76-9.41,16.12-9.82,25.78-.21,4.86,1.94,9,3.93,13.32,5.7,12.45,4,25-.73,37.44-8.53,22.68-17.73,45.11-26.37,67.73s-17.29,45-24.48,68A187.72,187.72,0,0,0,963.14,737c-.7,18.81,2,37.3,4.71,55.79,1.53,10.49,1.69,21,2.16,31.56.67,14.86,2.28,29.61,4.11,44.36,3,24.21,10.06,47.62,13.41,71.77,2.44,17.63,4,35.33,5.38,53,1.6,20.3,3,40.6,5.49,60.82,4.17,34.37,16.21,65.61,37.12,93.28a228.81,228.81,0,0,0,38.66,40,212.57,212.57,0,0,0,27.68,18.85c15.85,9.14,30.35,20,44.21,31.78,13,11,25.45,22.73,38.51,33.7,10.45,8.77,22.94,12.7,36.52,13.36,13.08.63,25.79-1.71,38.41-4.63,11.12-2.58,21.7.36,32.49,2.24a131.7,131.7,0,0,0,79.5-10.55c18.2-8.44,34.75-20,51.62-30.69,22.05-14,43.89-28.35,65.12-43.61,22.34-16.07,44.1-32.79,64.84-50.88,1.93-1.69,3.76-3.51,6.4-4.11"/><path class="cls-1" d="M1212.86,310.38c-11.28,1.53-22.53,3.2-33.84,4.57-20.25,2.41-40.49,5.15-60.82,6.71-14.81,1.14-26.47,6.91-36.21,17.93-5.69,6.4-12.37,12-18.65,17.91-13,12.19-24.15,26.15-37.5,38a45.94,45.94,0,0,1-5,4.09c-7.32,4.87-10.91,12-13.87,20.12-5.75,15.76-14.37,30.18-23.16,44.41-8.94,14.4-18,28.78-25.1,44.33-5.53,12.1-10.71,24.37-16,36.58s-10.71,24.37-16,36.58c-11.3,26.17-20.82,52.92-26.52,80.92a386.45,386.45,0,0,0-7.42,56.7,315.77,315.77,0,0,0,9.7,95.58,295.27,295.27,0,0,0,16.05,46.64c1.34,3,1.3,6,1.32,9.14"/><path class="cls-1" d="M1603.36,656.56c-5.78-1.68-8.24-6.57-9.95-11.47-3.87-11.3-7.07-22.86-10.64-34.26-11-35.34-25.8-68.9-48.11-98.68a159.23,159.23,0,0,0-20.9-23,78.14,78.14,0,0,1-11-12.77c-9.81-13.62-22.45-24.55-35.25-35.14a230.18,230.18,0,0,0-49.78-31.62c-10.2-4.73-20.44-9.52-31.53-11.89-4.34-.91-6.15.69-6.9,5-1.11,6.4.12,12.47,2.41,18.29,2.74,6.85,6.82,13.21,8.92,20.2q8.52,28.53,19.35,56.2a458,458,0,0,0,28.12,60c5.49,9.62,10.84,19.51,17.15,28.35a216.8,216.8,0,0,0,23.27,26.83c7.55,7.54,14.63,15.55,22,23.27"/><path class="cls-1" d="M1489.27,139c5.57,6.2,12.67,10.47,20,14.06,25.47,12.57,46.83,30.58,67.13,50a383,383,0,0,1,59,72.24,419.66,419.66,0,0,1,24.63,43.9,613.3,613.3,0,0,1,30.72,79.08c4.44,14.08,8.75,28.2,12.25,42.54,4.24,17.38,8.62,34.75,10.54,52.58a39.26,39.26,0,0,1,0,5.94c-.83,18.88,2.19,37.5,3.65,56.24a181,181,0,0,1-.15,29.27c-.16,2,0,4-.33,6"/><path class="cls-1" d="M949,408.23c-5.82,7.55-8.88,16.46-12.48,25.1-3.46,8.35-5.08,17.21-8.11,25.65-3.14,8.71-6.4,17.37-9.59,26.07-7.12,19.36-14.43,38.67-21.45,58.11-6.21,17.25-11.48,34.75-16.08,52.55a578.94,578.94,0,0,0-14.18,74.54c-1.67,13.53-3,27.08-3.66,40.7-.4,7.62-.83,15.23-.91,22.86a225.67,225.67,0,0,0,8.7,65.41c7.67,26.27,15.75,52.37,28.35,76.82,2.69,5.22,6.23,9.87,9.59,14.63,4.41,6.29,7.19,13.13,6.4,21"/><path class="cls-1" d="M1516.93,353.36c-5.61-5.17-10.11-11.27-14.63-17.38-7.08-9.53-17.37-15-26.94-21.53-16.21-11-32.08-22.61-48.55-33.25-19.34-12.5-40.24-22.13-61.16-31.74a591.53,591.53,0,0,0-65-25.43c-27.71-8.95-56-15.55-85-18.7-9.69-1.05-19.36,1-28.8,3.52-18.37,4.82-35.17,12.47-49,26-7.85,7.7-11.4,17.53-14.5,27.52-5.36,17.23-7,35.15-8.73,53a31.39,31.39,0,0,0,.41,5.48"/><path class="cls-1" d="M1614.33,544.07c-1.71,2.54-1,5.54-1.21,8.23-.37,4.83-1.88,9.24-3.41,13.72-.41,1.23-1.11,2.39-.84,3.66a269.6,269.6,0,0,1,5.86,60.82,81.67,81.67,0,0,1-6.4,29.27c-1.83,4.42-2,8.41.57,12.37,7.91,12.28,8,25.61,5.48,39.32-4.41,24-8.31,48.06-11.45,72.25-2.18,16.78-4.58,33.53-6.84,50.3-1.5,10.83-3.72,21.6-4.38,32.47-.63,10.34,1.31,20.71,4.46,30.6a494,494,0,0,0,22.35,57.62c5.67,12.27,10.14,25.13,11.06,38.4a84,84,0,0,1-7.31,40.74c-5.81,12.85-14.15,24.15-20.78,36.49-10.8,20.11-23.22,39.25-33.84,59.44a46.39,46.39,0,0,1-6.31,8.76,4.94,4.94,0,0,0-.62,5.93c4,7.87,2.89,16.29,1.93,24.69-2.11,18.4-2.94,36.82-1.44,55.33.71,8.81.72,17.67,1,26.52.34,12,.74,24.08.83,36.13a5,5,0,0,0,2.91,4.86c1.45.63,2.06,2.18,3.58,2.45"/><path class="cls-1" d="M1714,590.71c1.83-.26,3.17.73,4.57,1.79a7.23,7.23,0,0,0,9.49-.51c12-11.14,23.55-23.1,26.83-39.73,3-15.49,7-30.72,10.42-46.11,2.35-10.67.13-20.88-1.63-31.1-2.92-16.86-6.22-33.69-10.42-50.29-5.24-20.75-11.49-41.16-20.12-60.83-8.72-19.92-19.2-38.74-32.83-55.86-8.3-10.46-17-20.49-27.13-29.11-14.94-12.72-27.14-27.84-39.26-43.06-11.22-14.09-24.25-26.36-38-38-15.94-13.46-32.19-26.52-47.56-40.67-14.81-13.58-32.3-21.82-52.13-25.19-2-.34-4-1.06-6-1.31-1.59-.19-3-.23-4.21,1.72-3.24,5.18-9.52,7.16-15.9,5.55-11.89-3-23.07-7.89-34.75-11.58A587.37,587.37,0,0,0,1371.89,110q-26.39-5.2-53-8.18c-21.79-2.44-43.37-1.26-64.93,2.28a266.86,266.86,0,0,0-41.55,9.8c-5.7,1.9-11.58,4.57-12.81,11.75"/><path class="cls-1" d="M1226.58,307.21c-2-.18-4.22-.74-5.43,1.4s.18,3.57,1.17,5.49c7.82,15.55,15.13,31.33,21.66,47.47,12.8,31.66,23.71,64,35.67,96,5.76,15.44,11.81,30.8,18.93,45.64,5,10.46,11.89,20,19.52,28.85,13.88,16.09,26,33.42,37.5,51.21,9.14,14.27,21.14,26,33.43,37.44,11.3,10.51,23,20.55,33.84,31.56,7.45,7.59,16.78,9.15,26.92,6.91"/><path class="cls-1" d="M1019.9,510.24a31.76,31.76,0,0,0-12.67,14.63c-10.73,24.23-26.4,45.51-40,68-19,31.63-31.77,65.81-40,101.6a307.77,307.77,0,0,0-7.19,56.23,369.32,369.32,0,0,0,4.31,72.7c1.91,12.17,4.75,24.17,7.7,36.14,1.57,6.4,2.18,12.8-2.75,18.29"/><path class="cls-1" d="M932.56,440.73c-2.9-2.06-5.26-.31-7.27,1.43-3.78,3.27-5.89,7.64-7.93,12.24-4.81,10.76-10.85,20.92-16,31.56a549.32,549.32,0,0,0-31.95,83.72A521.64,521.64,0,0,0,855,635.52c-2.89,18.47-4.58,37.11-6.22,55.79-1.83,21.31-2.56,42.71-4.34,64-.64,7.77-1.07,15.55-1.69,23.33-.35,4.51,0,9.15-.7,13.72"/><path class="cls-1" d="M1194.11,183.49c10.52.23,21,.31,31.55.76,4.58.19,9.15,1.28,13.72,1.73,14.63,1.44,29.36,2.13,43.9,4.3a331.45,331.45,0,0,1,56.29,13.93c16.63,5.58,33.72,9.83,50.21,15.79a272.19,272.19,0,0,1,57.67,29.12A346.9,346.9,0,0,1,1520,312.77c10.8,12.58,7.74,28.08-3.54,39.22"/><path class="cls-1" d="M1595.35,501.28c6.41,12.21,13.72,24,16.65,37.73.37,1.71,1,3.55,2.37,4,9.6,3.17,12.05,12.07,14.34,19.83,6.46,21.87,10.19,44.36,12.24,67.13,1.07,11.89,1,23.78,1.13,35.67.17,16.46,0,32.92.71,49.38.91,20.12,2,40.24,3.88,60.36,1.71,18.48,3.65,36.92,5.95,55.33.42,3.35,2,5.36,4.23,7.32"/><path class="cls-1" d="M1230.24,638.27c-1.27,0-1.92-.1-2.42,1.83-2.93,11.09-5.7,22.23-9.87,33-3.65,9.49-7.86,18.69-13.87,26.89-1.69,2.31-2,4-.91,6.5a16.8,16.8,0,0,1,1.07,4.57c1,6.76,4.3,9.86,11.32,11.47,5.65,1.3,11.34,2.38,17,3.92,14.49,4,18.72,13.34,19.63,26.7,1,15.32-2.32,29.84-6.77,44.38-11.63,38-10.88,75.9,2.67,113.4a24.39,24.39,0,0,1,.78,13.25c-2.29,11.39-5.66,22.45-11.78,32.49-2.36,3.87-4.65,7.79-9.15,9.59-1.75.69-1.11,2.54-1.83,3.66-3.65,5.4-4,11.78-5.48,17.86-.37,1.56.91,2.52,1.45,3.65,4.14,7.9,11.62,12.18,18.66,17,9.5,6.52,19.49,12.06,30.67,15a61.33,61.33,0,0,0,35.13-1.52c8.11-2.67,13.42-8.74,13.84-18.08.18-4.19,1.74-8,3.45-12,2.83-6.46,4.77-13.33,7-20.06,1.63-5,1.13-10.14-1.92-14.08-11.89-15.36-10.81-31.64-4.5-48.56a102.17,102.17,0,0,0,6.41-32.93c.37-13,.5-25.91,1-38.86a18.42,18.42,0,0,1,5.38-12.39c1.22-1.25,2.31-2.33,4.15-2.25"/><path class="cls-1" d="M1702.58,641c-2.13,2.19-2.21,4.94-2.31,7.77-.7,21.78,2,43.35,4.24,64.93,1.55,15.23,2.4,30.45,2.74,45.73.12,6.09-.33,12.22.82,18.29,1.51,8.1-.75,15.93-2.3,23.78q-7.38,37.49-15.06,75c-3.76,18.43-5.75,37.11-7.76,55.78-2.49,23.18-14.29,40.42-33.83,52.52-4.22,2.6-8.42,5.29-13.15,7.1a16.58,16.58,0,0,1-5.56,1.2"/><path class="cls-1" d="M1819.64,685.82c-5.3-6.25-8-14-11.89-21-6-10.75-11.59-21.67-19.6-31.15a29.41,29.41,0,0,0-18.82-10.35c-5.54-.82-6.4.44-5.89,5.82a122.22,122.22,0,0,0,7.06,29.64c5,14,6.79,28.51,8.4,43.07a509.94,509.94,0,0,1,2.8,65.38c-.14,8-2.37,10.91-9.61,12.35"/><path class="cls-1" d="M1818.26,716.91c.08-5.68,2.53-10.88,3.32-16.46a16.82,16.82,0,0,0-1-8.71c-1-2.65-1.94-4.79,1.67-7.06,3.4-2.15,3.75-6.71,3.82-10.77,0-1.37-.21-3.11.51-4.06,5.09-6.72,1.64-14.39,2.66-21.54-6.3-13.48-4.37-28.55-8.41-42.61-5-17.3-11.15-33.84-20.36-49.32-6.23-10.46-10.49-21.88-15.67-32.87-3.38-7.18-7.12-14.3-12.73-20.12-1.25-1.29-2.31-3.05-4.57-2.74"/><path class="cls-1" d="M1546.66,701.79c-3.51-2.14-7.38-1.1-11-.81-14.89,1.21-29.66-.28-44.34-2.05-24-2.89-47.9-7.25-72.25-6.8a156.72,156.72,0,0,0-31.52,4.28c-4.71,1.05-7.54,5-8.6,9.52-1.14,4.81-2.51,9.58-2.93,14.63-.57,6.57-12.34,12.91-18.7,10.6-2.25-.82-2.19-2.53-2.74-4.19-2.33-7.13-3-14.63-4.06-21.94-2.44-16.73-4-33.59-9.15-49.85a119.93,119.93,0,0,0-4.85-12.33"/><path class="cls-1" d="M1226.58,966.57c-8.36-4.57-16.46-2.37-24.2,1.44-8.36,4.12-15.23,10.91-23.85,14.46a186,186,0,0,0-35.23,19.69c-15.1,10.49-28.79,22.64-42.38,34.91-5.88,5.3-9.91,11.89-8.79,20.5.86,6.6,4.08,12.28,7.94,17.25,4.58,5.85,10.24,10.77,15.4,16.14,3.19,3.33,5.83,7,5.94,11.89"/><path class="cls-1" d="M1358.72,494.69c-4.15,4.85-2.79,10.51-1.21,15.55,3.46,10.89,9.43,20.73,15,30.64,16.46,29.37,36.49,56.37,56.7,83.22,4,5.39,8.39,10.55,12.28,16a65.13,65.13,0,0,1,7.75,16c1.16,3.26,2.75,5.37,6.47,5.56,1.54.07,3,1.12,4.57,1.73"/><path class="cls-1" d="M1342.26,814.27c-1.6,7.83,2.37,14.55,4.72,21.45,3.21,9.44,3,18.69,1.83,28.41a123.23,123.23,0,0,0,5.49,53.44c2.88,8.93,7.08,17.37,11.52,25.77,5,9.37,8,19.76,12.2,29.56,1.74,4.07.43,7.69-1.1,11-8.38,17.88-23.14,26.41-42.42,27.94-5.17.4-10.33,1.57-15.55.45"/><path class="cls-1" d="M1227,1125.21c-.92,5.48,2.63,9.14,5.56,12.73,7.46,9.15,18.15,12.18,29.21,13.72s21.94,2.75,32.92,3.85c21,2.11,40.93-.16,59-12,4.37-2.86,9.52-4.16,13.72-7.31,2.84-2.1,5-4.45,4.57-8.23"/><path class="cls-1" d="M1143.82,197c-10.52-.38-20.25,2.9-29.7,6.91-17.69,7.51-33.07,18.74-48,30.58-21.64,17.09-40.24,37.21-58,58.09-3.93,4.59-7.59,9.43-11.45,14.16"/><path class="cls-1" d="M1411.31,1110.57c-4.47-.38-8.59,1.34-12.8,2.38a70.91,70.91,0,0,0-12.81,4.45c-5.07,2.37-8.58,6.66-12.56,10.14-11.67-2.55-23.39-3.16-35-4.52-17.15-2-34.39-3.37-51.66-3.66a168.07,168.07,0,0,0-36.58,2.87,72.8,72.8,0,0,1-41.25-3.25c-11.55-4.32-23.61-5.11-35.66-1.06"/><path class="cls-1" d="M1708.52,763.06c9,1.83,12.36,8.84,14.07,16.46,4.78,21.37,6.16,43.27,9.38,64.93,1.61,10.83.5,21.7,1.74,32.48a24.77,24.77,0,0,0,3.1,9.15c1.39,2.51,3,2.44,5.1,1.33,8.23-4.28,13.26-11.49,16.32-19.71,6.21-16.68,11.09-33.76,13-51.61a167.71,167.71,0,0,0,.38-30.64c-1-13.72-6-26.41-10.13-39.33-7.74-24.37-16.35-48.47-27.88-71.33A90.64,90.64,0,0,0,1707,642.46c-3.21-2.39-6.77-4.51-10.18-6.78"/><path class="cls-1" d="M1428.68,729.72c-.91,5.66-6,7.78-9.68,10.87-6.25,5.24-13.06,9.8-19.56,14.75-4.57,3.46-6.13,7.83-5.23,13.72.62,4.14,0,8.49.58,12.8,1.54,11.74,6.59,21.81,14.26,30.61,14.63,16.75,32.12,29.45,53.5,36.06,14.63,4.57,29.74,7.23,45.24,6"/><path class="cls-1" d="M1220.18,988.94c-4.92,1.59-9.08,4.69-13.72,6.91q-21.12,10.11-42.07,20.55c-9.44,4.67-18.54,10-26.52,16.94-14.87,13-19.5,29.81-16.86,48.86.55,4-.08,6.87-3.3,9.15"/><path class="cls-1" d="M1201.89,702.7c-7.51-3.14-15.55-2.2-23.32-2.74-9.6-.61-19.21-1.39-28.8-1.29a168.33,168.33,0,0,0-29.73,2.61,271.61,271.61,0,0,1-27,3.31,147.09,147.09,0,0,1-32.92-1.32,121.24,121.24,0,0,1-33.39-9.82,125.13,125.13,0,0,1-17.83-9.46c-2.74-1.83-6.2-1.32-9.14-2.51"/><path class="cls-1" d="M1331.29,162.72c-.12-4.52-1-5.26-5.49-5.05-6.85.3-13.72,0-20.57.38a216.28,216.28,0,0,0-32.93,4.64c-9.14,1.88-18.49,2.16-27.43,5a39.36,39.36,0,0,0-16.46,10.06c-1.77,1.77-1.58,4-2.24,6"/><path class="cls-1" d="M1539.34,755.32c-9.73,20.4-26.73,32.27-47.09,40.24-13.09,5.14-26.77,7.42-40.7,8.13a83,83,0,0,1-26-3.29c-1.77-.49-3.41-.38-5.09-.73"/><path class="cls-1" d="M1335,443c5.93,15.62,13.61,30.35,21.75,44.92,5.12,9.15,11.82,16.94,17.64,25.45,6.41,9.3,13.89,17.75,21.45,26.09a594.82,594.82,0,0,0,47.06,46.21c4,3.53,7.45,3.86,11.89.92"/><path class="cls-1" d="M1088.94,736.12c4.65-4.35,10.71-4.43,16.47-5.49,13.6-2.54,27.43-2.13,41.15-3.57,2.94-.32,5.29-.24,7.74,3.29,1.89,2.74,6.53,4.64,10.06,6.73,5.33,3.14,10.58,6.4,15.68,9.88,5.92,4.1,9.22,9.87,12.67,15.71.72,1.2.63,1.3-1.35,3.18-13.56,12.8-27.43,25.11-45.22,32.13-7.32,2.89-14.27,6.85-22,9.14-12.33,3.66-23.42,1.4-33.84-5.58"/><path class="cls-1" d="M1382.5,1117.89c-4.71-7-12.39-8.16-19.67-10.06-4.51-1.15-9.14-1.73-13.72-2.83a44.65,44.65,0,0,1-17.44-8.57c-9.89-7.81-19.93-9.28-31-.53-1.2.91-2.44,1.82-3.82,2.86-2.33-.92-4.22-2.63-6.27-4.19-12-9.09-15.34-10-27.85-2.31-9.88,6-20.27,11.3-29.26,18.72-1.09.92-2.14,1.83-3.21,2.75"/><path class="cls-1" d="M1548.94,700.45a5.18,5.18,0,0,0-2.3,2.28c-4.51,10.73-13.47,14.63-24.22,15-10.2.38-20.42.22-30.63,0-8.44-.15-16.47,1-23.78,5.59a4.3,4.3,0,0,1-2.75.85"/><path class="cls-1" d="M1377.93,983.46c4.34,1.23,7.32,4.39,10.56,7.27,13,11.51,26.31,22.48,41.08,31.63,10.74,6.67,16.24,16.14,13.72,29.21"/><path class="cls-1" d="M1697.09,768.55c-7.77,17.37-15.43,34.8-23.37,52.12-2.82,6.12-6.35,11.89-9.55,17.86"/><path class="cls-1" d="M1376.56,721.49c5.37,1.83,11,.91,16.46,1.23,14.93,1,30,.92,44.81,3s29.7,4.42,44.36,7.69c9.35,2.08,19,2.9,27.93,6.77A250.78,250.78,0,0,1,1539,754.28c3.66,2.19,8.4,2.11,12.73,2.38,10.68.67,21-1.92,31.55-3.17"/><path class="cls-1" d="M1523.34,775.44c-2.66-3.13-6.34-3.49-10.06-3.66a49.05,49.05,0,0,0-15.55,1.38c-8.82,2.53-17.7-.16-26.52.46a68.32,68.32,0,0,0-17.47,3.83c-9.66,3.31-19.85,5.2-29.66-.61-3-1.83-6.4-3-9.56-4.64-6.14-3.26-12.65-3-19.21-2.26"/><path class="cls-1" d="M1205.54,717.83c-5.31,3.61-10.59,4.18-17,2-13.27-4.57-25.6-2.41-36.07,7.61"/><path class="cls-1" d="M1443.77,727.89c-1.08,15.4,1.27,30,11.07,42.46a32.71,32.71,0,0,1,2.65,4.64"/><path class="cls-1" d="M1056.48,749.84c5.64,8.37,14.26,12.45,23.36,15.44,7.11,2.34,14.21,4.65,21.86,5.56,4,.48,8.23,2,12.4,2.26,10.86.71,21.37-1.26,32.08-3.13a281.89,281.89,0,0,1,31-4.08c3.51-.21,5.49,2.44,7.32,5"/><path class="cls-1" d="M916.1,872.8c2.75-2.8,5.17-1.94,7.81.42,7.76,7,12.57,16,17.76,24.76,4.89,8.23,9.73,16.46,16.46,23.29"/><path class="cls-1" d="M1005.27,439.1c5.32,5.39,6.7,12.56,8.66,19.44,2.12,7.49,4.07,15,10.06,20.57"/><path class="cls-1" d="M985.61,321.35c-4.46,6.3-5.6,13.67-6.32,21A40.55,40.55,0,0,1,975.42,357c-.76,1.5-.54,2.78-.79,4.17"/><path class="cls-1" d="M1153.87,731.55c-2.1,2.36-1.77,5.48-2.21,8.23a230.75,230.75,0,0,1-5,24.69c-.37,1.39-1.16,3-.07,4.57"/><path class="cls-1" d="M1492.24,736.54c-2.1,3-.18,6.1-.38,9.14-.54,8.11-3.66,15.27-8,21.88a10.57,10.57,0,0,0-2.16,5.56"/><path class="cls-1" d="M1060.14,704.11c-1.47,7-.92,7.51,5.48,10.57,8.4,4,14.64,10,20.12,18,6.63,9.67,9.87,20.78,16.07,30.46a7,7,0,0,1,.47,6.85"/><path class="cls-1" d="M1084.83,733.8c-6.19,3.82-13.33,5.76-19.58,9.29-13.11,7.41-26.34,14.92-35.75,27.29"/><path class="cls-1" d="M1075.23,1295.3c-7.62,5.19-15.37,10.19-22.87,15.55-10.1,7.32-21.69,11.47-32.92,16.46-11.89,5.31-24.91,7-36.64,12.66S959,1350,947.6,1356c-10,5.21-21,6.9-32,8.31-6.89.92-13.72,2.2-20.58,3.14-6.54.91-13.11,1.52-19.66,2.32-9.76,1.19-19.72,1.57-29.26,3.83-23.45,5.56-46.58,12.49-70,17.93-14,3.25-28.49,4.76-43,5.75-9.32.63-18.6,2.08-27.9,3.11-4.72.52-9.44,1.16-14.17,1.33-6.7.23-13.41,0-20.12.06q-36.79.2-73.62.45c-15.14.09-30.12-2.74-45.27-2.74-15.85.06-31.9-1.72-47.5.74-19.67,3.08-38.1,10.82-54.87,21.73-14.7,9.58-29.39,19.21-44.42,28.23-6.7,4-11.89,9.73-17.81,14.63A246.36,246.36,0,0,0,344.94,1511c-8.91,12.51-13.87,27-18.37,41.55-3,9.79-7.92,18.73-12.35,27.89a742.48,742.48,0,0,0-29.8,71.34c-3.28,9.14-7.67,17.86-10.82,27-5.91,17.18-10.82,34.75-17.52,51.62-13.6,34.33-24.06,69.72-35.66,104.72-5.27,15.92-10.91,31.73-16.46,47.56-3.66,10.4-5.22,21.25-7.38,32-2.1,10.43-4.19,20.94-7.39,31.09-4.45,14.05-7.25,28.54-11.71,42.58-4.09,12.91-7.65,26-12,38.83a222.13,222.13,0,0,0-8.23,34.3c-2.23,12.89-2.57,26.2-8.07,38.41-3,6.66-3.51,14-5,21-2.08,9.58-4,19.21-6,28.8"/><path class="cls-1" d="M419.07,2187.44c8.23.83,16.05-.41,23.34-4.57,2.74-1.57,5.32-3,6.46-6.4s4.92-3.82,7.21-3.48c10.06,1.55,20.12.23,30.18.69,9.22.42,18.29,2,27.43,3.22,7.63,1.06,15.23,2.31,22.86,3.16a167.51,167.51,0,0,1,40.24,10.06A97.84,97.84,0,0,1,606,2207.63c8,6.86,16.84,12.52,25.68,18.21,10,6.4,18.9,14.26,27.87,21.95,17,14.58,35.67,26.63,54.82,38.06,26.37,15.7,53.84,29.18,81.51,42.33,13.14,6.24,27.34,9.7,41.15,14.2,9.85,3.22,19.64,6.84,29.74,9a417.27,417.27,0,0,0,42.49,6.6c22.65,2.46,45.35,4.05,68.13,4.57,18.45.43,36.87,1.73,55.33,2.39,47.09,1.68,94.19.23,141.29.78,7.31.08,14.68-.53,21.94.12,11.89,1.06,23.85.84,35.67,2.54,4.66.66,9.46.55,14.18.8,10.71.58,21.38,1.69,32,3.07A325.52,325.52,0,0,1,1329,2382.6c16.46,4.87,33,9.06,49.82,12.43,11.46,2.29,22.8,5.27,34.33,7.09,5.26.84,10.61,1.59,16,2.13,11.12,1.15,22.19,2.44,33.39,2.75,4.26.13,8.54.29,12.8.28,14.79-.05,29.59.59,44.35-.49a185.43,185.43,0,0,0,19.21-2.75c9-1.64,18-3.82,27-5.39,14.17-2.46,28.14-5.8,42.07-9.33,22.66-5.76,45.16-12.21,67.26-20,13.72-4.82,26.89-11.12,40.24-16.91a251.47,251.47,0,0,1,60.36-18c17.15-2.75,34.4-4.16,51.69-5.37,16.46-1.15,32.92-.53,49.38-.37a221.17,221.17,0,0,1,27.44,2.25c19.44,2.64,38.93,4.57,58.52,5.49,16.92.77,33.84,1.13,50.76,1.44,14.63.27,29.26.73,43.9-.72,7.84-.77,15.54-2.91,23.32-4.43"/><path class="cls-1" d="M1542.08,1261.47c5.65,1.21,11.28,2.45,16.92,3.65a493.9,493.9,0,0,1,71.44,20.75c18.77,7.07,37.5,14.64,57.49,18.24,6.57,1.2,12.56,4.69,18.82,7.07,12.34,4.69,24.93,8.71,37.49,12.91,8.09,2.75,15.21,7.39,22.87,11,11.31,5.35,23.37,8.53,35.22,12.3,15.83,5,31.1,11.51,46.64,17.37,7.22,2.75,14.69,4.73,22,7.41,10.42,3.87,19.5,10.37,29.27,15.55,11,5.81,21.51,12.37,33.35,16.56a79.13,79.13,0,0,1,17.45,9c9.34,6.25,20.12,9.14,30.56,13,14.47,5.35,28.56,11.66,42.64,18,24.7,11.09,49.19,22.51,74.47,32.18,9.83,3.76,18.79,9.6,29.27,12,8.66,1.94,17.17,4.47,25.68,7a27.79,27.79,0,0,1,11.3,6.25c9.54,8.92,21,14.74,32.05,21.45,6.29,3.86,13.36,5.73,20.2,8a40.56,40.56,0,0,1,12.25,6.63c18.09,14.12,33.84,30.82,50.3,46.64,18.89,18.12,30.08,40.67,36.66,65.78,6.08,23.22,12.58,46.32,18.66,69.51,2.89,11,5.9,22.14,7.61,33.4,1.38,9,2.53,18,4.05,26.92,2.92,17.22,5.39,34.51,8.23,51.74,2.68,16.22,6.4,32.21,9,48.42,2.21,13.39,4.17,26.84,6.48,40.23,1.47,8.53,5.48,16.68,6.47,25.21,1.83,15.12,8.68,28.72,11.6,43.42,2.14,10.8,6.05,21.11,7.92,32,4.12,24.08,6.49,48.22,6,72.71-.52,25-.12,50-.11,75a36.58,36.58,0,0,0,1.64,11.48c3.32,10.37,2.7,21.25,2.27,32a25.8,25.8,0,0,0,1.11,8.23"/><path class="cls-1" d="M2083.93,2346.07c1.3-2.38-.14-4.82-.64-6.81-4.69-18.35-7.69-37.07-12.34-55.45-2.38-9.4-3.2-19.35-4.17-29.16-.86-8.72.19-17.46-1.16-26.09-1.51-9.59-1.13-19.43-6.22-28.44-4.52-8-5.43-17.38-6.61-26.42a84.48,84.48,0,0,0-3-12.86c-1.26-4.32-4.17-3.83-7-3.53-3.19.35-2.75,3.14-2.75,5.4,0,8.51-2.67,16.4-5.49,24.23-2.62,7.19-9.61,7.92-18.18,4.41-9.42-3.86-16-11.6-21.5-20-4.86-7.44-9.26-15.19-13.72-22.87A138.05,138.05,0,0,0,1966.4,2128c-8.61-9.87-15.26-21-21.82-32.12-10.23-17.38-25-29.39-43.47-37-5.08-2.1-7.68-.32-7.78,5-.22,11.29,2,22.3,3.56,33.4a177.64,177.64,0,0,0,7.91,33.83c3.66,10.42,8.09,20.54,11.55,31.1,3.53,10.77,7.46,21.53,9.62,32.56a92.93,92.93,0,0,1,.33,33.34c-.5,2.86.1,5.73-.83,8.71-2.14,6.91-8.29,9.38-14.26,5s-9.8-10.54-12.69-17c-6.23-13.83-17-22.29-30.31-28.35-4.12-1.83-8-4-12.81-3.65s-5.73.91-5.43,5.54c.65,9.85,3.15,19.35,5.86,28.81a114.45,114.45,0,0,0,26.06,46.21c11.31,12.39,18.64,27.23,25.19,42.49,2.07,4.83,4.37,9.59,3.66,15.09"/><path class="cls-1" d="M556.24,2182.87a19.67,19.67,0,0,0,.92-5.49c-.34-21.42,3.66-42.28,8.16-63.1,5.89-27.43,12.8-54.62,17.37-82.3,1.55-9.38,2.15-18.91,3.3-28.35,1-7.94,2.13-15.85,3.18-23.78,1.69-12.91,1.44-25.89,1.34-38.87,0-2.57-4.57-8-7.32-8.62a7.64,7.64,0,0,0-8.23,3.1,86.08,86.08,0,0,0-9.55,15.55,420.55,420.55,0,0,1-27,47.55c-5.95,9.24-10.41,19.2-14.63,29.26-6.69,16.09-14.27,31.76-20.68,48-4,10.14-5.36,21-9.14,31.09-3,8.16-5.06,16.6-8,24.78-2.79,7.71-7.86,12.8-14.82,16.35-5.39,2.74-9.4,6.14-11.09,12.36-1.1,4-3.82,7.61-4.43,11.89"/><path class="cls-1" d="M2418.18,2215.3c-5.59,2.7-10.88,5.49-15.25,10.36-5.06,5.64-12.63,7.54-20,8.28-15.54,1.57-31.09,2.16-46.64,3.89-11.21,1.25-22,4.77-32.92,7.58-10.38,2.67-20.88,5.11-30.11,10.67-12.24,7.37-24.69,14.24-37.5,20.51-11.94,5.84-23.77,12-35.66,17.79s-25.13,8.75-38,12.36c-17.65,5-34.75,11.69-52.12,17.38q-13.57,4.44-27.44,7.76"/><path class="cls-1" d="M139.69,2146.29c1.32,1.55,3.32,2.07,5.06,2.65a41.07,41.07,0,0,1,10.55,5.49c7.45,5.26,16.31,7.31,25.08,7.17,12.2-.2,23.26,3.59,34.26,7.65,12.33,4.58,25.1,5.7,38,6.79,42.17,3.55,84.43,1.75,126.66,2.29,9.86.12,19.49-1.83,29.26-2.36,5.2-.29,10.37-1.3,15.55-1.23,6.14.09,12.18-1,18.29-1.06a14.16,14.16,0,0,1,6.86,1.41"/><path class="cls-1" d="M133.74,2137.14c-1.08,4.34,1.36,6.26,5,7.32"/></g></g><text class="cls-2" transform="translate(461.11 2672.62)"><tspan class="cls-3">7</tspan><tspan class="cls-4" x="67.39" y="0">.</tspan><tspan class="cls-5" x="100.22" y="0">1</tspan><tspan x="160.42" y="0">2 Leiden - Mic</tspan><tspan class="cls-6" x="969.67" y="0">h</tspan><tspan x="1035.91" y="0">el de Hey</tspan></text></svg>