<svg id="michel" xmlns="http://www.w3.org/2000/svg" viewBox="0 0 2500.28 2866.51"><defs><style>.cls-1{fill:none;stroke:#000;stroke-linecap:round;stroke-linejoin:round;stroke-width:8px;}.cls-2{font-size:144px;font-family:FuturaPT-Book, Futura PT;}.cls-3{letter-spacing:-0.1em;}.cls-4{letter-spacing:-0.06em;}.cls-5{letter-spacing:-0.02em;}.cls-6{letter-spacing:-0.04em;}</style></defs><title>weval</title><path class="cls-1" d="M2267.45,1252.41c-2.5,6.8,1.32,13,1.86,19.58,1.91,24,0,47.11-17.58,65.91-13.32,14.1-20.56,31.73-27.76,49.21-7.83,19.1-11.12,39.56-16.6,59.4a123.29,123.29,0,0,1-28.5,53.27c-25.17,26-48.28,53.86-73.79,79.28a307.35,307.35,0,0,1-71.54,53.61,86.24,86.24,0,0,1-23.06,6.66c-13,2.69-25.76,6.51-39.17,8.67a38.43,38.43,0,0,1-32.52-8.57,24.4,24.4,0,0,0-13.9-6.51"/><path class="cls-1" d="M1964.84,1483.43c-2.2-1.52-4.26-3.19-6.51-4.61a11.8,11.8,0,0,0-18.31,8.38c-2.16,20.51-7.49,40.49-9.06,61.15-1,12.64-5.24,25.12-4.9,38.1,0,14.69-4.89,29.38-1.86,44.51.49,2.5-2,3-2.74,4.65-5.88,12.73-11.85,25.32-12.24,39.86-.3,13.71-5.78,26.39-10.53,38.83a203.33,203.33,0,0,0-9.79,35.35,48,48,0,0,1-9,20.47,367.59,367.59,0,0,1-60,63.65c-16.6,13.37-30.61,30-46,44.86-27.28,26.24-56,51-84.17,76.29-10.29,9.2-22.38,16.55-30.51,27.95-7.2,10.19-19.1,11.36-28.89,16.51a192.73,192.73,0,0,1-73.45,21.83c-18.56,1.62-37.11.84-55.67,2.21-21,1.52-42.26,0-63.07,4a165,165,0,0,0-27.81,7.49c-14.69,5.73-30.21,9.55-45.49,13.76-14.25,3.92-28.6,7.64-42.65,12.15-9.79,3.13-20,3.43-29.38,5.87-20.52,5.29-41.72,8.77-61.26,17.39a115.83,115.83,0,0,1-36.28,9.1,11.94,11.94,0,0,0-4.6,1c-13.76,7.45-29.38,6.12-43.58,5.63-6.9-.24-14.25-.49-21.4-1.12a43.15,43.15,0,0,1-30.85-14.69c-10.62-12.15-24.77-20.62-35.3-33.4a84.81,84.81,0,0,1-18-51.26c-1.42-24.09-.79-48.23-1.27-72.37-.35-16.07-1-32.17-1.91-48.24a50.8,50.8,0,0,0-2.8-13.9,31.47,31.47,0,0,1,1-25.07"/><path class="cls-1" d="M1100.16,629.91a74,74,0,0,0-19.29,16.84c-3,3.72-3.28,9.5-5.88,13.71-9.45,15.23-20.12,29.67-28.74,45.49-12.49,22.82-23.31,46.47-35.35,69.53a219.6,219.6,0,0,0-20.81,71.44c-3,20.42-5.49,41-9.26,61.36a120.38,120.38,0,0,0,.69,29.38,17.22,17.22,0,0,0,7.29,13"/><path class="cls-1" d="M1603.92,788.55a18,18,0,0,0-6.61-18.41c-4-3.08-4.41-8.08-8.08-11.45-10.48-9.8-24.09-13.37-36.53-17.83a392.4,392.4,0,0,1-76.88-34.76,109.4,109.4,0,0,0-18.5-8.43c-15.43-6-24.83,4.9-35.21,13a33.46,33.46,0,0,0-12.93,22.23c-1.86,13.17-11,21-20.71,27.52a71,71,0,0,1-22.87,11.9c-12.14,3-17.23,15.62-14,28.3a18.9,18.9,0,0,1-1.52,14.1,92.14,92.14,0,0,0-8.86,17.39,7.1,7.1,0,0,1-6.32,5.48c-7.93,0-12,4.55-15.76,10.33a35.11,35.11,0,0,1-10.14,9.4c-21,14.69-29.87,33.89-27.47,60.23,2.3,25,6,49.9,6.22,75.11,0,10.29,4.36,19.88,7.2,29.73,4.89,17.18,8.81,34.76,12.14,52.09a111.69,111.69,0,0,1,1.17,47.21,34.27,34.27,0,0,0,0,18.36c2.36,6.86.59,13.17.35,19.59a10.23,10.23,0,0,1-15.52,9.15,62.33,62.33,0,0,1-26.49-20c-11-15.22-25.76-26.39-46.87-21.64"/><path class="cls-1" d="M1729.17,467.54a34.33,34.33,0,0,0,22.48-12.78c9.25-11,22.82-16.55,35.15-23.21a375.52,375.52,0,0,1,57.64-27.42,165.9,165.9,0,0,1,53.57-8.08c19,0,37.06,5.43,55.67,7.73a197.83,197.83,0,0,1,69.58,23c17.92,9.79,35.11,20.27,52.15,31.24,14.34,9.2,27.81,19.58,43.19,27.66s26.39,21.16,41.32,27.72c18,7.88,30.41,21.25,42.06,35.2,13.27,16,29.38,29.09,42.95,44.07s29.08,29.38,39.17,48.09c5.19,9.5,13,17.62,18.21,27.12a421.3,421.3,0,0,1,24.49,56.31c7.83,21,7.93,43.44,15.57,64.44a58.75,58.75,0,0,1,4.45,26.64c-.63,5.34,3.14,9.55,4.17,14.69,4.89,25.9,13.07,51.22,17.72,77.17A133.24,133.24,0,0,1,2359.6,985a258.4,258.4,0,0,0-19.19,84.62c-1.62,19.24-4.9,38.34-7.25,57.53"/><path class="cls-1" d="M1341.36,837.72c20.57,15.13,37.07,34.66,55.83,51.8a178.62,178.62,0,0,0,35.4,27.42c11.31,6.07,22.52,12.49,34.27,18.12a201.7,201.7,0,0,1,34.28,22.52C1517.3,970,1533.55,982.46,1545,1000c16.36,25.17,32.22,50.43,42.8,78.83a263,263,0,0,0,36.77,66.06c13.66,18.21,27.42,36.38,40.35,55,5.58,8,8.67,16.8,19.19,19a4.45,4.45,0,0,1,3.53,3.82c1.81,14.3,15.62,25,12.24,40.79"/><path class="cls-1" d="M1089.93,1168.92c-12.64,12.93-15.67,30.36-21.11,46.47a528.09,528.09,0,0,1-25.51,62,314.6,314.6,0,0,0-28.4,78c-2.74,14.35-3.08,29.09-4.9,43.58-2,16.06-8.47,31-12.78,46.42a283.37,283.37,0,0,0-9.49,50.09c-1.87,20.08,4.11,39.17,7.34,58.46a212.79,212.79,0,0,1,4.6,44.51c-1.22,24.49,3.28,49,5.19,73.45a365.32,365.32,0,0,0,10.24,62.09c4.16,16.31,5.48,33,9.45,49.36a425.39,425.39,0,0,1,5.92,43.53c1.47,10.67,2.84,11.6,13,11.16,6.17-.24,12.39,0,18.56,0"/><path class="cls-1" d="M1433.22,486.09c-2.74-4.26,1.28-10.13-5.28-14.34a24.48,24.48,0,0,0-17.83-3.58,39.23,39.23,0,0,1-12.14,0,153,153,0,0,0-65.76,5.88c-10.87,3.28-21.94,6.12-32.42,10.43-6.51,2.74-13.12,1.66-19.58,3a398,398,0,0,0-44.37,11,410.47,410.47,0,0,0-47.49,19.93c-39.86,19.2-71.79,48.58-102.83,79.13-16.55,16.26-35.75,29.82-49.36,49-4.89,6.7-8.37,13.22-3.62,21.39"/><path class="cls-1" d="M1653.08,1259.85c15-.34,29.38,4.36,44.51,5.34,8,.53,15.86,7.88,21.3,15.13,12.63,16.84,25.71,33.39,37,51.12,15.18,23.84,35,43.38,53.86,64.09,16.6,18.36,32.61,37.22,50.44,54.4a60.83,60.83,0,0,0,25,14.11c9.3,2.74,11,6,9.3,15.71-4.16,23.07-6.81,46.42-10.62,69.49-3.28,19.58-10.09,39.17-15.38,58.51a68.57,68.57,0,0,1-30.6,39.91c-1.28.88-2.4,2.54-3.72,2.69-13,1.42-13.76,10.38-13,20.52.83,11.11-6.12,20.22-8.52,30.55-3.08,13.12-8.37,26.15-10,39.17-1.37,10.92-6.71,21.06-5.73,32.37a15.85,15.85,0,0,1-5.33,11.16,9.78,9.78,0,0,0-1.86,11.12"/><path class="cls-1" d="M1295,1234.73c-3.08,31.63-23.16,53.86-42.79,76-20.81,23.46-40.25,47.35-50.24,78a322.23,322.23,0,0,0-16.65,78,132.17,132.17,0,0,1-23.06,64c-13.91,21-30.07,40.39-45.39,60.37a31.88,31.88,0,0,0-6.86,17.58c-.68,9.3-5.87,17.58-9.79,26"/><path class="cls-1" d="M1821.86,464.75c11.32-4.56,22.92-.45,34.28-.54a126.51,126.51,0,0,1,35.3,4.89,262,262,0,0,1,28.65,9.8c12.34,4.89,25.85,4.45,38.05,9.25a171.72,171.72,0,0,1,35.45,16.4c13.31,9.21,27.91,16.55,41.52,25.37a275.82,275.82,0,0,1,27.52,22.62,148.25,148.25,0,0,0,17.43,13.86c18.36,10.92,28.79,27.81,39.66,45,11.8,18.65,23.75,37.16,40.55,52.15,14.34,12.78,22.23,30,27.86,48.13a54,54,0,0,0,2.93,5.53"/><path class="cls-1" d="M1729.17,357.12c-9.79,0-19.19.49-28.74,0a200.28,200.28,0,0,0-57.49,4.9c-9.79,2.3-20,3.37-29.82,4.89-16.6,2.5-31.19,9.8-46.17,15.72-28.35,11.41-51.27,30.75-71.74,53.37-15.37,17-31.92,33-48.18,49.21a13.93,13.93,0,0,1-11,3.82"/><path class="cls-1" d="M1962.05,1650.45c-8.17,21.35-11.65,44.07-17.53,65.9-4.21,15.62-7.49,31.54-11.26,47.26-6.46,26.93-12.68,53.86-19.59,80.69-2.93,11.36-8.17,22.09-10.82,33.49-4.45,19.59-12.83,38-15.27,57.59-1.77,14.34-8.87,26.19-12.2,39.71-5.68,22.91-11.41,45.83-17.38,68.55-4.21,16-6.71,32.42-11.41,48.13-5.24,17.48-7.78,35.36-11.75,53-3.43,15.13-6.46,30.36-9.79,45.3-3.82,16.06-2.6,31.73-3.87,47.54a19.55,19.55,0,0,0,2.84,13"/><path class="cls-1" d="M1128,2100.39c-.63,10.14-5.68,19.2-5.82,29.72a77.51,77.51,0,0,0,28.3,61.9c25.46,21.88,51.36,43.28,82.21,58.12,24.24,11.7,47.74,25.07,72.42,36a148.13,148.13,0,0,0,31.68,10.62c12.49,2.35,23.46,8.87,36.09,10.78,17.33,2.64,34.67,4.89,52,7.49,18.9,2.74,37.8,1.12,56.7,2.69,12.64,1.08,25.91-1.37,38.93-1.08s24.73,1.18,37.12,1.72a31.38,31.38,0,0,0,5.53-.88"/><path class="cls-1" d="M1864.61,1334.08a30.85,30.85,0,0,1,25.81,12.29,648.62,648.62,0,0,0,56.94,54.4,46,46,0,0,0,12.05,7.44c19.58,8.87,34.27,23.7,47,40.16a15.33,15.33,0,0,0,12.25,6.41,65.08,65.08,0,0,0,38.87-11.41,33.93,33.93,0,0,0,17.29-32.32"/><path class="cls-1" d="M1888.75,1945.46a25.73,25.73,0,0,1,11.26,8.23,215.93,215.93,0,0,1,43.78,91.91c4.55,21.59,3.13,42.55,1.08,64.14a149.72,149.72,0,0,1-16.26,52.84c-7.35,14.69-19.59,26-30.65,38a238,238,0,0,1-43.49,36.28,86.72,86.72,0,0,1-27,14.69c-2.7.64-3.24,2.2-4.66,3.82a36.73,36.73,0,0,0-8,15c-2.3,9.79-10.48,12.73-17.92,15.52-19.93,7.35-40.49,13-60.13,20.86-15.42,6.17-31.68,5.73-47.45,9-34.27,7-69.23,2-103.9,2.75a67.92,67.92,0,0,1-20.42-.84"/><path class="cls-1" d="M2200.47,1313.66c4.06-18.26-11-24.48-21.4-33.29-13.52-11.46-30.46-15.14-47.25-18.61-7.4-1.57-16.9,6.61-17.48,15.72-.4,6.46-1.52,13.31,1.76,19.58,2.69,4.9,0,10.09.34,14.69,0,10.63,3.23,20.91,2.5,31.54-.93,13.46-9.79,19.58-23.31,14.69"/><path class="cls-1" d="M1877.64,1339.66c-6.17,11.41-3.53,22.72,0,34.28,6.12,20.86,22.23,35.55,32.51,53.86a88.69,88.69,0,0,0,32.51,31.49,21.36,21.36,0,0,1,10.19,15.81"/><path class="cls-1" d="M1352.48,1858.26a13.5,13.5,0,0,1,5.63,13c-.34,15.33,1.52,30.85-8.27,44.66a23.32,23.32,0,0,1-28,8.23c-2.55-1.38-4.9-3.38-7.45-4.56a12.25,12.25,0,0,0-14.69,1.76c-4.89,4.51-10.18,8.38-14.69,13.13a26.7,26.7,0,0,1-14.93,8.22"/><path class="cls-1" d="M1432.29,486.09C1418,489.23,1408.5,500,1398,508.67a192.33,192.33,0,0,0-49.11,60.13c-5.29,10.52-9.31,21.64-14.11,32.41a15,15,0,0,0,1,11.9c8.82,0,14.25-5.29,19.59-11.8,14-17,31.38-31,44.61-49,12.48-17,20.66-36.67,33.88-53.17a8.67,8.67,0,0,0,.24-11.9"/><path class="cls-1" d="M1658.66,1829.51c-1.37,15.33-13.12,25-20.37,37.12-8.13,13.56-16.25,27.13-24.09,40.84-2.89,4.89-7.15,9.1-10.13,14-4.31,7-9.06,5.24-14,1.72-6.81-4.9-14-9.8-15.72-18.51-.73-3.72-4-4.9-5.68-7.4"/><path class="cls-1" d="M1337.64,1616.12a10.75,10.75,0,0,0,1,11.12c9.79,20.07,4.31,55.92-13.37,68.26a74.37,74.37,0,0,1-44.07,11.94,245.5,245.5,0,0,1-28.2-3.67c-1.22-1.52-.29-3.82-.54-6"/><path class="cls-1" d="M1060.25,1044.6c5.88,4.89,4.07,12.53,6.56,18.51,4,9.45,8.28,18.75,13,27.86a124.31,124.31,0,0,1,12,47.35,61.72,61.72,0,0,0,5.58,22.28"/><path class="cls-1" d="M1020.84,887.07a14.69,14.69,0,0,1-.64,13.86,43.51,43.51,0,0,0-4.9,29.87c2,10.92-1,22.82-2.25,34.28a210.16,210.16,0,0,0-.49,38c1,13.86.29,27.91,1.71,41.72,1.57,15.23,4.9,30.31,7.1,45.49,1,7,6.76,7.64,11.27,10.18"/><path class="cls-1" d="M1070.44,1772.91a198.24,198.24,0,0,0,73.45,44.66c15.37,5.19,30.16,12.19,45.58,17.33,13,4.31,25.37,11.41,39.81,10.43,2.89,0,5.63,0,7.45-2.84"/><path class="cls-1" d="M2264.51,1249.66a70.68,70.68,0,0,1-4.6-6.51,16.84,16.84,0,0,0-19.59-8.22c-8.37,1.42-10.28,9-11.94,15.66a184.43,184.43,0,0,1-19.59,44.46,9.81,9.81,0,0,1-7.3,5.64"/><path class="cls-1" d="M2194,749.58a14.47,14.47,0,0,1-7.49-3.67c-12.58-14.69-30.75-19.59-47.2-28-17.58-8.72-35.5-16.5-50.44-30.26-12.92-11.9-28.79-20.57-42.25-32a326.69,326.69,0,0,0-67.23-42c-14.69-7.35-29.73-15.92-46.18-18.71-12.78-2.15-24.48-8.81-38-8.13-4.3.25-8-4.16-12.87-5.63A752,752,0,0,0,1793.12,559a227.41,227.41,0,0,0-45.39-4.16,8.42,8.42,0,0,1-3.67,0c-14.69-7.78-30.36-3.87-45.54-5.29-28.5-2.59-56.21,5.68-84.37,8.18-6.8.59-12.78,4.31-19.58,6A15.28,15.28,0,0,0,1584.14,579c-.79,18.36,3.82,25.76,26.14,33.15,18.81,6.17,38.15,10.72,57.34,15.47a207.87,207.87,0,0,1,43.83,18c9.79,4.9,20,8.92,28,17.63,11.26,12.39,13.41,27.91,17.33,42.9a98,98,0,0,1,0,42.64c-1.27,7.2-11.12,10.78-18.46,7.45a107.9,107.9,0,0,1-30.36-23.46,159.73,159.73,0,0,0-31.78-22c-12.09-7.4-24.09-14.69-36.18-22.23a175.22,175.22,0,0,0-41.62-18.12c-15.13-4.6-30.26-9.45-45.59-13.42-9.79-2.49-19.93-4.26-29.82-7.1-7.25-2.1-14.69,1.47-21.2,6.13"/><path class="cls-1" d="M1568.22,1222.73c1,3.77.69,6-4.16,6.61-18.61,2.5-37.16,5.24-55.67,8.43-3.48.58-7,0-10.19.83-6.76,1.76-13.86-.49-20.56,3.43a27.53,27.53,0,0,1-36.09-4.46"/><path class="cls-1" d="M1505.6,661.44c4.35,5.24,11.94,6.95,15,13.86.68,1.56,2.79,2.15,5.39,2.35a19.52,19.52,0,0,1,11.89,5.29A306.46,306.46,0,0,1,1577,728.33c4.21,6.51,8.47,13.81,3.86,22.18"/><path class="cls-1" d="M1466.62,1322.87c2-.35,3.67.44,5.68-1.72,16.55-17.77,39.86-22.81,61.11-31.73a11.1,11.1,0,0,1,11.06,1.13,13.63,13.63,0,0,0,13,.69,47.13,47.13,0,0,1,35.3,1,12.31,12.31,0,0,0,13.13.25c4.89-2.84,9.79-1.23,15.71.24,31.54,8.13,57.39,28.75,88.14,38.54a8.94,8.94,0,0,1,7.44,8.32c0,4.66-4.16,4.9-6.51,7.4-5.38,5.38-13,5.58-19.58,8.08-13.27,5.14-24.49,14-37.9,18.9a88.58,88.58,0,0,1-35.31,5.14c-9.79-.44-18.65-.74-27-6.86-5.38-3.86-12.29,0-18.41,0a45.31,45.31,0,0,1-34.52-14c-6.27-6.56-7.39-18.85-5.68-30a42.57,42.57,0,0,1,12.24-26,31.14,31.14,0,0,0,4.9-8.22"/><path class="cls-1" d="M1270.85,1950.12v-1.86a232.7,232.7,0,0,1-13.07-27.77c-1.57-3.43-5.39-2.25-8.18-.93a90.31,90.31,0,0,0-18.6,11.07,268.87,268.87,0,0,1-39.18,26.88"/><path class="cls-1" d="M1124.25,1094.69c-1-.35-2.84,1-3.18-.93s-1.32-5.39-.34-7.3c6.17-12.44,3.67-26.15,6.31-39.17a33.8,33.8,0,0,1,9.31-17.43c13.66,11.5,21.34,27.08,31.48,40.64a4.91,4.91,0,0,1,.93,2.79c0,16.79,12.78,24,24.09,32.51,8,6.12,15.38,13.13,23.36,19.3a9.2,9.2,0,0,1,3.57,5.72c3.68,16.6,16.16,26.49,27.86,37.12,8.92,8.08,19.59,14,27,24a21,21,0,0,1,5.29,13c-.59,13.07,7.59,20.86,15.23,29,5.19-.83,9.45-1.66,9.06-7.68"/><path class="cls-1" d="M1770,1760.86c2.45,7.45-1,12.74-5.39,18.71a121.1,121.1,0,0,0-17.67,42.75,46.07,46.07,0,0,1-11.27,22.23c-3,3-1.51,6.75-1.86,10.18"/><path class="cls-1" d="M2298.35,1236.64c-.34-4.9,6.36-9.79,2.1-13.66-6.61-6-3.28-19.29-16.35-20.81-4.9,6.56-12.63,11.6-7.84,22.57,1.87,4.26-.53,9.79-1.42,14.69-1.86,10.23-8.76,13-17.77,13.42"/><path class="cls-1" d="M1600.2,1296c1.56,6.52,2.64,13.18,4.89,19.59,5.83,17.24,7.05,33.39-7.39,47.5a31.81,31.81,0,0,0-4.9,9.15"/><path class="cls-1" d="M1327.31,1698.68c12,10.33,12,25.56,14.3,39.17a110.85,110.85,0,0,0,11.16,32.17c8,15.33,15.77,31,28,44.07a22.69,22.69,0,0,0,20.72,7.44,43,43,0,0,1,26,3.43c10.33,5.29,22.81,6.46,29.38,19.15a46.75,46.75,0,0,1,4.45,21.59c0,11.6,2.21,22.92,2.3,34.28a121.94,121.94,0,0,0,8.57,42.64,26.21,26.21,0,0,1,1.81,12.1"/><path class="cls-1" d="M1287.55,1885.19c-13.32-1.28-26.68-2-39.86-3.92a61.78,61.78,0,0,0-20.42,1.18,107.19,107.19,0,0,1-53.86-3.58,86.18,86.18,0,0,0-17.58-5.34c-18.36-1.81-32.41-12.63-48.28-19.58a74.17,74.17,0,0,1-28.74-19.59,11.9,11.9,0,0,0-9.2-3.82c-.59-9.79-6.22-18.26-8.87-27.61s-2.89-16.36,2.45-23.21c7.59-9.8,14.69-20.18,26.79-25.27a60,60,0,0,0,14.69-12"/><path class="cls-1" d="M2095.19,1356.36c-2.79,5.19-7.3,3.23-10.58,1.62a43.21,43.21,0,0,1-11.36-7.1c-2.89-2.8-6.66-1.33-10.08,0-4.36,1.51-3.33,5.14-3.77,8.37-1.13,8.32,5.58,13.07,8.66,19.58,4.51,9.31,8.18,18.32,6.32,28.89-.49,2.65,1.42,3.14,3.62,2.8"/><path class="cls-1" d="M1471.27,1323.85a16.31,16.31,0,0,0,12,9.79c9.79,1.86,16.79,9.11,24.48,15.28s16.65,12,27.76,7.54"/><path class="cls-1" d="M1295.92,1826.72c-9.35-3.28-9-12.48-10.87-19.58a44.72,44.72,0,0,0-15.18-23.07c-4.89-4.21-11.7-6.41-16.45-1.66-11.36,11.41-25.26,10.09-39.17,9.79"/><path class="cls-1" d="M1566.8,1886a14.68,14.68,0,0,1-6.22,13.27c-6.66,5.73-7.54,15.57-12.38,22.82-4.17,6.22-6,14.25-13.76,17.87-1,.49-.74,3.53-1,5.39"/><path class="cls-1" d="M1732.89,1845.28a33.53,33.53,0,0,1-9.45-15.72c-1.37-3.62-2.74-8.27-7.29-9.2-5.39-1.13-6.81,3.77-9.31,7.24-7.24,9.8-10.33,21.75-15.81,32.47-3.33,6.56-6.32,13.81-14.69,15.91-.54,0-.69,1.77-1,2.7"/><path class="cls-1" d="M1796.89,364.07c11.75,2.94,23.41,6.51,35.31,8.67,10.38,1.86,19.24,9.79,30.55,7.59"/><path class="cls-1" d="M1064.91,1013.06c0,9.26-3.63,17.83-4.9,26.88,0,1.28,0,3.14-.93,3.63-16.41,10.87-16.41,29.38-22.57,45.44-6.66,17.18-3.24,34-2.6,51.17,0,5.87,3.53,4.45,6.66,4.65"/><path class="cls-1" d="M1519.5,1894.44c0,6.91-3.13,10.73-8.81,15.38-7.44,6.12-12.1,15.91-17,24.48a37.69,37.69,0,0,1-18.71,14.69"/><path class="cls-1" d="M1005.51,1654.17c10.43-4,21-.49,31.53-.83a14.7,14.7,0,0,0,12.29-5.49,40,40,0,0,1,32.27-15.13c5.68,0,10.77,3.09,16.75,2.21,3.08-.45,4.9,3.67,6.32,6.31a75.29,75.29,0,0,1,6.51,14.69c4.6,15.23,18.65,21.55,28.84,31.54,9-1.33,18.36,4.06,26.83-1.13a17.34,17.34,0,0,1,14-1.67"/><path class="cls-1" d="M1129.83,1757.14a47.75,47.75,0,0,0,33.45-14.69c11.5-12,28.59-7.15,33.34,9.21a19.59,19.59,0,0,1,.88,5.58,41.12,41.12,0,0,0,13,31.58c1.08,1,2.74,2.45,2.69,3.68-.93,20.07,17.38,30.55,23.75,47.15,1.57,4,8.52,7,13.51,8.28a262.56,262.56,0,0,1,73.7,34.27"/><path class="cls-1" d="M1455.06,982.16c3.43,1.13,2.26,4.26,1.77,6-3.38,11.51-2.26,23.5-4.9,35.11a45.37,45.37,0,0,1-16.16,26"/><path class="cls-1" d="M1189.23,1930c-5.73.44-6-5.53-9.11-8.13a14.68,14.68,0,0,0-16-1.81c-12.68,4-23.31,12.24-36,16.36-4.36,1.46-9.79-4.41-12.68,2.39"/><path class="cls-1" d="M1069.51,1831.37c-10.38,7.74-8.28,20.13-10.87,30.66-.64,2.69,2.4,4.55,6.27,4.89,12.09.54,16.1,4.9,12.58,16.41-2.6,8.57,1.42,15.57,1.32,23.31"/><path class="cls-1" d="M1667.92,1213.48a35.05,35.05,0,0,1-21.3,4.89c-19.3-.93-37.85,4-56.66,7.15-7,1.23-14,3.87-21.3,2.06"/><path class="cls-1" d="M1077.88,648.46c-11.31-3.77-19.14,3.48-26.78,9.41-9.55,7.49-22,11.21-29,22.08-.49.78-2.35.68-3.62,1"/><path class="cls-1" d="M1012,921.35c-7.88,2.84-10.72,9.79-13,16.75A22.7,22.7,0,0,1,991.51,950c-7.69,5.64-2.7,13.47-3,19.59-.39,8.86,1.76,17.92-.64,26.88"/><path class="cls-1" d="M1338.57,1863.84c-7.49-3.92-9.2-11.46-11-18.61a53.13,53.13,0,0,0-11.22-25,6.8,6.8,0,0,0-5.58-2.79c-4.11.29-14,10.14-14.69,14.69"/><path class="cls-1" d="M1209.79,1688.49c12,5.83,26,6.61,37.22,14.69,1.22.88,3.62,0,5.48,0"/><path class="cls-1" d="M1120.58,1095.62c-.64,6.8-5.39,13.37-1,20.47.44.68.44,2.35,0,2.64-11.56,8-7.3,22.23-12.83,32.61a19.72,19.72,0,0,0-1,5.53"/><path class="cls-1" d="M1747.73,461.07a22.11,22.11,0,0,0,18.61,4.07c17.43-3.19,35.2-1.13,52.83-1.28,2.6,0,2.84,1.72,2.79,3.73"/><path class="cls-1" d="M1162.3,1748.87c6.51,6.22,13.07,12.29,19.58,18.6a20,20,0,0,0,16.75,6.47"/><path class="cls-1" d="M1619.69,1259.85a285.55,285.55,0,0,0-54.65,6.8c-4.9,1-9.26-2-14-.44-3.19,1.08-6.91-.83-10.14,1.08"/><path class="cls-1" d="M1675.36,1875a28.14,28.14,0,0,1-5.83-13.85c-1.08-7.84-3.23-15.87-11.8-19.59"/><path class="cls-1" d="M1518.57,1907.42c6.66,5.68,4.21,14.44,7.2,21.45,1.91,4.35,3.08,8.71,7.64,11"/><path class="cls-1" d="M1939.77,1482.5c-9.79-5.78-21-7.55-31.63-10.83-3.43-1-7.93,1.57-12,2.5"/><path class="cls-1" d="M1072.3,590c-4.9,6.61-10.72,12.24-15.13,19.29a13.87,13.87,0,0,0-1.57,12.24"/><path class="cls-1" d="M2193.07,716.18a4.16,4.16,0,0,0-1.71,7.25c6.22,5.24,5.68,12.49,4.89,18.71a71.67,71.67,0,0,0,1.13,20.46,36.76,36.76,0,0,1-1.66,15.72"/><path class="cls-1" d="M1079.74,1901.89c7.1-.69,13.08-5.34,20.42-5.73,10.23-.54,15.42,4,13.76,14a145.53,145.53,0,0,0-.78,16.7,10,10,0,0,0,3.72,9.3"/><path class="cls-1" d="M1467.55,1247.8c2.94,12.34,13.27,13.76,23.21,15.77a227.4,227.4,0,0,0,48.23,3.72"/><path class="cls-1" d="M1729.17,354.33c-.34,5.63,3.92,3.57,6.51,3.67a478.32,478.32,0,0,1,56.8,5.53c2.75.4,4.12.89,3.68,3.82"/><path class="cls-1" d="M1651.71,1254.32a5.32,5.32,0,0,1-.64,5.82c-10-3.72-20.22,3.87-31.43-1.42-.89-1.07.53-3.77,0-6.27"/><path class="cls-1" d="M1128,1070.6a33.62,33.62,0,0,1,12.15,7.29c8.37,6.51,17.43,11.61,28.69,7.54"/><path class="cls-1" d="M1352.48,1842.49v8.37c0,2.79.24,5.54-4.41,7.84-10.72,5.33-15.81,17-23.89,25.56"/><path class="cls-1" d="M1855.36,382.19c-1.18,6.07,2.2,11.65,1.86,17.63"/><path class="cls-1" d="M1126.11,1758.07a70.24,70.24,0,0,1-16.7.93"/><path class="cls-1" d="M646.69,1927.35c6.66,1.86,6.32,8.32,6.17,12.53-.59,20.32,7.59,38.49,14.69,56.46,12.49,32.07,26.64,63.66,41.67,94.6a303.92,303.92,0,0,0,28,43.14,365.48,365.48,0,0,0,28.35,37.65c20.91,22.38,40.79,45.84,64,65.81,20.56,17.78,39.51,37.41,61.15,53.87a58,58,0,0,1,4.9,5.38,379.68,379.68,0,0,0,55.48,41.92c14.25,9.3,30.5,7.88,46.37,7.39,27.52-.83,51.31-13.56,76.24-23.55,32.17-12.83,64.19-26,97.1-37.07,19-6.36,35.94-17.77,53-28.4,15-9.35,29.82-18.95,44.56-28.74,12.19-8.13,24.48-16.4,36.13-25.07s23-17.82,34.28-26.88c12.88-10.24,23-23.41,36.14-33.45,19.58-15,36.08-32.61,44.7-56.45a34.56,34.56,0,0,1,5.48-7.5"/><path class="cls-1" d="M1564.35,1318.26c-5.24,27.33-4.45,55-6.36,82.61a21.06,21.06,0,0,0,2,11.9,16.89,16.89,0,0,1-1.72,18.31c-9.79,12.73-10.57,27.86-14.15,42.16-4.4,17.78-6.31,36.23-11.6,53.86-6.27,20.47-7,41.92-12.83,62.24-5.49,19.05-11.85,37.9-18.46,56.6-12.1,34.28-25.46,67.62-48.09,96.61-10.72,13.71-20.37,28.84-32.17,41.13-19.58,20.32-35.3,44.07-58.51,61.26-11.56,8.52-21.59,19.34-33.69,27.47q-29.37,19.59-58.46,39.9c-14.4,9.8-28.7,20.08-42.65,30.66a272.58,272.58,0,0,1-44.51,25.12c-21.16,10.52-44.07,17.13-65.13,27.52a190.13,190.13,0,0,1-82.45,20.81c-10.78,0-21.55,3.52-32.52,1.61"/><path class="cls-1" d="M677.39,395.17a6.56,6.56,0,0,0-7.39-2.7c-14.69,6.22-31.24,7.64-44.61,17.48a202.66,202.66,0,0,0-30.55,30.66C581.22,456.08,567.56,471.5,554,487a106.25,106.25,0,0,0-13.71,16.8C531,520.17,515.56,531.44,506,547.89c-5.63,9.79-16,17.43-22.47,27.32-7.15,10.87-14.15,21.94-21.06,33C452.69,624.08,451,642.78,442,658.8c-1.27,2.3-3.57,9,2.4,11.85"/><path class="cls-1" d="M644,1855.47c3.91-15,4.89-30.71,10.18-45.49s9.79-28.55,20.42-39.86c7.44-7.88,9.79-7.74,15.72,1.86,9.45,14.69,19.19,29.38,27.47,44.71a93.44,93.44,0,0,0,7.24,10.52A804.12,804.12,0,0,1,776,1907.08c16.75,28.89,43.53,47.25,72.08,63.31a609.53,609.53,0,0,0,66,34.27,82.55,82.55,0,0,0,23.16,5.49c12.05,1.27,24.14,2.2,36.19,2.79,5.48.24,7.1,2.64,6.51,7.54"/><path class="cls-1" d="M658.83,599.25c29.09-8.91,57.64,5.34,93.33-8.91,50-28.59,92.79,14.25,135.64,49.95,42.79,28.54,85.64,64.24,121.33,114.23,14.3,21.4,42.85,21.4,63.66,25.07"/><path class="cls-1" d="M656.48,594.6a31.28,31.28,0,0,1,1.23,8.38,21.2,21.2,0,0,0,5.78,17.53,18.66,18.66,0,0,1,3.13,21.15c-5.78,11-5.83,22.13-6,33.69,0,1.51.63,3.57,0,4.55C649.38,695,652.32,713.15,649.43,730a129.48,129.48,0,0,0-1.52,30.65,222.66,222.66,0,0,0,7.84,41.82,81.27,81.27,0,0,1,3.13,29.62c0,1.87-1.47,4.12-.78,5.49,9.79,21.49-7.39,35.16-15.52,50.82a318,318,0,0,0-15.48,28c-3.91,9.8,1.37,18.66,11,23.51,16.7,8.37,35.11,12.73,50.48,24.48a641.76,641.76,0,0,0,54.6,36.33c41,25.27,70.46,61.85,99.4,99.25,7.74,10,4.21,19.1,1.62,28.89"/><path class="cls-1" d="M1108.78,91.77c-7.64-3.42-15-.29-21.15,3-15.09,8.28-30.36,16.06-45.59,23.9-16.85,8.66-32.42,19.58-48.53,29.38-14.93,9-29.38,18.6-44.07,28.1A243.32,243.32,0,0,0,897,220.75c-6.8,7.88-15.91,13.81-22.86,21.59-11,12.25-24.49,22.53-31.68,37.9-2.6,5.63-8.33,6.71-13.08,8.13a203.12,203.12,0,0,1-29.67,6.51c-3.87.54-4.9,3.92-8.28,4.9-9.79,2.89-19.58-.93-29.87,1.18-5.28,1.07-8.61-8.13-8.76-13.27-.25-11.51-4.9-19.59-15.28-23-12-4.11-22.52,1.42-31.39,9.11-22,19.05-32.46,43.68-36.67,72.22-2.3,15.72.73,30.41,2.25,45.54"/><path class="cls-1" d="M662.55,682.74c6.47,4.9,6.66,12.93,8,19.59,3.77,18.46,11.75,35,19.19,52.14a173.5,173.5,0,0,0,34.86,49.9c15.62,16.7,36.09,24.78,56.75,32.22a138.39,138.39,0,0,0,44.42,9.79,24,24,0,0,1,17.67,7.25"/><path class="cls-1" d="M1161.66,696.7a57.27,57.27,0,0,1,19.59,19.58c5.14,9.79,15.27,11.66,24.92,12.93,11.61,1.47,15.47,7.88,9.16,17.72-4.9,7.4-10.33,14.3-15.67,21.35a22.67,22.67,0,0,0-4.31,20.57,93.41,93.41,0,0,1,2.89,23.06,19.19,19.19,0,0,0,14.69,19.29c9.79,2.94,18.8,8.28,28.54,11.71a145.34,145.34,0,0,0,48.38,7.88,275.14,275.14,0,0,1,57.49,4.9c13,2.74,23.31,24,21.59,37.75a53.8,53.8,0,0,1-11.41,25c-16.64,23.26-20.17,47.5-6.41,73.45"/><path class="cls-1" d="M614.32,1194.87c-6.26-24.48-2.44-48.33,4.26-72.42,5.63-20.22,11.8-40.54,11.76-62.09a98,98,0,0,1,4.6-27.76c3.57-11.8,8.27-12.58,19.34-7.64,20,9,37.16,22.77,56.65,32.32a240.7,240.7,0,0,0,44.41,18.85c8.18,2.11,14.69,7.44,22.24,11.16,9.79,4.9,18.9,10.58,28.84,14.69a22.79,22.79,0,0,1,14.69,17"/><path class="cls-1" d="M1546.73,1069.62a25.59,25.59,0,0,1,20.46-1.13,33.41,33.41,0,0,0,12.93,1.08c12.29,0,21.89,8,33.35,10.38,4,.83,3.13,6.32,4.89,8,16,15,21.3,36.33,31.44,54.5a93.49,93.49,0,0,1,11.11,60.81c-3.13,19.59-4.89,39.18-7.54,58.47-4.26,33.54-15.32,64.24-38.09,90-13.61,15.37-26.79,31-35.4,50a36.6,36.6,0,0,1-17.44,16.8"/><path class="cls-1" d="M486.28,1042.74a40.46,40.46,0,0,1-3.43,20.32,122.3,122.3,0,0,0-8.32,28.74c-1.37,9.35-7.1,18.21-8.62,28-2.6,16.6-6.22,33-1.52,50.24,1.47,5.24-.24,12.39.74,18.36,1.51,8.76,1.27,18.07,6.21,26.05,1,1.57,1.72,3,3.77,2.74"/><path class="cls-1" d="M475.31,1241.29c.34-.93,1.08-2,.88-2.79-4.31-17.92,4.9-33.69,9-50a69.61,69.61,0,0,1,37.12-48.72c6.75,4.9,7.24,11.9,6.8,18.86-2.1,30.31-2.3,61-7,90.83-4.9,31.19,4.6,58.17,16.21,85.49a735.5,735.5,0,0,0,39.81,75.65c6.27,11,13.9,25.22,30.8,26.54,4.5.39,5.78,5.78,7.24,9.21a364.08,364.08,0,0,1,19.2,50.14,293.63,293.63,0,0,1,9.2,54.59c1.38,21.75-1.12,43.29-1,65a255.93,255.93,0,0,0,8.76,63.66A288.32,288.32,0,0,0,673.52,1733c4.61,9.31,10.68,19,8.72,30.46"/><path class="cls-1" d="M1739.7,776.46c1.17,14.3-8.42,23.11-17.87,30.31a192.33,192.33,0,0,1-42.5,25.27c-24.49,10-49,19.58-75.12,23.35-7.49,1-14.2,6-22.23,4.61a43.74,43.74,0,0,0-14.69-1.91"/><path class="cls-1" d="M1277.66,415.58c-11.07-.78-19.19,6.37-27.71,11.36-24.19,14.16-47.26,30.31-71.74,44.07-19.29,10.82-38.44,22.14-58.46,31.44a418.4,418.4,0,0,1-59,22.28c-18.31,5.29-36.57,5.43-54.89,7.93-17.09,2.3-33.44-1.37-50.14-2.4a296.83,296.83,0,0,1-38.93-6.8,17.5,17.5,0,0,0-13,2.39"/><path class="cls-1" d="M1376.91,1057.57c-9.4.54-17-5.19-23.74-9.79a41.59,41.59,0,0,0-25.42-5.63,167.78,167.78,0,0,0-56.7,8.62c-18,6.46-37,10.33-55.58,15a42.18,42.18,0,0,0-10.87,4.21c-21.93,13.42-45.83,22.92-68,35.84a160.84,160.84,0,0,0-48.23,42.65"/><path class="cls-1" d="M1312.92,149.31c-4.9-6.81-8.77-14.69-17.58-17.78a35,35,0,0,1-8.38-5.43A62.36,62.36,0,0,0,1249,116c-33.1,0-63.22,12.1-92.6,25.37-11.06,4.89-20.76,13.32-31.78,19-20.56,10.57-36.43,27.32-54.59,41a295.71,295.71,0,0,1-52.1,30.36c-4.9,2.35-10,8.37-15.52,3.57s-.59-11.21.88-16.4c8.42-29.38,29.38-50.63,50-71.39a392.42,392.42,0,0,1,48.08-42,15.53,15.53,0,0,0,6.13-7.29c5.38-14.69,21.2-15.57,32-23.16a13.77,13.77,0,0,1,1.81.88"/><path class="cls-1" d="M492.74,1039.94c-15.08-1.22-24.24,9.8-34.27,17.93A227.94,227.94,0,0,0,420,1098.26a244.88,244.88,0,0,0-33.44,67.92c-2.26,6.56-8.08,10.62-8.82,17.48"/><path class="cls-1" d="M1279.52,409.07c2.5,25.81-12,42.55-29.38,58.76-18.65,17.14-38.93,32.22-58.76,47.89a140.08,140.08,0,0,1-27.86,17.38c-5.53,2.55-11.6,4.65-11.46,10.58a21.81,21.81,0,0,0,10.78,16.6A16.43,16.43,0,0,0,1172,563c21.4-1.08,41.87,6.37,63.07,6.61a183.54,183.54,0,0,0,51.22-4.9c12.39-3.33,25.26-5.92,37.8-9.25a62.84,62.84,0,0,0,16-6,22.92,22.92,0,0,1,20.27-1.07,89,89,0,0,1,20.42-13.12,10.49,10.49,0,0,0,6.46-11.22"/><path class="cls-1" d="M1081,1148.06c2.25,1.52,5.58-1.13,7.39,1.42,8.08,11.46,18.46,11.56,30.7,7.54s26.64-6,40-9c19-4.36,34.81-14.69,51.85-22.67a372.25,372.25,0,0,1,55.58-22.52,161.21,161.21,0,0,1,61.35-5.83,142.7,142.7,0,0,1,32.47,4.9,40.41,40.41,0,0,1,25.31,25c8.08,19,16.5,37.75,30,54.15a180.72,180.72,0,0,0,67.32,49.36c12.34,5.53,24.93,9.45,34.28,19.88a3.81,3.81,0,0,0,5.39-.29l.05,0"/><path class="cls-1" d="M1728.83,663.3c4.5,15.33-3.67,24.48-15.28,32.51a257.7,257.7,0,0,1-72.47,35.06,75,75,0,0,1-20.37,2.7,35.32,35.32,0,0,0-15.76,3.91"/><path class="cls-1" d="M1881.65,973.16c-4.36,14.44-17.19,19.58-28.79,26-16.65,9.1-33.3,18.16-50.14,26.88-19,9.79-37.07,21.94-58.37,27a250.53,250.53,0,0,1-40.84,6.46,47.8,47.8,0,0,1-16.69-1.86"/><path class="cls-1" d="M523.39,736.55c-6.07-.78-9,3.77-12,7.5a351.26,351.26,0,0,0-49,77.12c-6.75,15.37-16.21,30.7-13.37,49"/><path class="cls-1" d="M617.31,1194.43c-4.41.59-4.16,4-3.62,7,2,10.43,0,21,3.82,31.83a42.42,42.42,0,0,1,0,25.76c-1.28,4,.39,8.71-.35,12.92-4.06,23.36-6.8,46.91-14.34,69.73a83.85,83.85,0,0,0-.54,46.27A296,296,0,0,0,612.71,1424a15.85,15.85,0,0,1-1.91,13"/><path class="cls-1" d="M1513.38,1144.78a17.82,17.82,0,0,1-21.05-1.37c-5.73-4.07-11.51-2.65-17.09-3.92s-10.38,7.2-12.15,14.69c-4.11,17,4.46,29.82,13.18,42.7,5.23,7.74,10.62,15.37,15.66,23.26a14.65,14.65,0,0,1,2.89,12"/><path class="cls-1" d="M1914.12,794c-10.43-2.84-21.11-.44-31.54-.49-28.94,0-52.59-11.51-74.28-29.14-23.55-19.19-42.31-42.64-60.33-66.83a22.6,22.6,0,0,0-4.6-3.72"/><path class="cls-1" d="M939.94,616.88c0-8.27-4.35-12.78-12-16-12.44-5.14-21.94-15.28-33.49-22-22.82-13.46-45.54-27.47-71.49-34a80.49,80.49,0,0,0-25,0,9.78,9.78,0,0,0-7.19,4.51c-4.9,10.08-13.52,17.82-16.95,28.64"/><path class="cls-1" d="M438.05,876.64c-20.76,8.38-40.2,18.46-52.93,38.05a57.09,57.09,0,0,0-7.35,23.21c-2.4,15.77-5.34,31.48-6.22,47.35a122.23,122.23,0,0,0,3.53,36.14,24.77,24.77,0,0,1-.93,18.6c-14.35,27.86-15.13,57-8.87,87.26,2.31,11,1.57,22.87,3.09,34.28a24.47,24.47,0,0,0,8.42,17.62"/><path class="cls-1" d="M784.09,1721l17.92-3a32.7,32.7,0,0,0,14.69,19.59,17.28,17.28,0,0,1,8.37,19.58,12.65,12.65,0,0,0,.83,8.33c4.9,9.55,9,19.34,14.06,28.69a56.71,56.71,0,0,0,15.47,17c11.51,9.06,21.89,19.3,35.26,26.1a38.18,38.18,0,0,0,18.75,5.19A136.66,136.66,0,0,1,953,1849.2a49.5,49.5,0,0,0,25.12-.3"/><path class="cls-1" d="M1560.63,1126.22a12.86,12.86,0,0,1-.88-3.67,62.32,62.32,0,0,0-9.4-37.07,21.39,21.39,0,0,1-3.53-10.28,9.29,9.29,0,0,0-8.47-9.79c-12.78-1.13-26.14-2.79-37.95,3.62-12.63,7-13.12,22.47-7,33.2a196.09,196.09,0,0,0,12.49,18.56c5.24,7,9.2,14.1,7.49,23.25,0,.45,1.71,1.23,2.64,1.82"/><path class="cls-1" d="M777.58,1242.22l-2.94,10.38a16,16,0,0,0,17.77,7.05c17.58-3.33,34.67,1.62,52,2.06,15,.34,30,.39,43.58-7.49a16.74,16.74,0,0,1,.84,21.3c-10.34,14-14.69,30.06-19.59,46.37-6.22,20.61-11.8,41.33-16.16,62.28a353,353,0,0,0-8.08,72.37,136,136,0,0,0,3,28.8c2.15,9.79,1.42,20.46,3.23,30.5s3.13,20.47,4.9,30.6c1.32,7.45-3.63,11.22-5.39,16.7a37.19,37.19,0,0,1-8.08,10.28c-11.9,14.06-14.69,31.73-4.36,46.23,13.32,18.7,27.33,37,49.75,46.76,15.67,6.86,31.93,7.3,48.33,8.08,3,0,4.9-2.35,7.49-3.53a109.18,109.18,0,0,1,76-8.17,76.9,76.9,0,0,0,18.61,4,30,30,0,0,0,17.82-7.83,61.76,61.76,0,0,0,24.48-53.86,20.55,20.55,0,0,0-11.41-18.56"/><path class="cls-1" d="M1351.79,1232a81.42,81.42,0,0,1-20.61,31.38,151,151,0,0,1-28.55,24.49,26,26,0,0,1-14,4.6c-19.59.29-39.57.93-59.35.83-24.48,0-46.08-6.9-63.36-25.66a44.12,44.12,0,0,0-17.43-13.07,10.53,10.53,0,0,1-7.15-10.38c-.39-8.91-5.53-20.17,5.48-25.66s18.46-13.51,28.6-19a294.71,294.71,0,0,1,27.76-14c8.43-3.43,14.3-11.31,23.21-14.69,17.63-6.76,35.26-10.23,53.86-5.39.59,0,1.47-.24,1.82,0,10.48,9.8,25.61,12.49,36.18,22.28,9.8,8.91,20.47,16.45,27.32,28.45a50.85,50.85,0,0,1,7.06,15.08"/><path class="cls-1" d="M1747.09,446.38c-.29,1.52,0,4-1,4.51-15.37,9.11-25.9,24.48-43.38,31.09a446.12,446.12,0,0,0-45.59,22.87c-8.12,4.31-17.43,6.36-23.6,14.69-1.76,2.25-8.27.88-12.63,1.22"/><path class="cls-1" d="M1306.4,145.59c-17.18,10.08-33.54,21.69-52,29.67a478.22,478.22,0,0,0-65.86,32.51,20.82,20.82,0,0,0-11.11,16.65"/><path class="cls-1" d="M1359.29,549.21a25.09,25.09,0,0,1-9.8,17.09,190.81,190.81,0,0,0-25.21,26.64,17.75,17.75,0,0,1-9.36,6.51,27.65,27.65,0,0,0-16.64,14.69,60.81,60.81,0,0,1-33.69,27.22,238.1,238.1,0,0,1-62.88,13.13,236,236,0,0,0-36.38,6.22,103.47,103.47,0,0,1-37.9,1.56,450.4,450.4,0,0,1-49-8.17,17.08,17.08,0,0,0-12,1.71"/><path class="cls-1" d="M1161.66,1778.25a12.17,12.17,0,0,0,0-12c-4.9-7.25-7.44-16-14.69-21.4-2.1-1.57-5.58-3.33-7.25-1.71-4.55,4.5-11,4-15.76,6.61-13.81,7.54-29.38,7.54-43.78,11.7a21.2,21.2,0,0,1-17.28-2.84c-10.53-5.63-22.28-9-33.25-14.1-5.48-2.6-11.21-4.9-16.55-7.74-11.07-6-23.36-6.27-35.3-8.22a15.49,15.49,0,0,0-12,4.65c-16.65,13.37-34.52,16.21-53.86,6.36a47.64,47.64,0,0,0-21.35-6.46c-10.33,0-19.1-5.78-28.65-8.67-14.44-4.31-29.13-7.24-43.77-10.62a16,16,0,0,0-15.72,4.5"/><path class="cls-1" d="M1779.56,855.34a7.55,7.55,0,0,1,8.27,4.66c5.29,17.67,21.11,22,35.41,27.66,31.58,12.54,63.65,7.54,95.53,1.08,3.67-.74,7.39-1.27,11.11-1.86"/><path class="cls-1" d="M1509.61,325.59c-.34,1.12,1.13,3-1.86,2.84-13.91-.89-27.76-3.29-41.77-1-4.11.68-6.07-3.23-9.79-4.9a30.73,30.73,0,0,0-20.91,22.28c-4.41,14.1-10.62,27.62-10.23,42.8a222.33,222.33,0,0,0,1.22,33.34c2.94,16.8,15.91,25.61,30.26,32.56,8.62,4.17,18.46,5.63,26,12"/><path class="cls-1" d="M1266.55,197.54c-3.29-6.07-9.06-2.3-10.88-.64a33.84,33.84,0,0,1-19.83,7.54c-15.81,2.4-27.76,12.34-41.57,18.46-4.5,2-8.13,4.41-13.12,2.5a4.91,4.91,0,0,0-2.74,0c-8.52,2.74-12.49,11.12-19.59,15.82-4.11,2.79-4.06,7.49-3.77,12"/><path class="cls-1" d="M668.09,641a40.23,40.23,0,0,1,13,14.69c9.06,16.11,23.8,25.22,40,32.42,27.18,12.19,55.23,11.41,83.24,4.55a178.84,178.84,0,0,0,27-11.26,184.54,184.54,0,0,1,45.59-14.69"/><path class="cls-1" d="M1070.78,1763.56c-9.79,18.26-27.08,25.85-45.54,31.43-7.49,2.26-15.42,3.09-23.11,4.9a36.15,36.15,0,0,1-21.3-2.06A119.48,119.48,0,0,0,926,1789c-25.9,2.16-46.57-9.11-66.79-22.57-10-6.66-20-13.57-32.51-14.69"/><path class="cls-1" d="M1017.9,691.21a17,17,0,0,0,1.91,15.72,267.65,267.65,0,0,0,36.13,49c6.91,6.91,16,11.9,18.51,22.33"/><path class="cls-1" d="M878.74,1224.59c-13.37-5.77-16.6-20.42-25.76-29.91-1.27-1.33-2.35-4.56-4-5.19-12.1-4.31-16.31-16.56-25-24.49-1.47-1.32-2.89-3.23-4.66-3.57-14.25-2.94-28-8.13-42.65-9.45-9-.79-17.62,1.27-27.22-2.94s-21.84.64-32,4.36a174.59,174.59,0,0,0-17.88,8.71c-9.35,4.9-12.68,13.81-16.45,22.43-1.08,2.45.59,5.19,2.6,7.39,13.36,14.69,23.6,32.57,39.17,45.15,8.47,6.81,15.18,16.45,28.45,17.68a70.71,70.71,0,0,0,20.46-1.62"/><path class="cls-1" d="M1308.26,614.09c8.13,6.81,6.12,16.84,4.17,24-6.76,24.49-18.32,45.59-45.88,52.15a30.81,30.81,0,0,0-9.06,4.07c-11.61,7.24-24.49,8.42-37.36,9.79-2.75.29-4,1.08-3.73,3.82"/><path class="cls-1" d="M1551.33,985a14.72,14.72,0,0,1,11.55,7.15c6.57,8.82,18,11.61,27.38,17,14.69,8.52,31.63,7.89,47.4,11.95,2.74.74,4.11-.73,3.67-3.67"/><path class="cls-1" d="M1055,564.93a6,6,0,0,1,7.22,4.52l0,.13c1.67,10.72,10.63,15.23,17.92,20.17,19.59,13.13,41.87,17.44,64.78,19.59,30.85,3.09,61.9,2.69,92.79,4.9a105.36,105.36,0,0,0,25.91-3.43,71.83,71.83,0,0,1,34.27.44"/><path class="cls-1" d="M867.57,849.27c-2.44,2.4-5.53,1-8.32,1.42-5.83.83-11.75,1.47-15.77,6.51-6.22,7.79-15.37,9.8-24.19,10.87-14.39,1.82-29,1.87-43.58,3.09-22.13,1.86-44.06-2.79-65.85-4.06-11.66-.69-22.38-6.76-33.4-10.78-4.21-1.56-8.67-2.54-13-3.77"/><path class="cls-1" d="M1588.45,860.88a15.32,15.32,0,0,0,13,14.1,85.65,85.65,0,0,1,20.27,9.45c16.55,9.3,34.28,9.79,52.1,8.76,14.25-.73,28.35-3.18,42.7-2.64a12.36,12.36,0,0,1,8.57,2.55,10.57,10.57,0,0,0,10.92,2.59"/><path class="cls-1" d="M672.74,1155a25.12,25.12,0,0,0,15.72-9.35c10.62-13.07,24.82-18.56,40.79-22.52a161.5,161.5,0,0,1,73.44-.64,3.49,3.49,0,0,0,1.87,0c12.48-4.6,23.45-.73,34.27,5.34a33.66,33.66,0,0,1,9.11,5.82,176.42,176.42,0,0,1,23.55,33.2c7,12.29,13.47,24.83,20.08,37.31.54,1,1,2.31,1.86,2.7,14.69,7.15,13.81,20.86,12.58,33.44-.73,7.74-7.44,12.78-15.37,14.69"/><path class="cls-1" d="M1584.72,731a72.76,72.76,0,0,1,14.94,4.46c2.94,1.22,5.38,1.66,5.68,5.73,0,2.54,3,4.16,5.38,5.58,12.69,7.68,24.49,17.09,38.25,22.72s25.65,13.81,40.64,14.3c3,0,4,1,3.67,3.77"/><path class="cls-1" d="M1929.88,796.88a26.41,26.41,0,0,1-9.15,14,140.15,140.15,0,0,1-52.94,27.18,459.72,459.72,0,0,1-60.62,14.3c-7,1-14.69-1.13-20.37,4.89"/><path class="cls-1" d="M474.18,937.9c-13.66,7.15-28.54,12.78-36.18,27.81a12.69,12.69,0,0,1-2.79,4.61c-16.45,12.48-29,28.59-41.87,44.46a18,18,0,0,1-17.48,7.54"/><path class="cls-1" d="M855,498.58a278.41,278.41,0,0,0,38.63,22.52,22.93,22.93,0,0,1,10.38,10.29,75.23,75.23,0,0,0,9.8,15.13,79.81,79.81,0,0,1,18.51,40.69,64,64,0,0,1-.74,13.9"/><path class="cls-1" d="M1642.26,1021c10.53,1.37,21,3.37,31.58,4a15.18,15.18,0,0,1,14.3,14.2c1.08,6.86,4.16,16.6-6.86,20.42-1,.34-2,1.91-2.69,2.79-11.95,15.72-29,17.38-46.52,16.26a26.28,26.28,0,0,0-14.69,3.13"/><path class="cls-1" d="M1730.4,896.87a28.41,28.41,0,0,1-5.49,10.28,224,224,0,0,1-51.07,44.51,61,61,0,0,0-7.44,6.46"/><path class="cls-1" d="M1266.55,195.68c3.57-3.53,8-1.18,12-1.86,9.79-1.57,19.34-2.4,28.69-4.9s18.81.59,27.87,1.57c25,2.59,49,11.11,73.44,16.55,17.39,3.82,35.06,7.1,52.74,10.14a231.48,231.48,0,0,1,38.1,7.93c8.76,3,18,4.6,27,7.24,20.07,6,34.27,19.59,47.93,33.94a16.78,16.78,0,0,1,2.84,10.92,20.56,20.56,0,0,0,13.08,20.56c6.26,3.19,13.9,5.39,15.81,13.81"/><path class="cls-1" d="M439.86,958.32c-13.07-4.21-21.89,4-30.46,11.26a111.86,111.86,0,0,0-23.35,25.81,17.46,17.46,0,0,1-11.12,9.3"/><path class="cls-1" d="M1563.42,1125.78c-2.05.69-3.82,1.27-3.77,4.16.3,14.69-2.1,29.38-1.27,43.58,1,17.63,2.6,35.36,2.74,52.93.25,26,6.61,51.81,2.35,77.91a44.89,44.89,0,0,0,0,11.11,2.1,2.1,0,0,0,2.19,2,2.08,2.08,0,0,0,1.39-.6"/><path class="cls-1" d="M1592.17,562.14a20.15,20.15,0,0,0,17.62,3.57,282.58,282.58,0,0,1,35.26-1.76,22.68,22.68,0,0,0,5.63-.64,25.75,25.75,0,0,1,21.55,4.9c17.87,11.56,35.89,22.87,57.14,28.74a359.45,359.45,0,0,0,51.22,12c14.69,1.81,29.72,3,44.41,5.34,13.9,2.2,27.81,3.42,41.77,4.55,6.51.54,13.85-4.07,19.58,2.64"/><path class="cls-1" d="M1974,873.9c-.49,1.52-.44,3.58-1.47,4.56-17.18,16.89-31.14,36.87-53.42,49a352.33,352.33,0,0,0-33.69,21.69,16.61,16.61,0,0,0-5.48,4.9c-5.78,10.33-15.33,13.12-26.1,13.91a16.72,16.72,0,0,0-9.3,4.55c-7.45,6.07-16.65,3.43-25,4.5-22.18,2.84-44.55,3.48-66.78,4.22-16.85.58-34.28,1.66-51-2.16"/><path class="cls-1" d="M1150.55,542.65c-6.22-2.79-10.73,1.52-15.77,3.67a103.64,103.64,0,0,1-29.72,9.16c-9.8,1-18.66,5.14-28.75,4.16a18.88,18.88,0,0,0-14.69,7.15"/><path class="cls-1" d="M1598.68,529.62c3.38.3,6.81.84,10.18.89,6.22,0,8.43-4.9,10.09-9.26s-2.2-6.31-5.48-7.29a295.53,295.53,0,0,0-48.23-11.12c-1.72,0-3.68,1.13-5.54,1.76"/><path class="cls-1" d="M524.28,728.23a127.21,127.21,0,0,1,0,27.86c-2.45,24.48,6,47,13.8,69.53,3.82,11.07,2.8,17.24-5.68,24.09a90.56,90.56,0,0,1-50,18.56,69.18,69.18,0,0,1-10.18,0,52.18,52.18,0,0,0-33.45,8.37"/><path class="cls-1" d="M1473.42,489.77c9,.63,17.93,1.12,26.89,1.91,12.48,1.07,23.65,11.16,37.11,5.53,7.25,6,19.59,2.69,24.49,13.81,1.17,2.84,5.14,4.89,8.12,6.56a34.93,34.93,0,0,1,16.41,27c.54,4.55,3.23,8.32,3.08,13-.93,24.48-3.91,28.2-25.12,31.33a15.84,15.84,0,0,0-10.18,4.9c-6.12,6.51-6.37,10.77,0,17.53a139.8,139.8,0,0,0,35,27.42c13.51,7.3,28.06,10.82,41.82,16.65,21.64,9.2,44.65,9.16,66.93,13.66,2.11.44,3.67,1.22,5.63,0,8.87-6.07,17.39-1.13,26,.88"/><path class="cls-1" d="M1422.4,1785.89c9.8,7.44,4.9,17.43,3.38,25.9a368.1,368.1,0,0,0-4.9,45.54,281.84,281.84,0,0,0-2.64,37.06c1.32,23.56-2.45,47.06.34,70.56a131.84,131.84,0,0,1-.73,13.91c0,17.33.59,34.62.83,52,0,2.21,1.37,6.17-3.67,4.16"/><path class="cls-1" d="M837.9,1184.69c-4.11,4.89-4,11.06-5.53,16.69a74.67,74.67,0,0,1-13,25.07c-6.56,8.67-17,9-26.05,11.85-22.08,7-30.11-1.71-43.48-21.2-8.52-12.48-7.74-37,2.06-49A72.38,72.38,0,0,0,759,1155"/><path class="cls-1" d="M1596.62,380.33c-11.06,6.61-23.65,9.79-35.35,14.69a17.52,17.52,0,0,0-8.18,4.9,21.34,21.34,0,0,1-13.95,9.35c-6.22,1.17-5.49,7.83-7.2,12-2.6,6.37,4.9,23.51,10.92,26.69,2.4,1.32,6.07,3.52,7.69,2.59,8.76-4.89,17.92,1.23,26.58-1.56"/><path class="cls-1" d="M1397.33,999.11c-.68,15.37-7,29-13,42.69a91.35,91.35,0,0,0-7.35,42.7,38.38,38.38,0,0,1-5.63,22.23"/><path class="cls-1" d="M1400.12,997.74c-2.74-3.09-2.3-3.14-2.4-7-.34-9.06,3.48-18.6-3.18-27A62.38,62.38,0,0,0,1359.19,986c-4.9,5.63-12.44,9.4-11,18.66"/><path class="cls-1" d="M1720.21,539c-9.11-6.37-19-2.21-27.71-.39-11.27,2.35-22.72-1.47-33.54,3.08-2.26.93-4.17-1.42-5.44-2.79a11.71,11.71,0,0,0-15.82-1.62,21,21,0,0,1-5.63,1.82c-6.26,1.76-13.27,1.42-18,8a15.45,15.45,0,0,1-10.82,3.67,20.09,20.09,0,0,0-11.11,4"/><path class="cls-1" d="M1548.59,407.21a139.82,139.82,0,0,1,23.6,26.64c4.9,7.2,6.07,15.47,10.23,22.82,4.9,8.71,9.5,14.69,18.95,12.43,11.8-2.89,23.6-1.32,35.36-2.2,17.77-1.32,35.1-5.53,52.83-6.81,10.87-.83,21.74-1.47,32.46-3,3.53-.49,5.44,2.25,8.38,2.05"/><path class="cls-1" d="M1052.22,1804A167.38,167.38,0,0,0,1038,1819a58.75,58.75,0,0,1-33.15,21.59c-8.61,1.86-15.67,8.62-25,8.32"/><path class="cls-1" d="M1905.74,939.76l2.84,12a84.73,84.73,0,0,1-20.47,18.6,6.36,6.36,0,0,1-9,.31l-.31-.31c-2-2-4.31-3.77-6.46-5.63"/><path class="cls-1" d="M1908.53,607.63c-8.37,6.07-18.9,9.79-24,19.58s-14.69,13.37-22.47,19.3c-12.2,9.15-26.89,12-41.53,15.32a214.21,214.21,0,0,0-25.31,6.56,70.13,70.13,0,0,1-24.88,1.33c-10.23-.4-20.42-2-30.65-2.5a30.09,30.09,0,0,0-9.25,2.59"/><path class="cls-1" d="M441.28,671.63c-2.16,15.47-4.11,31-6.56,46.32a546.65,546.65,0,0,0-4.26,54.84,507.16,507.16,0,0,0,2.05,90c1.08,9,8.87,15.52,9.45,25.07a79.86,79.86,0,0,0,4.31,13,9.8,9.8,0,0,0,10.6,8.92,10,10,0,0,0,2.48-.54"/><path class="cls-1" d="M1216.4,705c-10.18-1.22-20.37-2.84-30.6-3.48a12,12,0,0,0-9.25,4.41"/><path class="cls-1" d="M641.21,1855c4,.34,3.82,3.13,3.72,6.07a342.28,342.28,0,0,0,1.66,51c.64,5.39,4.46,10.09,3,15.77"/><path class="cls-1" d="M1623.7,361.77a25.94,25.94,0,0,1-17.58,12.29,11.26,11.26,0,0,1-5.58.54,109.92,109.92,0,0,0-54.79-3.62,129.33,129.33,0,0,0-13.86,2c-12.19,4-24.48,8.43-33.79,19a46.83,46.83,0,0,0,24.49,9.45c5.82,1,10.87,2.06,13.85,7.64"/><path class="cls-1" d="M1588.45,321.86A17.92,17.92,0,0,0,1599.56,333c7.59,3.57,14.69,7.78,14.69,17.58"/><path class="cls-1" d="M1551.33,451.77a24.49,24.49,0,0,0,31.58,12.05"/><path class="cls-1" d="M1561.56,320.93a75.08,75.08,0,0,1,20.42,0,14.65,14.65,0,0,0,11.21-2.49c7-4.51,14.69-7.74,23.12-3.87,13.66,6.17,28.45,9.5,41.81,16.55,2.35,1.22,1.42,2.5,1.77,3.87"/><path class="cls-1" d="M1537.42,444.33a318.16,318.16,0,0,0-35.11,14.2c-11.4,6.22-23.74,12.87-25.16,28.49"/><path class="cls-1" d="M1716.49,545.44c-8.76,5.68-19,7.1-28.79,9.11a25.93,25.93,0,0,0-15.72,6.66"/><path class="cls-1" d="M1560.63,987.06a26.5,26.5,0,0,1,20.42-8c17.73-.29,34.28-6.36,51.9-8.27a111.11,111.11,0,0,0,13-4.07c8.23-2.15,15.42-3.38,23.6,3.18,6.42,5.19,16.21,6.37,24.48,8.72,3.82,1.08,7.79.49,6.47-5.43"/><path class="cls-1" d="M1493.79,466.61c6.52,10.13,18.07,11.89,27.82,16.69,6.66,3.28,14.69,4.9,16.69,13.91"/><path class="cls-1" d="M1510.54,328.87c11.61,4.89,24.19,3.23,36.28,5.38a322.46,322.46,0,0,1,42.46,13,44.86,44.86,0,0,0,18.65,3.47c3.72-.39,8.33-.53,10,2.84,4.51,8.87,12.63,8.87,20.57,10.24,4.5.73,9.55.59,13,4.5"/><path class="cls-1" d="M1743.52,773.23c-9.79,2.3-19.59,4.9-29.67,6.9a76.79,76.79,0,0,0-20.42,4.9"/><path class="cls-1" d="M1961.42,885a15.13,15.13,0,0,0-16.75-2c-8.91,3.72-9,3.48-13.86,1"/><path class="cls-1" d="M1418.68,2036.39c1,12.88,4.36,25.32,6.37,38,.73,4.46,3.33,4.65,6.61,4.6"/><path class="cls-1" d="M1914.12,796.88c2.64-6.86,7.1-3.48,11.11-1.81,5.24,2.2,8.23,0,10.23-4.9"/><text class="cls-2" transform="translate(510.35 2672.62)"><tspan class="cls-3">1</tspan><tspan x="67.39" y="0">6.</tspan><tspan class="cls-4" x="182.01" y="0">1</tspan><tspan x="254.74" y="0">0 Amste</tspan><tspan class="cls-5" x="709.05" y="0">r</tspan><tspan x="748.22" y="0">dam - </tspan><tspan class="cls-6" x="1111.52" y="0">W</tspan><tspan x="1243.57" y="0">eval</tspan></text></svg>