<?xml version="1.0" encoding="utf-8"?>
<!-- Generator: Adobe Illustrator 22.1.0, SVG Export Plug-In . SVG Version: 6.00 Build 0)  -->
<svg version="1.1" id="Layer_1" xmlns="http://www.w3.org/2000/svg" xmlns:xlink="http://www.w3.org/1999/xlink" x="0px" y="0px"
	 viewBox="0 0 600 600" style="enable-background:new 0 0 600 600;" xml:space="preserve">
<style type="text/css">
	.st0{fill:#FFFFFF;}
	.st1{fill:#231F20;}
</style>
<g>
	<rect y="0" class="st0" width="600" height="600"/>
	<g>
		<path class="st1" d="M7.8,87.7C6.5,77.6,3.7,68.1,0,58.9v24.6c2.2,10.5,2.5,21.7,0,33.9V137C7.1,119.9,9.9,103.3,7.8,87.7z"/>
		<path class="st1" d="M20.5,75.1C17.9,55.3,9.8,37.2,0,20.5V39c14.7,27.1,22.4,57.3,0,98.4v6.9c5.3-7.4,9.7-14.5,13.3-21.3
			C20,106.3,22.6,90.3,20.5,75.1z"/>
		<path class="st1" d="M9.7,135.8c6.7-8.9,12.1-17.4,16.3-25.4c6.7-16.7,9.3-32.7,7.2-47.9c-3-23-13.3-43.7-25.1-62.5H0v6.1
			C20.8,38.4,40.1,72.4,13.3,123c-3.6,6.8-8,13.9-13.3,21.3v5.5C2.9,145.2,6.1,140.6,9.7,135.8L9.7,135.8z"/>
		<polygon class="st1" points="11.8,137.4 11.9,137.4 11.9,137.4 		"/>
		<path class="st1" d="M26.1,110.4c-4.2,8-9.6,16.5-16.3,25.4l2.1,1.6l0.1,0.1l0.5,0.4c3-4.7,6.3-9.5,10-14.4l0,0
			c5.9-7.8,10.7-15.3,14.7-22.4c7.6-17.7,10.6-34.8,8.5-51c-2.4-18-9.4-34.6-18-50.1H16.8C35.8,30.5,50.9,63.2,26.1,110.4z"/>
		<path class="st1" d="M37.1,101c-4,7.1-8.8,14.6-14.7,22.4l1.9,1.5l0.7,0.5c3-4.7,6.3-9.5,10-14.4l0,0c5.1-6.7,9.4-13.2,13-19.4
			c8.6-18.8,12.1-36.9,9.8-54C56,24.4,51.7,11.8,46.1,0h-9.2C52.2,27.8,60.7,58.6,37.1,101z"/>
		<path class="st1" d="M48,91.6c-3.6,6.2-7.9,12.6-13,19.4l2,1.5l0.6,0.5c3-4.7,6.3-9.5,10-14.4l0,0c4.2-5.6,7.9-11.1,11.2-16.3
			c9.7-19.9,13.6-39,11.2-57C68.9,16.5,66.6,8.1,63.6,0h-7.8C67,25.3,70,53.9,48,91.6z"/>
		<path class="st1" d="M58.8,82.3c-3.2,5.3-6.9,10.7-11.2,16.3l1.5,1.1l1.2,0.9c3-4.7,6.3-9.5,10-14.4l0,0c3.4-4.5,6.5-8.9,9.2-13.2
			c10.9-21,15.3-41.1,12.8-60.1C81.7,8.5,80.8,4.2,79.7,0h-6.6C80.2,23,79.1,49.2,58.8,82.3z"/>
		<path class="st1" d="M69.5,73c-2.8,4.3-5.8,8.7-9.2,13.2l1.2,0.9l0.6,0.5c3.1-5.3,6.3-10.5,9.6-15.6c6.1-9.5,12.3-19,17.6-28.8
			c5.2-14.8,7.1-29.1,5.2-42.8c0-0.2-0.1-0.3-0.1-0.5h-5.7C92,20.7,87.9,44.3,69.5,73z"/>
		<path class="st1" d="M85.7,62.4c4.7-7.3,8.6-14.5,11.8-21.5C94.1,48.2,90.1,55.4,85.7,62.4z"/>
		<path class="st1" d="M102.4,1.1c0-0.3,0-0.7,0-1.1l0,0C102.4,0.3,102.4,0.7,102.4,1.1z"/>
		<path class="st1" d="M7.8,387.7c-1.3-10-4.1-19.6-7.8-28.8v24.6c2.2,10.5,2.5,21.7,0,33.9V437C7.1,419.9,9.9,403.3,7.8,387.7z"/>
		<path class="st1" d="M20.5,375.1C17.9,355.3,9.8,337.2,0,320.5V339c14.7,27.1,22.4,57.3,0,98.4v6.9c5.3-7.4,9.7-14.5,13.3-21.3
			C20,406.3,22.6,390.3,20.5,375.1z"/>
		<path class="st1" d="M9.7,435.8c6.7-8.9,12.1-17.4,16.3-25.4c6.7-16.7,9.3-32.7,7.2-47.9c-3.3-24.8-15.2-47-28.1-67.1
			c-1.7-2.7-3.5-5.3-5.2-8v18.7C20.7,338.4,40,372.4,13.2,423c-3.6,6.8-8,13.9-13.3,21.3v5.5C2.9,445.2,6.1,440.6,9.7,435.8
			L9.7,435.8z"/>
		<polygon class="st1" points="11.8,437.4 11.9,437.4 11.9,437.4 		"/>
		<path class="st1" d="M12.4,137.8l-0.5-0.4l-0.1-0.1l-2.1-1.6l0,0c-3.6,4.8-6.8,9.4-9.7,14v11c0.2-0.4,0.4-0.8,0.6-1.1
			C3.7,152.7,7.5,145.4,12.4,137.8z"/>
		<path class="st1" d="M26.1,410.4c-4.2,8-9.6,16.5-16.3,25.4l2.1,1.6l0.1,0.1l0.5,0.4c3-4.7,6.3-9.5,10-14.4l0,0
			c5.9-7.8,10.7-15.3,14.7-22.4c7.6-17.7,10.6-34.8,8.5-51c-3.3-24.8-15.3-46.9-28.2-66.9c-6-9.3-12.1-18.4-17.4-27.7v18.2
			c3.2,5.2,6.5,10.3,9.8,15.4C31.5,322.8,53.9,357.5,26.1,410.4z"/>
		<path class="st1" d="M37.1,401c-4,7.1-8.8,14.6-14.7,22.4l1.9,1.5l0.7,0.5c3-4.7,6.3-9.5,10-14.4l0,0c5.1-6.7,9.4-13.2,13-19.4
			c8.6-18.8,12.1-36.9,9.8-54c-3.3-24.8-15.3-46.8-28.2-66.8c-12.2-19-24.9-37.1-29.6-58.1V237c5.9,13.9,14.2,26.7,22.4,39.5
			C44.6,310.9,67.5,346.3,37.1,401z"/>
		<path class="st1" d="M25,125.4l-0.7-0.5l-1.9-1.5l0,0c-3.7,4.9-7,9.7-10,14.4l0,0c-4.8,7.6-8.7,14.9-11.7,21.9
			c-0.2,0.5-0.4,1-0.6,1.5v18.3c2.3-10.7,6.9-22.3,14.5-35C17.3,138.4,20.8,132,25,125.4z"/>
		<path class="st1" d="M70,325.3c-3.3-24.7-15.4-46.6-28.3-66.6C18,221.8-7.7,187.5,28.5,129.2c2.5-5.2,5.6-10.6,9.1-16.2l-0.6-0.5
			l-2-1.5l0,0c-3.7,4.9-7,9.7-10,14.4l0,0c-4.2,6.6-7.7,13-10.5,19.1C-9,195.7,13.3,230.2,35,263.9c22.6,35.1,46,71.3,12.9,127.8
			c-3.6,6.2-7.9,12.6-13,19.4l2,1.5l0.6,0.5c3-4.7,6.3-9.5,10-14.4l0,0c4.2-5.6,7.9-11.1,11.2-16.3C68.5,362.4,72.4,343.3,70,325.3z
			"/>
		<path class="st1" d="M82.3,312.9C79,288.2,66.8,266.4,54,246.4c-24-37.2-50.2-72.5-11.3-132.6c2.2-4.3,4.7-8.7,7.6-13.2l-1.2-0.9
			l-1.5-1.1l0,0c-3.7,4.9-7,9.7-10,14.4l0,0c-3.5,5.6-6.6,11-9.1,16.2c-25.6,52.7-2.9,87.9,19.2,122.1c23.1,35.8,46.9,72.6,11.1,131
			c-3.2,5.3-6.9,10.7-11.2,16.3l1.5,1.1l1.2,0.9c3-4.7,6.3-9.5,10-14.4l0,0c3.4-4.5,6.5-8.9,9.2-13.2
			C80.4,351.9,84.8,331.8,82.3,312.9z"/>
		<path class="st1" d="M71.7,371.9c6.1-9.5,12.4-18.9,17.7-28.7c5.2-14.8,7.1-29.1,5.2-42.8c-3.3-24.6-15.5-46.4-28.4-66.3
			c-23.7-36.7-49.6-72.1-12-131.6c2.4-5.1,5.1-10.1,7.9-15L61.5,87l-1.2-0.9l0,0c-3.7,4.9-7,9.7-10,14.4l0,0
			c-2.9,4.5-5.4,8.9-7.6,13.2c-27.9,54.2-4.8,90.1,17.7,124.9c23.5,36.4,47.8,74,9.2,134.3c-2.8,4.3-5.8,8.7-9.2,13.2l1.2,0.9
			l0.6,0.5C65.1,382.2,68.4,377,71.7,371.9z"/>
		<path class="st1" d="M52.5,190.8c-6.5-14.5-9.9-28.4-9.9-41.9C42.4,164.2,46.5,177.9,52.5,190.8z"/>
		<path class="st1" d="M47.6,151.1c0.1,18.2,6.3,38.6,22.4,62.6c-3.8-6.9-6.9-13.7-9.2-20.5C53.6,180.2,48.4,166.5,47.6,151.1z"/>
		<path class="st1" d="M106.8,288.1c-1.7-12.6-5.7-24.3-11-35.5c-0.9-1.4-1.8-2.8-2.8-4.2c10.2,18.8,14.3,35.5,14.4,50.6
			C107.5,295.3,107.3,291.7,106.8,288.1z"/>
		<path class="st1" d="M85.7,362.4c4.7-7.3,8.6-14.5,11.8-21.5C94.1,348.2,90.1,355.4,85.7,362.4z"/>
		<polygon class="st1" points="87.9,237.5 87.9,237.5 87.1,238.2 87.1,238.2 		"/>
		<path class="st1" d="M102.4,301.1c1.1-21-6.1-45.1-28.5-74.8c-3.5-4.7-6.7-9.3-9.7-13.8c2.8,4.6,5.8,9.2,8.7,13.7
			C87.7,248.9,102.7,272.1,102.4,301.1z"/>
		<path class="st1" d="M0,587.4V600h8.1c-1-1.6-1.9-3.1-2.9-4.6C3.4,592.7,1.7,590.1,0,587.4z"/>
		<path class="st1" d="M0,555.4v18.2c3.2,5.2,6.5,10.3,9.8,15.4c2.3,3.6,4.7,7.3,7,11h10.8c-3.2-5.8-6.7-11.4-10.2-16.9
			C11.3,573.8,5.2,564.7,0,555.4z"/>
		<path class="st1" d="M12.4,437.8l-0.5-0.4l-0.1-0.1l-2.1-1.6l0,0c-3.6,4.8-6.8,9.4-9.7,14v11c0.2-0.4,0.4-0.8,0.6-1.1
			C3.7,452.7,7.5,445.4,12.4,437.8z"/>
		<path class="st1" d="M25,425.4l-0.7-0.5l-1.9-1.5l0,0c-3.7,4.9-7,9.7-10,14.4l0,0c-4.8,7.6-8.7,14.9-11.7,21.9
			c-0.2,0.5-0.4,1-0.6,1.5v18.3c2.3-10.7,6.9-22.3,14.5-35C17.3,438.4,20.8,432,25,425.4z"/>
		<path class="st1" d="M0,512.8V537c5.9,13.9,14.2,26.7,22.4,39.5c5,7.7,10,15.5,14.5,23.6h9.2c-4.8-10.2-10.6-19.9-16.5-29.1
			C17.3,551.9,4.6,533.8,0,512.8z"/>
		<path class="st1" d="M28.5,429.2c2.5-5.2,5.6-10.6,9.1-16.2l-0.6-0.5l-2-1.5l0,0c-3.7,4.9-7,9.7-10,14.4l0,0
			c-4.2,6.6-7.7,13-10.5,19.1C-9,495.7,13.3,530.2,35,563.9c7.5,11.7,15.2,23.5,20.8,36.1h7.8c-5.5-14.7-13.5-28.5-21.8-41.4
			C18,521.8-7.7,487.5,28.5,429.2z"/>
		<path class="st1" d="M42.7,413.8c2.2-4.3,4.7-8.7,7.6-13.2l-1.2-0.9l-1.5-1.1l0,0c-3.7,4.9-7,9.7-10,14.4l0,0
			c-3.5,5.6-6.6,11-9.1,16.2c-25.6,52.7-2.9,87.9,19.2,122.1c10,15.5,20.1,31.2,25.5,48.7h6.6c-5.1-19.5-15.2-37.2-25.8-53.6
			C29.9,509.2,3.8,473.9,42.7,413.8z"/>
		<path class="st1" d="M54.2,402.6c2.4-5.1,5.1-10.1,7.9-15l-0.6-0.5l-1.2-0.9l0,0c-3.7,4.9-7,9.7-10,14.4l0,0
			c-2.9,4.5-5.4,8.9-7.6,13.2c-27.9,54.2-4.8,90.1,17.7,124.9c12.3,19.1,24.8,38.5,28.4,61.3h5.7c-3.4-24.4-15.5-46-28.3-65.8
			C42.5,497.5,16.5,462,54.2,402.6z"/>
		<path class="st1" d="M69.9,513.7c-3.8-6.9-6.9-13.7-9.2-20.5c-7-13-12.3-26.8-13.1-42.2C47.7,469.2,53.9,489.7,69.9,513.7z"/>
		<path class="st1" d="M52.5,490.8c-6.5-14.5-9.9-28.4-9.9-41.9C42.4,464.2,46.5,477.9,52.5,490.8z"/>
		<polygon class="st1" points="87.1,538.2 87.1,538.2 87.9,537.5 87.9,537.5 		"/>
		<path class="st1" d="M73.9,526.2c-3.5-4.7-6.7-9.3-9.7-13.8c2.8,4.6,5.8,9.2,8.7,13.7c14.5,22.5,29.3,45.5,29.5,73.9l0,0
			C103.3,579.3,95.9,555.5,73.9,526.2z"/>
		<path class="st1" d="M106.8,588.1c-1.7-12.6-5.7-24.3-11-35.5c-0.9-1.4-1.8-2.8-2.8-4.2c10.2,18.8,14.3,35.5,14.4,50.6
			C107.5,595.3,107.3,591.7,106.8,588.1z"/>
		<path class="st1" d="M207.6,51.2c0.2,0.3,0.4,0.6,0.6,0.9c-2-3.7-4-7.4-5.7-11.2C204,44.2,205.7,47.7,207.6,51.2z"/>
		<path class="st1" d="M197.6,0L197.6,0c0,0.4,0,0.7,0,1.1C197.6,0.7,197.6,0.3,197.6,0z"/>
		<path class="st1" d="M202.4,48.6L202.4,48.6c3.7,4.9,7,9.7,10,14.4l1.2-0.9l0.3-0.3c-2-3.2-3.9-6.5-5.7-9.8
			c-0.2-0.3-0.4-0.6-0.6-0.9c-12.8-19-19.3-35.9-21.5-51.1h-5.2c1.9,11.5,6,23.3,12.3,35.5C195.9,39.7,199,44.1,202.4,48.6z"/>
		<path class="st1" d="M190,36L190,36c3.7,4.9,7,9.7,10,14.4l0.9-0.7l1.5-1.1c-3.4-4.5-6.4-8.9-9.2-13.1
			C185,22.7,179.6,10.9,176.5,0h-5.4c1.9,6.5,4.5,13.1,7.8,19.8C182.1,25,185.8,30.4,190,36z"/>
		<path class="st1" d="M177.6,23.4L177.6,23.4c3.7,4.9,7,9.7,10,14.4l0.4-0.3l2-1.5c-4.2-5.6-7.9-11-11.1-16.2
			c-4.2-6.9-7.6-13.5-10.3-19.8h-5.7c0.6,1.4,1.2,2.8,1.8,4.2C168.3,10.3,172.6,16.7,177.6,23.4z"/>
		<path class="st1" d="M165.3,10.8c3.7,4.9,7,9.7,10,14.4l0.4-0.3l1.9-1.5c-5-6.7-9.3-13.1-12.9-19.2c-0.8-1.4-1.6-2.8-2.4-4.2h-4.7
			C160,3.5,162.5,7.1,165.3,10.8L165.3,10.8z"/>
		<path class="st1" d="M163.2,12.4l2.1-1.6c-2.8-3.7-5.3-7.3-7.6-10.8h-3.4c3.2,4.3,6.1,8.5,8.7,12.6L163.2,12.4z"/>
		<path class="st1" d="M150.5,0h-0.4c0,0.1,0.1,0.1,0.1,0.2L150.5,0z"/>
		<path class="st1" d="M197.6,301.1c-0.2-19.4,6.5-36.2,15.3-52c1.8-4.3,3.9-8.7,6.3-13.2C202.2,261.2,196.6,282.4,197.6,301.1z"/>
		<path class="st1" d="M257.5,148.9c-0.1,13.5-3.4,27.4-9.9,41.9C253.5,177.9,257.6,164.2,257.5,148.9z"/>
		<path class="st1" d="M208.2,352c-2-3.7-4-7.4-5.7-11.2c1.5,3.4,3.3,6.9,5.2,10.3C207.8,351.5,208,351.7,208.2,352z"/>
		<path class="st1" d="M193.2,288.1c-0.5,3.6-0.7,7.2-0.7,10.9c0.1-21.4,8.3-45.8,30.4-75.1c21.4-28.4,29.4-52,29.5-72.7
			c-1.4,27-16.5,48.8-30.8,70.9C208.8,241.9,196.5,263.5,193.2,288.1z"/>
		<path class="st1" d="M207.6,351.2c-41.6-62.1-16.9-100.4,7.1-137.5c21-32.6,42.6-66,22.4-114.7c-4.4-7.8-9.3-15.4-14.1-22.9
			c-3-4.7-6.1-9.5-9.1-14.3l-0.3,0.3l-1.2,0.9c2.9,4.6,5.4,9,7.7,13.3c38.9,60.2,12.7,95.9-11.1,132.9c-12.9,20-25.1,41.7-28.4,66.3
			c-2.5,18.9,1.9,39,12.7,60c2.7,4.3,5.8,8.6,9.2,13.1l0,0c3.7,4.9,7,9.7,10,14.4l1.2-0.9l0.3-0.3c-2-3.2-3.9-6.5-5.7-9.8
			C208,351.7,207.8,351.5,207.6,351.2z"/>
		<path class="st1" d="M202.3,201.3c22.5-34.8,45.6-70.7,17.7-125c-2.2-4.3-4.8-8.7-7.7-13.3l0,0c-3-4.7-6.3-9.5-10-14.4l0,0
			l-1.5,1.1l-0.9,0.7c3.6,5.6,6.6,11,9.1,16.3c36.2,58.4,10.5,93.1-13.1,129.7c-12.9,20-25.1,41.8-28.3,66.5
			c-2.4,18,1.5,37,11.2,56.9c3.2,5.2,6.9,10.6,11.1,16.2l0,0c3.7,4.9,7,9.7,10,14.4l0.9-0.7l1.5-1.1c-3.4-4.5-6.4-8.9-9.2-13.1
			C154.6,275.2,178.8,237.7,202.3,201.3z"/>
		<path class="st1" d="M189.9,188.9c22.1-34.2,44.8-69.5,19.2-122.2c-2.6-5.2-5.6-10.7-9.1-16.3l0,0c-3-4.7-6.3-9.5-10-14.4l0,0
			l-2,1.5l-0.4,0.3c4.2,6.6,7.7,13,10.5,19.2c33.7,56.6,8.5,90.4-14.9,126.7c-12.9,20-25,41.9-28.3,66.6
			c-2.3,17.1,1.1,35.1,9.8,53.9c3.6,6.2,7.9,12.6,12.9,19.2l0,0c3.7,4.9,7,9.7,10,14.4l0.4-0.3l2-1.5c-4.2-5.6-7.9-11-11.1-16.2
			C143.1,261.4,166.9,224.6,189.9,188.9z"/>
		<path class="st1" d="M177.6,176.4c21.7-33.7,44.1-68.3,20.6-119.5c-2.8-6.1-6.3-12.5-10.5-19.2l0,0c-3-4.7-6.3-9.5-10-14.4l0,0
			l-1.9,1.5l-0.4,0.3c4.9,7.7,8.8,15,11.8,22c31.3,54.9,6.6,87.8-16.6,123.7c-12.9,20-24.9,42-28.2,66.8
			c-2.2,16.2,0.8,33.2,8.4,50.9c3.9,7.1,8.8,14.5,14.6,22.2l0,0c3.7,4.9,7,9.7,10,14.4l0.4-0.3l1.9-1.5c-5-6.7-9.3-13.1-12.9-19.2
			C131.6,247.7,155,211.5,177.6,176.4z"/>
		<path class="st1" d="M165.2,164c21.4-33.1,43.3-67.1,21.8-116.9c-3-7-6.9-14.3-11.8-22l0,0c-3-4.7-6.3-9.5-10-14.4l0,0l-2.1,1.6
			l-0.3,0.2c5.5,8.7,9.8,16.9,12.9,24.7c29.1,53.2,4.8,85.3-18.2,120.8c-12.9,20-24.9,42.1-28.2,66.9c-2,15.2,0.5,31.3,7.2,47.9
			c4.2,8,9.6,16.4,16.2,25.2l0,0c3.7,4.9,7,9.7,10,14.4l0.3-0.2l2.1-1.6c-5.8-7.8-10.7-15.2-14.6-22.2
			C120.2,233.9,143,198.4,165.2,164z"/>
		<polygon class="st1" points="138.2,287.4 138.1,287.4 138.1,287.4 		"/>
		<path class="st1" d="M163.1,24.8c29.1,53.1,4.8,84.8-18.3,120.6c-12.9,20-24.8,42.3-28.1,67.1c-2,15.2,0.5,31.3,7.2,47.9
			c4.2,8,9.6,16.5,16.3,25.4l0,0c3.7,4.9,7,9.7,10,14.4l0.2-0.2l2.4-1.8c-6.7-8.9-12-17.2-16.2-25.2c-28-52.9-5.6-87.6,16.2-121.3
			c21-32.5,42.6-66,23-114.3c-3.2-7.8-7.4-16-12.9-24.7l0,0c-2.6-4.1-5.5-8.3-8.7-12.6h-3.7l-0.2,0.2C155.7,8.8,160,17,163.1,24.8z"
			/>
		<path class="st1" d="M132.6,133.1c-12.9,20-24.9,42.1-28.2,66.9c-2.2,16.2,0.8,33.2,8.5,51c4,7.1,8.8,14.6,14.7,22.4l0,0
			c3.7,4.9,7,9.7,10,14.4l0.5-0.4l0.1-0.1l2.1-1.6c-6.7-8.9-12.1-17.4-16.3-25.4c-27.9-52.9-5.5-87.6,16.3-121.4
			c21-32.5,42.5-65.9,22.9-114.3c-3.2-7.8-7.4-16-12.9-24.6l0,0c0-0.1-0.1-0.1-0.1-0.2h-5.4c1.7,3.3,3.3,6.5,4.6,9.7
			C180.7,64.4,156,97,132.6,133.1z"/>
		<path class="st1" d="M120.4,120.9c-12.9,20-24.9,42-28.2,66.8c-2.3,17.1,1.2,35.2,9.8,54c3.6,6.2,7.9,12.6,13,19.4l0,0
			c3.7,4.9,7,9.7,10,14.4l0.7-0.5l1.9-1.5c-5.9-7.8-10.7-15.3-14.7-22.4c-30.4-54.7-7.6-90.2,14.7-124.6
			c21.3-33.1,43.3-67.1,21.8-116.8c-1.4-3.2-2.9-6.4-4.6-9.7h-6.1C167.5,53.2,143.2,85.6,120.4,120.9z"/>
		<path class="st1" d="M108.2,108.6c-12.9,20-25,41.9-28.3,66.6c-2.4,18,1.5,37.1,11.2,57c3.2,5.3,6.9,10.7,11.2,16.3l0,0
			c3.7,4.9,7,9.7,10,14.4l0.6-0.5l2-1.5c-5.1-6.7-9.4-13.2-13-19.4c-33-56.5-9.7-92.7,12.9-127.8C135.9,81.4,157.3,48.2,137.9,0
			h-5.6C151.3,46.1,129.1,76.4,108.2,108.6z"/>
		<path class="st1" d="M96.1,96.4c-12.9,20-25.1,41.8-28.3,66.5c-2.5,19,1.9,39.1,12.8,60.1c2.8,4.3,5.8,8.7,9.2,13.2l0,0
			c3.7,4.9,7,9.7,10,14.4l1.2-0.9l1.5-1.1c-4.2-5.6-7.9-11.1-11.2-16.3c-35.8-58.4-12-95.2,11.1-131c19-29.5,38.5-59.7,27.1-101.3
			h-5.2C134.9,39.5,114.8,67.3,96.1,96.4z"/>
		<path class="st1" d="M83.9,84.2c-12.9,20-25.1,41.7-28.4,66.3c-1.8,13.7,0,28,5.2,42.8c2.4,6.7,5.5,13.5,9.2,20.5
			c2.2,3.3,4.6,6.7,7.2,10.1c3.7,4.9,7,9.7,10,14.4l0.8-0.6l0.6-0.5l1.2-0.9c-3.4-4.5-6.5-8.9-9.2-13.2
			c-38.6-60.3-14.4-97.9,9.2-134.3c17.1-26.4,34.5-53.5,29.7-88.7h-5C118.2,33.3,100.5,58.4,83.9,84.2z"/>
		<path class="st1" d="M89.3,43.2C84,53,77.8,62.5,71.7,71.9c-3.3,5.1-6.5,10.3-9.6,15.6l0,0c-2.8,4.9-5.5,9.9-7.9,15
			c-5.3,11.2-9.3,22.9-11,35.5c-0.5,3.6-0.7,7.2-0.7,10.8c0.1,13.5,3.4,27.4,9.9,41.9c3.2,7.1,7.1,14.2,11.8,21.5
			c2.9,4.6,6.1,9.2,9.7,13.8l3.2-2.4c-2.6-3.4-5-6.8-7.2-10.1c-16-24-22.2-44.5-22.4-62.6C47.3,122,62.3,98.7,77,75.9
			c2.9-4.5,5.9-9.1,8.7-13.7c4.3-7,8.4-14.1,11.8-21.5c5.8-12.6,9.8-26,9.9-40.8h-5c0,0.4,0,0.7,0,1.1
			C101.6,16.5,96.4,30.2,89.3,43.2z"/>
		<path class="st1" d="M219.3,535.8c-16.7,24.9-22.4,45.8-21.7,64.2l0,0c0.1-18.9,6.7-35.4,15.4-51
			C214.7,544.7,216.8,540.3,219.3,535.8z"/>
		<path class="st1" d="M221.7,521.9c-12.9,19.9-25.2,41.6-28.5,66.2c-0.5,3.6-0.7,7.2-0.7,10.9c0.1-21.4,8.3-45.8,30.4-75.1
			c21.4-28.4,29.4-52,29.5-72.7C251,478,235.9,499.9,221.7,521.9z"/>
		<path class="st1" d="M257.5,448.9c-0.1,13.5-3.4,27.4-9.9,41.9C253.5,477.9,257.6,464.2,257.5,448.9z"/>
		<path class="st1" d="M214.7,513.7c21-32.6,42.6-66,22.4-114.7c-4.4-7.8-9.3-15.4-14.1-22.9c-3-4.7-6.1-9.5-9.1-14.3l-0.3,0.3
			l-1.2,0.9c2.9,4.6,5.4,9,7.7,13.3c38.9,60.2,12.7,95.9-11.1,132.9c-12.9,20-25.1,41.7-28.4,66.3c-1.1,8-0.9,16.2,0.5,24.5h5.2
			C181.1,565.6,198.1,539.4,214.7,513.7z"/>
		<path class="st1" d="M202.3,501.3c22.5-34.8,45.6-70.7,17.7-125c-2.2-4.3-4.8-8.7-7.7-13.3l0,0c-3-4.7-6.3-9.5-10-14.4l0,0
			l-1.5,1.1l-0.9,0.7c3.6,5.6,6.6,11,9.1,16.3c36.2,58.4,10.5,93.1-13.1,129.7c-12.9,20-25.1,41.8-28.3,66.5
			c-1.6,11.9-0.4,24.3,3.4,37.1h5.4C164.8,559.4,183.8,530,202.3,501.3z"/>
		<path class="st1" d="M189.9,488.9c22.1-34.2,44.8-69.5,19.2-122.2c-2.6-5.2-5.6-10.7-9.1-16.3l0,0c-3-4.7-6.3-9.5-10-14.4l0,0
			l-2,1.5l-0.4,0.3c4.2,6.6,7.7,13,10.5,19.2c33.7,56.6,8.5,90.4-14.9,126.7c-12.9,20-25,41.9-28.3,66.6
			c-2.1,15.8,0.7,32.4,7.9,49.7h5.7C148.7,552.8,169.6,520.4,189.9,488.9z"/>
		<path class="st1" d="M177.6,476.4c21.7-33.7,44.1-68.3,20.6-119.5c-2.8-6.1-6.3-12.5-10.5-19.2l0,0c-3-4.7-6.3-9.5-10-14.4l0,0
			l-1.9,1.5l-0.4,0.3c4.9,7.7,8.8,15,11.8,22c31.3,54.9,6.6,87.8-16.6,123.7c-12.9,20-24.9,42-28.2,66.8
			c-2.2,16.2,0.8,33.2,8.4,50.9c2.1,3.7,4.4,7.5,7,11.4h4.7C132.8,545.9,155.5,510.6,177.6,476.4z"/>
		<path class="st1" d="M165.2,464c21.4-33.1,43.3-67.1,21.8-116.9c-3-7-6.9-14.3-11.8-22l0,0c-3-4.7-6.3-9.5-10-14.4l0,0l-2.1,1.6
			l-0.3,0.2c5.5,8.7,9.8,16.9,12.9,24.7c29.1,53.2,4.8,85.3-18.2,120.8c-12.9,20-24.9,42.1-28.2,66.9c-2,15.2,0.5,31.3,7.2,47.9
			c4.2,8,9.6,16.4,16.2,25.2l0,0c0.5,0.6,0.9,1.2,1.3,1.8h3.4c-2.6-3.9-4.9-7.7-7-11.4C120.2,533.9,143,498.4,165.2,464z"/>
		<path class="st1" d="M138.1,587.4L138.1,587.4L138.1,587.4z"/>
		<path class="st1" d="M152.9,598.2c-6.7-8.9-12-17.2-16.2-25.2c-28-52.9-5.6-87.6,16.2-121.3c21-32.5,42.6-66,23-114.3
			c-3.2-7.8-7.4-16-12.9-24.7l0,0c-3-4.7-6.3-9.5-10-14.4l0,0l-2.4,1.8l-0.2,0.2c5.5,8.6,9.7,16.8,12.9,24.6
			c29.1,53.1,4.8,84.8-18.3,120.6c-12.9,20-24.8,42.3-28.1,67.1c-2,15.2,0.5,31.3,7.2,47.9c4.2,8,9.6,16.5,16.3,25.4l0,0
			c3.7,4.9,6.9,9.6,9.9,14.2h0.4L152.9,598.2z"/>
		<path class="st1" d="M140.3,285.8L140.3,285.8l-2.1,1.6l-0.1,0.1l-0.5,0.4c4.8,7.6,8.7,14.9,11.7,21.9
			c31.4,54.7,6.6,87.3-16.7,123.5c-12.9,20-24.9,42.1-28.2,66.9c-2.2,16.2,0.8,33.2,8.5,51c4,7.1,8.8,14.6,14.7,22.4l0,0
			c3.7,4.9,7,9.7,10,14.4l0.5-0.4l0.1-0.1l2.1-1.6c-6.7-8.9-12.1-17.4-16.3-25.4c-27.9-52.9-5.5-87.6,16.3-121.4
			c21-32.5,42.5-65.9,22.9-114.3c-3.2-7.8-7.4-16-12.9-24.6l0,0C147.3,295.5,144,290.7,140.3,285.8z"/>
		<path class="st1" d="M127.6,426.4c21.3-33.1,43.3-67.1,21.8-116.8c-3-7-6.9-14.2-11.7-21.9l0,0c-3-4.7-6.3-9.5-10-14.4l0,0
			l-1.9,1.5l-0.7,0.5c4.2,6.6,7.7,13,10.5,19.1c33.7,56.5,8.5,89.9-15,126.4c-12.9,20-24.9,42-28.2,66.8c-2.3,17.1,1.2,35.2,9.8,54
			c3.6,6.2,7.9,12.6,13,19.4l0,0c3.7,4.9,7,9.7,10,14.4l0.7-0.5l1.9-1.5c-5.9-7.8-10.7-15.3-14.7-22.4
			C82.5,496.3,105.4,460.9,127.6,426.4z"/>
		<path class="st1" d="M114.9,413.9c21.7-33.6,44-68.2,20.5-119.4c-2.8-6.1-6.3-12.5-10.5-19.1l0,0c-3-4.7-6.3-9.5-10-14.4l0,0
			l-2,1.5l-0.6,0.5c3.5,5.6,6.6,11,9.1,16.2c36.2,58.3,10.6,92.6-13.2,129.5c-12.9,20-25,41.9-28.3,66.6c-2.4,18,1.5,37.1,11.2,57
			c3.2,5.3,6.9,10.7,11.2,16.3l0,0c3.7,4.9,7,9.7,10,14.4l0.6-0.5l2-1.5c-5.1-6.7-9.4-13.2-13-19.4C69,485.1,92.3,448.9,114.9,413.9
			z"/>
		<path class="st1" d="M102.3,401.3c22.1-34.2,44.8-69.4,19.2-122.1c-2.5-5.2-5.6-10.6-9.1-16.2l0,0c-3-4.7-6.3-9.5-10-14.4l0,0
			l-1.5,1.1l-1.2,0.9c2.9,4.5,5.4,8.9,7.6,13.2c38.9,60.1,12.7,95.4-11.3,132.6c-12.9,20-25.1,41.8-28.3,66.5
			c-2.5,19,1.9,39.1,12.8,60.1c2.8,4.3,5.8,8.7,9.2,13.2l0,0c3.7,4.9,7,9.7,10,14.4l1.2-0.9l1.5-1.1c-4.2-5.6-7.9-11.1-11.2-16.3
			C55.4,473.9,79.2,437,102.3,401.3z"/>
		<path class="st1" d="M89.7,388.7c22.5-34.8,45.6-70.6,17.7-124.9c-2.2-4.3-4.7-8.7-7.6-13.2l0,0c-3-4.7-6.3-9.5-10-14.4l0,0
			l-1.2,0.9l-0.6,0.5l-0.8,0.6c2.2,3.5,4.2,6.8,6,10.2c1,1.4,1.9,2.8,2.8,4.2c37.7,59.4,11.7,94.9-12,131.6
			c-12.9,20-25.1,41.7-28.4,66.3c-1.8,13.7,0,28,5.2,42.8c2.4,6.7,5.5,13.5,9.2,20.5c2.2,3.3,4.6,6.7,7.2,10.1
			c3.7,4.9,7,9.7,10,14.4l0.8-0.6l0.6-0.5l1.2-0.9c-3.4-4.5-6.5-8.9-9.2-13.2C41.9,462.7,66.2,425.1,89.7,388.7z"/>
		<path class="st1" d="M47.6,451.1c-0.2-28.9,14.8-52.2,29.5-75c2.9-4.5,5.9-9.1,8.7-13.7c4.3-7,8.4-14.1,11.8-21.5
			c6-12.9,10-26.6,9.9-41.9c-0.1-15.1-4.2-31.7-14.4-50.6c-1.8-3.3-3.8-6.7-6-10.2l0,0c-3-4.7-6.3-9.5-10-14.4l-3.2,2.4
			c22.4,29.7,29.6,53.9,28.5,74.8c-0.8,15.4-6.1,29.1-13.1,42.2c-5.3,9.8-11.5,19.2-17.7,28.7c-3.3,5.1-6.5,10.3-9.6,15.6l0,0
			c-2.8,4.9-5.5,9.9-7.9,15c-5.3,11.2-9.3,22.9-11,35.5c-0.5,3.6-0.7,7.2-0.7,10.8c0.1,13.5,3.4,27.4,9.9,41.9
			c3.2,7.1,7.1,14.2,11.8,21.5c2.9,4.6,6.1,9.2,9.7,13.8l3.2-2.4c-2.6-3.4-5-6.8-7.2-10.1C53.9,489.7,47.7,469.2,47.6,451.1z"/>
		<path class="st1" d="M152.9,598.2l-2.4,1.8h3.7C153.8,599.4,153.4,598.8,152.9,598.2L152.9,598.2z"/>
		<path class="st1" d="M140.3,585.8l-2.1,1.6l-0.1,0.1l-0.5,0.4c2.6,4.2,5,8.2,7.1,12.2h5.4C147.2,595.4,143.9,590.7,140.3,585.8
			L140.3,585.8z"/>
		<path class="st1" d="M137.6,587.8c-3-4.7-6.3-9.5-10-14.4l0,0l-1.9,1.5l-0.7,0.5c4.2,6.6,7.7,13,10.5,19.1
			c1.1,1.9,2.2,3.7,3.2,5.5h6.1C142.6,596,140.3,592,137.6,587.8L137.6,587.8z"/>
		<path class="st1" d="M125,575.4L125,575.4c-3-4.7-6.3-9.5-10-14.4l0,0l-2,1.5l-0.6,0.5c3.5,5.6,6.6,11,9.1,16.2
			c4.5,7.3,8.1,14.2,10.8,20.8h5.6c-0.7-1.8-1.5-3.7-2.4-5.5C132.7,588.4,129.2,582,125,575.4z"/>
		<path class="st1" d="M112.4,563L112.4,563c-3-4.7-6.3-9.5-10-14.4l0,0l-1.5,1.1l-1.2,0.9c2.9,4.5,5.4,8.9,7.6,13.2
			c8.5,13.2,13.9,25.1,16.9,36.2h5.2c-1.8-6.6-4.4-13.6-8-20.8C118.9,574,115.9,568.6,112.4,563z"/>
		<path class="st1" d="M99.7,550.6L99.7,550.6c-3-4.7-6.3-9.5-10-14.4l0,0l-1.2,0.9l-0.6,0.5l-0.8,0.6c2.2,3.5,4.2,6.8,6,10.2
			c1,1.4,1.9,2.8,2.8,4.2c11.2,17.7,16.8,33.3,18.5,47.4h5c-1.5-11.2-5.3-23.1-12-36.2C105.1,559.5,102.6,555.1,99.7,550.6z"/>
		<path class="st1" d="M107.5,598.9c-0.1-15.1-4.2-31.7-14.4-50.6c-1.8-3.3-3.8-6.7-6-10.2l0,0c-3-4.7-6.3-9.5-10-14.4l-3.2,2.4
			c22,29.3,29.4,53.1,28.6,73.8h5C107.5,599.6,107.5,599.3,107.5,598.9z"/>
		<path class="st1" d="M208.2,52c1.8,3.3,3.8,6.6,5.7,9.8c2.9,4.8,6,9.5,9.1,14.3c4.9,7.5,9.8,15.1,14.1,22.9
			c8.8,15.8,15.5,32.7,15.3,52c-0.2,20.7-8.1,44.3-29.5,72.7l2.4,1.8c3-4.7,6.3-9.5,10-14.4l0,0c2.6-3.4,4.9-6.8,7.1-10
			c1.9-3.5,3.6-6.9,5.2-10.3c6.5-14.4,9.9-28.4,9.9-41.9c0-3.7-0.2-7.3-0.7-10.9c-3.3-24.6-15.6-46.2-28.5-66.2
			C214.1,49.9,199,28,197.6,1.1c0-0.3,0-0.7,0-1.1h-5c0.1,14.8,4.1,28.2,9.9,40.8C204.2,44.6,206.1,48.3,208.2,52z"/>
		<path class="st1" d="M242.4,201.2c-2.2,3.3-4.6,6.6-7.1,10l1.2,0.9l1.2,0.9c3-4.7,6.3-9.5,10-14.4l0,0c3.4-4.5,6.4-8.9,9.2-13.1
			c10.8-21,15.3-41,12.7-60c-3.3-24.6-15.5-46.4-28.4-66.3C229,40.3,216.2,21.7,211.8,0h-5.9c3.7,23.7,16.7,43.9,29.5,63.7
			C259.3,100.8,284,139,242.4,201.2z"/>
		<path class="st1" d="M256.8,185.5c-2.7,4.3-5.8,8.6-9.2,13.1l1.5,1.1l0.9,0.7c3-4.7,6.3-9.5,10-14.4l0,0c4.2-5.6,7.9-11,11.1-16.2
			c9.7-19.9,13.6-38.9,11.2-56.9C279,88.2,266.8,66.4,254,46.4c-9.8-15.2-19.9-30-25.9-46.4h-7c5.5,18.5,16.2,35,26.7,51.3
			C271.2,87.7,295.4,125.2,256.8,185.5z"/>
		<path class="st1" d="M260.1,38.9c23.1,35.7,46.8,72.6,11,130.9c-3.2,5.2-6.9,10.6-11.1,16.2l2,1.5l0.4,0.3c3-4.7,6.3-9.5,10-14.4
			l0,0c5-6.7,9.3-13.1,12.9-19.2c8.6-18.8,12-36.8,9.8-53.9c-3.3-24.7-15.4-46.6-28.3-66.6c-7.2-11.2-14.6-22.2-20.4-33.6H238
			C243.8,13.6,252,26.3,260.1,38.9z"/>
		<path class="st1" d="M285.3,154.2c-3.6,6.2-7.9,12.6-12.9,19.2l1.9,1.5l0.4,0.3c3-4.7,6.3-9.5,10-14.4l0,0
			c5.8-7.8,10.7-15.2,14.6-22.2c7.6-17.7,10.6-34.7,8.4-50.9c-3.3-24.8-15.3-46.8-28.2-66.8C275,13.9,270.4,7,266.2,0h-9.9
			c4.9,9.1,10.5,17.8,16.1,26.4C295,61.5,318.4,97.7,285.3,154.2z"/>
		<path class="st1" d="M299.3,138.6c-3.9,7.1-8.8,14.5-14.6,22.2l2.1,1.6l0.3,0.2c3-4.7,6.3-9.5,10-14.4l0,0
			c6.7-8.9,12-17.2,16.2-25.2c6.7-16.6,9.2-32.7,7.2-47.9c-3.3-24.8-15.3-46.9-28.2-66.9c-1.8-2.7-3.5-5.4-5.3-8.1h-11.2
			c2.9,4.7,5.9,9.4,8.9,14C307,48.4,329.8,83.9,299.3,138.6z"/>
		<path class="st1" d="M311.9,137.4h-0.1H311.9z"/>
		<path class="st1" d="M313.3,123c-4.2,8-9.6,16.4-16.2,25.2l2.4,1.8l0.2,0.2c3-4.7,6.3-9.5,10-14.4l0,0
			c6.7-8.9,12.1-17.4,16.3-25.4c6.7-16.7,9.3-32.7,7.2-47.9C330.1,39.6,319.8,18.9,308,0h-12c0.3,0.5,0.7,1.1,1,1.6
			C318.9,35.3,341.3,70.1,313.3,123z"/>
		<path class="st1" d="M326.1,110.4c-4.2,8-9.6,16.5-16.3,25.4l2.1,1.6l0.1,0.1l0.5,0.4c3-4.7,6.3-9.5,10-14.4l0,0
			c5.9-7.8,10.7-15.3,14.7-22.4c7.6-17.7,10.6-34.8,8.5-51c-2.4-18-9.4-34.6-18-50.1h-10.8C335.8,30.5,350.9,63.2,326.1,110.4z"/>
		<path class="st1" d="M337.1,101c-4,7.1-8.8,14.6-14.7,22.4l1.9,1.5l0.7,0.5c3-4.7,6.3-9.5,10-14.4l0,0c5.1-6.7,9.4-13.2,13-19.4
			c8.6-18.8,12.1-36.9,9.8-54C356,24.4,351.7,11.8,346.1,0h-9.2C352.2,27.8,360.7,58.6,337.1,101z"/>
		<path class="st1" d="M348,91.6c-3.6,6.2-7.9,12.6-13,19.4l2,1.5l0.6,0.5c3-4.7,6.3-9.5,10-14.4l0,0c4.2-5.6,7.9-11.1,11.2-16.3
			c9.7-19.9,13.6-39,11.2-57c-1.2-8.8-3.5-17.2-6.5-25.3h-7.8C367,25.3,370,53.9,348,91.6z"/>
		<path class="st1" d="M358.8,82.3c-3.2,5.3-6.9,10.7-11.2,16.3l1.5,1.1l1.2,0.9c3-4.7,6.3-9.5,10-14.4l0,0
			c3.4-4.5,6.5-8.9,9.2-13.2c10.9-21,15.3-41.1,12.8-60.1c-0.6-4.4-1.5-8.7-2.6-12.9h-6.6C380.2,23,379.1,49.2,358.8,82.3z"/>
		<path class="st1" d="M369.5,73c-2.8,4.3-5.8,8.7-9.2,13.2l1.2,0.9l0.6,0.5c3.1-5.3,6.3-10.5,9.6-15.6c6.1-9.5,12.4-18.9,17.7-28.7
			c5.2-14.8,7.1-29.1,5.2-42.8c0-0.2-0.1-0.3-0.1-0.5h-5.7C392,20.7,387.9,44.3,369.5,73z"/>
		<path class="st1" d="M402.4,1.1c0-0.3,0-0.7,0-1.1l0,0C402.4,0.3,402.4,0.7,402.4,1.1z"/>
		<path class="st1" d="M385.7,62.4c4.7-7.3,8.6-14.5,11.8-21.5C394.1,48.2,390,55.4,385.7,62.4z"/>
		<path class="st1" d="M242.4,501.2c1.9-3.5,3.6-6.9,5.2-10.3c6.5-14.4,9.9-28.4,9.9-41.9c0-3.7-0.2-7.3-0.7-10.9
			c-3.3-24.6-15.6-46.2-28.5-66.2c-14.2-22-29.4-43.9-30.8-70.9c-1-18.7,4.6-39.8,21.7-65.3c1.8-3.3,3.8-6.7,6-10.2l-2.4-1.8
			c-22.1,29.4-30.3,53.8-30.4,75.1c-0.1,15.2,4,29,9.9,41.9c1.8,3.8,3.7,7.5,5.7,11.2c1.8,3.3,3.8,6.6,5.7,9.8
			c2.9,4.8,6,9.5,9.1,14.3c4.9,7.5,9.8,15.1,14.1,22.9c8.8,15.8,15.5,32.7,15.3,52c-0.2,20.7-8.1,44.3-29.5,72.7l2.4,1.8
			c3-4.7,6.3-9.5,10-14.4l0,0C237.8,507.8,240.2,504.4,242.4,501.2z"/>
		<path class="st1" d="M269.5,425.5c-3.3-24.6-15.5-46.4-28.4-66.3c-23.9-37-50-72.7-11.1-132.9c2.2-4.3,4.8-8.7,7.7-13.3l-1.2-0.9
			l-1.2-0.9l0,0c-3.7,4.9-7,9.7-10,14.4c-2.2,3.5-4.2,6.9-6,10.2c-2.5,4.5-4.6,8.9-6.3,13.2c-20.2,48.6,1.4,82.1,22.4,114.7
			c23.9,37.1,48.6,75.4,7.1,137.5c-2.2,3.3-4.6,6.6-7.1,10l1.2,0.9l1.2,0.9c3-4.7,6.3-9.5,10-14.4l0,0c3.4-4.5,6.4-8.9,9.2-13.1
			C267.6,464.5,272.1,444.4,269.5,425.5z"/>
		<path class="st1" d="M282.3,412.9c-3.3-24.7-15.5-46.5-28.3-66.5c-23.6-36.6-49.3-71.4-13.1-129.7c2.6-5.2,5.6-10.7,9.1-16.3
			l-0.9-0.7l-1.5-1.1l0,0c-3.7,4.9-7,9.7-10,14.4l0,0c-2.9,4.6-5.4,9-7.7,13.3c-27.9,54.3-4.8,90.1,17.7,125
			c23.5,36.4,47.7,74,9.1,134.2c-2.7,4.3-5.8,8.6-9.2,13.1l1.5,1.1l0.9,0.7c3-4.7,6.3-9.5,10-14.4l0,0c4.2-5.6,7.9-11,11.1-16.2
			C280.8,449.9,284.7,430.9,282.3,412.9z"/>
		<path class="st1" d="M250,200.4L250,200.4c-3.6,5.6-6.6,11-9.1,16.3c-25.6,52.7-2.9,87.9,19.2,122.2c23.1,35.7,46.8,72.6,11,130.9
			c-3.2,5.2-6.9,10.6-11.1,16.2l2,1.5l0.4,0.3c3-4.7,6.3-9.5,10-14.4l0,0c5-6.7,9.3-13.1,12.9-19.2c8.6-18.8,12-36.8,9.8-53.9
			c-3.3-24.7-15.4-46.6-28.3-66.6c-23.4-36.3-48.6-70.1-14.9-126.7c2.8-6.1,6.3-12.5,10.5-19.2l-0.4-0.3l-2-1.5l0,0
			C256.3,190.9,253,195.7,250,200.4z"/>
		<path class="st1" d="M251.8,207c-23.5,51.2-1.2,85.8,20.6,119.5c22.6,35.1,45.9,71.2,12.9,127.7c-3.6,6.2-7.9,12.6-12.9,19.2
			l1.9,1.5l0.4,0.3c3-4.7,6.3-9.5,10-14.4l0,0c5.8-7.8,10.7-15.2,14.6-22.2c7.6-17.7,10.6-34.7,8.4-50.9
			c-3.3-24.8-15.3-46.8-28.2-66.8C256.4,285,231.6,252,263,197.2c3-7,6.9-14.3,11.8-22l-0.4-0.3l-1.9-1.5l0,0
			c-3.7,4.9-7,9.7-10,14.4l0,0C258.2,194.4,254.7,200.8,251.8,207z"/>
		<path class="st1" d="M263,197.2c-21.5,49.8,0.5,83.8,21.8,116.9c22.2,34.4,45.1,69.8,14.6,124.5c-3.9,7.1-8.8,14.5-14.6,22.2
			l2.1,1.6l0.3,0.2c3-4.7,6.3-9.5,10-14.4l0,0c6.7-8.9,12-17.2,16.2-25.2c6.7-16.6,9.2-32.7,7.2-47.9c-3.3-24.8-15.3-46.9-28.2-66.9
			c-23-35.6-47.3-67.7-18.2-120.8c3.2-7.8,7.4-16,12.9-24.7l-0.3-0.2l-2.1-1.6l0,0c-3.7,4.9-7,9.7-10,14.4l0,0
			C269.9,182.9,266,190.2,263,197.2z"/>
		<polygon class="st1" points="311.8,437.4 311.9,437.4 311.9,437.4 		"/>
		<path class="st1" d="M274.2,187.3c-19.6,48.4,2,81.8,23,114.3c21.8,33.7,44.2,68.4,16.2,121.3c-4.2,8-9.6,16.4-16.2,25.2l2.4,1.8
			l0.2,0.2c3-4.7,6.3-9.5,10-14.4l0,0c6.7-8.9,12.1-17.4,16.3-25.4c6.7-16.7,9.3-32.7,7.2-47.9c-3.3-24.8-15.2-47-28.1-67.1
			c-23.1-35.8-47.4-67.6-18.3-120.6c3.2-7.8,7.4-16,12.9-24.6l-0.2-0.2l-2.4-1.8l0,0c-3.7,4.9-7,9.7-10,14.4l0,0
			C281.6,171.2,277.3,179.5,274.2,187.3z"/>
		<path class="st1" d="M286.9,174.8c-19.6,48.3,1.9,81.8,22.9,114.3c21.8,33.7,44.2,68.4,16.3,121.4c-4.2,8-9.6,16.5-16.3,25.4
			l2.1,1.6l0.1,0.1l0.5,0.4c3-4.7,6.3-9.5,10-14.4l0,0c5.9-7.8,10.7-15.3,14.7-22.4c7.6-17.7,10.6-34.8,8.5-51
			c-3.3-24.8-15.3-46.9-28.2-66.9c-23.3-36.2-48.1-68.7-16.7-123.5c3-7,6.9-14.2,11.7-21.9l-0.5-0.4l-0.1-0.1l-2.1-1.6l0,0
			c-3.7,4.9-7,9.7-10,14.4l0,0C294.3,158.8,290,167,286.9,174.8z"/>
		<path class="st1" d="M300.6,159.7c-21.5,49.7,0.4,83.7,21.8,116.8c22.2,34.4,45.1,69.9,14.7,124.6c-4,7.1-8.8,14.6-14.7,22.4
			l1.9,1.5l0.7,0.5c3-4.7,6.3-9.5,10-14.4l0,0c5.1-6.7,9.4-13.2,13-19.4c8.6-18.8,12.1-36.9,9.8-54c-3.3-24.8-15.3-46.8-28.2-66.8
			c-23.6-36.5-48.8-69.9-15-126.4c2.8-6.1,6.3-12.5,10.5-19.1l-0.7-0.5l-1.9-1.5l0,0c-3.7,4.9-7,9.7-10,14.4l0,0
			C307.5,145.4,303.7,152.7,300.6,159.7z"/>
		<path class="st1" d="M314.5,144.5c-23.5,51.2-1.2,85.7,20.5,119.4c22.6,35.1,46,71.3,12.9,127.8c-3.6,6.2-7.9,12.6-13,19.4l2,1.5
			l0.6,0.5c3-4.7,6.3-9.5,10-14.4l0,0c4.2-5.6,7.9-11.1,11.2-16.3c9.7-19.9,13.6-39,11.2-57c-3.3-24.7-15.4-46.6-28.3-66.6
			c-23.8-36.9-49.4-71.2-13.2-129.5c2.5-5.2,5.6-10.6,9.1-16.2l-0.6-0.5l-2-1.5l0,0c-3.7,4.9-7,9.7-10,14.4l0,0
			C320.8,132,317.3,138.4,314.5,144.5z"/>
		<path class="st1" d="M328.5,129.2c-25.6,52.7-2.9,87.9,19.2,122.1c23.1,35.8,46.9,72.6,11.1,131c-3.2,5.3-6.9,10.7-11.2,16.3
			l1.5,1.1l1.2,0.9c3-4.7,6.3-9.5,10-14.4l0,0c3.4-4.5,6.5-8.9,9.2-13.2c10.9-21,15.3-41.1,12.8-60.1c-3.3-24.7-15.5-46.5-28.3-66.5
			c-24-37.2-50.2-72.5-11.3-132.6c2.2-4.3,4.7-8.7,7.6-13.2l-1.2-0.9l-1.5-1.1l0,0c-3.7,4.9-7,9.7-10,14.4l0,0
			C334.1,118.6,331.1,124,328.5,129.2z"/>
		<path class="st1" d="M342.7,113.8c-27.9,54.2-4.8,90.1,17.7,124.9c23.5,36.4,47.8,74,9.2,134.3c-2.8,4.3-5.8,8.7-9.2,13.2l1.2,0.9
			l0.6,0.5c3.1-5.3,6.3-10.5,9.6-15.6c6.1-9.5,12.4-18.9,17.7-28.7c5.2-14.8,7.1-29.1,5.2-42.8c-3.3-24.6-15.5-46.4-28.4-66.3
			c-23.7-36.7-49.6-72.1-12-131.6c2.4-5.1,5.1-10.1,7.9-15l-0.6-0.5l-1.2-0.9l0,0c-3.7,4.9-7,9.7-10,14.4l0,0
			C347.4,105.1,344.9,109.5,342.7,113.8z"/>
		<path class="st1" d="M347.6,151.1c0.1,18.2,6.3,38.6,22.4,62.6c-3.8-6.9-6.9-13.7-9.2-20.5C353.6,180.2,348.4,166.5,347.6,151.1z"
			/>
		<path class="st1" d="M385.7,362.4c4.7-7.3,8.6-14.5,11.8-21.5C394.1,348.2,390,355.4,385.7,362.4z"/>
		<path class="st1" d="M352.5,190.8c-6.5-14.5-9.9-28.4-9.9-41.9C342.4,164.2,346.5,177.9,352.5,190.8z"/>
		<polygon class="st1" points="387.9,237.5 387.9,237.5 387.1,238.2 387.1,238.2 		"/>
		<path class="st1" d="M402.4,301.1c1.1-21-6.1-45.1-28.5-74.8c-3.5-4.7-6.7-9.3-9.7-13.8c2.8,4.6,5.8,9.2,8.7,13.7
			C387.7,248.9,402.7,272.1,402.4,301.1z"/>
		<path class="st1" d="M406.8,288.1c-1.7-12.6-5.7-24.3-11-35.5c-0.9-1.4-1.8-2.8-2.8-4.2c10.2,18.8,14.3,35.5,14.4,50.6
			C407.5,295.3,407.3,291.7,406.8,288.1z"/>
		<path class="st1" d="M219.3,535.8c1.8-3.3,3.8-6.7,6-10.2l-2.4-1.8c-22.1,29.4-30.3,53.8-30.4,75.1c0,0.4,0,0.7,0,1.1h5
			C196.8,581.6,202.5,560.7,219.3,535.8z"/>
		<path class="st1" d="M230,526.3c2.2-4.3,4.8-8.7,7.7-13.3l-1.2-0.9l-1.2-0.9l0,0c-3.7,4.9-7,9.7-10,14.4c-2.2,3.5-4.2,6.9-6,10.2
			c-2.5,4.5-4.6,8.9-6.3,13.2c-7.9,19-9.4,35.7-7,51h5.9C207.5,579.3,211,555.7,230,526.3z"/>
		<path class="st1" d="M240.9,516.7c2.6-5.2,5.6-10.7,9.1-16.3l-0.9-0.7l-1.5-1.1l0,0c-3.7,4.9-7,9.7-10,14.4l0,0
			c-2.9,4.6-5.4,9-7.7,13.3c-14.9,28.9-15.3,52.6-9,73.7h7C219.7,576.9,219.6,550.8,240.9,516.7z"/>
		<path class="st1" d="M251.8,507c2.8-6.1,6.3-12.5,10.5-19.2l-0.4-0.3l-2-1.5l0,0c-3.7,4.9-7,9.7-10,14.4l0,0
			c-3.6,5.6-6.6,11-9.1,16.3c-16.2,33.4-13.1,59.8-2.9,83.3h8.4C233.4,574.3,228.5,546.1,251.8,507z"/>
		<path class="st1" d="M263,497.2c3-7,6.9-14.3,11.8-22l-0.4-0.3l-1.9-1.5l0,0c-3.7,4.9-7,9.7-10,14.4l0,0
			c-4.2,6.6-7.7,13-10.5,19.2c-17.5,38-9.6,66.9,4.5,93h9.9C248.8,571.3,237.7,541.3,263,497.2z"/>
		<path class="st1" d="M274.2,487.3c3.2-7.8,7.4-16,12.9-24.7l-0.3-0.2l-2.1-1.6l0,0c-3.7,4.9-7,9.7-10,14.4l0,0
			c-4.9,7.7-8.8,15-11.8,22C244.4,540,258,571.1,275.8,600H287C266,567.5,247.3,536.4,274.2,487.3z"/>
		<path class="st1" d="M286.9,474.8c3.2-7.8,7.4-16,12.9-24.6l-0.2-0.2l-2.4-1.8l0,0c-3.7,4.9-7,9.7-10,14.4l0,0
			c-5.5,8.7-9.8,16.9-12.9,24.7C255,534.9,275.5,568,296.2,600h12c-1-1.6-1.9-3.1-2.9-4.6C282.1,559.6,257.8,527.8,286.9,474.8z"/>
		<path class="st1" d="M300.6,459.7c3-7,6.9-14.2,11.7-21.9l-0.5-0.4l-0.1-0.1l-2.1-1.6l0,0c-3.7,4.9-7,9.7-10,14.4l0,0
			c-5.5,8.6-9.7,16.8-12.9,24.6c-19.6,48.3,1.9,81.8,22.9,114.3c2.3,3.6,4.7,7.3,7,11h10.8c-3.2-5.8-6.7-11.4-10.2-16.9
			C294,547,269.3,514.4,300.6,459.7z"/>
		<path class="st1" d="M314.5,444.5c2.8-6.1,6.3-12.5,10.5-19.1l-0.7-0.5l-1.9-1.5l0,0c-3.7,4.9-7,9.7-10,14.4l0,0
			c-4.8,7.6-8.7,14.9-11.7,21.9c-21.5,49.7,0.4,83.7,21.8,116.8c5,7.7,10,15.5,14.5,23.6h9.2c-4.8-10.2-10.6-19.9-16.5-29.1
			C306,534.4,280.8,501,314.5,444.5z"/>
		<path class="st1" d="M328.5,429.2c2.5-5.2,5.6-10.6,9.1-16.2l-0.6-0.5l-2-1.5l0,0c-3.7,4.9-7,9.7-10,14.4l0,0
			c-4.2,6.6-7.7,13-10.5,19.1c-23.5,51.2-1.2,85.7,20.5,119.4c7.5,11.7,15.2,23.5,20.8,36.1h7.8c-5.5-14.7-13.5-28.5-21.8-41.4
			C318,521.8,292.3,487.5,328.5,429.2z"/>
		<path class="st1" d="M342.7,413.8c2.2-4.3,4.7-8.7,7.6-13.2l-1.2-0.9l-1.5-1.1l0,0c-3.7,4.9-7,9.7-10,14.4l0,0
			c-3.5,5.6-6.6,11-9.1,16.2c-25.6,52.7-2.9,87.9,19.2,122.1c10,15.5,20.1,31.2,25.5,48.7h6.6c-5.1-19.5-15.2-37.2-25.8-53.6
			C329.9,509.2,303.8,473.9,342.7,413.8z"/>
		<path class="st1" d="M354.2,402.6c2.4-5.1,5.1-10.1,7.9-15l-0.6-0.5l-1.2-0.9l0,0c-3.7,4.9-7,9.7-10,14.4l0,0
			c-2.9,4.5-5.4,8.9-7.6,13.2c-27.9,54.2-4.8,90.1,17.7,124.9c12.3,19.1,24.8,38.5,28.4,61.3h5.7c-3.4-24.4-15.5-46-28.3-65.8
			C342.5,497.5,316.5,462,354.2,402.6z"/>
		<path class="st1" d="M406.8,588.1c-1.7-12.6-5.7-24.3-11-35.5c-0.9-1.4-1.8-2.8-2.8-4.2c10.2,18.8,14.3,35.5,14.4,50.6
			C407.5,595.3,407.3,591.7,406.8,588.1z"/>
		<polygon class="st1" points="387.1,538.2 387.1,538.2 387.9,537.5 387.9,537.5 		"/>
		<path class="st1" d="M347.6,451.1c0.1,18.2,6.3,38.6,22.4,62.6c-3.8-6.9-6.9-13.7-9.2-20.5C353.6,480.2,348.4,466.5,347.6,451.1z"
			/>
		<path class="st1" d="M373.9,526.2c-3.5-4.7-6.7-9.3-9.7-13.8c2.8,4.6,5.8,9.2,8.7,13.7c14.5,22.5,29.3,45.5,29.5,73.9l0,0
			C403.3,579.3,395.9,555.5,373.9,526.2z"/>
		<path class="st1" d="M352.5,490.8c-6.5-14.5-9.9-28.4-9.9-41.9C342.4,464.2,346.5,477.9,352.5,490.8z"/>
		<path class="st1" d="M507.6,51.2c0.2,0.3,0.4,0.6,0.6,0.9c-2-3.7-4-7.4-5.7-11.2C504,44.2,505.7,47.7,507.6,51.2z"/>
		<path class="st1" d="M497.6,0L497.6,0c0,0.4,0,0.7,0,1.1C497.6,0.7,497.6,0.3,497.6,0z"/>
		<path class="st1" d="M502.4,48.6L502.4,48.6c3.7,4.9,7,9.7,10,14.4l1.2-0.9l0.3-0.3c-2-3.2-3.9-6.5-5.7-9.8
			c-0.2-0.3-0.4-0.6-0.6-0.9c-12.8-19-19.3-35.9-21.5-51.1h-5.2c1.9,11.5,6,23.3,12.3,35.5C495.9,39.7,499,44.1,502.4,48.6z"/>
		<path class="st1" d="M490,36L490,36c3.7,4.9,7,9.7,10,14.4l0.9-0.7l1.5-1.1c-3.4-4.5-6.4-8.9-9.2-13.1
			C485,22.7,479.6,10.9,476.5,0h-5.4c1.9,6.5,4.5,13.1,7.8,19.8C482.1,25,485.8,30.4,490,36z"/>
		<path class="st1" d="M477.6,23.4L477.6,23.4c3.7,4.9,7,9.7,10,14.4l0.4-0.3l2-1.5c-4.2-5.6-7.9-11-11.1-16.2
			c-4.2-6.9-7.6-13.5-10.3-19.8h-5.7c0.6,1.4,1.2,2.8,1.8,4.2C468.3,10.3,472.6,16.7,477.6,23.4z"/>
		<path class="st1" d="M465.3,10.8c3.7,4.9,7,9.7,10,14.4l0.4-0.3l1.9-1.5c-5-6.7-9.3-13.1-12.9-19.2c-0.8-1.4-1.6-2.8-2.4-4.2h-4.7
			C460,3.5,462.5,7.1,465.3,10.8L465.3,10.8z"/>
		<path class="st1" d="M463.2,12.4l2.1-1.6c-2.8-3.7-5.3-7.3-7.6-10.8h-3.4c3.2,4.3,6.1,8.5,8.7,12.6L463.2,12.4z"/>
		<path class="st1" d="M450.5,0h-0.4c0,0.1,0.1,0.1,0.1,0.2L450.5,0z"/>
		<path class="st1" d="M507.6,351.2c0.2,0.3,0.4,0.6,0.6,0.9c-2-3.7-4-7.4-5.7-11.2C504,344.2,505.7,347.7,507.6,351.2z"/>
		<path class="st1" d="M557.5,148.9c-0.1,13.5-3.4,27.4-9.9,41.9C553.5,177.9,557.6,164.2,557.5,148.9z"/>
		<path class="st1" d="M512.9,249c1.8-4.3,3.9-8.7,6.3-13.2c-17.1,25.4-22.7,46.6-21.7,65.3C497.4,281.7,504.1,264.9,512.9,249z"/>
		<path class="st1" d="M493.2,288.1c-0.5,3.6-0.7,7.2-0.7,10.9c0.1-21.4,8.3-45.8,30.4-75.1c21.4-28.4,29.4-52,29.5-72.7
			c-1.4,27-16.5,48.8-30.8,70.9C508.8,241.9,496.5,263.5,493.2,288.1z"/>
		<path class="st1" d="M520,76.3c38.9,60.2,12.7,95.9-11.1,132.9c-12.9,20-25.1,41.7-28.4,66.3c-2.5,18.9,1.9,39,12.7,60
			c2.7,4.3,5.8,8.6,9.2,13.1l0,0c3.7,4.9,7,9.7,10,14.4l1.2-0.9l0.3-0.3c-2-3.2-3.9-6.5-5.7-9.8c-0.2-0.3-0.4-0.6-0.6-0.9
			c-41.6-62.1-16.9-100.4,7.1-137.5c21-32.6,42.6-66,22.4-114.7c-4.4-7.8-9.3-15.4-14.1-22.9c-3-4.7-6.1-9.5-9.1-14.3l-0.3,0.3
			l-1.2,0.9C515.2,67.5,517.8,72,520,76.3z"/>
		<path class="st1" d="M509.1,66.7c36.2,58.4,10.5,93.1-13.1,129.7c-12.9,20-25.1,41.8-28.3,66.5c-2.4,18,1.5,37,11.2,56.9
			c3.2,5.2,6.9,10.6,11.1,16.2l0,0c3.7,4.9,7,9.7,10,14.4l0.9-0.7l1.5-1.1c-3.4-4.5-6.4-8.9-9.2-13.1
			c-38.6-60.2-14.4-97.8,9.1-134.2c22.5-34.8,45.6-70.7,17.7-125c-2.2-4.3-4.8-8.7-7.7-13.3l0,0c-3-4.7-6.3-9.5-10-14.4l0,0
			l-1.5,1.1l-0.9,0.7C503.6,56,506.6,61.4,509.1,66.7z"/>
		<path class="st1" d="M498.2,57c33.7,56.6,8.5,90.4-14.9,126.7c-12.9,20-25,41.9-28.3,66.6c-2.3,17.1,1.1,35.1,9.8,53.9
			c3.6,6.2,7.9,12.6,12.9,19.2l0,0c3.7,4.9,7,9.7,10,14.4l0.4-0.3l2-1.5c-4.2-5.6-7.9-11-11.1-16.2c-35.8-58.3-12-95.2,11-130.9
			c22.1-34.2,44.8-69.5,19.2-122.2c-2.6-5.2-5.6-10.7-9.1-16.3l0,0c-3-4.7-6.3-9.5-10-14.4l0,0l-2,1.5l-0.4,0.3
			C491.8,44.4,495.3,50.8,498.2,57z"/>
		<path class="st1" d="M487,47.2c31.3,54.9,6.6,87.8-16.6,123.7c-12.9,20-24.9,42-28.2,66.8c-2.2,16.2,0.8,33.2,8.4,50.9
			c3.9,7.1,8.8,14.5,14.6,22.2l0,0c3.7,4.9,7,9.7,10,14.4l0.4-0.3l1.9-1.5c-5-6.7-9.3-13.1-12.9-19.2
			c-33.1-56.5-9.8-92.6,12.9-127.7c21.7-33.7,44.1-68.3,20.6-119.5c-2.8-6.1-6.3-12.5-10.5-19.2l0,0c-3-4.7-6.3-9.5-10-14.4l0,0
			l-1.9,1.5l-0.4,0.3C480.1,32.9,484,40.2,487,47.2z"/>
		<path class="st1" d="M462.9,312.6l0.3-0.2l2.1-1.6c-5.8-7.8-10.7-15.2-14.6-22.2c-30.5-54.7-7.6-90.1,14.6-124.5
			C486.7,131,508.6,97,487.1,47.2c-3-7-6.9-14.3-11.8-22l0,0c-3-4.7-6.3-9.5-10-14.4l0,0l-2.1,1.6l-0.3,0.2
			c5.5,8.7,9.8,16.9,12.9,24.7c29.1,53.2,4.8,85.3-18.2,120.8c-12.9,20-24.9,42.1-28.2,66.9c-2,15.2,0.5,31.3,7.2,47.9
			c4.2,8,9.6,16.4,16.2,25.2l0,0C456.6,303.1,459.9,307.9,462.9,312.6z"/>
		<polygon class="st1" points="438.2,287.4 438.1,287.4 438.1,287.4 		"/>
		<path class="st1" d="M463.1,24.8c29.1,53.1,4.8,84.8-18.3,120.6c-12.9,20-24.8,42.3-28.1,67.1c-2,15.2,0.5,31.3,7.2,47.9
			c4.2,8,9.6,16.5,16.3,25.4l0,0c3.7,4.9,7,9.7,10,14.4l0.2-0.2l2.4-1.8c-6.7-8.9-12-17.2-16.2-25.2c-28-52.9-5.6-87.6,16.2-121.3
			c21-32.5,42.6-66,23-114.3c-3.2-7.8-7.4-16-12.9-24.7l0,0c-2.6-4.1-5.5-8.3-8.7-12.6h-3.7l-0.2,0.2C455.7,8.8,460,17,463.1,24.8z"
			/>
		<path class="st1" d="M432.6,133.1c-12.9,20-24.9,42.1-28.2,66.9c-2.2,16.2,0.8,33.2,8.5,51c4,7.1,8.8,14.6,14.7,22.4l0,0
			c3.7,4.9,7,9.7,10,14.4l0.5-0.4l0.1-0.1l2.1-1.6c-6.7-8.9-12.1-17.4-16.3-25.4c-27.9-52.9-5.5-87.6,16.3-121.4
			c21-32.5,42.5-65.9,22.9-114.3c-3.2-7.8-7.4-16-12.9-24.6l0,0c0-0.1-0.1-0.1-0.1-0.2h-5.4c1.7,3.3,3.3,6.5,4.6,9.7
			C480.7,64.4,456,97,432.6,133.1z"/>
		<path class="st1" d="M420.4,120.9c-12.9,20-24.9,42-28.2,66.8c-2.3,17.1,1.2,35.2,9.8,54c3.6,6.2,7.9,12.6,13,19.4l0,0
			c3.7,4.9,7,9.7,10,14.4l0.7-0.5l1.9-1.5c-5.9-7.8-10.7-15.3-14.7-22.4c-30.4-54.7-7.6-90.2,14.7-124.6
			c21.3-33.1,43.3-67.1,21.8-116.8c-1.4-3.2-2.9-6.4-4.6-9.7h-6.1C467.5,53.2,443.2,85.6,420.4,120.9z"/>
		<path class="st1" d="M408.2,108.6c-12.9,20-25,41.9-28.3,66.6c-2.4,18,1.5,37.1,11.2,57c3.2,5.3,6.9,10.7,11.2,16.3l0,0
			c3.7,4.9,7,9.7,10,14.4l0.6-0.5l2-1.5c-5.1-6.7-9.4-13.2-13-19.4c-33-56.5-9.7-92.7,12.9-127.8C435.9,81.4,457.3,48.2,437.9,0
			h-5.6C451.3,46.1,429.1,76.4,408.2,108.6z"/>
		<path class="st1" d="M396.1,96.4c-12.9,20-25.1,41.8-28.3,66.5c-2.5,19,1.9,39.1,12.8,60.1c2.8,4.3,5.8,8.7,9.2,13.2l0,0
			c3.7,4.9,7,9.7,10,14.4l1.2-0.9l1.5-1.1c-4.2-5.6-7.9-11.1-11.2-16.3c-35.8-58.4-12-95.2,11.1-131c19-29.5,38.5-59.7,27.1-101.3
			h-5.2C434.9,39.5,414.8,67.3,396.1,96.4z"/>
		<path class="st1" d="M383.9,84.2c-12.9,20-25.1,41.7-28.4,66.3c-1.8,13.7,0,28,5.2,42.8c2.4,6.7,5.5,13.5,9.2,20.5
			c2.2,3.3,4.6,6.7,7.2,10.1c3.7,4.9,7,9.7,10,14.4l0.8-0.6l0.6-0.5l1.2-0.9c-3.4-4.5-6.5-8.9-9.2-13.2
			c-38.6-60.3-14.4-97.9,9.2-134.3c17.1-26.4,34.5-53.5,29.7-88.7h-5C418.2,33.3,400.5,58.4,383.9,84.2z"/>
		<path class="st1" d="M389.3,43.2c-5.3,9.8-11.5,19.2-17.7,28.7c-3.3,5.1-6.5,10.3-9.6,15.6l0,0c-2.8,4.9-5.5,9.9-7.9,15
			c-5.3,11.2-9.3,22.9-11,35.5c-0.5,3.6-0.7,7.2-0.7,10.8c0.1,13.5,3.4,27.4,9.9,41.9c3.2,7.1,7.1,14.2,11.8,21.5
			c2.9,4.6,6.1,9.2,9.7,13.8l3.2-2.4c-2.6-3.4-5-6.8-7.2-10.1c-16-24-22.2-44.5-22.4-62.6c-0.2-28.9,14.8-52.2,29.5-75
			c2.9-4.5,5.9-9.1,8.7-13.7c4.3-7,8.4-14.1,11.8-21.5c5.8-12.6,9.8-26,9.9-40.8h-5c0,0.4,0,0.7,0,1.1
			C401.6,16.5,396.4,30.2,389.3,43.2z"/>
		<path class="st1" d="M557.5,448.9c-0.1,13.5-3.4,27.4-9.9,41.9C553.5,477.9,557.6,464.2,557.5,448.9z"/>
		<path class="st1" d="M521.7,521.9c-12.9,19.9-25.2,41.6-28.5,66.2c-0.5,3.6-0.7,7.2-0.7,10.9c0.1-21.4,8.3-45.8,30.4-75.1
			c21.4-28.4,29.4-52,29.5-72.7C551,478,535.9,499.9,521.7,521.9z"/>
		<path class="st1" d="M519.3,535.8c-16.7,24.9-22.4,45.8-21.7,64.2l0,0c0.1-18.9,6.7-35.4,15.4-51
			C514.7,544.7,516.8,540.3,519.3,535.8z"/>
		<path class="st1" d="M514.7,513.7c21-32.6,42.6-66,22.4-114.7c-4.4-7.8-9.3-15.4-14.1-22.9c-3-4.7-6.1-9.5-9.1-14.3l-0.3,0.3
			l-1.2,0.9c2.9,4.6,5.4,9,7.7,13.3c38.9,60.2,12.7,95.9-11.1,132.9c-12.9,20-25.1,41.7-28.4,66.3c-1.1,8-0.9,16.2,0.5,24.5h5.2
			C481.1,565.6,498.1,539.4,514.7,513.7z"/>
		<path class="st1" d="M502.3,501.3c22.5-34.8,45.6-70.7,17.7-125c-2.2-4.3-4.8-8.7-7.7-13.3l0,0c-3-4.7-6.3-9.5-10-14.4l0,0
			l-1.5,1.1l-0.9,0.7c3.6,5.6,6.6,11,9.1,16.3c36.2,58.4,10.5,93.1-13.1,129.7c-12.9,20-25.1,41.8-28.3,66.5
			c-1.6,11.9-0.4,24.3,3.4,37.1h5.4C464.8,559.4,483.8,530,502.3,501.3z"/>
		<path class="st1" d="M489.9,488.9c22.1-34.2,44.8-69.5,19.2-122.2c-2.6-5.2-5.6-10.7-9.1-16.3l0,0c-3-4.7-6.3-9.5-10-14.4l0,0
			l-2,1.5l-0.4,0.3c4.2,6.6,7.7,13,10.5,19.2c33.7,56.6,8.5,90.4-14.9,126.7c-12.9,20-25,41.9-28.3,66.6
			c-2.1,15.8,0.7,32.4,7.9,49.7h5.7C448.7,552.8,469.6,520.4,489.9,488.9z"/>
		<path class="st1" d="M477.6,476.4c21.7-33.7,44.1-68.3,20.6-119.5c-2.8-6.1-6.3-12.5-10.5-19.2l0,0c-3-4.7-6.3-9.5-10-14.4l0,0
			l-1.9,1.5l-0.4,0.3c4.9,7.7,8.8,15,11.8,22c31.3,54.9,6.6,87.8-16.6,123.7c-12.9,20-24.9,42-28.2,66.8
			c-2.2,16.2,0.8,33.2,8.4,50.9c2.1,3.7,4.4,7.5,7,11.4h4.7C432.8,545.9,455.5,510.6,477.6,476.4z"/>
		<path class="st1" d="M465.2,464c21.4-33.1,43.3-67.1,21.8-116.9c-3-7-6.9-14.3-11.8-22l0,0c-3-4.7-6.3-9.5-10-14.4l0,0l-2.1,1.6
			l-0.3,0.2c5.5,8.7,9.8,16.9,12.9,24.7c29.1,53.2,4.8,85.3-18.2,120.8c-12.9,20-24.9,42.1-28.2,66.9c-2,15.2,0.5,31.3,7.2,47.9
			c4.2,8,9.6,16.4,16.2,25.2l0,0c0.5,0.6,0.9,1.2,1.3,1.8h3.4c-2.6-3.9-4.9-7.7-7-11.4C420.2,533.9,443,498.4,465.2,464z"/>
		<path class="st1" d="M438.1,587.4h0.1H438.1z"/>
		<path class="st1" d="M452.9,598.2c-6.7-8.9-12-17.2-16.2-25.2c-28-52.9-5.6-87.6,16.2-121.3c21-32.5,42.6-66,23-114.3
			c-3.2-7.8-7.4-16-12.9-24.7l0,0c-3-4.7-6.3-9.5-10-14.4l0,0l-2.4,1.8l-0.2,0.2c5.5,8.6,9.7,16.8,12.9,24.6
			c29.1,53.1,4.8,84.8-18.3,120.6c-12.9,20-24.8,42.3-28.1,67.1c-2,15.2,0.5,31.3,7.2,47.9c4.2,8,9.6,16.5,16.3,25.4l0,0
			c3.7,4.9,6.9,9.6,9.9,14.2h0.4L452.9,598.2z"/>
		<path class="st1" d="M437.6,287.8c4.8,7.6,8.7,14.9,11.7,21.9c31.4,54.7,6.6,87.3-16.7,123.5c-12.9,20-24.9,42.1-28.2,66.9
			c-2.2,16.2,0.8,33.2,8.5,51c4,7.1,8.8,14.6,14.7,22.4l0,0c3.7,4.9,7,9.7,10,14.4l0.5-0.4l0.1-0.1l2.1-1.6
			c-6.7-8.9-12.1-17.4-16.3-25.4c-27.9-52.9-5.5-87.6,16.3-121.4c21-32.5,42.5-65.9,22.9-114.3c-3.2-7.8-7.4-16-12.9-24.6l0,0
			c-3-4.7-6.3-9.5-10-14.4l0,0l-2.1,1.6l-0.1,0.1L437.6,287.8z"/>
		<path class="st1" d="M435.5,294.5c33.7,56.5,8.5,89.9-15,126.4c-12.9,20-24.9,42-28.2,66.8c-2.3,17.1,1.2,35.2,9.8,54
			c3.6,6.2,7.9,12.6,13,19.4l0,0c3.7,4.9,7,9.7,10,14.4l0.7-0.5l1.9-1.5c-5.9-7.8-10.7-15.3-14.7-22.4
			c-30.4-54.7-7.6-90.2,14.7-124.6c21.3-33.1,43.3-67.1,21.8-116.8c-3-7-6.9-14.2-11.7-21.9l0,0c-3-4.7-6.3-9.5-10-14.4l0,0
			l-1.9,1.5l-0.7,0.5C429.2,282,432.7,288.4,435.5,294.5z"/>
		<path class="st1" d="M421.5,279.2c36.2,58.3,10.6,92.6-13.2,129.5c-12.9,20-25,41.9-28.3,66.6c-2.4,18,1.5,37.1,11.2,57
			c3.2,5.3,6.9,10.7,11.2,16.3l0,0c3.7,4.9,7,9.7,10,14.4l0.6-0.5l2-1.5c-5.1-6.7-9.4-13.2-13-19.4c-33-56.5-9.7-92.7,12.9-127.8
			c21.7-33.6,44-68.2,20.5-119.4c-2.8-6.1-6.3-12.5-10.5-19.1l0,0c-3-4.7-6.3-9.5-10-14.4l0,0l-2,1.5l-0.6,0.5
			C415.9,268.6,418.9,274,421.5,279.2z"/>
		<path class="st1" d="M407.3,263.8c38.9,60.1,12.7,95.4-11.3,132.6c-12.9,20-25.1,41.8-28.3,66.5c-2.5,19,1.9,39.1,12.8,60.1
			c2.8,4.3,5.8,8.7,9.2,13.2l0,0c3.7,4.9,7,9.7,10,14.4l1.2-0.9l1.5-1.1c-4.2-5.6-7.9-11.1-11.2-16.3c-35.8-58.4-12-95.2,11.1-131
			c22.1-34.2,44.8-69.4,19.2-122.1c-2.5-5.2-5.6-10.6-9.1-16.2l0,0c-3-4.7-6.3-9.5-10-14.4l0,0l-1.5,1.1l-1.2,0.9
			C402.6,255.1,405.1,259.5,407.3,263.8z"/>
		<path class="st1" d="M387.1,238.2c2.2,3.5,4.2,6.8,6,10.2c1,1.4,1.9,2.8,2.8,4.2c37.7,59.4,11.7,94.9-12,131.6
			c-12.9,20-25.1,41.7-28.4,66.3c-1.8,13.7,0,28,5.2,42.8c2.4,6.7,5.5,13.5,9.2,20.5c2.2,3.3,4.6,6.7,7.2,10.1
			c3.7,4.9,7,9.7,10,14.4l0.8-0.6l0.6-0.5l1.2-0.9c-3.4-4.5-6.5-8.9-9.2-13.2c-38.6-60.3-14.4-97.9,9.2-134.3
			c22.5-34.8,45.6-70.6,17.7-124.9c-2.2-4.3-4.7-8.7-7.6-13.2l0,0c-3-4.7-6.3-9.5-10-14.4l0,0l-1.2,0.9l-0.6,0.5L387.1,238.2z"/>
		<path class="st1" d="M402.4,301.1c-0.8,15.4-6.1,29.1-13.1,42.2c-5.3,9.8-11.5,19.2-17.7,28.7c-3.3,5.1-6.5,10.3-9.6,15.6l0,0
			c-2.8,4.9-5.5,9.9-7.9,15c-5.3,11.2-9.3,22.9-11,35.5c-0.5,3.6-0.7,7.2-0.7,10.8c0.1,13.5,3.4,27.4,9.9,41.9
			c3.2,7.1,7.1,14.2,11.8,21.5c2.9,4.6,6.1,9.2,9.7,13.8l3.2-2.4c-2.6-3.4-5-6.8-7.2-10.1c-16-24-22.2-44.5-22.4-62.6
			c-0.2-28.9,14.8-52.2,29.5-75c2.9-4.5,5.9-9.1,8.7-13.7c4.3-7,8.4-14.1,11.8-21.5c6-12.9,10-26.6,9.9-41.9
			c-0.1-15.1-4.2-31.7-14.4-50.6c-1.8-3.3-3.8-6.7-6-10.2l0,0c-3-4.7-6.3-9.5-10-14.4l-3.2,2.4C396.3,256,403.5,280.1,402.4,301.1z"
			/>
		<path class="st1" d="M452.9,598.2l-2.4,1.8h3.7C453.8,599.4,453.4,598.8,452.9,598.2L452.9,598.2z"/>
		<path class="st1" d="M440.3,585.8l-2.1,1.6l-0.1,0.1l-0.5,0.4c2.6,4.2,5,8.2,7.1,12.2h5.4C447.2,595.4,443.9,590.7,440.3,585.8
			L440.3,585.8z"/>
		<path class="st1" d="M437.6,587.8c-3-4.7-6.3-9.5-10-14.4l0,0l-1.9,1.5l-0.7,0.5c4.2,6.6,7.7,13,10.5,19.1
			c1.1,1.9,2.2,3.7,3.2,5.5h6.1C442.6,596,440.3,592,437.6,587.8L437.6,587.8z"/>
		<path class="st1" d="M425,575.4L425,575.4c-3-4.7-6.3-9.5-10-14.4l0,0l-2,1.5l-0.6,0.5c3.5,5.6,6.6,11,9.1,16.2
			c4.5,7.3,8.1,14.2,10.8,20.8h5.6c-0.7-1.8-1.5-3.7-2.4-5.5C432.7,588.4,429.2,582,425,575.4z"/>
		<path class="st1" d="M412.4,563L412.4,563c-3-4.7-6.3-9.5-10-14.4l0,0l-1.5,1.1l-1.2,0.9c2.9,4.5,5.4,8.9,7.6,13.2
			c8.5,13.2,13.9,25.1,16.9,36.2h5.2c-1.8-6.6-4.4-13.6-8-20.8C418.9,574,415.9,568.6,412.4,563z"/>
		<path class="st1" d="M399.7,550.6L399.7,550.6c-3-4.7-6.3-9.5-10-14.4l0,0l-1.2,0.9l-0.6,0.5l-0.8,0.6c2.2,3.5,4.2,6.8,6,10.2
			c1,1.4,1.9,2.8,2.8,4.2c11.2,17.7,16.8,33.3,18.5,47.4h5c-1.5-11.2-5.3-23.1-12-36.2C405.1,559.5,402.6,555.1,399.7,550.6z"/>
		<path class="st1" d="M407.5,598.9c-0.1-15.1-4.2-31.7-14.4-50.6c-1.8-3.3-3.8-6.7-6-10.2l0,0c-3-4.7-6.3-9.5-10-14.4l-3.2,2.4
			c22,29.3,29.4,53.1,28.6,73.8h5C407.5,599.6,407.5,599.3,407.5,598.9z"/>
		<path class="st1" d="M508.2,52c1.8,3.3,3.8,6.6,5.7,9.8c2.9,4.8,6,9.5,9.1,14.3c4.9,7.5,9.8,15.1,14.1,22.9
			c8.8,15.8,15.5,32.7,15.3,52c-0.2,20.7-8.1,44.3-29.5,72.7l2.4,1.8c3-4.7,6.3-9.5,10-14.4l0,0c2.6-3.4,4.9-6.8,7.1-10
			c1.9-3.5,3.6-6.9,5.2-10.3c6.5-14.4,9.9-28.4,9.9-41.9c0-3.7-0.2-7.3-0.7-10.9c-3.3-24.6-15.6-46.2-28.5-66.2
			C514.1,49.9,499,28,497.6,1.1c0-0.3,0-0.7,0-1.1h-5c0.1,14.8,4.1,28.2,9.9,40.8C504.2,44.6,506.1,48.3,508.2,52z"/>
		<path class="st1" d="M542.4,201.2c-2.2,3.3-4.6,6.6-7.1,10l1.2,0.9l1.2,0.9c3-4.7,6.3-9.5,10-14.4l0,0c3.4-4.5,6.4-8.9,9.2-13.1
			c10.8-21,15.3-41,12.7-60c-3.3-24.6-15.5-46.4-28.4-66.3C529,40.3,516.2,21.7,511.8,0h-5.9c3.7,23.7,16.7,43.9,29.5,63.7
			C559.3,100.8,584,139,542.4,201.2z"/>
		<path class="st1" d="M556.8,185.5c-2.7,4.3-5.8,8.6-9.2,13.1l1.5,1.1l0.9,0.7c3-4.7,6.3-9.5,10-14.4l0,0c4.2-5.6,7.9-11,11.1-16.2
			c9.7-19.9,13.6-38.9,11.2-56.9C579,88.2,566.8,66.4,554,46.4c-9.8-15.2-19.9-30-25.9-46.4h-7c5.5,18.5,16.2,35,26.7,51.3
			C571.2,87.7,595.4,125.2,556.8,185.5z"/>
		<path class="st1" d="M571.1,169.8c-3.2,5.2-6.9,10.6-11.1,16.2l2,1.5l0.4,0.3c3-4.7,6.3-9.5,10-14.4l0,0c5-6.7,9.3-13.1,12.9-19.2
			c8.6-18.8,12-36.8,9.8-53.9c-3.3-24.7-15.4-46.6-28.3-66.6c-7.2-11.2-14.6-22.2-20.4-33.6H538c5.9,13.6,14,26.3,22.1,38.9
			C583.1,74.6,606.9,111.4,571.1,169.8z"/>
		<path class="st1" d="M600,83.5V58.9c-5.4-13.5-12.8-26.1-20.4-38C575,13.9,570.4,7,566.2,0h-9.9c4.9,9.1,10.5,17.8,16.1,26.4
			C584,44.3,595.7,62.5,600,83.5z"/>
		<path class="st1" d="M572.4,173.4l1.9,1.5l0.4,0.3c3-4.7,6.3-9.5,10-14.4l0,0c5.8-7.8,10.7-15.2,14.6-22.2c0.2-0.5,0.4-1,0.7-1.6
			v-19.6c-2.3,11.3-7,23.4-14.7,36.7C581.7,160.3,577.4,166.7,572.4,173.4z"/>
		<path class="st1" d="M600,39V20.5c-2.5-4.2-5-8.3-7.6-12.4c-1.8-2.7-3.5-5.4-5.3-8.1h-11.2c2.9,4.7,5.9,9.4,8.9,14
			C590.1,22.2,595.4,30.5,600,39z"/>
		<path class="st1" d="M584.7,160.8l2.1,1.6l0.3,0.2c3-4.7,6.3-9.5,10-14.4l0,0c1-1.3,2-2.6,2.9-4v-6.9c-0.2,0.4-0.4,0.8-0.7,1.2
			C595.4,145.6,590.6,153,584.7,160.8z"/>
		<path class="st1" d="M600,6.1V0h-3.9c0.3,0.5,0.7,1.1,1,1.6C598.1,3.1,599,4.6,600,6.1z"/>
		<path class="st1" d="M599.5,150l0.2,0.2c0.1-0.1,0.2-0.3,0.3-0.4v-5.5c-0.9,1.3-1.9,2.6-2.9,4L599.5,150z"/>
		<path class="st1" d="M502.4,340.8c1.8,3.8,3.7,7.5,5.7,11.2c1.8,3.3,3.8,6.6,5.7,9.8c2.9,4.8,6,9.5,9.1,14.3
			c4.9,7.5,9.8,15.1,14.1,22.9c8.8,15.8,15.5,32.7,15.3,52c-0.2,20.7-8.1,44.3-29.5,72.7l2.4,1.8c3-4.7,6.3-9.5,10-14.4l0,0
			c2.6-3.4,4.9-6.8,7.1-10c1.9-3.5,3.6-6.9,5.2-10.3c6.5-14.4,9.9-28.4,9.9-41.9c0-3.7-0.2-7.3-0.7-10.9
			c-3.3-24.6-15.6-46.2-28.5-66.2c-14.2-22-29.4-43.9-30.8-70.9c-1-18.7,4.6-39.8,21.7-65.3c1.8-3.3,3.8-6.7,6-10.2l-2.4-1.8
			c-22.1,29.4-30.3,53.8-30.4,75.1C492.4,314.2,496.5,327.9,502.4,340.8z"/>
		<path class="st1" d="M512.9,249c-20.2,48.6,1.4,82.1,22.4,114.7c23.9,37.1,48.6,75.4,7.1,137.5c-2.2,3.3-4.6,6.6-7.1,10l1.2,0.9
			l1.2,0.9c3-4.7,6.3-9.5,10-14.4l0,0c3.4-4.5,6.4-8.9,9.2-13.1c10.8-21,15.3-41,12.7-60c-3.3-24.6-15.5-46.4-28.4-66.3
			c-23.9-37-50-72.7-11.1-132.9c2.2-4.3,4.8-8.7,7.7-13.3l-1.2-0.9l-1.2-0.9l0,0c-3.7,4.9-7,9.7-10,14.4c-2.2,3.5-4.2,6.9-6,10.2
			C516.8,240.3,514.7,244.7,512.9,249z"/>
		<path class="st1" d="M530,226.3c-27.9,54.3-4.8,90.1,17.7,125c23.5,36.4,47.7,74,9.1,134.2c-2.7,4.3-5.8,8.6-9.2,13.1l1.5,1.1
			l0.9,0.7c3-4.7,6.3-9.5,10-14.4l0,0c4.2-5.6,7.9-11,11.1-16.2c9.7-19.9,13.6-38.9,11.2-56.9c-3.3-24.7-15.5-46.5-28.3-66.5
			c-23.6-36.6-49.3-71.4-13.1-129.7c2.6-5.2,5.6-10.7,9.1-16.3l-0.9-0.7l-1.5-1.1l0,0c-3.7,4.9-7,9.7-10,14.4l0,0
			C534.8,217.5,532.2,222,530,226.3z"/>
		<path class="st1" d="M540.9,216.7c-25.6,52.7-2.9,87.9,19.2,122.2c23.1,35.7,46.8,72.6,11,130.9c-3.2,5.2-6.9,10.6-11.1,16.2
			l2,1.5l0.4,0.3c3-4.7,6.3-9.5,10-14.4l0,0c5-6.7,9.3-13.1,12.9-19.2c8.6-18.8,12-36.8,9.8-53.9c-3.3-24.7-15.4-46.6-28.3-66.6
			c-23.4-36.3-48.6-70.1-14.9-126.7c2.8-6.1,6.3-12.5,10.5-19.2l-0.4-0.3l-2-1.5l0,0c-3.7,4.9-7,9.7-10,14.4l0,0
			C546.4,206,543.4,211.4,540.9,216.7z"/>
		<path class="st1" d="M563,197.2c3-7,6.9-14.3,11.8-22l-0.4-0.3l-1.9-1.5l0,0c-3.7,4.9-7,9.7-10,14.4l0,0
			c-4.2,6.6-7.7,13-10.5,19.2c-23.5,51.2-1.2,85.8,20.6,119.5c11.5,17.9,23.3,36.1,27.6,57.1V359c-5.4-13.5-12.8-26.1-20.4-38
			C556.4,285,531.6,252,563,197.2z"/>
		<path class="st1" d="M572.4,473.4l1.9,1.5l0.4,0.3c3-4.7,6.3-9.5,10-14.4l0,0c5.8-7.8,10.7-15.2,14.6-22.2c0.2-0.5,0.4-1,0.7-1.6
			v-19.6c-2.3,11.3-7,23.4-14.7,36.7C581.7,460.3,577.4,466.7,572.4,473.4z"/>
		<path class="st1" d="M574.2,187.3c3.2-7.8,7.4-16,12.9-24.7l-0.3-0.2l-2.1-1.6l0,0c-3.7,4.9-7,9.7-10,14.4l0,0
			c-4.9,7.7-8.8,15-11.8,22c-21.5,49.8,0.5,83.8,21.8,116.9c5.3,8.2,10.6,16.4,15.2,25v-18.5c-2.5-4.2-5-8.3-7.6-12.4
			C569.4,272.6,545.1,240.5,574.2,187.3z"/>
		<path class="st1" d="M584.7,460.8l2.1,1.6l0.3,0.2c3-4.7,6.3-9.5,10-14.4l0,0c1-1.3,2-2.6,2.9-4v-6.9c-0.2,0.4-0.4,0.8-0.7,1.2
			C595.4,445.6,590.6,453,584.7,460.8z"/>
		<path class="st1" d="M586.9,174.8c3.2-7.8,7.4-16,12.9-24.6l-0.2-0.2l-2.4-1.8l0,0c-3.7,4.9-7,9.7-10,14.4l0,0
			c-5.5,8.7-9.8,16.9-12.9,24.7c-19.6,48.4,2,81.8,23,114.3c1,1.5,1.9,3,2.9,4.5v-18.7C578.7,254.7,559.9,223.9,586.9,174.8z"/>
		<path class="st1" d="M599.5,450l0.2,0.2c0.1-0.1,0.2-0.3,0.3-0.4v-5.5c-0.9,1.3-1.9,2.6-2.9,4L599.5,450z"/>
		<path class="st1" d="M599.7,150.2c-5.5,8.6-9.7,16.8-12.9,24.6c-16.6,40.8-3.8,70.9,13.1,98.8v-18.2c-14.9-26.5-22.5-54.6,0-94.6
			v-11C599.9,149.9,599.8,150,599.7,150.2L599.7,150.2z"/>
		<path class="st1" d="M600,237v-24.2c-2.3-10.3-2.6-21.2,0-33.3v-18.3C587.5,191,590.8,215.2,600,237z"/>
		<path class="st1" d="M519.3,535.8c1.8-3.3,3.8-6.7,6-10.2l-2.4-1.8c-22.1,29.4-30.3,53.8-30.4,75.1c0,0.4,0,0.7,0,1.1h5
			C496.8,581.6,502.5,560.7,519.3,535.8z"/>
		<path class="st1" d="M530,526.3c2.2-4.3,4.8-8.7,7.7-13.3l-1.2-0.9l-1.2-0.9l0,0c-3.7,4.9-7,9.7-10,14.4c-2.2,3.5-4.2,6.9-6,10.2
			c-2.5,4.5-4.6,8.9-6.3,13.2c-7.9,19-9.4,35.7-7,51h5.9C507.5,579.3,511,555.7,530,526.3z"/>
		<path class="st1" d="M540.9,516.7c2.6-5.2,5.6-10.7,9.1-16.3l-0.9-0.7l-1.5-1.1l0,0c-3.7,4.9-7,9.7-10,14.4l0,0
			c-2.9,4.6-5.4,9-7.7,13.3c-14.9,28.9-15.3,52.6-9,73.7h7C519.7,576.9,519.6,550.8,540.9,516.7z"/>
		<path class="st1" d="M551.8,507c2.8-6.1,6.3-12.5,10.5-19.2l-0.4-0.3l-2-1.5l0,0c-3.7,4.9-7,9.7-10,14.4l0,0
			c-3.6,5.6-6.6,11-9.1,16.3c-16.2,33.4-13.1,59.8-2.9,83.3h8.4C533.4,574.3,528.5,546.1,551.8,507z"/>
		<path class="st1" d="M563,497.2c3-7,6.9-14.3,11.8-22l-0.4-0.3l-1.9-1.5l0,0c-3.7,4.9-7,9.7-10,14.4l0,0
			c-4.2,6.6-7.7,13-10.5,19.2c-17.5,38-9.6,66.9,4.5,93h9.9C548.8,571.3,537.7,541.3,563,497.2z"/>
		<path class="st1" d="M574.2,487.3c3.2-7.8,7.4-16,12.9-24.7l-0.3-0.2l-2.1-1.6l0,0c-3.7,4.9-7,9.7-10,14.4l0,0
			c-4.9,7.7-8.8,15-11.8,22C544.4,540,558,571.1,575.8,600H587C566,567.5,547.3,536.4,574.2,487.3z"/>
		<path class="st1" d="M586.9,474.8c3.2-7.8,7.4-16,12.9-24.6l-0.2-0.2l-2.4-1.8l0,0c-3.7,4.9-7,9.7-10,14.4l0,0
			c-5.5,8.7-9.8,16.9-12.9,24.7C555,534.9,575.5,568,596.2,600h3.9v-12.6C578.7,554.7,559.9,523.9,586.9,474.8z"/>
		<path class="st1" d="M599.7,450.2c-5.5,8.6-9.7,16.8-12.9,24.6c-16.6,40.8-3.8,70.9,13.1,98.8v-18.2c-14.9-26.5-22.5-54.6,0-94.6
			v-11C599.9,449.9,599.8,450,599.7,450.2L599.7,450.2z"/>
		<path class="st1" d="M600,537v-24.2c-2.3-10.3-2.6-21.2,0-33.3v-18.3C587.5,491,590.8,515.2,600,537z"/>
	</g>
</g>
</svg>
