<svg xmlns="http://www.w3.org/2000/svg" viewBox="0 0 346 545.11"><defs><style>.cls-1{fill:#83899e;}.cls-2{fill:#a2bf75;}.cls-3{fill:#fff;}.cls-4{fill:#bc5b73;}.cls-5{fill:#d9d8d6;}</style></defs><title>sMiddel 1</title><g id="Laag_2" data-name="Laag 2"><g id="Laag_1-2" data-name="Laag 1"><path class="cls-1" d="M31.4,286.45q-.09,12.75-.17,25.51a13.68,13.68,0,0,0,.48,4.41c-.05,1.44,1.07,1.3,2,1.43a151.37,151.37,0,0,0,23.49,1.61c10.39-.13,15.9-7.63,16.83-16.45.64-6.19.59-12.44.88-18.66.21-4.46.06-8.94.55-13.4A16.06,16.06,0,0,0,69,255.55c-2.66-2.08-2.6-2.27,0-4.26a12.34,12.34,0,0,0,5.21-10.09c0-7.85.9-15.67.89-23.54,0-5.91-.46-11.57-3.55-16.76.56-.63,1.08-.52,1.66,0a26.13,26.13,0,0,1,3.91,4.91,21,21,0,0,0,3.08,3,13.86,13.86,0,0,0,.71,2.32c4,7.89,3.59,16.27,2.75,24.68-.42,4.2-.28,8.41-.35,12.61-.08,4.94-1.31,9.28-5.25,12.66-2.16,1.86-2,2-.06,4,1,1.06,2.2,2,3.17,3.16a11.93,11.93,0,0,1,3,7.78c.21,11.67-1.13,23.29-1,35a20.21,20.21,0,0,1-2.07,8.63c-3.07,6.63-8.57,9.94-15.77,10.4a65.94,65.94,0,0,1-10.12-.52c-4.72-.41-9.46-.36-14.19-.87-6.05-.66-6.15-1.89-8.22-7.53A28,28,0,0,1,31.23,312"/><path class="cls-1" d="M333.45,199.94c3.85,1.74,6.11,5.14,8.56,8.32a3.41,3.41,0,0,1,.17,3.14,12.49,12.49,0,0,0-.73,4c-2.19,2.82-2,6.31-2.67,9.56a5.8,5.8,0,0,0-1.42,4.34,3.19,3.19,0,0,0-1.39,3.51c-1.19,1.24-1.26,2.81-1.32,4.39a5.28,5.28,0,0,0-1.1,4.19c-1.08.92-.82,2.2-.9,3.39-1.37,1.13-.9,2.72-1,4.16a8.76,8.76,0,0,0-1.18,3.79,5.71,5.71,0,0,0-1.12,3.78c-1.06,1.14-.95,2.68-1.36,4s-1.2,2.79-1,4.37c-.85,1.09-.74,2.41-.89,3.67a4.87,4.87,0,0,0-.65,4.25L327.1,277a4.29,4.29,0,0,0,1.39,3.94,13.27,13.27,0,0,0,1.5,4.4,9.16,9.16,0,0,0,1.43,4.14c.44,1.28.68,2.66,1.82,3.59-.19,1.81.61,3.36,1.33,4.93.88,1,.44,2.63,1.79,3.35.81,5.5,3.09,10.59,4.58,15.91s3.18,10.88,4.66,16.35c.79,2.93.6,3.16-2.15,3.19-4.74,0-9.47,0-14.21-.08a3.08,3.08,0,0,1-2.32-.54c-2.88-3-6.42-5.4-8.32-9.27,5.68.11,11.37.19,17,.34,2.64.07,3-.16,2.2-2.65-1.39-4.53-2.79-9.06-4.45-13.49-5.62-15.06-11.59-30-16.56-45.32-.64-2-1.22-3.86-.68-5.92,1-3.91,2-7.81,3-11.72,3.33-13.26,8.39-26,12.22-39.09A42.73,42.73,0,0,0,333.45,199.94Z"/><path class="cls-2" d="M26,0,26,.07Z"/><path class="cls-3" d="M129.07,359.48c1.41-3.22,2.69-6.51,4.27-9.64s4.28-3.22,6.71-.65Q134.2,363.08,128.36,377a12.35,12.35,0,0,0-1,3.45c-.15,1.65.49,2.69,2.39,1.72,5.21-2.81,7.77-7.68,9.93-12.82,1.65-3.92,3.53-7.61,7.26-10,3.25-2.08,6-2,8.69.76,1.71,1.78,3.2,1.43,5.08.65,1-.43,2.5-1.88,3.15.55-2.35,5.54-4.73,11.06-7,16.63a8.73,8.73,0,0,0-.82,3.47c0,1.23.55,2.54,2.28,1.36,3.39-1.47,5.33-4.42,7.23-7.32,3.18-4.83,5.69-10,8.49-15.09,1.85-3.35,3.83-3.23,6.3.08a89.24,89.24,0,0,0-.77,17.21,7.85,7.85,0,0,0,.23,2.77c.81,1.75,1.51.72,2.1-.29,4.21-3.81,6.42-9,9.12-13.78,1-1.76,1.85-3.62,3-5.32,2.14-3.26,3.29-3.27,6.22-.27a22.68,22.68,0,0,0-.5,6q-.07,6.61,0,13.23c0,1.74.48,2.71,1.92.68,3.22-2.47,4.91-6,6.38-9.6,1.27-3.11,2.22-6.37,4-9.24,1.58-2.56,4.15-2.63,6.57-.34-1.72,4.07-3.5,8.13-5.14,12.24q-1.56,3.92-2.78,8c-.48,1.62.1,2.67,2.07,2.19,4.8-2.74,7.59-7.11,9.36-12.13a22.17,22.17,0,0,1,6.35-9.18,10.12,10.12,0,0,1,4.59-2.41c4-.93,7.2,0,9.23,3.8,0,.93,0,1.85,0,2.78-.17,4.72-1,5.63-5.71,6.15-1.29-.38-1.6-1.22-1.25-2.48.25-.89.34-1.83.5-2.74.5-2.14.18-2.69-1.38-2.35a4.87,4.87,0,0,0-2.94,2A31,31,0,0,0,226.17,380a3.21,3.21,0,0,0,1.1,3.26c2,2.55,4.55,1.81,7,1,4.08-1.29,6.55-4.6,9.09-7.72,3.18-3.9,4.8-8.71,7.42-12.94.14-.23.24-.49.37-.72,2.28-4.2,3.34-4.29,6.65-.57-1.08,6.88-.3,13.73-.29,20.72a3.41,3.41,0,0,0,2.37-1.66c1.71-1.57,2.71-3.63,4-5.52,1.16-1.73,1.69-1.61,3.46.46a18.81,18.81,0,0,1-.84,1.82c-5.57,9.06-10.84,13.44-20.78,10.55a5.07,5.07,0,0,1-2.52-2.52c.58-.77.68-2,1.91-2.14.53.1,1.06.19,1.58.31,3.5.78,4.83,0,5.05-3.49.12-1.95.63-4-.5-5.89,0-1.28,1.11-2.5.09-4-2.2,1-2.59,3.33-3.6,5.07-5,8.69-11.76,14.3-22.55,12.77l.05,0c-.24-.68-.83-.8-1.42-.89a9.34,9.34,0,0,1-2.82-2.56c0-.91.36-2.06-.57-2.57-1.09-.6-1.66.56-2.2,1.22A12.24,12.24,0,0,1,208,388.65a8.16,8.16,0,0,1-2.63-1.91c-.49-.95-.18-2.19-1.33-3.28-4.56,4.69-10.09,5.8-16.27,3.77L185.92,386a3.14,3.14,0,0,1,1.14-2.91c.66,0,1.32,0,2,.08,3.85.21,4.76-.55,5-4.27a15.73,15.73,0,0,0-.23-4.74c.18-1.53.69-3.09,0-4.57-1.55-.08-1.62,1.11-2.07,1.84-1.56,2.52-3,5.15-4.61,7.62-4.52,6.8-10.4,10.55-18.91,8.08a4.59,4.59,0,0,1-2.56-1.82c-.09-1.66,1-2.41,2.28-3.08,4.65,1.42,5.85.63,6-4.08.05-1.85-.12-3.71-.19-5.57.16-1.17.68-2.35-.15-3.58-.86.26-1.17,1-1.56,1.69a74.94,74.94,0,0,1-6.72,10.51c-3.09,3.78-6.68,6.67-12,6.12l-2.7-1.49c-.33-1.79-1.17-2.5-2.71-1.11a8.66,8.66,0,0,1-7.5,2.18c-1.13-.73-2.51-1.17-3.13-2.54-.08-1,.23-2.14-.72-3.39-2,1.34-3.39,3.37-5.51,4.53-2.46,1.36-5,.84-7.47.7l-1.79-1.73c0-.92.32-2.08-.58-2.62s-1.66.5-2.31,1.09c-5.26,4.71-11.22,6.72-18.22,4.83a9.11,9.11,0,0,1-4.67-10c.86-5.33.11-9.17-4.93-12.46-6.17-4-4.8-15,1-20,1.14-1,2.14-1.09,3.09.14.49.64.87,1.37,1.29,2-.21,1.27-1.25,2-2,3-3,4.08-3,6.42,0,10.86a11.79,11.79,0,0,0,1.5,1.34c1.93,1.22,2.85,1.08,3.8-1.05,1.33-3,2.86-5.79,4.39-8.64,2.15-4,5.41-7.13,8.71-10,5.2-4.47,12-2.32,15.12,4.16a19.74,19.74,0,0,1-2.82,11.67c-4.28,6.62-10.15,10.76-18.27,11.17-1.32.07-2.91-.24-3.71,1.14a11,11,0,0,0-1.28,6.27c.1,1.82-.6,3.9,1.53,5.11,1,1.19,2.31,1.18,3.67,1.22,4.36.16,7.64-2.06,10.8-4.69,5.75-4.79,8.39-11.31,10.3-18.25A1.52,1.52,0,0,0,129.07,359.48Zm15.43,22.09c1.46.4,2.48-.29,3.58-1.2,2.75-2.27,3.57-5.58,4.92-8.59.91-2,1.92-4.16,1.33-6.56a1.54,1.54,0,0,0-1-1.59,3.38,3.38,0,0,0-3.71,1,27.06,27.06,0,0,0-6.7,14.52A1.89,1.89,0,0,0,144.5,381.57Zm-36.7-16.71c8.61-1.48,13.88-7.83,13.19-15.9-1.69-2.27-2.72-2.54-5.17-.68-5,3.82-7.73,9.28-9.95,15C105.31,364.66,106,365.75,107.8,364.86Z"/><path class="cls-3" d="M333.45,199.94a42.73,42.73,0,0,1-2,9.09c-3.83,13.11-8.89,25.83-12.22,39.09-1,3.91-2,7.81-3,11.72-.54,2.06,0,4,.68,5.92,5,15.31,10.94,30.26,16.56,45.32,1.66,4.43,3.06,9,4.45,13.49.77,2.49.44,2.72-2.2,2.65-5.68-.15-11.37-.23-17-.34-1-.46-1.13-1.37-1.44-2.28-1.75-5.19-3.57-10.36-5.35-15.55a8.42,8.42,0,0,0-1.62-3.18,16.08,16.08,0,0,0-1.38-6.3q-3.69-9.68-7.41-19.33c-.27-.69-.29-1.68-1.76-1.72,0,3.36-.05,6.71,0,10.07.23,11.51,1.13,23,1,34.52,0,2.92-.07,3-3,2.91-5.81-.14-11.63-.35-17.44-.53-.85-1.07-.58-2.33-.58-3.52,0-14.35-.81-28.67-1.15-43-.27-11.37-.32-22.73-.28-34.09,0-8.9.33-17.81.48-26.71,0-1.48-.09-3-.14-4.46.56-3.88.19-7.79.35-11.68s.51-4.42,4.49-4.3c5.76.17,11.58-.53,17.27,1-.16,15.39-1.67,30.77-.51,46.21,1.35-3.44,2.27-6.92,3.26-10.39,1-3.64,2.09-7.27,3.21-10.89,1.52-4.9,3.47-9.7,3.4-15,2.13-2,2.42-4.71,3.09-7.27.43-1.64,1.22-2.78,3-2.76A100.12,100.12,0,0,1,333.45,199.94Zm1.37,124.65a9.94,9.94,0,0,0-.19-1.81c-2.3-6.95-4.33-14-7-20.8-4.77-12.12-9.55-24.21-13.58-36.6a10.59,10.59,0,0,1,0-7.09c1.18-3.46,2.22-7,3.07-10.54a246.22,246.22,0,0,1,7-24.11c2.18-6.27,4.05-12.66,5.94-19,.71-2.39.25-2.93-2.21-3-3.12-.13-6.24-.07-9.36-.19a2.7,2.7,0,0,0-3.13,2.4c-.81,3.29-1.78,6.54-2.83,9.76-3.41,10.42-7,20.79-9.68,31.44-.49,2-1,3.94-1.49,5.9-.36,1.32-1.09,2.19-2.63,1.88s-1.17-1.59-1.23-2.6c-.67-13.28-.09-26.56.35-39.83.08-2.42.53-4.84.54-7.29,0-1.75-.74-2.42-2.44-2.42-3.8,0-7.6,0-11.39-.17-2.05-.07-2.48,1-2.54,2.74-.18,4.87-.62,9.74-.7,14.62-.36,24.13-1,48.26-.3,72.4.3,10,.59,20.06.93,30.09.1,3.07.31,3.29,3.22,3.39,3.39.12,6.79.16,10.18.16,3,0,3,0,3.12-2.84,0-.41,0-.82,0-1.22-.42-11.65-.88-23.3-1.26-35-.14-4.2-.13-8.41-.17-12.61,0-.85.09-1.7,1.12-1.87s2-.16,2.44.92a23.8,23.8,0,0,1,1,2.66c2.81,9.22,6.27,18.19,9.73,27.17,2.58,6.7,4.9,13.5,7.36,20.24.5,1.37.71,3.16,2.63,3.2C325.77,324.66,330.22,324.59,334.82,324.59Z"/><path class="cls-3" d="M215.38,211.37c.4-4-.26-8.1.49-12.11.61-3.31.64-3.41,3.75-3.34,13.08.29,26.15.65,39.22,1a3.09,3.09,0,0,1,2.81,1.26c-.13,5.13-.22,10.27-.42,15.4-.11,2.84-.19,2.79-3,2.74-6.08-.13-12.16-.18-18.24-.32-1.83,0-3,.24-3.17,2.53-.7,9.31-.43,18.63-.67,27.94-.05,1.66.59,2.55,2.33,2.5,2.29-.05,4.58-.07,6.88-.11,4,.29,8.11.21,12.09,1.15,0,5.15,0,10.3,0,15.45,0,3.32-.05,3.38-3.34,3.31q-7.71-.18-15.43-.51c-1.92-.08-2.66.68-2.63,2.6q.18,15.66.23,31.31c0,2.08,1,3,2.95,3,2.3,0,4.6-.05,6.9-.08,3.88.09,7.76.17,11.64.29,1.14,0,2.5-.38,3.1,1.16.19,5.26.43,10.52.53,15.78.06,2.7-.06,2.8-2.67,2.73-4.32-.1-8.63-.43-12.94-.51-9.86-.2-19.71-.31-29.57-.46-1.18-1.86-.67-4-.69-5.93-.24-31.11-.57-62.22-.07-93.33A124.4,124.4,0,0,0,215.38,211.37Zm1.93,48.42h.31q0,29.31,0,58.6c0,3.66.16,3.78,3.56,3.85,11.8.22,23.6.37,35.4.62,1.79,0,2.48-.62,2.42-2.33-.09-3.12-.11-6.24-.22-9.36-.12-3.55-.21-3.67-3.7-3.75-5.7-.12-11.4-.14-17.09-.26-3.66-.07-3.67-.12-3.72-3.93-.09-6.78-.14-13.56-.26-20.34q-.1-6.92-.38-13.82c-.08-2,.57-3.06,2.78-2.87,1.75.15,3.53.05,5.29.11,3.52.12,7,.38,10.56.39,2.79,0,2.91-.19,3-3.08.07-2.71,0-5.43,0-8.14,0-3.67-.22-3.94-3.85-4.09-4.47-.17-8.95-.16-13.43-.24-4-.07-4.6-.54-4.32-4.35.72-9.62.25-19.25.62-28.87.16-4.13.09-4.13,4.36-4.07,5.7.07,11.4.1,17.09.25,2.06.06,2.95-.68,2.92-2.79,0-2.85.19-5.69.2-8.54s-.19-3.08-2.94-3.2q-16.86-.71-33.73-1.24c-3.52-.11-3.57,0-3.65,3.69Q217.91,230.91,217.31,259.79Z"/><path class="cls-3" d="M152.67,209.68c.26-4.31.51-8.61.79-12.92.17-2.63.58-3.34,3.13-3,9.28,1.15,18.64,0,27.91,1.17,3.2.4,6.48.12,9.73.25,1.3,0,2.73-.41,3.85.7,0,5.27,0,10.54-.12,15.8,0,2.86-.1,2.92-3,2.91-5.81,0-11.61-.16-17.42-.18-3.14,0-3.07.07-3.43,3.07-.91,7.65-.57,15.36-1.16,23-.56,7.27-1,6.72,6.52,6.78.81,0,1.61-.11,2.41-.17,2.91.1,5.81.19,8.71.31,1.3.05,2.72-.15,3.42,1.39-.08,5-.15,10-.26,15-.08,3.32-.17,3.46-3.47,3.39-4.87-.1-9.74,0-14.61-.46-3-.3-3.58.17-3.62,2.86-.13,10.56-.15,21.12-.25,31.68,0,1.67.55,2.52,2.32,2.49,2.3,0,4.6,0,6.9.08,3.68.74,7.41.18,11.11.39,1.42.09,3-.33,4.15.88,0,5.12.1,10.25.09,15.37,0,2.89-.06,3-2.87,2.93-6.74-.12-13.47-.39-20.21-.51-7.28-.13-14.56-.15-21.84-.22-.85-1.22-.51-2.61-.54-3.94-.46-19.07,0-38.14.24-57.2.12-10.82.33-21.64.91-32.44C152.45,222.64,152.9,216.17,152.67,209.68Zm.26,77.13c0,9.9,0,19.79,0,29.69,0,4.18,0,4.15,4.34,4.27,4.88.14,9.76.39,14.64.49q9.75.21,19.52.25c2.86,0,2.93-.12,3-3,0-2.71-.05-5.42-.09-8.13-.05-3.83-.06-3.86-3.77-4q-8.53-.3-17.07-.54c-3.64-.11-3.7-.1-3.7-3.52q0-17.08.12-34.18c0-3.55.09-3.61,3.63-3.53,5,.12,10,.3,15,.56,2.1.1,3-.81,3-2.82,0-3,.1-6,.07-9s-.1-3.18-3.17-3.3c-5-.2-10-.35-15-.54-2.86-.12-3-.16-2.93-3.06.29-10.7.72-21.4,1-32.1,0-1.92.85-2.74,2.72-2.6,1.22.08,2.44.19,3.65.23,5,.12,10,.19,15.05.35,1.87.06,2.76-.7,2.75-2.6,0-3.26,0-6.52.13-9.77.08-2-.77-2.57-2.64-2.6-11.38-.24-22.76-.58-34.15-.83-3-.06-3.14,0-3.17,3.23-.13,14.1-1.14,28.17-1.69,42.25C153.62,257,153.12,271.89,152.93,286.81Z"/><path class="cls-1" d="M117.45,193.47c3.17,2.12,5.43,5.18,8.18,7.74a3.71,3.71,0,0,1,.91,3c0,1.62.06,3.23.09,4.85-1,4-.68,8.07-1,12.11-.81,10.28-.3,20.6-1,30.85-.63,9.89-.5,19.77-.58,29.65-.06,6.9-1.3,13.76-.68,20.68-2.32.75-4.56-.44-6.85-.26-1.8.15-2.24-.9-2.32-2.52-.15-3.13.44-6.21.51-9.33q.59-27,1.18-54.1c0-.82,0-1.63.06-2.44C117.11,220.31,117.45,206.89,117.45,193.47Z"/><path class="cls-3" d="M117.45,193.47c0,13.42-.34,26.84-1.46,40.22-.07.81,0,1.62-.06,2.44q-.6,27-1.18,54.1c-.07,3.12-.66,6.2-.51,9.33.08,1.62.52,2.67,2.32,2.52,2.29-.18,4.53,1,6.85.26,3.29.59,6.63.25,10,.46,1.29.08,2.73-.23,3.5,1.29q-.09,7.29-.2,14.59c0,3.3-.06,3.3-3.37,3.35-13.38.18-26.74-.58-40.1-1.16a4.22,4.22,0,0,1-.65-3.09c.31-12.3.62-24.59,1.33-36.88.45-8,.07-16,.31-23.95.41-13.37,1-26.74,1.5-40.11.1-2.7,0-5.41,0-8.12.06-4.17.09-8.35.22-12.52.1-3.14.43-3.48,3.55-3.49,5.13,0,10.25,0,15.37.09C115.74,192.8,116.71,192.69,117.45,193.47ZM121.68,320v0c3.11.16,6.22.38,9.33.45,3.38.08,3.65-.25,3.65-3.74,0-2.29,0-4.59,0-6.89,0-4.22-.31-4.61-4.61-4.73-5-.14-10-.13-15-.26-3.09-.08-3.14-.14-3-3.29.24-6.63.81-13.27.76-19.9-.1-16,.79-32,1-48,.05-3.39.19-6.77.4-10.15.5-8.25.77-16.51,1-24.77.09-2.95,0-3.1-3.19-3.37-3.37-.29-6.77-.33-10.15-.35-3,0-3,.06-3.23,3.21-1,12-.64,24.08-1.28,36.11-.87,16.24-.89,32.51-1.28,48.77-.06,2.3-.2,4.6-.29,6.9-.33,8.66-.69,17.33-.95,26-.09,2.85.1,2.95,2.95,3.07Q109.7,319.54,121.68,320Z"/><path class="cls-1" d="M246.13,305c-2.3,0-4.6.07-6.9.08-2,0-2.94-.89-2.95-3q-.06-15.64-.23-31.31c0-1.92.71-2.68,2.63-2.6q7.71.33,15.43.51c3.29.07,3.32,0,3.34-3.31,0-5.15,0-10.3,0-15.45,3.37,1.89,5.43,5.17,8.21,7.68.9.81.84,1.94.84,3,0,4.86.08,9.73,0,14.6,0,2.71-.25,2.91-3.14,2.93-5,0-10-.1-15-.07-2.83,0-2.94.18-3,3C245.11,289.11,245.85,297.06,246.13,305Z"/><path class="cls-1" d="M181.06,303.87c-2.3,0-4.6-.11-6.9-.08-1.77,0-2.34-.82-2.32-2.49.1-10.56.12-21.12.25-31.68,0-2.69.59-3.16,3.62-2.86,4.87.47,9.74.36,14.61.46,3.3.07,3.39-.07,3.47-3.39.11-5,.18-10,.26-15,2.87,1.87,4.9,4.63,7.34,7a3.9,3.9,0,0,1,1.06,3c.06,5-.25,10,.17,15,.15,1.87-.79,3-3,2.9-4.87-.13-9.75-.1-14.62-.1-3.85,0-3.91,0-3.94,3.77C181.06,288.16,181.07,296,181.06,303.87Z"/><path class="cls-1" d="M245.39,248.82c-2.3,0-4.59.06-6.88.11-1.74,0-2.38-.84-2.33-2.5.24-9.31,0-18.63.67-27.94.17-2.29,1.34-2.57,3.17-2.53,6.08.14,12.16.19,18.24.32,2.78.05,2.86.1,3-2.74.2-5.13.29-10.27.42-15.4,3.91,1.75,5.69,5.66,8.54,8.47.59.59.33,1.55.1,2.35a8,8,0,0,0-.05,4c-.65,2.66-.33,5.37-.38,8.06-.09,5-.06,4.92-5.21,5-4.18,0-8.31-.94-12.5-.64-.67,0-1.35,0-2,0-4.48,0-4.64.12-4.68,4.44C245.38,236.14,245.4,242.48,245.39,248.82Z"/><path class="cls-1" d="M181.92,247.11c-.8.06-1.6.18-2.41.17-7.56-.06-7.08.49-6.52-6.78.59-7.68.25-15.39,1.16-23,.36-3,.29-3.08,3.43-3.07,5.81,0,11.61.16,17.42.18,2.86,0,2.92,0,3-2.91.08-5.26.09-10.53.12-15.8,5,4,10.25,7.73,9.08,15.32-1.36,3-.61,6.16-.79,9.24-.2,3.59-.2,3.51-3.67,3.42-5.83-.15-11.67-.08-17.5-.15-1.66,0-2.31.58-2.57,2.31C181.6,233,182,240.07,181.92,247.11Z"/><path class="cls-1" d="M151.49,322.71c7.28.07,14.56.09,21.84.22,6.74.12,13.47.39,20.21.51,2.81.06,2.87,0,2.87-2.93,0-5.12,0-10.25-.09-15.37,3.42,1.78,5.93,4.56,8.31,7.5a3.68,3.68,0,0,1,.91,2.6c-.29,4.74.52,9.42.73,14.13.15,3.36-1.49,4.31-4.07,4-9.83-1.1-19.7-.44-29.55-.63-3.65-.07-7.24-.8-10.89-.74a3.22,3.22,0,0,1-2.54-1C156.65,328.22,153.62,325.89,151.49,322.71Z"/><path class="cls-1" d="M216.22,324c9.86.15,19.71.26,29.57.46,4.31.08,8.62.41,12.94.51,2.61.07,2.73,0,2.67-2.73-.1-5.26-.34-10.52-.53-15.78,3.88,1.89,6.2,5.52,9.19,8.39.61.57.48,1.52.48,2.33,0,4.87.12,9.74.07,14.61,0,2.53-.72,3.12-3.18,2.94-7.83-.6-15.68-.34-23.52-.36-5.68,0-11.32-.74-17-.73a3.63,3.63,0,0,1-3.23-1.32,33,33,0,0,0-6.57-6.57A2.33,2.33,0,0,1,216.22,324Z"/><path class="cls-1" d="M93.19,320.87c13.36.58,26.72,1.34,40.1,1.16,3.31,0,3.32,0,3.37-3.35q.12-7.31.2-14.59c3.23,2.07,5.53,5.16,8.29,7.73a3.3,3.3,0,0,1,.88,2.62c0,4.88-.08,9.76,0,14.65,0,2.13-.86,2.88-2.91,2.8-5.81-.21-11.62-.09-17.45-.55-6.74-.53-13.55-.28-20.34-.24a5.84,5.84,0,0,1-5-2C98,326.29,94.67,324.38,93.19,320.87Z"/><path class="cls-1" d="M280.29,325.49c5.81.18,11.63.39,17.44.53,2.89.06,2.94,0,3-2.91.09-11.52-.81-23-1-34.52-.06-3.36,0-6.71,0-10.07,1.47,0,1.49,1,1.76,1.72q3.74,9.66,7.41,19.33a16.08,16.08,0,0,1,1.38,6.3c-1,5.49-.29,11-.38,16.56-.06,3.76-.06,7.52-.06,11.28,0,1.51-.68,2.14-2.2,2.22-5.81.28-11.57-.68-17.37-.74a2.26,2.26,0,0,1-1.49-.53C285.84,331.65,282.25,329.31,280.29,325.49Z"/><path class="cls-1" d="M129.07,359.48a1.52,1.52,0,0,1-.88,1.34c-1.8.22-2.86,1.55-3.86,2.79-2.64,3.26-6.16,5.19-9.78,7.09-2.16,1.14-4.51.77-6.74,1.28-3.17.72-3.83,1.28-4.18,4.47-.22,2-.15,4.06-.21,6.09-2.13-1.21-1.43-3.29-1.53-5.11a11,11,0,0,1,1.28-6.27c.8-1.38,2.39-1.07,3.71-1.14,8.12-.41,14-4.55,18.27-11.17A19.74,19.74,0,0,0,128,347.18c1.6,1.05,1.69,2.61,1.42,4.27-.3,1.84-.54,3.7-1,5.5A2.39,2.39,0,0,0,129.07,359.48Z"/><path class="cls-1" d="M187.06,383.1a3.14,3.14,0,0,0-1.14,2.91,6.74,6.74,0,0,0-3.69,1.37c-3.29,2.89-7.24,2.19-11.06,2.09a3.22,3.22,0,0,1-3-2.33c8.51,2.47,14.39-1.28,18.91-8.08,1.64-2.47,3-5.1,4.61-7.62.45-.73.52-1.92,2.07-1.84.72,1.48.21,3,0,4.58a2,2,0,0,0-1.69.91C190.71,377.93,188.27,380.12,187.06,383.1Z"/><path class="cls-1" d="M129.71,382.15c-1.9,1-2.54-.07-2.39-1.72a12.35,12.35,0,0,1,1-3.45q5.82-13.91,11.69-27.79c1.59.81.94,2,.52,3.13-1.7,4.4-3.4,8.8-5.18,13.17s-3.63,8.71-5.46,13.06A6.88,6.88,0,0,0,129.71,382.15Z"/><path class="cls-1" d="M225.13,388.77c10.79,1.53,17.52-4.08,22.55-12.77,1-1.74,1.4-4,3.6-5.07,1,1.54-.13,2.76-.09,4a28.13,28.13,0,0,0-6.13,9.07c-1.23.18-1.33,1.37-1.91,2.14a4.45,4.45,0,0,0-2.19.95c-3.79,3.65-8.53,3.48-13.27,3.27A2.64,2.64,0,0,1,225.13,388.77Z"/><path class="cls-1" d="M167.93,382.24c-1.23.67-2.37,1.42-2.28,3.08a7.53,7.53,0,0,0-3.08,1.72,10.77,10.77,0,0,1-7.6,1.74,1.81,1.81,0,0,1-1.67-1.45c5.32.55,8.91-2.34,12-6.12A74.94,74.94,0,0,0,172,370.7c.39-.68.7-1.43,1.56-1.69.83,1.23.31,2.41.15,3.58A32,32,0,0,0,167.93,382.24Z"/><path class="cls-1" d="M245.67,388.7c9.94,2.89,15.21-1.49,20.78-10.55a18.81,18.81,0,0,0,.84-1.82c1.29.25,1.49,1.06,1,2.1-2.39,5-5.63,9.31-10.68,11.85C253.63,392.28,248.36,391.43,245.67,388.7Z"/><path class="cls-1" d="M100.66,387.78c7,1.89,13-.12,18.22-4.83.65-.59,1.26-1.73,2.31-1.09s.54,1.7.58,2.62c-3.1,1.24-5.58,3.55-8.68,4.85-3.25,1.37-6.53,1.13-9.83.65A2.88,2.88,0,0,1,100.66,387.78Z"/><path class="cls-1" d="M212.67,383.86c-2,.48-2.55-.57-2.07-2.19q1.22-4.05,2.78-8c1.64-4.11,3.42-8.17,5.14-12.24,1.38.5,1.32,1.41.83,2.56-1.3,3.07-2.61,6.13-3.76,9.26C214.31,376.72,212.27,380,212.67,383.86Z"/><path class="cls-3" d="M217.66,357c-2.43-.46-2.69-2.42-2.61-4.27a2.84,2.84,0,0,1,2.48-2.74c2.09-.32,3.66.37,4.34,2.52C221.41,356,221.41,356,217.66,357Z"/><path class="cls-1" d="M158.26,382.76c-1.73,1.18-2.25-.13-2.28-1.36a8.73,8.73,0,0,1,.82-3.47c2.29-5.57,4.67-11.09,7-16.63,1.43,1.05,1,2.48.44,3.65-2,4-3.28,8.28-5.19,12.3A8.64,8.64,0,0,0,158.26,382.76Z"/><path class="cls-1" d="M187.79,387.23c6.18,2,11.71.92,16.27-3.77,1.15,1.09.84,2.33,1.33,3.28a13.44,13.44,0,0,0-3,1.07,15,15,0,0,1-11.91,1.8C189.05,389.29,187.91,388.91,187.79,387.23Z"/><path class="cls-1" d="M227.27,383.24a3.21,3.21,0,0,1-1.1-3.26,31,31,0,0,1,5.23-12.64,4.87,4.87,0,0,1,2.94-2c1.56-.34,1.88.21,1.38,2.35a3,3,0,0,0-3,1.48,24.1,24.1,0,0,0-4.55,9.76C227.84,380.34,227.56,381.79,227.27,383.24Z"/><path class="cls-1" d="M181.84,380.12c-.59,1-1.29,2-2.1.29a7.85,7.85,0,0,1-.23-2.77,89.24,89.24,0,0,1,.77-17.21c2.43.94,1.53,3.08,1.22,4.53-.84,3.89-.35,7.79-.52,11.68A6.24,6.24,0,0,0,181.84,380.12Z"/><path class="cls-1" d="M201.57,380.64c-1.44,2-1.9,1.06-1.92-.68q-.08-6.61,0-13.23a22.68,22.68,0,0,1,.5-6c1.79.46,1.13,1.92,1.14,3,.05,4.17-.05,8.33,0,12.49C201.26,377.7,201.46,379.17,201.57,380.64Z"/><path class="cls-1" d="M208,388.65A12.24,12.24,0,0,0,218.17,384c.54-.66,1.11-1.82,2.2-1.22.93.51.6,1.66.57,2.57-1.73.32-2.74,1.68-3.91,2.77-2.17,2-4.78,2.29-7.53,2.13C208.51,390.2,208.12,389.55,208,388.65Z"/><path class="cls-1" d="M123.56,386.21c2.52.14,5,.66,7.47-.7,2.12-1.16,3.54-3.19,5.51-4.53,1,1.25.64,2.35.72,3.39-1.91.46-3.22,1.92-4.84,2.86C128.78,389.34,126,389,123.56,386.21Z"/><path class="cls-1" d="M259.86,381.39a3.41,3.41,0,0,1-2.37,1.66c0-7-.79-13.84.29-20.72,1.07.1,1.25.86,1.22,1.72a54.91,54.91,0,0,1-.38,6.39C258,374.16,258.1,377.89,259.86,381.39Z"/><path class="cls-1" d="M94.45,361.34c-2.94-4.44-2.94-6.78,0-10.86.7-1,1.74-1.68,2-3,1.75.42,1.79,2,1,2.72C94,353.38,94.42,357.38,94.45,361.34Z"/><path class="cls-1" d="M236.47,372.87c4.69-.52,5.54-1.43,5.71-6.15,0-.93,0-1.85,0-2.78,2.25,1.18,1.33,3.28,1.35,5a6.39,6.39,0,0,1-1.46,4.47C240.94,374.71,238.43,374.38,236.47,372.87Z"/><path class="cls-1" d="M140.39,386.91a8.66,8.66,0,0,0,7.5-2.18c1.54-1.39,2.38-.68,2.71,1.11-2.39,1.75-4.9,3.12-8,2.84C141.38,388.58,140.51,388.26,140.39,386.91Z"/><path class="cls-1" d="M217.66,357c3.75-1,3.75-1,4.21-4.49,1.71,1.75,1.83,3.61.33,4.94S219.25,358.74,217.66,357Z"/><path class="cls-1" d="M223.76,387.92c.59.09,1.18.21,1.42.89C224.51,388.82,223.93,388.69,223.76,387.92Z"/><path class="cls-4" d="M34.36,197.5c.15-3.31.18-3.42,3.49-3.44,5.82,0,11.64.06,17.46,0,3.49,0,6.49,1.73,9.72,2.6l1.25.83,0,0a3.61,3.61,0,0,0,1.66,1.64h0a3.55,3.55,0,0,0,1.63,1.66l0,0c3.23,6.36,3.63,13.15,3.55,20.16-.08,6.77-1,13.49-.9,20.26a10.61,10.61,0,0,1-3.52,7.93c-1.86,1.85-4.15,2.94-6.66,4.36,1.5.91,2.74,1.7,4,2.42,5.21,3,7.69,7.38,7.3,13.44-.24,3.78-.17,7.59-.32,11.38-.3,7.62-.23,15.29-1.1,22.84-.9,7.8-5.85,14.1-15,14.17-8.4.07-16.76-.73-25.13-1.36a13.68,13.68,0,0,1-.48-4.41q.09-12.75.17-25.51m10.45-1c0,4.47,0,8.95,0,13.42,0,1.05-.22,2.5,1.2,2.66,3.33.36,6.61,1.59,10,.58,2.75-.8,3.25-1.36,3.37-4.24.08-2-.12-4.09.16-6.09,1-7.66.73-15.36.62-23-.08-5.51-1.92-7.42-7.29-8.28-1.46-.24-3-.06-4.46-.17-2.12-.17-2.82.79-2.87,2.86C42.45,270.61,41.54,278,41.85,285.48Zm1.43-57c0,4.6,0,9.2,0,13.8,0,1-.38,2.23.89,2.87,2.3,1.17,8.35-.14,10.13-2.08A10.17,10.17,0,0,0,56.88,236q.15-9.74.3-19.48a11.46,11.46,0,0,0-.15-2.42,5.65,5.65,0,0,0-5.63-4.84c-1.49-.08-3,.05-4.47-.05-1.68-.11-2.35.52-2.55,2.26C43.72,217.1,43.71,222.77,43.28,228.45Z"/><path class="cls-3" d="M110.07,178.1c-1.13-1.28-.7-2.85-.63-4.27.57-12.14.72-24.28,1-36.42.09-4,.44-8.07.49-12.11,0-1.25,0-2.7,1.71-2.68,5,.08,10-.59,14.91.67a12.55,12.55,0,0,1,5.38,2.66,1.06,1.06,0,0,0,.93.79l-.06,0c1.84,4.39,1.3,8.89,1.08,13.49-.47,9.71-.5,19.43-1,29.14-.32,5.91-2.82,8.55-8.81,8.66C120.06,178.09,115.07,178.07,110.07,178.1Zm15.37-42.81a2.92,2.92,0,0,0,.26-.77c.09-3-.39-3.53-3-3.67-2.38-.12-2.71.23-2.8,3.23-.3,10.71-.62,21.41-.86,32.12-.08,3.41,0,3.41,3.66,3.35,1.94,0,2-1.4,2.07-2.8,0-2.42-.13-4.87.15-7.27C125.89,151.42,125.55,143.36,125.44,135.29Z"/><path class="cls-3" d="M177.94,127.76a5.29,5.29,0,0,1,5.95-2.9c1.45.2,2.92.19,4.39.28-1.91,6-3.32,12.32-5.85,18.1-2.8,6.4-1.92,12.19.43,18.32,2,5.29,3.55,10.78,5.2,16.2.62,2,.19,2.51-1.88,2.23a23.66,23.66,0,0,0-6.06-.12c-2.31-1.69-2.06-4.71-3.53-6.83a28.38,28.38,0,0,0-3.49-13c-.16,5.59-.66,11.12-.87,16.66-.08,2.08-.75,2.92-2.87,2.78-1.88-.13-3.78,0-5.68,0-.93-1.35-.52-2.89-.56-4.35-.32-11.26,1-22.47.83-33.72a132,132,0,0,1,.66-14.6c.17-1.8.63-2.92,2.59-2.71,2.23.24,4.62-.72,6.69.84v16.58A35.16,35.16,0,0,0,177.94,127.76Z"/><path class="cls-3" d="M196.4,180.53c-1.5-3.53-.77-7.24-.45-10.77s.45-7.29.5-10.93c.09-5.69.11-11.38.14-17.06,0-4.6,1-9.15.71-13.77-.11-2,.93-3.06,2.95-2.9s4.34-.65,6.28.8v17.16c1.86-4.69,4.21-9.22,4-14.46,1.28-2.43,3.34-3.19,6-2.84,1.45.19,2.93.2,4.4.3-2.4,7.58-4.71,15.19-7.22,22.74a12.09,12.09,0,0,0,.05,8.24c2.44,7,4.66,14.09,6.86,21.17.78,2.5.47,2.78-2.11,2.85-1.75,0-3.51.1-5.26.16a3,3,0,0,1-2.16-2.47c-.4-1.36-1-2.66-1.48-4,0-5-1.65-9.45-3.93-13.83-.48,5.22-.31,10.36-.54,15.49-.17,4-.4,4-4.27,4C199.37,180.41,197.89,180.49,196.4,180.53Z"/><path class="cls-3" d="M242.48,148.75c1.58,1.14,3.51.37,5.19,1,0,1.89-.09,3.79-.06,5.68,0,1.52-.58,2.24-2.16,2.17-1.76-.08-3.52,0-5.28-.06-1.25,0-2.08.4-2.11,1.81q-.13,5.88-.28,11.77c0,1.57.78,2.19,2.26,2.14.67,0,1.34-.06,2-.1,1.95.4,4.21-.57,5.83,1.32,0,1.21,0,2.41-.07,3.61-.07,3.9-.08,4-4.09,3.74a109.34,109.34,0,0,0-14.81-.44c-1.14-1.28-.69-2.84-.66-4.27q.42-20.62,1-41.27c.06-2.41.46-4.82.64-7.23.1-1.3.67-2,2-2,5.53.06,11.07.13,16.6.25.33,0,.66.41,1,.63,0,1.74,0,3.49,0,5.23,0,1.48-.56,2.24-2.13,2.18-1.88-.07-3.76,0-5.64-.09s-2.93.58-2.89,2.73a62.1,62.1,0,0,1-.27,8.84c-.25,2.15.58,2.65,2.39,2.53Z"/><path class="cls-3" d="M143.78,178.69c-.61-4.74.76-9.39.6-14.13-.21-6.49.11-13,.1-19.48,0-6.22,1-12.39.86-18.62-.05-2.58.51-3,3.21-3,2.12,0,4.36-.55,6.32.8-.2,3-.5,5.92-.58,8.89-.39,13.91-.72,27.83-1.07,41.75,0,.54-.07,1.08-.05,1.62.06,1.74-.81,2.39-2.49,2.31C148.38,178.73,146.08,178.74,143.78,178.69Z"/><path class="cls-3" d="M31.71,316.37c8.37.63,16.73,1.43,25.13,1.36,9.19-.07,14.14-6.37,15-14.17.87-7.55.8-15.22,1.1-22.84.15-3.79.08-7.6.32-11.38.39-6.06-2.09-10.46-7.3-13.44-1.27-.72-2.51-1.51-4-2.42,2.51-1.42,4.8-2.51,6.66-4.36a10.61,10.61,0,0,0,3.52-7.93c-.15-6.77.82-13.49.9-20.26.08-7-.32-13.8-3.55-20.16a3.39,3.39,0,0,1,2,.13c3.09,5.19,3.55,10.85,3.55,16.76,0,7.87-.85,15.69-.89,23.54A12.34,12.34,0,0,1,69,251.29c-2.59,2-2.65,2.18,0,4.26a16.06,16.06,0,0,1,6.4,15.35c-.49,4.46-.34,8.94-.55,13.4-.29,6.22-.24,12.47-.88,18.66-.93,8.82-6.44,16.32-16.83,16.45a151.37,151.37,0,0,1-23.49-1.61C32.78,317.67,31.66,317.81,31.71,316.37Z"/><path class="cls-1" d="M110.07,178.1c5,0,10,0,15-.09,6-.11,8.49-2.75,8.81-8.66.51-9.71.54-19.43,1-29.14.22-4.6.76-9.1-1.08-13.49,3.59,1.33,4.73,4.53,4.79,7.72.16,9,.45,18.1-.41,27.15-.36,3.76-.2,7.57-.29,11.36-.17,6.48-2.94,9.49-9.4,9.68a79.85,79.85,0,0,1-12.55-.33A6.79,6.79,0,0,1,110.07,178.1Z"/><path class="cls-1" d="M143.78,178.69c2.3.05,4.6,0,6.9.15,1.68.08,2.55-.57,2.49-2.31,0-.54,0-1.08.05-1.62.35-13.92.68-27.84,1.07-41.75.08-3,.38-5.93.58-8.89,2.77,1.38,3.55,3.61,3.49,6.65-.27,15.54-.82,31.07-1.41,46.6,0,.27,0,.54,0,.81.16,5-.13,5.12-4.9,5.21C148.16,183.62,145.8,181.56,143.78,178.69Z"/><path class="cls-1" d="M213.24,181.22c1.75-.06,3.51-.12,5.26-.16,2.58-.07,2.89-.35,2.11-2.85-2.2-7.08-4.42-14.17-6.86-21.17a12.09,12.09,0,0,1-.05-8.24c2.51-7.55,4.82-15.16,7.22-22.74,4.22,3.08,4.29,3.21,2.86,7.9-2.06,6.71-4.07,13.44-6.29,20.1a10.76,10.76,0,0,0,.32,7.09q3.41,10.4,6.66,20.82c.89,2.87.58,3.16-2.5,3.31C218.33,185.46,214.85,185.39,213.24,181.22Z"/><path class="cls-1" d="M180.12,179.87a23.66,23.66,0,0,1,6.06.12c2.07.28,2.5-.21,1.88-2.23-1.65-5.42-3.18-10.91-5.2-16.2-2.35-6.13-3.23-11.92-.43-18.32,2.53-5.78,3.94-12.05,5.85-18.1,3.92,2.91,4.28,3.72,2.51,8.08-1.61,4-2.64,8.13-4.2,12.13a46.76,46.76,0,0,0-2.31,9.7,8.57,8.57,0,0,0,.56,4q3.56,11.19,6.92,22.43c.83,2.81.67,2.77-2.31,3C185.4,184.72,181.87,184.17,180.12,179.87Z"/><path class="cls-1" d="M310.09,208.67c.07,5.26-1.88,10.06-3.4,15-1.12,3.62-2.18,7.25-3.21,10.89-1,3.47-1.91,6.95-3.26,10.39-1.16-15.44.35-30.82.51-46.21C304.66,201.26,307.27,205.06,310.09,208.67Z"/><path class="cls-1" d="M228.92,181.36a109.34,109.34,0,0,1,14.81.44c4,.27,4,.16,4.09-3.74,0-1.2,0-2.4.07-3.61a5.18,5.18,0,0,1,3.76,3.39,16.84,16.84,0,0,1,0,7.24c-.18.95-1.18,1-2,1-5,0-10,0-15-.19C231.74,185.78,230,183.88,228.92,181.36Z"/><path class="cls-1" d="M242.06,173.13c-.68,0-1.35.08-2,.1-1.48.05-2.3-.57-2.26-2.14q.15-5.88.28-11.77c0-1.41.86-1.83,2.11-1.81,1.76,0,3.52,0,5.28.06,1.58.07,2.18-.65,2.16-2.17,0-1.89,0-3.79.06-5.68a5,5,0,0,1,3.38,3.68,23,23,0,0,1-.05,7.22c-.16,1-1.08,1.09-1.9,1.11-1.61,0-3.22,0-4.84,0-1.23,0-2.19.41-2.11,1.8C242.33,166.74,241.31,169.93,242.06,173.13Z"/><path class="cls-1" d="M242.48,148.75l-1.59.13c-1.81.12-2.64-.38-2.39-2.53a62.1,62.1,0,0,0,.27-8.84c0-2.15.89-2.85,2.89-2.73s3.76,0,5.64.09c1.57.06,2.15-.7,2.13-2.18,0-1.74,0-3.49,0-5.23,4,2.71,5,6,3.33,10.34a1.78,1.78,0,0,1-1.91,1.17c-1.89,0-3.8.06-5.69,0-1.49,0-2.11.6-2.36,2.11A21.18,21.18,0,0,0,242.48,148.75Z"/><path class="cls-1" d="M196.4,180.53c1.49,0,3-.12,4.46-.12,3.87,0,4.1,0,4.27-4,.23-5.13.06-10.27.54-15.49,2.28,4.38,3.91,8.87,3.93,13.83-1.39,1.8-.65,3.9-.76,5.87-.21,3.93-.13,3.94-4.21,4a11.08,11.08,0,0,0-1.63,0C199.69,185,197.59,183.54,196.4,180.53Z"/><path class="cls-1" d="M163.68,179.57c1.9,0,3.8-.18,5.68,0,2.12.14,2.79-.7,2.87-2.78.21-5.54.71-11.07.87-16.66a28.38,28.38,0,0,1,3.49,13c-.66,2.66-.35,5.37-.38,8.06,0,1.88-.76,2.74-2.66,2.61a15.64,15.64,0,0,0-2.82,0A6.21,6.21,0,0,1,163.68,179.57Z"/><path class="cls-1" d="M210.54,128.6c.2,5.24-2.15,9.77-4,14.46V125.9C208.35,126.07,209,128,210.54,128.6Z"/><path class="cls-1" d="M177.94,127.76a35.16,35.16,0,0,1-4.05,13.85V125C175.73,125.21,176.37,127.17,177.94,127.76Z"/><path class="cls-3" d="M67.92,199.15a3.61,3.61,0,0,1-1.66-1.64A1.92,1.92,0,0,1,67.92,199.15Z"/><path class="cls-3" d="M69.54,200.8a3.55,3.55,0,0,1-1.63-1.66A1.9,1.9,0,0,1,69.54,200.8Z"/><path class="cls-1" d="M133.85,126.74a1.06,1.06,0,0,1-.93-.79Z"/><path class="cls-3" d="M66.28,197.53,65,196.7A1.06,1.06,0,0,1,66.28,197.53Z"/><path class="cls-1" d="M121,349a5.07,5.07,0,0,0-4.14,1.16c-4.38,4.06-7.84,8.72-9,14.73-1.85.9-2.49-.19-1.93-1.6,2.22-5.69,4.94-11.15,9.95-15C118.27,346.42,119.3,346.69,121,349Z"/><path class="cls-1" d="M154.33,365.22c-2-.3-3.32.86-4.43,2.29-3.22,4.14-5.4,8.69-5.41,14.06a1.89,1.89,0,0,1-1.57-2.42,27.06,27.06,0,0,1,6.7-14.52,3.38,3.38,0,0,1,3.71-1A1.54,1.54,0,0,1,154.33,365.22Z"/><path class="cls-4" d="M334.82,324.59c-4.6,0-9.05.07-13.5,0-1.92,0-2.13-1.83-2.63-3.2-2.46-6.74-4.78-13.54-7.36-20.24-3.46-9-6.92-17.95-9.73-27.17a23.8,23.8,0,0,0-1-2.66c-.48-1.08-1.47-1.09-2.44-.92s-1.13,1-1.12,1.87c0,4.2,0,8.41.17,12.61.38,11.66.84,23.31,1.26,35,0,.4,0,.81,0,1.22-.11,2.8-.12,2.84-3.12,2.84-3.39,0-6.79,0-10.18-.16-2.91-.1-3.12-.32-3.22-3.39-.34-10-.63-20.06-.93-30.09-.73-24.14-.06-48.27.3-72.4.08-4.88.52-9.75.7-14.62.06-1.77.49-2.81,2.54-2.74,3.79.14,7.59.16,11.39.17,1.7,0,2.44.67,2.44,2.42,0,2.45-.46,4.87-.54,7.29-.44,13.27-1,26.55-.35,39.83.06,1-.34,2.3,1.23,2.6s2.27-.56,2.63-1.88c.52-2,1-3.93,1.49-5.9,2.68-10.65,6.27-21,9.68-31.44,1.05-3.22,2-6.47,2.83-9.76a2.7,2.7,0,0,1,3.13-2.4c3.12.12,6.24.06,9.36.19,2.46.1,2.92.64,2.21,3-1.89,6.36-3.76,12.75-5.94,19a246.22,246.22,0,0,0-7,24.11c-.85,3.56-1.89,7.08-3.07,10.54a10.59,10.59,0,0,0,0,7.09c4,12.39,8.81,24.48,13.58,36.6,2.68,6.8,4.71,13.85,7,20.8A9.94,9.94,0,0,1,334.82,324.59Z"/><path class="cls-4" d="M217.31,259.79q.62-28.88,1.23-57.76c.08-3.66.13-3.8,3.65-3.69q16.86.53,33.73,1.24c2.75.12,2.94.4,2.94,3.2s-.24,5.69-.2,8.54c0,2.11-.86,2.85-2.92,2.79-5.69-.15-11.39-.18-17.09-.25-4.27-.06-4.2-.06-4.36,4.07-.37,9.62.1,19.25-.62,28.87-.28,3.81.31,4.28,4.32,4.35,4.48.08,9,.07,13.43.24,3.63.15,3.81.42,3.85,4.09,0,2.71.06,5.43,0,8.14-.07,2.89-.19,3.09-3,3.08-3.52,0-7-.27-10.56-.39-1.76-.06-3.54,0-5.29-.11-2.21-.19-2.86.84-2.78,2.87q.27,6.9.38,13.82c.12,6.78.17,13.56.26,20.34.05,3.81.06,3.86,3.72,3.93,5.69.12,11.39.14,17.09.26,3.49.08,3.58.2,3.7,3.75.11,3.12.13,6.24.22,9.36.06,1.71-.63,2.37-2.42,2.33-11.8-.25-23.6-.4-35.4-.62-3.4-.07-3.56-.19-3.56-3.85q-.06-29.29,0-58.6Z"/><path class="cls-4" d="M152.93,286.81c.19-14.92.69-29.83,1.27-44.74.55-14.08,1.56-28.15,1.69-42.25,0-3.19.14-3.29,3.17-3.23,11.39.25,22.77.59,34.15.83,1.87,0,2.72.64,2.64,2.6-.13,3.25-.13,6.51-.13,9.77,0,1.9-.88,2.66-2.75,2.6-5-.16-10-.23-15.05-.35-1.21,0-2.43-.15-3.65-.23-1.87-.14-2.67.68-2.72,2.6-.31,10.7-.74,21.4-1,32.1-.08,2.9.07,2.94,2.93,3.06,5,.19,10,.34,15,.54,3.07.12,3.14.18,3.17,3.3s0,6-.07,9c0,2-.93,2.92-3,2.82-5-.26-10-.44-15-.56-3.54-.08-3.61,0-3.63,3.53q-.1,17.1-.12,34.18c0,3.42.06,3.41,3.7,3.52q8.53.24,17.07.54c3.71.13,3.72.16,3.77,4,0,2.71.11,5.42.09,8.13,0,2.88-.1,3-3,3q-9.76,0-19.52-.25c-4.88-.1-9.76-.35-14.64-.49-4.3-.12-4.34-.09-4.34-4.27C152.91,306.6,152.93,296.71,152.93,286.81Z"/><path class="cls-4" d="M121.68,320q-12-.47-24-.94c-2.85-.12-3-.22-2.95-3.07.26-8.66.62-17.33.95-26,.09-2.3.23-4.6.29-6.9.39-16.26.41-32.53,1.28-48.77.64-12,.27-24.1,1.28-36.11.26-3.15.25-3.22,3.23-3.21,3.38,0,6.78.06,10.15.35,3.15.27,3.28.42,3.19,3.37-.25,8.26-.52,16.52-1,24.77-.21,3.38-.35,6.76-.4,10.15-.21,16-1.1,32-1,48,.05,6.63-.52,13.27-.76,19.9-.11,3.15-.06,3.21,3,3.29,5,.13,10,.12,15,.26,4.3.12,4.61.51,4.61,4.73,0,2.3,0,4.6,0,6.89,0,3.49-.27,3.82-3.65,3.74-3.11-.07-6.22-.29-9.33-.45Z"/><path class="cls-1" d="M41.85,285.48c-.31-7.46.6-14.87.77-22.3.05-2.07.75-3,2.87-2.86,1.48.11,3-.07,4.46.17,5.37.86,7.21,2.77,7.29,8.28.11,7.68.42,15.38-.62,23-.28,2-.08,4.06-.16,6.09-.12,2.88-.62,3.44-3.37,4.24-3.42,1-6.7-.22-10-.58-1.42-.16-1.19-1.61-1.2-2.66C41.84,294.43,41.85,290,41.85,285.48Zm9.06,1.06h-.12c0,.95,0,1.89,0,2.84,0,2.83-.05,5.66,0,8.5,0,.79,0,1.68,1,2a2.16,2.16,0,0,0,2.43-1,4.57,4.57,0,0,0,.73-3.08c.17-5.78-.14-11.58.72-17.34a27.22,27.22,0,0,0,0-4c0-1.36-.73-1.9-2-1.94-1.91-.06-2.68.94-2.68,2.73Z"/><path class="cls-3" d="M43.28,228.45c.43-5.68.44-11.35,1.1-17,.2-1.74.87-2.37,2.55-2.26,1.48.1,3,0,4.47.05A5.65,5.65,0,0,1,57,214.06a11.46,11.46,0,0,1,.15,2.42q-.13,9.75-.3,19.48A10.17,10.17,0,0,1,54.32,243c-1.78,1.94-7.83,3.25-10.13,2.08-1.27-.64-.89-1.84-.89-2.87C43.27,237.65,43.28,233.05,43.28,228.45Zm12.35-7.56c.08-1.08.24-2.16.23-3.23,0-5.35-1.42-6.73-6.75-6.73-3.46,0-3.31,0-3.74,3.63-.93,7.85-.37,15.72-.66,23.57-.21,5.64.31,6,6,5.24a5.27,5.27,0,0,0,1.44-.69c2-1,2.65-2.68,3.09-4.87C56.35,232.16,54.57,226.5,55.63,220.89Z"/><path class="cls-1" d="M122.73,169.55c-3.64.06-3.74.06-3.66-3.35.24-10.71.56-21.41.86-32.12.09-3,.42-3.35,2.8-3.23,2.58.14,3.06.72,3,3.67a2.74,2.74,0,0,1-.26.76c-.83-.18-1.17.27-1.42,1a17.45,17.45,0,0,0-.62,5.57Q123.07,155.7,122.73,169.55Z"/><path class="cls-1" d="M52.11,242.68a5.27,5.27,0,0,1-1.44.69c-5.65.77-6.17.4-6-5.24.29-7.85-.27-15.72.66-23.57.43-3.61.28-3.63,3.74-3.63,5.33,0,6.74,1.38,6.75,6.73,0,1.07-.15,2.15-.23,3.22-1.53-.58-2.69-.25-3.12,1.44-.33,1.28-.91,2.53-.55,3.94a25.18,25.18,0,0,1,0,10.41A13.28,13.28,0,0,0,52.11,242.68Z"/><path class="cls-5" d="M191.41,535.19c-.6-.11-1.13-.07-1.24.7-4.74.89-6.24,3.77-5,9.22a26.65,26.65,0,0,1,5-9.28c.4-.23.8-.47,1.17-.73a1.8,1.8,0,0,0,.08-.39c0-.05-.1-.1-.15-.15ZM96.49,496.68c-.07-3-.42-6.17,3.44-7.7-3.29,1-7-.51-9.33,2.64,0,.05-.27-.05-.42-.07l.12.11c2.94.39,4.84,1.83,5,5a11.51,11.51,0,0,1-.91,2.53c-1.34,2.12.57,2.63,1.65,3.47,1.92,1.48,2.9-.66,3.64-1.51,1-1.17-.6-2.06-1.5-2.49S97,497.4,96.49,496.68ZM9.3,394.91l-1.1-.08c-7.53.44-5.46,7.05-8.2,12.1,4-1.89,7.05-.89,10-1.6,3.78-.92,4.62-3.87,4.56-7.08C14.53,394.81,12,394.62,9.3,394.91Zm24.35-17.12c2.25-2.6,2.79-4.51,2.56-6.68-.08-.77-.31-1.62-1.23-1.66s-1.3.72-1.32,1.54C33.62,372.89,33.65,374.79,33.65,377.79Zm-.88,114.26-8.27-3A8.06,8.06,0,0,0,32.77,492.05Zm29,5.32-.59-.86a5.24,5.24,0,0,0-.92.76c0,.05.34.66.44.64A4.89,4.89,0,0,0,61.73,497.37Zm70.72,7.73c.43-.22.82-.59,1.14-.53a1.1,1.1,0,0,1,.61.89c0,.32-.43.62-.67.92ZM101,486.4l-.23.32.33.08ZM196.15,499c.77-2,.77-2,3-.48a2.07,2.07,0,0,0-1.22-3c-5.49-.89-4.69-6.7-4.26-8.56,1.09-4.64-3.12-6.8-3.34-10.58-.34,1-.36,2.63-1.06,3-3.88,2.17-3.2,5.39-2.47,8.76.5,2.31-.69,3.48-2.89,3.83-2.65.43-2.07-1.9-2.32-3.07-2.08-9.83-4-19.7-6.42-29.47,1.44,9.08,2.83,18.17,4.36,27.23.62,3.68-.43,4.61-3.83,3-3-1.48-6.58-1.27-10.33-3.54,1.23,3,2.18,4.26,4.91,4.05a9.9,9.9,0,0,1,10.46,8.48c.27,1.71-.12,3.18-1.6,4-2,1.18-2.76-.85-3.6-1.91-3.16-3.93-3.09-4-5.55,1.11-.63-4.65-4.67-2.94-7.28-3.91a1,1,0,0,0-.3-.8c1-2.3,2.33-5.23.85-7-1.18-1.44-3.59,1.27-5.68,1.43a9.8,9.8,0,0,0-2.53,1c.35-1.23.69-2.47,1-3.71l-.08,0a1.69,1.69,0,0,0,1-2l0,.13c1.29-.72,1.09-1.85.82-3a6.33,6.33,0,0,0,3.44-5.15c-2.11.68-3.91,1-5.21,2.37-2.93-.53-2-3.4-2.91-5.13-1.7.45-.86,2.3-2.1,3.05-1.1-.41-1.28-2.53-3-2.06s-.37,1.75-.47,2.63c-.17,1.55-1,2.83-2.38,3-2.21.31-2.31-2.06-3.32-3.27,1.56-1.89,1.15-3.79.11-5.83.26,3.24-3.82.15-3.9,2.91-.06,1.84-.32,4.19-3,3.53-2.43-.59-5.16-1.37-5.19-4.78,0-2,0-3.92,0-5.88a12.72,12.72,0,0,0-1.69,5.64c-.21,3.37-1.41,2.61-3.32,1.13-2.64-2-4.5-5.26-8.28-5.62-1.31,2.61-.68,6.77-5.36,6.66l-2.79,3.28c-3-4.07-6.54-7.34-12.19-6.68l.1.07c-1.3-3.13-5-3.59-6.88-6.23-1.53-2.1-3.26,1.89-5.35.68-1.22-.7-2.8-1.17-3.58.54-.4.84-1.26,2.11-.36,2.95A4.84,4.84,0,0,0,84,473.05c6.43-.51,7.82,2.07,6.73,8.74C90,486.28,88,490.46,87.87,495l-2-.69c1.57-1.91.56-3.81-.1-5.67-.24-.66-.76-.72-1.46-.33-5.45,3.06-3-1.31-3.11-3.32-.14-2.39,2.54-2.41,3.35-4.12,1.35-2.82-4.6-.4-2.47-3.72a1.76,1.76,0,0,0-1.54-2.36c-1.25.09-3.31.91-3.1,2.13.6,3.53-2.22,6.84-.43,10.34.38.75,1.2,1.77-.22,2.22a2,2,0,0,1-2.41-.9c-.46-.86.21-2.32-1.82-2.7.58,2.21-3.09,3.4-2,4.8,5.69,7,5.27,14,1.4,21.51a7.25,7.25,0,0,0-.15,6.32l-3.78,3.74c-3,2.33-3.92,7.32-9,6.91a33.94,33.94,0,0,1,4.63-9.79c.74-1,2.28-2.08,1.13-3.78a9.23,9.23,0,0,0-.15-1.39c-.71-2.86,3.6-6-.39-8.66-2.65-1.79-4.61-4.39-8.43-4.69-4.93-.39-6.59-4.13-6.28-8.8a20.13,20.13,0,0,0,.18-2.32c-.41-7.67.88-15.42-.8-23-.33,4-.27,8.07-.37,12.09,0,1.33.38,3.43-1.08,3.79-6.2,1.54-3.14,3.14-.35,5.28a2.48,2.48,0,0,1-.24,4.05c-1.17.72-3.28.5-3.8-1.19-1.74-5.63-7.34-9.46-7.32-15.91,0-1.17-.79-2.33-1.1-3.52-.58-2.26-4.83-1.62-4-4.85.72-2.67-.46-5.32-1.49-7.06-2.17-3.64-1.68-7.16-1.62-10.9.08-4.08.56-8.42-.62-12.17-1.63-5.16-.49-9.77.23-14.72.62-4.25,2.86-5.52,6.52-5.37,2.61.11,5.24.16,7.74,1.31a6.9,6.9,0,0,0,7.48-.73,21.07,21.07,0,0,1,4.45-2.49c5.71-2.42,5.73-2.38,1.83-6.84-.94-1.08-1.15-3.28-3.26-2.69-2.36.66-2.12,2.8-2,4.65.17,3.08-1.56,4.51-4.25,5.21-1.21.31-2.51.84-3.65.21-6.47-3.55-12.4-8.43-21.61-7.38,2.58-2.56,4.87-4.27,3.78-6.42-1.31-2.6-3.88.32-5.86-.34-.25-.09-.6.09-.9.16-2.47.6-4,1.4-1.92,4.29a8.31,8.31,0,0,1,1.7,6.21c-3.12-2.47-3.53-6-5.23-8.73-1.44-1.74-3.44-.75-5.17-1.07,1.78-.39,4.08-.35,2.67-3.31l-.08-1.94c1.25-2.47,2.49-4.95,3.74-7.43.7-1.27,3.48-2.07.93-4.09,2.37.5,3.08-1.17,3.32-2.88.81-5.66,4-10.27,6.44-15.21a.49.49,0,0,0,.5-.38c1.66-.57,2.34-2,2.94-3.44v0c3.49-1.34,3.59-5.5,6.44-7.54a52.81,52.81,0,0,1,12.74-7.12c2.24-.82,2.93-2,2.55-4.92-2-15.55-12.55-26.78-19.61-39.75-1.62-3-4-5.57-5.65-8.54-3.44-6.12-7.67-11.39-13.61-15.35a21.21,21.21,0,0,1-8-9.44c-.47-1.13-.89-2.43.25-3.46a2.91,2.91,0,0,1,3.88-.18c11.18,8.24,24.27,13.18,35.78,20.87,12.9,8.61,21.49,20.37,26.58,34.88.81,2.32,1.38,4.78,3.64,7.64.82-5.4,2.19-10.05,2.13-14.69-.21-17.58,7.49-30.39,22-39.85a35.12,35.12,0,0,1,16.83-5.74c8-.63,10.23,3.91,9.63,10.53a354.07,354.07,0,0,1-5.1,37.5c-1.29,6.45-3.57,12.12-8.07,16.95-2.94,3.16-6.09,6.07-8.44,9.85s-2.38,8-4.12,11.52c-3.76,7.68-1.66,14.42,1.16,21.52,2.19,5.53.93,11.53,1.71,17.26.61,4.46,3.25,6.43,7.7,5.82,14.21-2,28.41-3.52,42.74-1.09.51.09,1.13-.43,1.71-.67l1.82,0c8.13,2.05,16,5.05,24.28,6.55a5.77,5.77,0,0,0,3.91.61c6.67,3.68,13.11,7.8,20.48,10.05l1,.77,3.49,2.57L224.29,429l4.51,4.42,1.88.21c3.38,1.86,5.42,5.22,8.4,7.56,1.46,1.14,2.73,1.86,4.51,1.11a2,2,0,0,0,.54,2.18c.11,2.1,1.23,3.44,2.64,5,4.15,4.7,6.57,10.59,9.2,16.2,2,4.23,2.6,9.08,3.83,13.65a5.17,5.17,0,0,0,1.14,3.82c-.86,3.35-2.5,6.67-.46,10.15.21.41.43.82.63,1.23a3.78,3.78,0,0,0-.17.6c-.12.37-.25.74-.37,1.12-1.66,5.64.69,12.92,4.85,16.33,3,2.5,4.65,5.95,3.56,9.93-1.84,6.72-3.74,7.64-9.2,8.45-5.21.78-9.75-2-14.79-1.63-1.87.13-2-.23-3.77,2.56-2.18-2-3.24-4.2-.26-5.84,2.81-1.54,2.69-3.18,1.83-5.64a61.47,61.47,0,0,1-1.51-6.35,20.08,20.08,0,0,0,.33,6.12c.63,4-2.57,6.7-6.47,5.54-3.64-1.08-7.39-3-10.78-3.38-6.2-.7-6.49-4.07-6.6-8.57-.22-9.23,0-18.47-.62-23.27-.64,6.49-.21,17.42-.64,28.35,0,.91-.05,2-1.34,2-1,.05-1.2-.8-1.44-1.54-.55-1.73-1.74-3.12-2-5.1-.29-2.72-1.08-5.24-3.65-7.18-2-1.46-1.89-4.48-2.7-6.81-.95-2.75-1.08-5.79-3.41-8.13.66,2.51,1.18,5.08,2,7.54.92,2.7-.6,3.68-2.66,3.49a35.47,35.47,0,0,1-7.06-1.9c-.61-.19-1-1.14-.54-1.51a7.91,7.91,0,0,1,2.47-.84l.09.54c.05-.09.15-.21.12-.25A1.37,1.37,0,0,0,196.15,499Z"/></g></g></svg>